G04 #@! TF.GenerationSoftware,KiCad,Pcbnew,(6.0.9)*
G04 #@! TF.CreationDate,2022-11-27T16:56:08-03:00*
G04 #@! TF.ProjectId,main,6d61696e-2e6b-4696-9361-645f70636258,rev?*
G04 #@! TF.SameCoordinates,Original*
G04 #@! TF.FileFunction,Soldermask,Top*
G04 #@! TF.FilePolarity,Negative*
%FSLAX46Y46*%
G04 Gerber Fmt 4.6, Leading zero omitted, Abs format (unit mm)*
G04 Created by KiCad (PCBNEW (6.0.9)) date 2022-11-27 16:56:08*
%MOMM*%
%LPD*%
G01*
G04 APERTURE LIST*
G04 Aperture macros list*
%AMRoundRect*
0 Rectangle with rounded corners*
0 $1 Rounding radius*
0 $2 $3 $4 $5 $6 $7 $8 $9 X,Y pos of 4 corners*
0 Add a 4 corners polygon primitive as box body*
4,1,4,$2,$3,$4,$5,$6,$7,$8,$9,$2,$3,0*
0 Add four circle primitives for the rounded corners*
1,1,$1+$1,$2,$3*
1,1,$1+$1,$4,$5*
1,1,$1+$1,$6,$7*
1,1,$1+$1,$8,$9*
0 Add four rect primitives between the rounded corners*
20,1,$1+$1,$2,$3,$4,$5,0*
20,1,$1+$1,$4,$5,$6,$7,0*
20,1,$1+$1,$6,$7,$8,$9,0*
20,1,$1+$1,$8,$9,$2,$3,0*%
%AMRotRect*
0 Rectangle, with rotation*
0 The origin of the aperture is its center*
0 $1 length*
0 $2 width*
0 $3 Rotation angle, in degrees counterclockwise*
0 Add horizontal line*
21,1,$1,$2,0,0,$3*%
%AMFreePoly0*
4,1,24,0.072828,0.257987,0.091931,0.252452,0.345931,0.049252,0.349258,0.043209,0.355301,0.039882,0.359977,0.023744,0.368082,0.009026,0.366162,0.002400,0.368082,-0.004226,0.359977,-0.018944,0.355301,-0.035082,0.349258,-0.038409,0.345931,-0.044452,0.091931,-0.247652,0.072828,-0.253187,0.054449,-0.260800,-0.123351,-0.260800,-0.165777,-0.243226,-0.183351,-0.200800,-0.183351,0.205600,
-0.165777,0.248026,-0.123351,0.265600,0.054449,0.265600,0.072828,0.257987,0.072828,0.257987,$1*%
%AMFreePoly1*
4,1,40,0.141626,0.245626,0.159200,0.203200,0.159200,-0.203200,0.141626,-0.245626,0.099200,-0.263200,-0.256400,-0.263200,-0.259782,-0.261799,-0.263299,-0.262801,-0.280566,-0.253190,-0.298826,-0.245626,-0.300226,-0.242247,-0.303423,-0.240467,-0.308835,-0.221462,-0.316400,-0.203200,-0.314999,-0.199818,-0.316001,-0.196301,-0.306390,-0.179034,-0.298826,-0.160774,-0.295447,-0.159374,-0.293667,-0.156177,
-0.098668,-0.001638,-0.099200,0.000000,-0.098668,0.001638,-0.293667,0.156177,-0.295447,0.159374,-0.298826,0.160774,-0.306390,0.179034,-0.316001,0.196301,-0.314999,0.199818,-0.316400,0.203200,-0.308835,0.221462,-0.303423,0.240467,-0.300226,0.242247,-0.298826,0.245626,-0.280566,0.253190,-0.263299,0.262801,-0.259782,0.261799,-0.256400,0.263200,0.099200,0.263200,0.141626,0.245626,
0.141626,0.245626,$1*%
%AMFreePoly2*
4,1,24,0.323179,0.308787,0.342282,0.303252,0.596282,0.100052,0.599609,0.094009,0.605652,0.090682,0.610328,0.074544,0.618433,0.059826,0.616513,0.053200,0.618433,0.046574,0.610328,0.031856,0.605652,0.015718,0.599609,0.012391,0.596282,0.006348,0.342282,-0.196852,0.323179,-0.202387,0.304800,-0.210000,-0.127000,-0.210000,-0.169426,-0.192426,-0.187000,-0.150000,-0.187000,0.256400,
-0.169426,0.298826,-0.127000,0.316400,0.304800,0.316400,0.323179,0.308787,0.323179,0.308787,$1*%
%AMFreePoly3*
4,1,63,0.460449,0.261854,0.463826,0.262833,0.481253,0.253237,0.499626,0.245626,0.500971,0.242378,0.504052,0.240682,0.509589,0.221575,0.517200,0.203200,0.515854,0.199951,0.516833,0.196574,0.507237,0.179147,0.499626,0.160774,0.496378,0.159429,0.494682,0.156348,0.299247,0.000000,0.494682,-0.156348,0.496378,-0.159429,0.499626,-0.160774,0.507237,-0.179147,0.516833,-0.196574,
0.515854,-0.199951,0.517200,-0.203200,0.509589,-0.221575,0.504052,-0.240682,0.500971,-0.242378,0.499626,-0.245626,0.481253,-0.253237,0.463826,-0.262833,0.460449,-0.261854,0.457200,-0.263200,-0.406400,-0.263200,-0.409782,-0.261799,-0.413299,-0.262801,-0.430566,-0.253190,-0.448826,-0.245626,-0.450226,-0.242247,-0.453423,-0.240467,-0.458835,-0.221462,-0.466400,-0.203200,-0.464999,-0.199818,
-0.466001,-0.196301,-0.456390,-0.179034,-0.448826,-0.160774,-0.445447,-0.159374,-0.443667,-0.156177,-0.246601,0.000000,-0.443667,0.156177,-0.445447,0.159374,-0.448826,0.160774,-0.456390,0.179034,-0.466001,0.196301,-0.464999,0.199818,-0.466400,0.203200,-0.458835,0.221462,-0.453423,0.240467,-0.450226,0.242247,-0.448826,0.245626,-0.430566,0.253190,-0.413299,0.262801,-0.409782,0.261799,
-0.406400,0.263200,0.457200,0.263200,0.460449,0.261854,0.460449,0.261854,$1*%
%AMFreePoly4*
4,1,17,2.675000,1.605000,1.875000,1.605000,1.875000,0.935000,2.675000,0.935000,2.675000,0.335000,1.875000,0.335000,1.875000,-0.335000,2.675000,-0.335000,2.675000,-0.935000,1.875000,-0.935000,1.875000,-1.605000,2.675000,-1.605000,2.675000,-2.205000,-1.875000,-2.205000,-1.875000,2.205000,2.675000,2.205000,2.675000,1.605000,2.675000,1.605000,$1*%
G04 Aperture macros list end*
%ADD10O,2.250000X1.750000*%
%ADD11R,2.250000X1.750000*%
%ADD12R,1.500000X1.500000*%
%ADD13R,0.526400X0.990600*%
%ADD14FreePoly0,270.000000*%
%ADD15FreePoly1,270.000000*%
%ADD16C,0.800000*%
%ADD17R,13.000000X13.000000*%
%ADD18RoundRect,0.250000X-0.450000X0.350000X-0.450000X-0.350000X0.450000X-0.350000X0.450000X0.350000X0*%
%ADD19C,3.200000*%
%ADD20R,3.300000X1.700000*%
%ADD21R,6.700000X15.000000*%
%ADD22R,0.990600X0.526400*%
%ADD23FreePoly0,0.000000*%
%ADD24FreePoly1,0.000000*%
%ADD25RoundRect,0.155000X0.212500X0.155000X-0.212500X0.155000X-0.212500X-0.155000X0.212500X-0.155000X0*%
%ADD26R,1.700000X1.700000*%
%ADD27O,1.700000X1.700000*%
%ADD28FreePoly0,90.000000*%
%ADD29FreePoly1,90.000000*%
%ADD30RoundRect,0.155000X-0.155000X0.212500X-0.155000X-0.212500X0.155000X-0.212500X0.155000X0.212500X0*%
%ADD31RoundRect,0.250000X-1.000000X1.500000X-1.000000X-1.500000X1.000000X-1.500000X1.000000X1.500000X0*%
%ADD32RoundRect,0.250000X-0.350000X-0.450000X0.350000X-0.450000X0.350000X0.450000X-0.350000X0.450000X0*%
%ADD33RoundRect,0.250000X0.325000X1.100000X-0.325000X1.100000X-0.325000X-1.100000X0.325000X-1.100000X0*%
%ADD34RoundRect,0.250000X0.450000X-0.350000X0.450000X0.350000X-0.450000X0.350000X-0.450000X-0.350000X0*%
%ADD35FreePoly0,180.000000*%
%ADD36FreePoly1,180.000000*%
%ADD37RoundRect,0.250000X-0.337500X-0.475000X0.337500X-0.475000X0.337500X0.475000X-0.337500X0.475000X0*%
%ADD38R,1.270000X1.400000*%
%ADD39R,4.720000X4.800000*%
%ADD40RoundRect,0.250000X-0.475000X0.337500X-0.475000X-0.337500X0.475000X-0.337500X0.475000X0.337500X0*%
%ADD41R,0.519600X1.168400*%
%ADD42R,0.528798X1.219200*%
%ADD43FreePoly2,270.000000*%
%ADD44FreePoly3,270.000000*%
%ADD45FreePoly2,90.000000*%
%ADD46RoundRect,0.160000X0.160000X-0.222500X0.160000X0.222500X-0.160000X0.222500X-0.160000X-0.222500X0*%
%ADD47RoundRect,0.250000X-2.450000X0.650000X-2.450000X-0.650000X2.450000X-0.650000X2.450000X0.650000X0*%
%ADD48RoundRect,0.250000X2.450000X-0.650000X2.450000X0.650000X-2.450000X0.650000X-2.450000X-0.650000X0*%
%ADD49RoundRect,0.250000X0.337500X0.475000X-0.337500X0.475000X-0.337500X-0.475000X0.337500X-0.475000X0*%
%ADD50RoundRect,0.075000X-0.548008X0.441942X0.441942X-0.548008X0.548008X-0.441942X-0.441942X0.548008X0*%
%ADD51RoundRect,0.075000X-0.548008X-0.441942X-0.441942X-0.548008X0.548008X0.441942X0.441942X0.548008X0*%
%ADD52RoundRect,0.237500X0.237500X-0.300000X0.237500X0.300000X-0.237500X0.300000X-0.237500X-0.300000X0*%
%ADD53RotRect,0.990600X0.526400X315.000000*%
%ADD54FreePoly0,315.000000*%
%ADD55FreePoly1,315.000000*%
%ADD56RoundRect,0.150000X0.150000X-0.825000X0.150000X0.825000X-0.150000X0.825000X-0.150000X-0.825000X0*%
%ADD57R,1.700000X4.240000*%
%ADD58FreePoly4,0.000000*%
%ADD59R,0.850000X0.500000*%
%ADD60RoundRect,0.250000X0.450000X-0.325000X0.450000X0.325000X-0.450000X0.325000X-0.450000X-0.325000X0*%
%ADD61RoundRect,0.249999X-0.450001X-1.425001X0.450001X-1.425001X0.450001X1.425001X-0.450001X1.425001X0*%
%ADD62R,0.800000X1.900000*%
%ADD63RoundRect,0.160000X-0.222500X-0.160000X0.222500X-0.160000X0.222500X0.160000X-0.222500X0.160000X0*%
%ADD64RoundRect,0.155000X0.040659X0.259862X-0.259862X-0.040659X-0.040659X-0.259862X0.259862X0.040659X0*%
%ADD65RoundRect,0.135000X-0.135000X-0.185000X0.135000X-0.185000X0.135000X0.185000X-0.135000X0.185000X0*%
%ADD66RoundRect,0.250000X0.475000X-0.337500X0.475000X0.337500X-0.475000X0.337500X-0.475000X-0.337500X0*%
%ADD67RoundRect,0.155000X0.259862X-0.040659X-0.040659X0.259862X-0.259862X0.040659X0.040659X-0.259862X0*%
%ADD68RotRect,1.000000X1.000000X45.000000*%
%ADD69RoundRect,0.409835X-0.840165X-1.090165X0.840165X-1.090165X0.840165X1.090165X-0.840165X1.090165X0*%
%ADD70R,1.560000X0.650000*%
%ADD71R,1.700000X3.300000*%
%ADD72R,2.000000X1.905000*%
%ADD73O,2.000000X1.905000*%
%ADD74C,3.650000*%
%ADD75C,1.500000*%
%ADD76C,2.500000*%
G04 APERTURE END LIST*
D10*
X28215500Y-129617500D03*
X28215500Y-127077500D03*
X28215500Y-124537500D03*
D11*
X28215500Y-121997500D03*
D12*
X39624000Y-142748000D03*
D13*
X53466786Y-105437199D03*
D14*
X53466786Y-104941899D03*
D15*
X53464386Y-105780099D03*
D16*
X72680000Y-189965400D03*
X72680000Y-180058800D03*
X66440000Y-189064800D03*
X69820000Y-178707900D03*
X75540000Y-190415700D03*
X68520000Y-190866000D03*
X74760000Y-180959400D03*
X74240000Y-181860000D03*
X67220000Y-190415700D03*
X66700000Y-186813300D03*
X74760000Y-182760600D03*
X72680000Y-180959400D03*
X66960000Y-189064800D03*
X74240000Y-190866000D03*
X67220000Y-181409700D03*
X67220000Y-184111500D03*
X76840000Y-190866000D03*
X75020000Y-180509100D03*
X74240000Y-182760600D03*
X76060000Y-179608500D03*
X70340000Y-187713900D03*
X72940000Y-183210900D03*
X65400000Y-182760600D03*
X69820000Y-187713900D03*
X70600000Y-181860000D03*
X68780000Y-180509100D03*
X67480000Y-183661200D03*
X74500000Y-182310300D03*
X76580000Y-182310300D03*
X68520000Y-186363000D03*
X72940000Y-179608500D03*
X66700000Y-185912700D03*
X77100000Y-182310300D03*
X75540000Y-185912700D03*
X66440000Y-188164200D03*
X74760000Y-190866000D03*
X73460000Y-189515100D03*
X72160000Y-180959400D03*
X66440000Y-190866000D03*
X75020000Y-186813300D03*
X73720000Y-185462400D03*
X70340000Y-178707900D03*
X65140000Y-181409700D03*
X76320000Y-189064800D03*
X68520000Y-180058800D03*
X76840000Y-179158200D03*
X73720000Y-187263600D03*
X69300000Y-186813300D03*
X66180000Y-180509100D03*
X75540000Y-186813300D03*
X71380000Y-188614500D03*
X67480000Y-181860000D03*
X73200000Y-179158200D03*
X68780000Y-181409700D03*
X72160000Y-187263600D03*
X76840000Y-189965400D03*
X74240000Y-187263600D03*
X66440000Y-185462400D03*
X68000000Y-183661200D03*
X68000000Y-188164200D03*
X74500000Y-186813300D03*
X68260000Y-178707900D03*
X73720000Y-181860000D03*
D17*
X71120000Y-184800000D03*
D16*
X71640000Y-180959400D03*
X65660000Y-190415700D03*
X70860000Y-178707900D03*
X73980000Y-181409700D03*
X74500000Y-187713900D03*
X67220000Y-179608500D03*
X68000000Y-179158200D03*
X67480000Y-188164200D03*
X74760000Y-181860000D03*
X64880000Y-184561800D03*
X73460000Y-188614500D03*
X65140000Y-190415700D03*
X76320000Y-189965400D03*
X73720000Y-188164200D03*
X69300000Y-182310300D03*
X64880000Y-190866000D03*
X66960000Y-183661200D03*
X66960000Y-182760600D03*
X74760000Y-184561800D03*
X71900000Y-182310300D03*
X67740000Y-185012100D03*
X69560000Y-180959400D03*
X74500000Y-190415700D03*
X73720000Y-190866000D03*
X74760000Y-186363000D03*
X65400000Y-187263600D03*
X65140000Y-188614500D03*
X71120000Y-187263600D03*
X64880000Y-188164200D03*
X69820000Y-181409700D03*
X73200000Y-188164200D03*
X70080000Y-187263600D03*
X65920000Y-188164200D03*
X73980000Y-187713900D03*
X71380000Y-179608500D03*
X65920000Y-179158200D03*
X69820000Y-189515100D03*
X69560000Y-188164200D03*
X74500000Y-189515100D03*
X72160000Y-179158200D03*
X64880000Y-182760600D03*
X71900000Y-179608500D03*
X66700000Y-180509100D03*
X76840000Y-180058800D03*
X76320000Y-180058800D03*
X66960000Y-179158200D03*
X77360000Y-189965400D03*
X69040000Y-186363000D03*
X71380000Y-189515100D03*
X70860000Y-187713900D03*
X71900000Y-181409700D03*
X72940000Y-180509100D03*
X69300000Y-178707900D03*
X75280000Y-180058800D03*
X69040000Y-182760600D03*
X71120000Y-189965400D03*
X76320000Y-185462400D03*
X66180000Y-182310300D03*
X72940000Y-189515100D03*
X74760000Y-180058800D03*
X69040000Y-179158200D03*
X66440000Y-186363000D03*
X69300000Y-188614500D03*
X67740000Y-179608500D03*
X75800000Y-184561800D03*
X68780000Y-185912700D03*
X73460000Y-185912700D03*
X69040000Y-189965400D03*
X68000000Y-186363000D03*
X73200000Y-189965400D03*
X76060000Y-189515100D03*
X72680000Y-188164200D03*
X66960000Y-184561800D03*
X67220000Y-185912700D03*
X75540000Y-180509100D03*
X75280000Y-189064800D03*
X66440000Y-182760600D03*
X66960000Y-189965400D03*
X64880000Y-186363000D03*
X67220000Y-180509100D03*
X67220000Y-185012100D03*
X65920000Y-190866000D03*
X73720000Y-189965400D03*
X71900000Y-188614500D03*
X70080000Y-188164200D03*
X66180000Y-190415700D03*
X73980000Y-186813300D03*
X69300000Y-189515100D03*
X65400000Y-186363000D03*
X70600000Y-188164200D03*
X65920000Y-187263600D03*
X65660000Y-188614500D03*
X75800000Y-187263600D03*
X70600000Y-189965400D03*
X69300000Y-181409700D03*
X65400000Y-190866000D03*
X68260000Y-187713900D03*
X70080000Y-179158200D03*
X70600000Y-189064800D03*
X74760000Y-187263600D03*
X70080000Y-180959400D03*
X73460000Y-183210900D03*
X70080000Y-189965400D03*
X71900000Y-189515100D03*
X67740000Y-182310300D03*
X66700000Y-189515100D03*
X68780000Y-184111500D03*
X64880000Y-185462400D03*
X72940000Y-187713900D03*
X65920000Y-184561800D03*
X67480000Y-180959400D03*
X68000000Y-180058800D03*
X69820000Y-182310300D03*
X73460000Y-186813300D03*
X68520000Y-188164200D03*
X69560000Y-182760600D03*
X64880000Y-180959400D03*
X75800000Y-180058800D03*
X71640000Y-190866000D03*
X66440000Y-187263600D03*
X76580000Y-187713900D03*
X71640000Y-188164200D03*
X76320000Y-183661200D03*
X70860000Y-181409700D03*
X77100000Y-179608500D03*
X75020000Y-181409700D03*
X73200000Y-180058800D03*
X71120000Y-190866000D03*
X70860000Y-189515100D03*
X73980000Y-184111500D03*
X73460000Y-184111500D03*
X76320000Y-184561800D03*
X75280000Y-186363000D03*
X71640000Y-180058800D03*
X66700000Y-182310300D03*
X68260000Y-182310300D03*
X76580000Y-185012100D03*
X77360000Y-182760600D03*
X67740000Y-180509100D03*
X73980000Y-180509100D03*
X65920000Y-189064800D03*
X67480000Y-187263600D03*
X70600000Y-187263600D03*
X68520000Y-180959400D03*
X66700000Y-179608500D03*
X69560000Y-190866000D03*
X77360000Y-186363000D03*
X68780000Y-190415700D03*
X67480000Y-184561800D03*
X66440000Y-189965400D03*
X74500000Y-181409700D03*
X72680000Y-189064800D03*
X69040000Y-188164200D03*
X68780000Y-187713900D03*
X72420000Y-182310300D03*
X65140000Y-189515100D03*
X75800000Y-186363000D03*
X74760000Y-189965400D03*
X73720000Y-189064800D03*
X66180000Y-178707900D03*
X75280000Y-180959400D03*
X68000000Y-181860000D03*
X71640000Y-189965400D03*
X76060000Y-190415700D03*
X70600000Y-180058800D03*
X75020000Y-178707900D03*
X66440000Y-179158200D03*
X70860000Y-180509100D03*
X74500000Y-183210900D03*
X73720000Y-184561800D03*
X70860000Y-190415700D03*
X73200000Y-189064800D03*
X65660000Y-178707900D03*
X67480000Y-180058800D03*
X68260000Y-185912700D03*
X67740000Y-181409700D03*
X65660000Y-185912700D03*
X77100000Y-180509100D03*
X75020000Y-187713900D03*
X72160000Y-189064800D03*
X71380000Y-181409700D03*
X72420000Y-180509100D03*
X77360000Y-180959400D03*
X67740000Y-184111500D03*
X67740000Y-188614500D03*
X75020000Y-182310300D03*
X75020000Y-184111500D03*
X67480000Y-189965400D03*
X68520000Y-179158200D03*
X69300000Y-187713900D03*
X76060000Y-187713900D03*
X69040000Y-180058800D03*
X76580000Y-184111500D03*
X70080000Y-190866000D03*
X66700000Y-190415700D03*
X71900000Y-190415700D03*
X72420000Y-187713900D03*
X76060000Y-181409700D03*
X74500000Y-179608500D03*
X74240000Y-186363000D03*
X65920000Y-180959400D03*
X72160000Y-180058800D03*
X77360000Y-180058800D03*
X76580000Y-188614500D03*
X73460000Y-182310300D03*
X66700000Y-183210900D03*
X66180000Y-188614500D03*
X71380000Y-178707900D03*
X66440000Y-180959400D03*
X69820000Y-190415700D03*
X74760000Y-179158200D03*
X76840000Y-180959400D03*
X73200000Y-180959400D03*
X75540000Y-178707900D03*
X72160000Y-181860000D03*
X64880000Y-181860000D03*
X72420000Y-178707900D03*
X73460000Y-181409700D03*
X75540000Y-184111500D03*
X72940000Y-182310300D03*
X66960000Y-181860000D03*
X66180000Y-185012100D03*
X70080000Y-180058800D03*
X68260000Y-180509100D03*
X76580000Y-190415700D03*
X71120000Y-180058800D03*
X73200000Y-183661200D03*
X73980000Y-183210900D03*
X65400000Y-181860000D03*
X70080000Y-189064800D03*
X64880000Y-187263600D03*
X69040000Y-181860000D03*
X66960000Y-188164200D03*
X65660000Y-182310300D03*
X73720000Y-179158200D03*
X68520000Y-189064800D03*
X67480000Y-189064800D03*
X65660000Y-185012100D03*
X76840000Y-185462400D03*
X66700000Y-188614500D03*
X72420000Y-179608500D03*
X70600000Y-179158200D03*
X66180000Y-185912700D03*
X75020000Y-189515100D03*
X76060000Y-180509100D03*
X77360000Y-184561800D03*
X76840000Y-189064800D03*
X65920000Y-186363000D03*
X66700000Y-187713900D03*
X72420000Y-189515100D03*
X69040000Y-187263600D03*
X77100000Y-181409700D03*
X74500000Y-184111500D03*
X69820000Y-179608500D03*
X76060000Y-185012100D03*
X65140000Y-186813300D03*
X73980000Y-185012100D03*
X71900000Y-187713900D03*
X67480000Y-179158200D03*
X72420000Y-188614500D03*
X67740000Y-186813300D03*
X75280000Y-189965400D03*
X68780000Y-188614500D03*
X70340000Y-189515100D03*
X65140000Y-187713900D03*
X65400000Y-189064800D03*
X75540000Y-182310300D03*
X75280000Y-182760600D03*
X74500000Y-185912700D03*
X68780000Y-178707900D03*
X71120000Y-181860000D03*
X69820000Y-180509100D03*
X65660000Y-186813300D03*
X65400000Y-183661200D03*
X68000000Y-189965400D03*
X66180000Y-183210900D03*
X72420000Y-181409700D03*
X77100000Y-188614500D03*
X76840000Y-183661200D03*
X75540000Y-183210900D03*
X74240000Y-179158200D03*
X70340000Y-179608500D03*
X76060000Y-185912700D03*
X65660000Y-183210900D03*
X66440000Y-184561800D03*
X67740000Y-178707900D03*
X75540000Y-187713900D03*
X71120000Y-189064800D03*
X74500000Y-188614500D03*
X66960000Y-187263600D03*
X68000000Y-190866000D03*
X66700000Y-184111500D03*
X66960000Y-185462400D03*
X66180000Y-184111500D03*
X69820000Y-188614500D03*
X65660000Y-179608500D03*
X76840000Y-181860000D03*
X67220000Y-188614500D03*
X77360000Y-187263600D03*
X76840000Y-184561800D03*
X77100000Y-186813300D03*
X75800000Y-182760600D03*
X66180000Y-187713900D03*
X74500000Y-178707900D03*
X70860000Y-188614500D03*
X72160000Y-190866000D03*
X75540000Y-181409700D03*
X74240000Y-189965400D03*
X65140000Y-184111500D03*
X74500000Y-185012100D03*
X68000000Y-180959400D03*
X69040000Y-180959400D03*
X68260000Y-188614500D03*
X68260000Y-179608500D03*
X64880000Y-183661200D03*
X69560000Y-181860000D03*
X67740000Y-190415700D03*
X73980000Y-188614500D03*
X71900000Y-180509100D03*
X64880000Y-179158200D03*
X72420000Y-190415700D03*
X65920000Y-182760600D03*
X75020000Y-183210900D03*
X76840000Y-187263600D03*
X70340000Y-188614500D03*
X75020000Y-190415700D03*
X77360000Y-188164200D03*
X70080000Y-181860000D03*
X68260000Y-185012100D03*
X68260000Y-183210900D03*
X68780000Y-189515100D03*
X66960000Y-180959400D03*
X68260000Y-181409700D03*
X71380000Y-190415700D03*
X68520000Y-181860000D03*
X68260000Y-186813300D03*
X69300000Y-179608500D03*
X72680000Y-179158200D03*
X73460000Y-190415700D03*
X75800000Y-189965400D03*
X76320000Y-186363000D03*
X75020000Y-185012100D03*
X68520000Y-182760600D03*
X68000000Y-189064800D03*
X67480000Y-185462400D03*
X77100000Y-189515100D03*
X75540000Y-185012100D03*
X76320000Y-182760600D03*
X70600000Y-180959400D03*
X71120000Y-179158200D03*
X75800000Y-181860000D03*
X74760000Y-183661200D03*
X75800000Y-183661200D03*
X74240000Y-189064800D03*
X66960000Y-180058800D03*
X73980000Y-189515100D03*
X77100000Y-185012100D03*
X76840000Y-182760600D03*
X65660000Y-180509100D03*
X72940000Y-190415700D03*
X69040000Y-190866000D03*
X77360000Y-185462400D03*
X75280000Y-181860000D03*
X66700000Y-178707900D03*
X75540000Y-179608500D03*
X73460000Y-180509100D03*
X67220000Y-187713900D03*
X66960000Y-190866000D03*
X74240000Y-184561800D03*
X65920000Y-180058800D03*
X65660000Y-187713900D03*
X71380000Y-187713900D03*
X68780000Y-179608500D03*
X77360000Y-179158200D03*
X65140000Y-179608500D03*
X77360000Y-183661200D03*
X77100000Y-178707900D03*
X71640000Y-189064800D03*
X75540000Y-189515100D03*
X73980000Y-185912700D03*
X76320000Y-187263600D03*
X66180000Y-186813300D03*
X76840000Y-188164200D03*
X75280000Y-190866000D03*
X75280000Y-188164200D03*
X69560000Y-179158200D03*
X73720000Y-186363000D03*
X70340000Y-182310300D03*
X76580000Y-189515100D03*
X72940000Y-186813300D03*
X73200000Y-181860000D03*
X74240000Y-180058800D03*
X72940000Y-188614500D03*
X71380000Y-182310300D03*
X65400000Y-189965400D03*
X65920000Y-183661200D03*
X66440000Y-180058800D03*
X71120000Y-188164200D03*
X66700000Y-185012100D03*
X73720000Y-182760600D03*
X65400000Y-179158200D03*
X67220000Y-178707900D03*
X71380000Y-180509100D03*
X68520000Y-183661200D03*
X77100000Y-190415700D03*
X72160000Y-188164200D03*
X67220000Y-182310300D03*
X75020000Y-188614500D03*
X75280000Y-184561800D03*
X75800000Y-180959400D03*
X75280000Y-185462400D03*
X75280000Y-179158200D03*
X65140000Y-180509100D03*
X70600000Y-190866000D03*
X69560000Y-180058800D03*
X76060000Y-188614500D03*
X73460000Y-178707900D03*
X65140000Y-185012100D03*
X76060000Y-183210900D03*
X75020000Y-179608500D03*
X68000000Y-182760600D03*
X65660000Y-189515100D03*
X76320000Y-188164200D03*
X70860000Y-179608500D03*
X64880000Y-180058800D03*
X74240000Y-185462400D03*
X73980000Y-182310300D03*
X64880000Y-189965400D03*
X74760000Y-185462400D03*
X72680000Y-181860000D03*
X73720000Y-183661200D03*
X67480000Y-186363000D03*
X65140000Y-185912700D03*
X73720000Y-180959400D03*
X66700000Y-181409700D03*
X68260000Y-190415700D03*
X65920000Y-181860000D03*
X76580000Y-178707900D03*
X73720000Y-180058800D03*
X77360000Y-181860000D03*
X75800000Y-188164200D03*
X75540000Y-188614500D03*
X65400000Y-184561800D03*
X71640000Y-181860000D03*
X76580000Y-179608500D03*
X75800000Y-185462400D03*
X72940000Y-181409700D03*
X66180000Y-179608500D03*
X76580000Y-186813300D03*
X73200000Y-187263600D03*
X76320000Y-180959400D03*
X65400000Y-180058800D03*
X65920000Y-189965400D03*
X73200000Y-186363000D03*
X70340000Y-190415700D03*
X71900000Y-178707900D03*
X76580000Y-181409700D03*
X77100000Y-185912700D03*
X72680000Y-182760600D03*
X66440000Y-183661200D03*
X69560000Y-189064800D03*
X75280000Y-183661200D03*
X69040000Y-183661200D03*
X68000000Y-185462400D03*
X74240000Y-188164200D03*
X68780000Y-182310300D03*
X65660000Y-184111500D03*
X69560000Y-189965400D03*
X71640000Y-187263600D03*
X73980000Y-179608500D03*
X68260000Y-184111500D03*
X67740000Y-187713900D03*
X69300000Y-183210900D03*
X65920000Y-185462400D03*
X65660000Y-181409700D03*
X77100000Y-184111500D03*
X68000000Y-187263600D03*
X75280000Y-187263600D03*
X65140000Y-182310300D03*
X75800000Y-179158200D03*
X76580000Y-180509100D03*
X65400000Y-185462400D03*
X67480000Y-182760600D03*
X67220000Y-189515100D03*
X69300000Y-180509100D03*
X77100000Y-183210900D03*
X76320000Y-190866000D03*
X65140000Y-178707900D03*
X74240000Y-183661200D03*
X74760000Y-188164200D03*
X77100000Y-187713900D03*
X69560000Y-187263600D03*
X73980000Y-190415700D03*
X66180000Y-189515100D03*
X68260000Y-189515100D03*
X75020000Y-185912700D03*
X68000000Y-184561800D03*
X76060000Y-182310300D03*
X77360000Y-190866000D03*
X68520000Y-184561800D03*
X71120000Y-180959400D03*
X76320000Y-179158200D03*
X72940000Y-178707900D03*
X67220000Y-183210900D03*
X68780000Y-186813300D03*
X76060000Y-186813300D03*
X72680000Y-190866000D03*
X74760000Y-189064800D03*
X73460000Y-179608500D03*
X77360000Y-189064800D03*
X67480000Y-190866000D03*
X65400000Y-188164200D03*
X69040000Y-189064800D03*
X76840000Y-186363000D03*
X76320000Y-181860000D03*
X64880000Y-189064800D03*
X76060000Y-184111500D03*
X76580000Y-183210900D03*
X75800000Y-190866000D03*
X68520000Y-185462400D03*
X65140000Y-183210900D03*
X67740000Y-189515100D03*
X66960000Y-186363000D03*
X70860000Y-182310300D03*
X73200000Y-190866000D03*
X65400000Y-180959400D03*
X70340000Y-180509100D03*
X67740000Y-185912700D03*
X69300000Y-190415700D03*
X73980000Y-178707900D03*
X74240000Y-180959400D03*
X76580000Y-185912700D03*
X68780000Y-183210900D03*
X72680000Y-187263600D03*
X70340000Y-181409700D03*
X72160000Y-189965400D03*
X67740000Y-183210900D03*
X71640000Y-179158200D03*
X68520000Y-187263600D03*
X74500000Y-180509100D03*
X76060000Y-178707900D03*
X66440000Y-181860000D03*
X73200000Y-182760600D03*
X75800000Y-189064800D03*
X67220000Y-186813300D03*
X68520000Y-189965400D03*
X66180000Y-181409700D03*
X73460000Y-187713900D03*
D18*
X24892000Y-94504000D03*
X24892000Y-96504000D03*
D19*
X15875000Y-92075000D03*
D20*
X26626000Y-91694000D03*
X21126000Y-91694000D03*
D18*
X75565000Y-134716000D03*
X75565000Y-136716000D03*
D21*
X22786600Y-154432000D03*
X35125400Y-154432000D03*
D22*
X27927300Y-137411600D03*
D23*
X27432000Y-137411600D03*
D24*
X28270200Y-137414000D03*
D18*
X59690000Y-107188000D03*
X59690000Y-109188000D03*
D25*
X51367500Y-101854000D03*
X50232500Y-101854000D03*
D26*
X20574000Y-113408000D03*
D27*
X20574000Y-115948000D03*
D16*
X31882000Y-187263600D03*
X20182000Y-183210900D03*
X25642000Y-180959400D03*
X28502000Y-184111500D03*
X30062000Y-190415700D03*
X31102000Y-182310300D03*
X23822000Y-181409700D03*
X23042000Y-180058800D03*
X27722000Y-189064800D03*
X31882000Y-181860000D03*
X23822000Y-185912700D03*
X19922000Y-181860000D03*
X21482000Y-185462400D03*
X24862000Y-188614500D03*
X29802000Y-184561800D03*
X24342000Y-190415700D03*
X30062000Y-188614500D03*
X20182000Y-184111500D03*
X25122000Y-189965400D03*
X30582000Y-183210900D03*
X29542000Y-184111500D03*
X30842000Y-179158200D03*
X20962000Y-189965400D03*
X32402000Y-186363000D03*
X31622000Y-181409700D03*
X23042000Y-187263600D03*
X29282000Y-184561800D03*
X23562000Y-184561800D03*
X30322000Y-189965400D03*
X22262000Y-188614500D03*
X21222000Y-181409700D03*
X19922000Y-183661200D03*
X26682000Y-189064800D03*
X24862000Y-190415700D03*
X30062000Y-178707900D03*
X29802000Y-189064800D03*
X31362000Y-189965400D03*
X30582000Y-179608500D03*
X22262000Y-185912700D03*
X32142000Y-181409700D03*
X27462000Y-187713900D03*
X20442000Y-186363000D03*
X28762000Y-189965400D03*
X22002000Y-182760600D03*
X22522000Y-183661200D03*
X24082000Y-180959400D03*
X26422000Y-178707900D03*
X26162000Y-187263600D03*
X28502000Y-189515100D03*
X23822000Y-178707900D03*
X28502000Y-182310300D03*
X25382000Y-180509100D03*
X27982000Y-190415700D03*
X20962000Y-189064800D03*
X25642000Y-188164200D03*
X23822000Y-184111500D03*
X27982000Y-180509100D03*
X22522000Y-180058800D03*
X26682000Y-190866000D03*
X31102000Y-178707900D03*
X25902000Y-188614500D03*
X26942000Y-190415700D03*
X20702000Y-179608500D03*
X29022000Y-186813300D03*
X29542000Y-190415700D03*
X32142000Y-184111500D03*
X26942000Y-181409700D03*
X23302000Y-181409700D03*
X22782000Y-189515100D03*
X29282000Y-180058800D03*
X22522000Y-179158200D03*
X24342000Y-180509100D03*
X29022000Y-182310300D03*
X20442000Y-189965400D03*
X30842000Y-180959400D03*
X23822000Y-190415700D03*
X30582000Y-184111500D03*
X32402000Y-185462400D03*
X22262000Y-178707900D03*
X31622000Y-182310300D03*
X26162000Y-190866000D03*
X21482000Y-186363000D03*
X29282000Y-189965400D03*
X26682000Y-179158200D03*
X25902000Y-181409700D03*
X29542000Y-180509100D03*
X26942000Y-188614500D03*
X23822000Y-183210900D03*
X26942000Y-189515100D03*
X29282000Y-181860000D03*
X32142000Y-186813300D03*
X24602000Y-187263600D03*
X29022000Y-189515100D03*
X30842000Y-186363000D03*
X22782000Y-179608500D03*
X25122000Y-179158200D03*
X30062000Y-182310300D03*
X25902000Y-189515100D03*
X23302000Y-178707900D03*
X31882000Y-184561800D03*
X29022000Y-184111500D03*
X22522000Y-182760600D03*
X30582000Y-189515100D03*
X21482000Y-181860000D03*
X25382000Y-182310300D03*
X30322000Y-187263600D03*
X31362000Y-189064800D03*
X30322000Y-180058800D03*
X22522000Y-184561800D03*
X20962000Y-184561800D03*
X20442000Y-180959400D03*
X22782000Y-187713900D03*
X30582000Y-185912700D03*
X23042000Y-183661200D03*
X21482000Y-190866000D03*
X23042000Y-180959400D03*
X21222000Y-188614500D03*
X20182000Y-185912700D03*
X23042000Y-185462400D03*
X20182000Y-185012100D03*
X30842000Y-183661200D03*
X30322000Y-179158200D03*
X21222000Y-187713900D03*
X31882000Y-189064800D03*
X25642000Y-189064800D03*
X31882000Y-190866000D03*
X29022000Y-190415700D03*
X29802000Y-188164200D03*
X27462000Y-182310300D03*
X21222000Y-186813300D03*
X22262000Y-183210900D03*
X22782000Y-188614500D03*
X26422000Y-188614500D03*
X30842000Y-187263600D03*
X20702000Y-181409700D03*
X24082000Y-187263600D03*
X22522000Y-187263600D03*
X29022000Y-185912700D03*
X27462000Y-189515100D03*
X27982000Y-187713900D03*
X29802000Y-190866000D03*
X21482000Y-188164200D03*
X28762000Y-187263600D03*
X27722000Y-189965400D03*
X28242000Y-187263600D03*
X27462000Y-188614500D03*
X23822000Y-186813300D03*
X29022000Y-185012100D03*
X29282000Y-188164200D03*
X30322000Y-186363000D03*
X25902000Y-180509100D03*
X24342000Y-183210900D03*
X23302000Y-180509100D03*
X26162000Y-188164200D03*
X31102000Y-187713900D03*
X28502000Y-188614500D03*
X28242000Y-182760600D03*
X29802000Y-180058800D03*
X32142000Y-188614500D03*
X20442000Y-180058800D03*
X22002000Y-185462400D03*
X20962000Y-182760600D03*
X21222000Y-185012100D03*
X20702000Y-184111500D03*
X24602000Y-180959400D03*
X28762000Y-180959400D03*
X23042000Y-184561800D03*
X21482000Y-182760600D03*
X30062000Y-184111500D03*
X22002000Y-188164200D03*
X23302000Y-182310300D03*
X30842000Y-185462400D03*
X25122000Y-180959400D03*
X20962000Y-187263600D03*
X30062000Y-189515100D03*
D17*
X26162000Y-184800000D03*
D16*
X29542000Y-181409700D03*
X24602000Y-189965400D03*
X31362000Y-185462400D03*
X29802000Y-187263600D03*
X27202000Y-189965400D03*
X28242000Y-181860000D03*
X23042000Y-190866000D03*
X20702000Y-178707900D03*
X27722000Y-180959400D03*
X24082000Y-186363000D03*
X29282000Y-187263600D03*
X21222000Y-179608500D03*
X28762000Y-180058800D03*
X20442000Y-182760600D03*
X30322000Y-183661200D03*
X24602000Y-180058800D03*
X20442000Y-190866000D03*
X31882000Y-188164200D03*
X29282000Y-183661200D03*
X24862000Y-187713900D03*
X31362000Y-181860000D03*
X31622000Y-185912700D03*
X20182000Y-181409700D03*
X29282000Y-185462400D03*
X28242000Y-183661200D03*
X23822000Y-179608500D03*
X20182000Y-180509100D03*
X24342000Y-186813300D03*
X22522000Y-186363000D03*
X27202000Y-188164200D03*
X31882000Y-189965400D03*
X31102000Y-185012100D03*
X20702000Y-183210900D03*
X24082000Y-183661200D03*
X22002000Y-189965400D03*
X23042000Y-186363000D03*
X28502000Y-180509100D03*
X27462000Y-181409700D03*
X32142000Y-182310300D03*
X31362000Y-183661200D03*
X20442000Y-184561800D03*
X24342000Y-179608500D03*
X24602000Y-188164200D03*
X31362000Y-186363000D03*
X31622000Y-180509100D03*
X30582000Y-190415700D03*
X21222000Y-184111500D03*
X26942000Y-180509100D03*
X24862000Y-189515100D03*
X31362000Y-187263600D03*
X29022000Y-188614500D03*
X26162000Y-179158200D03*
X24082000Y-188164200D03*
X29542000Y-187713900D03*
X31102000Y-180509100D03*
X21222000Y-189515100D03*
X32402000Y-188164200D03*
X23562000Y-182760600D03*
X20442000Y-181860000D03*
X19922000Y-180959400D03*
X31882000Y-182760600D03*
X32142000Y-190415700D03*
X23302000Y-188614500D03*
X24862000Y-180509100D03*
X27202000Y-190866000D03*
X25382000Y-188614500D03*
X28502000Y-190415700D03*
X29542000Y-185912700D03*
X32142000Y-189515100D03*
X26682000Y-180959400D03*
X31362000Y-184561800D03*
X31362000Y-188164200D03*
X25122000Y-190866000D03*
X29542000Y-179608500D03*
X23042000Y-188164200D03*
X29542000Y-183210900D03*
X24862000Y-179608500D03*
X31622000Y-184111500D03*
X21482000Y-184561800D03*
X24342000Y-178707900D03*
X32402000Y-180058800D03*
X22522000Y-181860000D03*
X32402000Y-190866000D03*
X28762000Y-190866000D03*
X28762000Y-185462400D03*
X24082000Y-190866000D03*
X22262000Y-182310300D03*
X30842000Y-189965400D03*
X23042000Y-179158200D03*
X21482000Y-180058800D03*
X29282000Y-189064800D03*
X24342000Y-182310300D03*
X19922000Y-185462400D03*
X22262000Y-181409700D03*
X21482000Y-189965400D03*
X22002000Y-183661200D03*
X26942000Y-179608500D03*
X23042000Y-189064800D03*
X24082000Y-179158200D03*
X31102000Y-179608500D03*
X27982000Y-182310300D03*
X28762000Y-181860000D03*
X32142000Y-185912700D03*
X22262000Y-189515100D03*
X23042000Y-181860000D03*
X25902000Y-179608500D03*
X20442000Y-188164200D03*
X22782000Y-182310300D03*
X22262000Y-185012100D03*
X25382000Y-187713900D03*
X24342000Y-181409700D03*
X26162000Y-189064800D03*
X29282000Y-182760600D03*
X19922000Y-188164200D03*
X23562000Y-189965400D03*
X30842000Y-184561800D03*
X28762000Y-188164200D03*
X20182000Y-178707900D03*
X22782000Y-180509100D03*
X26942000Y-178707900D03*
X30842000Y-190866000D03*
X25122000Y-181860000D03*
X29542000Y-185012100D03*
X22782000Y-185912700D03*
X30062000Y-179608500D03*
X29022000Y-181409700D03*
X21742000Y-179608500D03*
X27202000Y-189064800D03*
X26422000Y-187713900D03*
X21742000Y-190415700D03*
X25642000Y-180058800D03*
X24082000Y-181860000D03*
X28502000Y-185912700D03*
X22782000Y-183210900D03*
X29802000Y-183661200D03*
X28502000Y-183210900D03*
X29022000Y-187713900D03*
X32142000Y-185012100D03*
X27202000Y-181860000D03*
X31102000Y-188614500D03*
X23822000Y-180509100D03*
X20182000Y-189515100D03*
X24602000Y-181860000D03*
X21482000Y-180959400D03*
X26682000Y-180058800D03*
X29542000Y-189515100D03*
X19922000Y-189965400D03*
X25382000Y-179608500D03*
X26682000Y-181860000D03*
X21742000Y-185012100D03*
X29282000Y-180959400D03*
X22002000Y-189064800D03*
X30582000Y-186813300D03*
X30322000Y-181860000D03*
X27982000Y-179608500D03*
X20182000Y-188614500D03*
X21742000Y-189515100D03*
X29542000Y-178707900D03*
X19922000Y-190866000D03*
X29282000Y-186363000D03*
X20182000Y-187713900D03*
X20442000Y-185462400D03*
X24082000Y-180058800D03*
X25902000Y-178707900D03*
X31102000Y-189515100D03*
X25642000Y-190866000D03*
X22002000Y-190866000D03*
X21742000Y-180509100D03*
X20702000Y-187713900D03*
X28502000Y-187713900D03*
X29802000Y-186363000D03*
X20962000Y-188164200D03*
X31102000Y-181409700D03*
X19922000Y-189064800D03*
X22002000Y-184561800D03*
X31882000Y-179158200D03*
X31622000Y-186813300D03*
X20962000Y-183661200D03*
X27982000Y-189515100D03*
X28242000Y-180959400D03*
X22782000Y-178707900D03*
X28242000Y-188164200D03*
X22522000Y-185462400D03*
X22262000Y-184111500D03*
X26422000Y-180509100D03*
X31102000Y-183210900D03*
X23562000Y-185462400D03*
X20962000Y-179158200D03*
X23562000Y-188164200D03*
X20702000Y-190415700D03*
X27722000Y-187263600D03*
X26942000Y-182310300D03*
X29802000Y-185462400D03*
X20702000Y-185012100D03*
X22782000Y-181409700D03*
X31102000Y-190415700D03*
X20962000Y-181860000D03*
X28242000Y-180058800D03*
X25122000Y-188164200D03*
X32402000Y-184561800D03*
X21742000Y-182310300D03*
X22522000Y-190866000D03*
X25382000Y-178707900D03*
X19922000Y-179158200D03*
X23302000Y-183210900D03*
X23562000Y-179158200D03*
X23822000Y-188614500D03*
X21482000Y-183661200D03*
X30322000Y-188164200D03*
X27462000Y-179608500D03*
X26422000Y-182310300D03*
X32142000Y-183210900D03*
X31622000Y-190415700D03*
X27722000Y-190866000D03*
X26162000Y-189965400D03*
X29282000Y-190866000D03*
X29802000Y-181860000D03*
X21742000Y-183210900D03*
X20442000Y-183661200D03*
X23822000Y-182310300D03*
X28762000Y-183661200D03*
X31882000Y-180058800D03*
X29802000Y-179158200D03*
X21222000Y-178707900D03*
X31622000Y-185012100D03*
X29022000Y-179608500D03*
X25122000Y-187263600D03*
X27722000Y-182760600D03*
X25642000Y-181860000D03*
X30842000Y-182760600D03*
X29022000Y-183210900D03*
X22522000Y-180959400D03*
X27202000Y-180058800D03*
X31882000Y-186363000D03*
X30322000Y-182760600D03*
X19922000Y-184561800D03*
X31102000Y-185912700D03*
X20702000Y-180509100D03*
X20962000Y-190866000D03*
X29542000Y-186813300D03*
X28502000Y-179608500D03*
X23042000Y-189965400D03*
X30322000Y-189064800D03*
X27982000Y-178707900D03*
X28762000Y-186363000D03*
X31882000Y-180959400D03*
X31622000Y-178707900D03*
X27722000Y-181860000D03*
X26682000Y-188164200D03*
X30582000Y-187713900D03*
X27982000Y-181409700D03*
X21222000Y-190415700D03*
X26942000Y-187713900D03*
X30322000Y-185462400D03*
X22782000Y-190415700D03*
X27982000Y-188614500D03*
X22002000Y-187263600D03*
X22782000Y-185012100D03*
X25382000Y-189515100D03*
X20962000Y-180058800D03*
X28762000Y-189064800D03*
X30582000Y-188614500D03*
X22782000Y-184111500D03*
X23822000Y-187713900D03*
X32142000Y-180509100D03*
X21742000Y-178707900D03*
X23302000Y-179608500D03*
X23302000Y-185012100D03*
X22262000Y-186813300D03*
X25642000Y-179158200D03*
X26422000Y-190415700D03*
X28762000Y-184561800D03*
X22522000Y-189064800D03*
X26682000Y-187263600D03*
X20702000Y-188614500D03*
X28762000Y-179158200D03*
X30842000Y-189064800D03*
X20442000Y-179158200D03*
X21222000Y-183210900D03*
X20702000Y-189515100D03*
X32402000Y-180959400D03*
X19922000Y-180058800D03*
X31102000Y-184111500D03*
X23562000Y-186363000D03*
X31622000Y-183210900D03*
X28242000Y-190866000D03*
X31882000Y-185462400D03*
X25122000Y-189064800D03*
X24342000Y-187713900D03*
X24602000Y-190866000D03*
X20702000Y-186813300D03*
X27202000Y-180959400D03*
X32402000Y-183661200D03*
X23302000Y-189515100D03*
X24602000Y-182760600D03*
X20702000Y-182310300D03*
X32142000Y-178707900D03*
X29802000Y-182760600D03*
X30582000Y-185012100D03*
X29542000Y-182310300D03*
X21742000Y-181409700D03*
X28762000Y-182760600D03*
X19922000Y-182760600D03*
X31362000Y-180058800D03*
X31622000Y-187713900D03*
X20962000Y-180959400D03*
X21742000Y-188614500D03*
X30062000Y-185012100D03*
X30582000Y-181409700D03*
X31362000Y-182760600D03*
X20962000Y-185462400D03*
X24082000Y-182760600D03*
X30062000Y-181409700D03*
X27462000Y-190415700D03*
X25902000Y-187713900D03*
X31362000Y-190866000D03*
X28242000Y-186363000D03*
X21742000Y-186813300D03*
X23562000Y-183661200D03*
X24602000Y-179158200D03*
X23562000Y-190866000D03*
X27202000Y-187263600D03*
X29802000Y-189965400D03*
X30062000Y-183210900D03*
X20182000Y-186813300D03*
X26422000Y-181409700D03*
X22002000Y-181860000D03*
X20962000Y-186363000D03*
X21482000Y-187263600D03*
X30842000Y-181860000D03*
X25902000Y-182310300D03*
X21222000Y-182310300D03*
X22262000Y-179608500D03*
X31882000Y-183661200D03*
X24862000Y-182310300D03*
X26422000Y-189515100D03*
X27722000Y-188164200D03*
X22262000Y-187713900D03*
X31622000Y-188614500D03*
X28502000Y-178707900D03*
X25382000Y-190415700D03*
X23302000Y-187713900D03*
X32402000Y-189965400D03*
X30062000Y-185912700D03*
X24602000Y-189064800D03*
X30582000Y-182310300D03*
X30062000Y-180509100D03*
X24342000Y-188614500D03*
X32402000Y-189064800D03*
X28242000Y-189965400D03*
X23562000Y-181860000D03*
X20182000Y-179608500D03*
X23562000Y-189064800D03*
X27722000Y-179158200D03*
X25642000Y-187263600D03*
X22522000Y-189965400D03*
X21482000Y-189064800D03*
X27462000Y-180509100D03*
X32402000Y-181860000D03*
X23562000Y-187263600D03*
X30322000Y-184561800D03*
X23302000Y-184111500D03*
X21742000Y-184111500D03*
X22002000Y-180058800D03*
X22262000Y-180509100D03*
X26422000Y-179608500D03*
X28502000Y-181409700D03*
X27982000Y-186813300D03*
X31622000Y-179608500D03*
X32402000Y-182760600D03*
X22522000Y-188164200D03*
X29802000Y-180959400D03*
X24342000Y-189515100D03*
X28502000Y-186813300D03*
X21742000Y-185912700D03*
X22002000Y-186363000D03*
X29022000Y-180509100D03*
X25382000Y-181409700D03*
X29542000Y-188614500D03*
X32402000Y-179158200D03*
X21742000Y-187713900D03*
X23302000Y-186813300D03*
X20442000Y-189064800D03*
X20182000Y-190415700D03*
X29022000Y-178707900D03*
X29282000Y-179158200D03*
X28242000Y-179158200D03*
X30842000Y-180058800D03*
X22002000Y-179158200D03*
X27982000Y-183210900D03*
X32402000Y-187263600D03*
X23822000Y-189515100D03*
X30322000Y-180959400D03*
X22782000Y-186813300D03*
X20702000Y-185912700D03*
X26162000Y-180959400D03*
X32142000Y-187713900D03*
X25642000Y-189965400D03*
X21222000Y-185912700D03*
X20442000Y-187263600D03*
X26162000Y-180058800D03*
X30842000Y-188164200D03*
X32142000Y-179608500D03*
X22002000Y-180959400D03*
X23302000Y-185912700D03*
X30582000Y-180509100D03*
X31362000Y-179158200D03*
X26162000Y-181860000D03*
X30322000Y-190866000D03*
X25902000Y-190415700D03*
X24082000Y-189965400D03*
X24862000Y-181409700D03*
X22262000Y-190415700D03*
X24082000Y-189064800D03*
X26682000Y-189965400D03*
X24862000Y-178707900D03*
X20182000Y-182310300D03*
X23042000Y-182760600D03*
X31362000Y-180959400D03*
X31622000Y-189515100D03*
X27722000Y-180058800D03*
X21222000Y-180509100D03*
X27202000Y-179158200D03*
X23302000Y-190415700D03*
X28242000Y-189064800D03*
X25122000Y-180058800D03*
X19922000Y-186363000D03*
X30062000Y-186813300D03*
X23562000Y-180959400D03*
X30062000Y-187713900D03*
X23562000Y-180058800D03*
X27462000Y-178707900D03*
X31102000Y-186813300D03*
X19922000Y-187263600D03*
X21482000Y-179158200D03*
X30582000Y-178707900D03*
D13*
X69844198Y-105145800D03*
D28*
X69844198Y-105641100D03*
D29*
X69846598Y-104802900D03*
D13*
X19560400Y-120347000D03*
D14*
X19560400Y-119851700D03*
D15*
X19558000Y-120689900D03*
D13*
X56699679Y-105437200D03*
D14*
X56699679Y-104941900D03*
D15*
X56697279Y-105780100D03*
D30*
X66804948Y-114511500D03*
X66804948Y-115646500D03*
D31*
X38100000Y-165152000D03*
X38100000Y-171652000D03*
D21*
X73987400Y-154682700D03*
X61648600Y-154682700D03*
D32*
X67836948Y-107238000D03*
X69836948Y-107238000D03*
D18*
X51308000Y-84576500D03*
X51308000Y-86576500D03*
D33*
X44098000Y-160528000D03*
X41148000Y-160528000D03*
D22*
X27927300Y-133607950D03*
D23*
X27432000Y-133607950D03*
D24*
X28270200Y-133610350D03*
D34*
X71755000Y-136700000D03*
X71755000Y-134700000D03*
D22*
X73687200Y-119637950D03*
D23*
X73191900Y-119637950D03*
D24*
X74030100Y-119640350D03*
D22*
X55968900Y-107190400D03*
D35*
X56464200Y-107190400D03*
D36*
X55626000Y-107188000D03*
D37*
X22584500Y-119997000D03*
X24659500Y-119997000D03*
D31*
X47625000Y-165152000D03*
X47625000Y-171652000D03*
D16*
X43982067Y-187713900D03*
X42682067Y-181860000D03*
D17*
X41122067Y-184800000D03*
D16*
X45542067Y-190415700D03*
X47362067Y-179158200D03*
X44502067Y-181409700D03*
X38262067Y-180509100D03*
X43462067Y-190415700D03*
X39562067Y-179158200D03*
X41902067Y-187713900D03*
X46582067Y-190415700D03*
X42682067Y-187263600D03*
X38522067Y-186363000D03*
X39562067Y-180959400D03*
X42682067Y-180058800D03*
X47362067Y-182760600D03*
X38782067Y-183210900D03*
X46322067Y-182760600D03*
X47102067Y-184111500D03*
X41122067Y-180058800D03*
X47102067Y-181409700D03*
X45022067Y-182310300D03*
X44242067Y-187263600D03*
X34882067Y-183661200D03*
X39042067Y-189064800D03*
X37482067Y-190866000D03*
X39042067Y-181860000D03*
X41382067Y-182310300D03*
X46322067Y-187263600D03*
X42942067Y-182310300D03*
X36702067Y-187713900D03*
X35402067Y-180058800D03*
X41642067Y-190866000D03*
X43722067Y-182760600D03*
X38782067Y-179608500D03*
X41902067Y-190415700D03*
X37482067Y-189965400D03*
X46842067Y-180058800D03*
X41382067Y-187713900D03*
X46322067Y-186363000D03*
X45022067Y-185012100D03*
X38522067Y-182760600D03*
X47102067Y-178707900D03*
X43722067Y-184561800D03*
X43982067Y-182310300D03*
X43202067Y-187263600D03*
X44242067Y-180058800D03*
X46062067Y-178707900D03*
X47362067Y-189965400D03*
X40082067Y-190866000D03*
X37222067Y-189515100D03*
X38782067Y-185912700D03*
X41122067Y-180959400D03*
X46062067Y-188614500D03*
X38522067Y-185462400D03*
X43982067Y-180509100D03*
X44762067Y-186363000D03*
X35662067Y-181409700D03*
X40602067Y-180058800D03*
X35662067Y-185012100D03*
X38522067Y-189064800D03*
X37482067Y-180959400D03*
X44242067Y-180959400D03*
X45282067Y-187263600D03*
X38002067Y-189965400D03*
X35142067Y-182310300D03*
X38262067Y-181409700D03*
X35142067Y-183210900D03*
X37742067Y-190415700D03*
X34882067Y-184561800D03*
X39302067Y-188614500D03*
X40862067Y-188614500D03*
X36182067Y-179608500D03*
X39822067Y-187713900D03*
X46062067Y-185912700D03*
X41902067Y-181409700D03*
X43462067Y-182310300D03*
X42942067Y-183210900D03*
X47102067Y-187713900D03*
X42682067Y-189965400D03*
X40862067Y-181409700D03*
X39562067Y-187263600D03*
X40862067Y-182310300D03*
X42162067Y-181860000D03*
X44762067Y-189064800D03*
X46582067Y-178707900D03*
X44242067Y-186363000D03*
X35402067Y-187263600D03*
X36962067Y-183661200D03*
X37742067Y-182310300D03*
X37742067Y-183210900D03*
X45022067Y-187713900D03*
X46842067Y-185462400D03*
X35142067Y-185012100D03*
X42942067Y-190415700D03*
X46842067Y-181860000D03*
X40082067Y-187263600D03*
X39302067Y-186813300D03*
X42682067Y-188164200D03*
X41382067Y-181409700D03*
X37742067Y-181409700D03*
X39302067Y-187713900D03*
X35662067Y-188614500D03*
X41382067Y-190415700D03*
X45542067Y-181409700D03*
X45802067Y-184561800D03*
X36442067Y-181860000D03*
X44762067Y-184561800D03*
X43722067Y-183661200D03*
X37482067Y-187263600D03*
X40602067Y-180959400D03*
X39562067Y-190866000D03*
X40082067Y-181860000D03*
X46062067Y-190415700D03*
X39042067Y-186363000D03*
X45542067Y-186813300D03*
X46842067Y-180959400D03*
X42162067Y-179158200D03*
X35922067Y-189965400D03*
X39042067Y-183661200D03*
X45282067Y-179158200D03*
X46582067Y-180509100D03*
X47102067Y-179608500D03*
X40602067Y-188164200D03*
X42942067Y-188614500D03*
X43462067Y-188614500D03*
X46842067Y-189064800D03*
X35662067Y-185912700D03*
X37742067Y-184111500D03*
X46322067Y-185462400D03*
X42422067Y-189515100D03*
X39302067Y-183210900D03*
X36702067Y-183210900D03*
X37742067Y-178707900D03*
X43462067Y-179608500D03*
X35922067Y-184561800D03*
X46842067Y-187263600D03*
X47102067Y-180509100D03*
X36962067Y-185462400D03*
X34882067Y-179158200D03*
X45802067Y-189965400D03*
X41642067Y-180959400D03*
X42422067Y-190415700D03*
X42162067Y-189064800D03*
X34882067Y-186363000D03*
X38782067Y-178707900D03*
X36442067Y-179158200D03*
X35142067Y-178707900D03*
X39562067Y-189064800D03*
X44502067Y-189515100D03*
X41122067Y-189965400D03*
X35142067Y-185912700D03*
X44242067Y-182760600D03*
X44502067Y-190415700D03*
X39822067Y-188614500D03*
X37482067Y-185462400D03*
X38522067Y-181860000D03*
X35402067Y-183661200D03*
X40602067Y-179158200D03*
X39822067Y-189515100D03*
X44242067Y-185462400D03*
X38002067Y-188164200D03*
X34882067Y-188164200D03*
X43982067Y-185012100D03*
X36182067Y-190415700D03*
X45802067Y-181860000D03*
X42422067Y-179608500D03*
X36702067Y-189515100D03*
X34882067Y-190866000D03*
X46582067Y-187713900D03*
X44242067Y-184561800D03*
X36962067Y-180959400D03*
X45802067Y-188164200D03*
X38782067Y-187713900D03*
X40602067Y-190866000D03*
X46842067Y-179158200D03*
X36442067Y-187263600D03*
X40342067Y-181409700D03*
X46582067Y-179608500D03*
X45282067Y-182760600D03*
X35662067Y-187713900D03*
X39822067Y-178707900D03*
X35922067Y-181860000D03*
X47362067Y-188164200D03*
X39302067Y-181409700D03*
X40342067Y-178707900D03*
X41642067Y-189965400D03*
X46322067Y-183661200D03*
X46062067Y-182310300D03*
X43722067Y-180058800D03*
X40082067Y-180959400D03*
X36962067Y-181860000D03*
X41382067Y-180509100D03*
X44502067Y-185012100D03*
X37742067Y-187713900D03*
X44242067Y-183661200D03*
X38782067Y-186813300D03*
X47102067Y-190415700D03*
X39042067Y-187263600D03*
X46062067Y-184111500D03*
X34882067Y-180959400D03*
X36702067Y-188614500D03*
X34882067Y-182760600D03*
X37742067Y-185012100D03*
X44242067Y-188164200D03*
X42422067Y-182310300D03*
X39302067Y-189515100D03*
X45542067Y-185012100D03*
X36442067Y-189965400D03*
X40602067Y-187263600D03*
X34882067Y-180058800D03*
X45022067Y-183210900D03*
X44762067Y-182760600D03*
X43462067Y-181409700D03*
X35142067Y-180509100D03*
X39562067Y-188164200D03*
X43722067Y-189965400D03*
X35922067Y-179158200D03*
X44502067Y-185912700D03*
X36442067Y-185462400D03*
X40342067Y-180509100D03*
X34882067Y-187263600D03*
X45022067Y-190415700D03*
X37482067Y-188164200D03*
X37222067Y-180509100D03*
X44502067Y-183210900D03*
X38002067Y-182760600D03*
X42682067Y-179158200D03*
X47102067Y-189515100D03*
X35662067Y-180509100D03*
X37222067Y-185912700D03*
X36182067Y-185012100D03*
X35402067Y-186363000D03*
X44762067Y-190866000D03*
X42162067Y-180058800D03*
X38522067Y-190866000D03*
X42422067Y-180509100D03*
X39822067Y-179608500D03*
X36702067Y-184111500D03*
X36702067Y-180509100D03*
X46062067Y-183210900D03*
X39042067Y-182760600D03*
X42942067Y-181409700D03*
X37222067Y-183210900D03*
X39042067Y-189965400D03*
X36442067Y-180058800D03*
X36182067Y-184111500D03*
X37222067Y-186813300D03*
X44762067Y-185462400D03*
X36182067Y-181409700D03*
X42942067Y-189515100D03*
X47362067Y-181860000D03*
X38782067Y-180509100D03*
X38262067Y-178707900D03*
X43982067Y-178707900D03*
X38262067Y-185912700D03*
X38002067Y-186363000D03*
X43982067Y-186813300D03*
X45282067Y-180058800D03*
X44502067Y-184111500D03*
X39302067Y-182310300D03*
X46582067Y-184111500D03*
X38002067Y-190866000D03*
X42682067Y-182760600D03*
X36962067Y-180058800D03*
X40862067Y-190415700D03*
X36702067Y-190415700D03*
X47102067Y-185912700D03*
X46322067Y-179158200D03*
X37742067Y-185912700D03*
X45282067Y-185462400D03*
X40082067Y-189064800D03*
X36702067Y-181409700D03*
X43982067Y-179608500D03*
X47102067Y-182310300D03*
X35402067Y-184561800D03*
X46582067Y-189515100D03*
X38002067Y-183661200D03*
X35922067Y-182760600D03*
X46062067Y-187713900D03*
X40862067Y-180509100D03*
X38522067Y-180058800D03*
X44242067Y-181860000D03*
X43202067Y-182760600D03*
X38522067Y-188164200D03*
X43202067Y-189064800D03*
X38782067Y-189515100D03*
X47362067Y-185462400D03*
X45542067Y-183210900D03*
X35142067Y-187713900D03*
X36442067Y-188164200D03*
X44762067Y-180959400D03*
X39562067Y-189965400D03*
X34882067Y-185462400D03*
X47102067Y-183210900D03*
X41122067Y-179158200D03*
X36962067Y-182760600D03*
X41382067Y-178707900D03*
X41122067Y-190866000D03*
X45282067Y-188164200D03*
X45282067Y-186363000D03*
X43462067Y-187713900D03*
X41122067Y-187263600D03*
X43202067Y-179158200D03*
X36182067Y-180509100D03*
X46322067Y-180058800D03*
X39042067Y-190866000D03*
X40862067Y-179608500D03*
X47102067Y-186813300D03*
X45022067Y-180509100D03*
X46322067Y-189064800D03*
X45022067Y-181409700D03*
X40602067Y-181860000D03*
X43722067Y-188164200D03*
X42942067Y-186813300D03*
X43982067Y-190415700D03*
X39302067Y-179608500D03*
X44762067Y-183661200D03*
X46062067Y-179608500D03*
X44502067Y-188614500D03*
X47362067Y-189064800D03*
X38002067Y-187263600D03*
X36182067Y-189515100D03*
X41382067Y-188614500D03*
X34882067Y-181860000D03*
X45022067Y-179608500D03*
X38782067Y-190415700D03*
X47362067Y-183661200D03*
X45802067Y-187263600D03*
X46582067Y-188614500D03*
X35402067Y-182760600D03*
X47362067Y-186363000D03*
X43982067Y-189515100D03*
X36962067Y-190866000D03*
X35402067Y-181860000D03*
X35402067Y-179158200D03*
X44502067Y-178707900D03*
X47102067Y-185012100D03*
X45542067Y-182310300D03*
X47362067Y-180058800D03*
X42942067Y-187713900D03*
X46582067Y-183210900D03*
X36962067Y-189064800D03*
X35402067Y-189965400D03*
X42422067Y-188614500D03*
X45022067Y-186813300D03*
X39822067Y-190415700D03*
X35402067Y-189064800D03*
X43202067Y-188164200D03*
X38002067Y-180959400D03*
X36182067Y-186813300D03*
X38002067Y-185462400D03*
X43462067Y-184111500D03*
X45282067Y-180959400D03*
X41122067Y-188164200D03*
X44242067Y-189965400D03*
X35402067Y-180959400D03*
X45542067Y-185912700D03*
X43722067Y-190866000D03*
X36182067Y-185912700D03*
X40342067Y-182310300D03*
X37742067Y-186813300D03*
X45022067Y-185912700D03*
X40862067Y-178707900D03*
X38262067Y-187713900D03*
X45802067Y-182760600D03*
X38782067Y-181409700D03*
X35402067Y-190866000D03*
X46842067Y-184561800D03*
X37482067Y-179158200D03*
X42682067Y-180959400D03*
X38002067Y-179158200D03*
X39042067Y-188164200D03*
X37742067Y-189515100D03*
X40602067Y-189064800D03*
X35922067Y-180959400D03*
X37222067Y-182310300D03*
X36962067Y-189965400D03*
X42422067Y-187713900D03*
X38522067Y-180959400D03*
X43722067Y-186363000D03*
X36702067Y-185912700D03*
X46062067Y-189515100D03*
X38002067Y-181860000D03*
X39822067Y-180509100D03*
X46582067Y-185912700D03*
X46322067Y-190866000D03*
X36442067Y-183661200D03*
X46062067Y-185012100D03*
X47362067Y-187263600D03*
X45542067Y-180509100D03*
X42162067Y-187263600D03*
X39562067Y-180058800D03*
X45802067Y-186363000D03*
X35922067Y-183661200D03*
X36442067Y-190866000D03*
X45542067Y-188614500D03*
X38522067Y-183661200D03*
X44242067Y-189064800D03*
X38262067Y-179608500D03*
X35662067Y-186813300D03*
X43982067Y-181409700D03*
X36182067Y-187713900D03*
X47102067Y-188614500D03*
X44762067Y-179158200D03*
X47362067Y-184561800D03*
X35142067Y-186813300D03*
X43982067Y-185912700D03*
X41642067Y-189064800D03*
X40862067Y-187713900D03*
X43202067Y-189965400D03*
X37482067Y-182760600D03*
X39302067Y-178707900D03*
X43202067Y-181860000D03*
X42162067Y-189965400D03*
X45802067Y-185462400D03*
X43462067Y-186813300D03*
X35142067Y-188614500D03*
X38002067Y-184561800D03*
X45282067Y-189965400D03*
X41642067Y-188164200D03*
X41902067Y-179608500D03*
X35402067Y-185462400D03*
X37222067Y-181409700D03*
X43722067Y-179158200D03*
X37742067Y-179608500D03*
X43462067Y-185912700D03*
X35922067Y-186363000D03*
X40082067Y-179158200D03*
X44242067Y-190866000D03*
X40602067Y-189965400D03*
X38262067Y-185012100D03*
X43202067Y-180959400D03*
X44762067Y-181860000D03*
X46582067Y-186813300D03*
X45282067Y-183661200D03*
X37482067Y-184561800D03*
X43982067Y-184111500D03*
X38262067Y-183210900D03*
X38522067Y-184561800D03*
X46842067Y-188164200D03*
X44762067Y-187263600D03*
X36182067Y-183210900D03*
X35922067Y-180058800D03*
X46322067Y-184561800D03*
X36702067Y-185012100D03*
X41902067Y-182310300D03*
X41902067Y-180509100D03*
X35662067Y-182310300D03*
X45802067Y-189064800D03*
X45802067Y-180058800D03*
X37482067Y-186363000D03*
X36962067Y-186363000D03*
X41902067Y-178707900D03*
X35922067Y-187263600D03*
X46842067Y-183661200D03*
X37742067Y-188614500D03*
X40082067Y-188164200D03*
X38782067Y-188614500D03*
X35662067Y-179608500D03*
X36442067Y-182760600D03*
X36702067Y-179608500D03*
X45542067Y-187713900D03*
X37222067Y-185012100D03*
X40342067Y-189515100D03*
X37222067Y-188614500D03*
X45282067Y-190866000D03*
X37482067Y-180058800D03*
X38002067Y-189064800D03*
X35402067Y-188164200D03*
X44762067Y-180058800D03*
X44502067Y-180509100D03*
X36962067Y-179158200D03*
X40082067Y-180058800D03*
X46322067Y-188164200D03*
X46322067Y-180959400D03*
X46582067Y-181409700D03*
X43462067Y-178707900D03*
X38522067Y-187263600D03*
X36962067Y-187263600D03*
X40342067Y-188614500D03*
X36962067Y-188164200D03*
X35922067Y-188164200D03*
X36962067Y-184561800D03*
X47362067Y-180959400D03*
X46842067Y-186363000D03*
X42942067Y-179608500D03*
X39822067Y-181409700D03*
X38262067Y-184111500D03*
X38262067Y-188614500D03*
X43462067Y-183210900D03*
X46062067Y-180509100D03*
X44242067Y-179158200D03*
X46062067Y-186813300D03*
X40342067Y-187713900D03*
X42162067Y-188164200D03*
X39042067Y-180959400D03*
X34882067Y-189965400D03*
X46842067Y-182760600D03*
X36442067Y-186363000D03*
X44762067Y-189965400D03*
X37222067Y-184111500D03*
X45542067Y-179608500D03*
X42682067Y-190866000D03*
X39302067Y-180509100D03*
X39822067Y-182310300D03*
X40342067Y-179608500D03*
X37482067Y-189064800D03*
X46322067Y-189965400D03*
X43722067Y-187263600D03*
X37222067Y-179608500D03*
X35922067Y-189064800D03*
X42162067Y-190866000D03*
X36702067Y-178707900D03*
X45542067Y-184111500D03*
X42942067Y-180509100D03*
X37222067Y-190415700D03*
X39042067Y-180058800D03*
X38262067Y-186813300D03*
X39562067Y-182760600D03*
X38782067Y-182310300D03*
X34882067Y-189064800D03*
X46842067Y-190866000D03*
X45802067Y-190866000D03*
X41642067Y-180058800D03*
X45282067Y-189064800D03*
X43202067Y-183661200D03*
X40342067Y-190415700D03*
X43202067Y-180058800D03*
X43722067Y-181860000D03*
X44762067Y-188164200D03*
X35662067Y-190415700D03*
X38522067Y-179158200D03*
X45022067Y-184111500D03*
X35922067Y-185462400D03*
X38002067Y-180058800D03*
X35142067Y-179608500D03*
X43722067Y-185462400D03*
X41642067Y-179158200D03*
X45802067Y-183661200D03*
X39042067Y-179158200D03*
X44502067Y-186813300D03*
X38262067Y-182310300D03*
X43462067Y-180509100D03*
X41902067Y-189515100D03*
X35662067Y-178707900D03*
X36702067Y-182310300D03*
X37482067Y-183661200D03*
X35662067Y-183210900D03*
X37222067Y-187713900D03*
X35662067Y-189515100D03*
X42422067Y-178707900D03*
X38522067Y-189965400D03*
X43202067Y-186363000D03*
X44502067Y-179608500D03*
X39562067Y-181860000D03*
X43462067Y-189515100D03*
X46582067Y-182310300D03*
X35922067Y-190866000D03*
X46842067Y-189965400D03*
X47362067Y-190866000D03*
X45802067Y-179158200D03*
X35142067Y-184111500D03*
X46582067Y-185012100D03*
X45802067Y-180959400D03*
X35142067Y-190415700D03*
X45022067Y-189515100D03*
X36442067Y-184561800D03*
X37742067Y-180509100D03*
X44502067Y-182310300D03*
X36182067Y-178707900D03*
X35662067Y-184111500D03*
X42682067Y-189064800D03*
X36182067Y-188614500D03*
X37482067Y-181860000D03*
X39302067Y-190415700D03*
X35142067Y-181409700D03*
X45022067Y-188614500D03*
X41382067Y-179608500D03*
X41642067Y-181860000D03*
X43722067Y-180959400D03*
X41382067Y-189515100D03*
X45542067Y-189515100D03*
X38782067Y-184111500D03*
X45022067Y-178707900D03*
X38262067Y-189515100D03*
X42942067Y-178707900D03*
X40862067Y-189515100D03*
X40082067Y-189965400D03*
X36442067Y-189064800D03*
X36702067Y-186813300D03*
X46322067Y-181860000D03*
X35142067Y-189515100D03*
X41642067Y-187263600D03*
X41902067Y-188614500D03*
X45282067Y-181860000D03*
X36182067Y-182310300D03*
X44502067Y-187713900D03*
X43982067Y-188614500D03*
X42162067Y-180959400D03*
X43722067Y-189064800D03*
X37222067Y-178707900D03*
X41122067Y-189064800D03*
X38262067Y-190415700D03*
X43982067Y-183210900D03*
X45542067Y-178707900D03*
X42422067Y-181409700D03*
X43202067Y-190866000D03*
X36442067Y-180959400D03*
X46062067Y-181409700D03*
X45282067Y-184561800D03*
X41122067Y-181860000D03*
D26*
X34051000Y-115824000D03*
D27*
X36591000Y-115824000D03*
X39131000Y-115824000D03*
D12*
X45600000Y-151900000D03*
D38*
X50393200Y-148106000D03*
X50393200Y-146026000D03*
D39*
X54198200Y-147066000D03*
D19*
X22606000Y-141732000D03*
D40*
X24892000Y-110641580D03*
X24892000Y-112716580D03*
D41*
X37584999Y-105460800D03*
D42*
X37592000Y-104267000D03*
D43*
X37539999Y-103606600D03*
D44*
X37590799Y-104851200D03*
D45*
X37641599Y-106146600D03*
D18*
X21776267Y-132521200D03*
X21776267Y-134521200D03*
X26924000Y-110679080D03*
X26924000Y-112679080D03*
D46*
X23368000Y-116240960D03*
X23368000Y-115095960D03*
D19*
X81534000Y-92075000D03*
D33*
X44098000Y-157226000D03*
X41148000Y-157226000D03*
D18*
X73660000Y-134684000D03*
X73660000Y-136684000D03*
D47*
X38354000Y-122316400D03*
X38354000Y-127416400D03*
D48*
X56642000Y-135417400D03*
X56642000Y-130317400D03*
D40*
X26924000Y-102520580D03*
X26924000Y-104595580D03*
D18*
X24892000Y-102520080D03*
X24892000Y-104520080D03*
D49*
X37359500Y-110998000D03*
X35284500Y-110998000D03*
D37*
X75162500Y-121920000D03*
X77237500Y-121920000D03*
D47*
X56642000Y-122316400D03*
X56642000Y-127416400D03*
D48*
X44450000Y-135417400D03*
X44450000Y-130317400D03*
D34*
X25670933Y-134537200D03*
X25670933Y-132537200D03*
D50*
X44866819Y-102555519D03*
X44513266Y-102909072D03*
X44159713Y-103262625D03*
X43806159Y-103616179D03*
X43452606Y-103969732D03*
X43099052Y-104323286D03*
X42745499Y-104676839D03*
X42391946Y-105030392D03*
X42038392Y-105383946D03*
X41684839Y-105737499D03*
X41331286Y-106091052D03*
X40977732Y-106444606D03*
X40624179Y-106798159D03*
X40270625Y-107151713D03*
X39917072Y-107505266D03*
X39563519Y-107858819D03*
D51*
X39563519Y-110581181D03*
X39917072Y-110934734D03*
X40270625Y-111288287D03*
X40624179Y-111641841D03*
X40977732Y-111995394D03*
X41331286Y-112348948D03*
X41684839Y-112702501D03*
X42038392Y-113056054D03*
X42391946Y-113409608D03*
X42745499Y-113763161D03*
X43099052Y-114116714D03*
X43452606Y-114470268D03*
X43806159Y-114823821D03*
X44159713Y-115177375D03*
X44513266Y-115530928D03*
X44866819Y-115884481D03*
D50*
X47589181Y-115884481D03*
X47942734Y-115530928D03*
X48296287Y-115177375D03*
X48649841Y-114823821D03*
X49003394Y-114470268D03*
X49356948Y-114116714D03*
X49710501Y-113763161D03*
X50064054Y-113409608D03*
X50417608Y-113056054D03*
X50771161Y-112702501D03*
X51124714Y-112348948D03*
X51478268Y-111995394D03*
X51831821Y-111641841D03*
X52185375Y-111288287D03*
X52538928Y-110934734D03*
X52892481Y-110581181D03*
D51*
X52892481Y-107858819D03*
X52538928Y-107505266D03*
X52185375Y-107151713D03*
X51831821Y-106798159D03*
X51478268Y-106444606D03*
X51124714Y-106091052D03*
X50771161Y-105737499D03*
X50417608Y-105383946D03*
X50064054Y-105030392D03*
X49710501Y-104676839D03*
X49356948Y-104323286D03*
X49003394Y-103969732D03*
X48649841Y-103616179D03*
X48296287Y-103262625D03*
X47942734Y-102909072D03*
X47589181Y-102555519D03*
D18*
X65786000Y-107188000D03*
X65786000Y-109188000D03*
X59182000Y-113448900D03*
X59182000Y-115448900D03*
D52*
X61722000Y-109050500D03*
X61722000Y-107325500D03*
D19*
X81534000Y-170180000D03*
D16*
X51120733Y-184111500D03*
X61520733Y-181409700D03*
X58660733Y-180959400D03*
X51900733Y-183661200D03*
X61780733Y-180959400D03*
X57620733Y-187263600D03*
X53200733Y-183210900D03*
X60220733Y-186363000D03*
X59180733Y-185462400D03*
X50340733Y-186363000D03*
X50080733Y-183210900D03*
X52420733Y-187263600D03*
X56840733Y-178707900D03*
X50860733Y-180959400D03*
X49820733Y-189965400D03*
X53460733Y-179158200D03*
X59700733Y-190866000D03*
X59440733Y-183210900D03*
X54240733Y-182310300D03*
X56060733Y-180959400D03*
X60740733Y-182760600D03*
X51640733Y-181409700D03*
X62300733Y-181860000D03*
X59440733Y-185012100D03*
X59960733Y-187713900D03*
X57360733Y-190415700D03*
X59700733Y-179158200D03*
X49820733Y-184561800D03*
X58400733Y-178707900D03*
X50340733Y-188164200D03*
X52420733Y-188164200D03*
X56320733Y-188614500D03*
X62300733Y-188164200D03*
X58400733Y-181409700D03*
X58400733Y-180509100D03*
X57620733Y-189064800D03*
X62040733Y-182310300D03*
X52940733Y-183661200D03*
X53460733Y-185462400D03*
X51900733Y-186363000D03*
X52680733Y-187713900D03*
X53460733Y-187263600D03*
X52160733Y-185012100D03*
X53980733Y-180959400D03*
X50860733Y-185462400D03*
X57620733Y-182760600D03*
X59180733Y-180058800D03*
X59440733Y-184111500D03*
X51380733Y-185462400D03*
X53980733Y-180058800D03*
X62040733Y-185012100D03*
X58400733Y-185912700D03*
X59180733Y-179158200D03*
X52160733Y-188614500D03*
X56580733Y-189064800D03*
X62300733Y-187263600D03*
X59700733Y-185462400D03*
X50080733Y-188614500D03*
X52160733Y-184111500D03*
X52680733Y-184111500D03*
X54240733Y-178707900D03*
X52160733Y-189515100D03*
X60480733Y-181409700D03*
X55020733Y-187263600D03*
X55800733Y-180509100D03*
X56840733Y-181409700D03*
X51640733Y-178707900D03*
X59440733Y-186813300D03*
X53720733Y-181409700D03*
X58400733Y-179608500D03*
X51120733Y-187713900D03*
X58140733Y-182760600D03*
X53720733Y-178707900D03*
X57620733Y-189965400D03*
X51380733Y-180959400D03*
X53720733Y-185912700D03*
X52420733Y-185462400D03*
X52940733Y-187263600D03*
X61000733Y-179608500D03*
X60220733Y-180058800D03*
X52940733Y-180959400D03*
X59960733Y-181409700D03*
X50080733Y-180509100D03*
X60740733Y-189064800D03*
X53720733Y-189515100D03*
X50340733Y-182760600D03*
X59700733Y-182760600D03*
X58660733Y-187263600D03*
X60480733Y-187713900D03*
X51120733Y-185012100D03*
X58920733Y-185012100D03*
X59440733Y-181409700D03*
X61520733Y-190415700D03*
X53200733Y-188614500D03*
X53460733Y-183661200D03*
X50600733Y-189515100D03*
X55020733Y-181860000D03*
X50860733Y-182760600D03*
X62040733Y-179608500D03*
X57880733Y-187713900D03*
X55540733Y-188164200D03*
X60220733Y-182760600D03*
X50860733Y-183661200D03*
X52420733Y-180058800D03*
X60220733Y-189064800D03*
X52420733Y-184561800D03*
X61260733Y-189064800D03*
X53460733Y-180058800D03*
X50600733Y-186813300D03*
X53460733Y-190866000D03*
X61260733Y-183661200D03*
X61520733Y-186813300D03*
X51120733Y-179608500D03*
X51900733Y-180058800D03*
X50860733Y-181860000D03*
X61780733Y-179158200D03*
X50080733Y-179608500D03*
X50600733Y-179608500D03*
X51640733Y-186813300D03*
X61520733Y-183210900D03*
X50600733Y-181409700D03*
X58920733Y-185912700D03*
X58920733Y-189515100D03*
X61260733Y-182760600D03*
X59440733Y-182310300D03*
X50340733Y-179158200D03*
X50860733Y-184561800D03*
X54240733Y-190415700D03*
X51380733Y-188164200D03*
X58140733Y-186363000D03*
X54500733Y-189064800D03*
X53460733Y-180959400D03*
X51380733Y-180058800D03*
X57620733Y-181860000D03*
X55800733Y-181409700D03*
X56320733Y-179608500D03*
X53460733Y-181860000D03*
X61780733Y-187263600D03*
X52940733Y-189965400D03*
X55800733Y-179608500D03*
X55800733Y-189515100D03*
X55020733Y-188164200D03*
X56580733Y-180058800D03*
X55020733Y-190866000D03*
X51640733Y-189515100D03*
X62040733Y-187713900D03*
X60740733Y-189965400D03*
X50340733Y-185462400D03*
X62300733Y-184561800D03*
X61520733Y-184111500D03*
X58920733Y-179608500D03*
X50860733Y-190866000D03*
X59180733Y-189064800D03*
X52940733Y-186363000D03*
X50340733Y-190866000D03*
X56320733Y-178707900D03*
X62300733Y-190866000D03*
X50080733Y-181409700D03*
X53980733Y-190866000D03*
X61520733Y-185012100D03*
X50860733Y-187263600D03*
X59960733Y-185012100D03*
X55800733Y-188614500D03*
X61520733Y-185912700D03*
X54240733Y-189515100D03*
X55540733Y-187263600D03*
X61000733Y-178707900D03*
X61000733Y-184111500D03*
X50080733Y-184111500D03*
X59700733Y-184561800D03*
X55280733Y-188614500D03*
X60220733Y-179158200D03*
X51380733Y-183661200D03*
X50340733Y-189064800D03*
X60740733Y-186363000D03*
X61780733Y-189064800D03*
X59960733Y-182310300D03*
X53460733Y-186363000D03*
X53980733Y-189064800D03*
X55020733Y-179158200D03*
X54760733Y-182310300D03*
X51380733Y-181860000D03*
X53720733Y-184111500D03*
X53200733Y-184111500D03*
X58660733Y-189064800D03*
X56060733Y-189064800D03*
X60740733Y-188164200D03*
X61260733Y-179158200D03*
X61520733Y-179608500D03*
X60740733Y-180058800D03*
X50860733Y-188164200D03*
X58920733Y-178707900D03*
X56060733Y-190866000D03*
X59440733Y-180509100D03*
X59440733Y-178707900D03*
X58660733Y-179158200D03*
X59440733Y-187713900D03*
X52420733Y-182760600D03*
X55800733Y-190415700D03*
X51900733Y-179158200D03*
X56580733Y-190866000D03*
X51120733Y-189515100D03*
X51120733Y-181409700D03*
X60480733Y-184111500D03*
X60740733Y-190866000D03*
X60220733Y-189965400D03*
X58140733Y-179158200D03*
X56060733Y-181860000D03*
X52940733Y-180058800D03*
X52420733Y-179158200D03*
X49820733Y-181860000D03*
X55540733Y-181860000D03*
X59180733Y-182760600D03*
X53460733Y-189965400D03*
X62300733Y-185462400D03*
X59960733Y-188614500D03*
X58920733Y-184111500D03*
X62300733Y-180959400D03*
X51640733Y-180509100D03*
X60220733Y-181860000D03*
X58140733Y-180959400D03*
X53720733Y-190415700D03*
X57360733Y-188614500D03*
X55280733Y-190415700D03*
X58660733Y-186363000D03*
X50600733Y-185912700D03*
X57100733Y-180959400D03*
X57100733Y-181860000D03*
X59440733Y-179608500D03*
X58920733Y-186813300D03*
X51380733Y-189064800D03*
X54500733Y-187263600D03*
X61000733Y-188614500D03*
X51640733Y-183210900D03*
X56320733Y-180509100D03*
X53720733Y-180509100D03*
X57360733Y-181409700D03*
X51900733Y-189064800D03*
X61780733Y-185462400D03*
X57620733Y-188164200D03*
X57100733Y-187263600D03*
X60220733Y-188164200D03*
X61520733Y-182310300D03*
X54240733Y-187713900D03*
X52680733Y-185012100D03*
X57880733Y-186813300D03*
X54760733Y-181409700D03*
X52160733Y-182310300D03*
X54240733Y-186813300D03*
X59960733Y-184111500D03*
X61260733Y-189965400D03*
X61780733Y-181860000D03*
X58400733Y-190415700D03*
X62300733Y-180058800D03*
X58660733Y-185462400D03*
X57100733Y-190866000D03*
X57880733Y-180509100D03*
X56580733Y-180959400D03*
X54760733Y-190415700D03*
X58400733Y-188614500D03*
X54500733Y-182760600D03*
X62040733Y-183210900D03*
X51120733Y-178707900D03*
X53200733Y-179608500D03*
X49820733Y-179158200D03*
X50080733Y-178707900D03*
X53200733Y-181409700D03*
X62300733Y-189965400D03*
X51120733Y-188614500D03*
X56060733Y-179158200D03*
X60480733Y-178707900D03*
X52680733Y-179608500D03*
X50340733Y-183661200D03*
X52680733Y-188614500D03*
X58660733Y-181860000D03*
X59960733Y-179608500D03*
X49820733Y-185462400D03*
X49820733Y-186363000D03*
X57620733Y-180959400D03*
X62040733Y-180509100D03*
X50600733Y-185012100D03*
X61000733Y-183210900D03*
X53460733Y-182760600D03*
X61260733Y-187263600D03*
X58140733Y-189064800D03*
X51900733Y-187263600D03*
X51640733Y-179608500D03*
X56580733Y-188164200D03*
X59700733Y-181860000D03*
X58400733Y-187713900D03*
X62040733Y-185912700D03*
X60220733Y-190866000D03*
X53200733Y-190415700D03*
X56840733Y-188614500D03*
X59960733Y-186813300D03*
X62040733Y-184111500D03*
X57880733Y-190415700D03*
X61780733Y-182760600D03*
X54500733Y-181860000D03*
X51640733Y-182310300D03*
X52160733Y-179608500D03*
X60740733Y-180959400D03*
X52940733Y-190866000D03*
X54760733Y-180509100D03*
X51120733Y-183210900D03*
X55280733Y-179608500D03*
X51120733Y-186813300D03*
X52940733Y-182760600D03*
X53200733Y-187713900D03*
X52420733Y-183661200D03*
X53460733Y-189064800D03*
X51640733Y-190415700D03*
X56840733Y-189515100D03*
X60480733Y-188614500D03*
X50340733Y-187263600D03*
X51120733Y-180509100D03*
X57880733Y-188614500D03*
X53720733Y-179608500D03*
X59440733Y-189515100D03*
X50600733Y-187713900D03*
X52940733Y-188164200D03*
X58920733Y-181409700D03*
X56060733Y-188164200D03*
X61780733Y-183661200D03*
X60480733Y-179608500D03*
X53200733Y-189515100D03*
X59700733Y-180959400D03*
X54500733Y-190866000D03*
X61780733Y-180058800D03*
X50340733Y-189965400D03*
X51120733Y-182310300D03*
X54240733Y-179608500D03*
X52680733Y-189515100D03*
X59700733Y-188164200D03*
X53720733Y-188614500D03*
X61000733Y-181409700D03*
X58140733Y-189965400D03*
X61260733Y-180058800D03*
X53200733Y-186813300D03*
D17*
X56060733Y-184800000D03*
D16*
X59180733Y-180959400D03*
X55540733Y-180058800D03*
X58140733Y-183661200D03*
X58660733Y-188164200D03*
X58660733Y-190866000D03*
X54760733Y-189515100D03*
X59700733Y-180058800D03*
X55280733Y-180509100D03*
X61260733Y-184561800D03*
X51900733Y-180959400D03*
X50600733Y-188614500D03*
X61000733Y-185912700D03*
X59180733Y-187263600D03*
X58140733Y-190866000D03*
X50080733Y-185912700D03*
X57880733Y-183210900D03*
X49820733Y-183661200D03*
X61260733Y-186363000D03*
X52160733Y-181409700D03*
X59960733Y-178707900D03*
X61260733Y-181860000D03*
X61000733Y-186813300D03*
X61000733Y-189515100D03*
X51640733Y-187713900D03*
X56060733Y-180058800D03*
X49820733Y-180959400D03*
X53200733Y-185012100D03*
X50600733Y-184111500D03*
X60740733Y-179158200D03*
X51380733Y-189965400D03*
X51900733Y-189965400D03*
X62300733Y-186363000D03*
X49820733Y-189064800D03*
X56580733Y-187263600D03*
X60480733Y-180509100D03*
X50080733Y-185012100D03*
X54500733Y-188164200D03*
X54500733Y-180959400D03*
X61520733Y-187713900D03*
X59700733Y-183661200D03*
X58400733Y-189515100D03*
X56580733Y-181860000D03*
X50860733Y-189064800D03*
X56580733Y-179158200D03*
X50340733Y-181860000D03*
X60480733Y-185012100D03*
X49820733Y-188164200D03*
X55280733Y-178707900D03*
X61260733Y-180959400D03*
X52420733Y-189965400D03*
X60740733Y-183661200D03*
X50860733Y-179158200D03*
X51640733Y-185912700D03*
X59960733Y-189515100D03*
X58920733Y-182310300D03*
X61780733Y-184561800D03*
X56320733Y-181409700D03*
X52160733Y-180509100D03*
X50600733Y-180509100D03*
X62300733Y-183661200D03*
X56580733Y-189965400D03*
X51900733Y-185462400D03*
X58140733Y-180058800D03*
X56060733Y-189965400D03*
X51380733Y-186363000D03*
X62040733Y-190415700D03*
X50080733Y-182310300D03*
X55280733Y-181409700D03*
X58140733Y-181860000D03*
X59440733Y-185912700D03*
X61000733Y-190415700D03*
X53980733Y-188164200D03*
X51900733Y-190866000D03*
X51640733Y-184111500D03*
X60480733Y-185912700D03*
X51900733Y-188164200D03*
X59180733Y-183661200D03*
X62040733Y-178707900D03*
X61780733Y-188164200D03*
X58920733Y-183210900D03*
X52420733Y-189064800D03*
X54240733Y-181409700D03*
X60740733Y-181860000D03*
X56320733Y-182310300D03*
X57620733Y-180058800D03*
X55540733Y-190866000D03*
X57100733Y-180058800D03*
X49820733Y-190866000D03*
X52680733Y-186813300D03*
X50600733Y-183210900D03*
X60480733Y-189515100D03*
X57360733Y-179608500D03*
X58660733Y-183661200D03*
X49820733Y-182760600D03*
X53200733Y-185912700D03*
X52420733Y-190866000D03*
X58920733Y-188614500D03*
X54240733Y-188614500D03*
X53980733Y-181860000D03*
X52940733Y-184561800D03*
X54760733Y-187713900D03*
X61780733Y-190866000D03*
X61000733Y-180509100D03*
X54240733Y-183210900D03*
X52160733Y-185912700D03*
X57880733Y-182310300D03*
X53200733Y-180509100D03*
X56840733Y-187713900D03*
X59960733Y-190415700D03*
X52160733Y-183210900D03*
X59180733Y-190866000D03*
X51640733Y-185012100D03*
X55540733Y-189064800D03*
X56840733Y-180509100D03*
X62040733Y-189515100D03*
X61260733Y-190866000D03*
X62040733Y-181409700D03*
X50080733Y-190415700D03*
X54500733Y-179158200D03*
X62300733Y-182760600D03*
X51120733Y-185912700D03*
X50080733Y-189515100D03*
X52680733Y-185912700D03*
X50340733Y-180058800D03*
X55280733Y-187713900D03*
X59960733Y-180509100D03*
X55020733Y-180959400D03*
X55800733Y-178707900D03*
X59700733Y-189064800D03*
X57360733Y-178707900D03*
X59700733Y-186363000D03*
X60220733Y-180959400D03*
X60740733Y-185462400D03*
X53980733Y-186363000D03*
X55280733Y-189515100D03*
X52160733Y-190415700D03*
X59440733Y-188614500D03*
X53460733Y-188164200D03*
X58400733Y-183210900D03*
X60480733Y-186813300D03*
X61520733Y-180509100D03*
X54500733Y-180058800D03*
X57880733Y-181409700D03*
X59180733Y-184561800D03*
X59180733Y-189965400D03*
X52680733Y-180509100D03*
X57880733Y-178707900D03*
X52940733Y-189064800D03*
X52420733Y-181860000D03*
X57620733Y-190866000D03*
X58400733Y-182310300D03*
X59180733Y-188164200D03*
X60220733Y-184561800D03*
X57880733Y-189515100D03*
X58400733Y-184111500D03*
X61520733Y-189515100D03*
X57100733Y-189965400D03*
X59700733Y-187263600D03*
X51380733Y-182760600D03*
X54760733Y-179608500D03*
X57360733Y-180509100D03*
X55280733Y-182310300D03*
X52680733Y-183210900D03*
X49820733Y-187263600D03*
X59180733Y-181860000D03*
X51900733Y-181860000D03*
X52940733Y-179158200D03*
X60220733Y-187263600D03*
X56320733Y-189515100D03*
X56840733Y-190415700D03*
X60740733Y-184561800D03*
X55540733Y-179158200D03*
X55540733Y-180959400D03*
X50600733Y-190415700D03*
X52680733Y-190415700D03*
X57100733Y-189064800D03*
X53200733Y-182310300D03*
X51900733Y-184561800D03*
X50600733Y-178707900D03*
X59960733Y-185912700D03*
X55020733Y-189965400D03*
X62040733Y-186813300D03*
X61780733Y-189965400D03*
X60220733Y-185462400D03*
X61260733Y-188164200D03*
X61000733Y-185012100D03*
X58140733Y-187263600D03*
X60480733Y-182310300D03*
X61520733Y-188614500D03*
X55020733Y-189064800D03*
X58920733Y-187713900D03*
X60480733Y-190415700D03*
X54240733Y-180509100D03*
X51120733Y-190415700D03*
X50860733Y-180058800D03*
X56320733Y-190415700D03*
X51380733Y-187263600D03*
X57620733Y-179158200D03*
X53720733Y-182310300D03*
X59700733Y-189965400D03*
X51380733Y-190866000D03*
X53980733Y-182760600D03*
X50340733Y-180959400D03*
X52420733Y-180959400D03*
X50340733Y-184561800D03*
X56840733Y-182310300D03*
X57100733Y-179158200D03*
X54760733Y-188614500D03*
X53980733Y-189965400D03*
X57360733Y-182310300D03*
X53980733Y-187263600D03*
X61000733Y-187713900D03*
X55020733Y-180058800D03*
X54500733Y-189965400D03*
X52160733Y-178707900D03*
X59960733Y-183210900D03*
X53980733Y-183661200D03*
X50860733Y-186363000D03*
X60480733Y-183210900D03*
X57880733Y-179608500D03*
X56840733Y-179608500D03*
X53460733Y-184561800D03*
X61260733Y-185462400D03*
X62300733Y-179158200D03*
X61000733Y-182310300D03*
X50860733Y-189965400D03*
X53720733Y-187713900D03*
X53980733Y-179158200D03*
X50600733Y-182310300D03*
X53720733Y-186813300D03*
X58920733Y-190415700D03*
X54760733Y-178707900D03*
X58660733Y-184561800D03*
X55800733Y-182310300D03*
X52940733Y-181860000D03*
X53200733Y-178707900D03*
X57360733Y-187713900D03*
X58140733Y-188164200D03*
X50080733Y-187713900D03*
X57100733Y-188164200D03*
X58660733Y-189965400D03*
X52940733Y-185462400D03*
X51640733Y-188614500D03*
X58660733Y-182760600D03*
X50080733Y-186813300D03*
X51380733Y-184561800D03*
X58920733Y-180509100D03*
X56320733Y-187713900D03*
X61780733Y-186363000D03*
X58660733Y-180058800D03*
X59440733Y-190415700D03*
X61520733Y-178707900D03*
X62300733Y-189064800D03*
X49820733Y-180058800D03*
X56060733Y-187263600D03*
X55800733Y-187713900D03*
X51900733Y-182760600D03*
X57360733Y-189515100D03*
X52420733Y-186363000D03*
X51380733Y-179158200D03*
X53720733Y-183210900D03*
X58400733Y-186813300D03*
X52680733Y-181409700D03*
X60740733Y-187263600D03*
X52680733Y-182310300D03*
X52160733Y-187713900D03*
X59180733Y-186363000D03*
X55540733Y-189965400D03*
X62040733Y-188614500D03*
X52160733Y-186813300D03*
X60220733Y-183661200D03*
X52680733Y-178707900D03*
D53*
X54623231Y-113547836D03*
D54*
X54273001Y-113197606D03*
D55*
X54864000Y-113792000D03*
D56*
X73914000Y-130063000D03*
X75184000Y-130063000D03*
X76454000Y-130063000D03*
X77724000Y-130063000D03*
X77724000Y-125113000D03*
X76454000Y-125113000D03*
X75184000Y-125113000D03*
X73914000Y-125113000D03*
D40*
X48260000Y-84539000D03*
X48260000Y-86614000D03*
D18*
X77470000Y-134716000D03*
X77470000Y-136716000D03*
D48*
X38354000Y-135417400D03*
X38354000Y-130317400D03*
D40*
X43180000Y-97768500D03*
X43180000Y-99843500D03*
D57*
X39892600Y-94219700D03*
X37378000Y-94219700D03*
X34838000Y-94219700D03*
X32298000Y-94219700D03*
D12*
X41910000Y-151892000D03*
D19*
X15875000Y-131127500D03*
D40*
X26924000Y-106596080D03*
X26924000Y-108671080D03*
D32*
X26940000Y-87376000D03*
X28940000Y-87376000D03*
D13*
X54544417Y-105437199D03*
D14*
X54544417Y-104941899D03*
D15*
X54542017Y-105780099D03*
D58*
X45553200Y-141351000D03*
D59*
X42003200Y-143256000D03*
X42003200Y-141986000D03*
X42003200Y-140716000D03*
X42003200Y-139446000D03*
D18*
X26924000Y-114668460D03*
X26924000Y-116668460D03*
D13*
X72976600Y-121871000D03*
D14*
X72976600Y-121375700D03*
D15*
X72974200Y-122213900D03*
D13*
X55622050Y-105437200D03*
D14*
X55622050Y-104941900D03*
D15*
X55619650Y-105780100D03*
D19*
X74676000Y-141986000D03*
D34*
X63754000Y-109188000D03*
X63754000Y-107188000D03*
D37*
X26902500Y-89408000D03*
X28977500Y-89408000D03*
D31*
X66675000Y-165533000D03*
X66675000Y-172033000D03*
D60*
X74803000Y-104911000D03*
X74803000Y-102861000D03*
D30*
X54610000Y-109414500D03*
X54610000Y-110549500D03*
D61*
X21133500Y-169425000D03*
X27233500Y-169425000D03*
D62*
X69786948Y-109769000D03*
X67886948Y-109769000D03*
X68836948Y-112769000D03*
D22*
X57630800Y-107184050D03*
D35*
X58126100Y-107184050D03*
D36*
X57287900Y-107181650D03*
D19*
X81534000Y-131127500D03*
D26*
X71643000Y-116078000D03*
D27*
X74183000Y-116078000D03*
X76723000Y-116078000D03*
D47*
X62738000Y-122316400D03*
X62738000Y-127416400D03*
D56*
X28956000Y-107058000D03*
X30226000Y-107058000D03*
X31496000Y-107058000D03*
X32766000Y-107058000D03*
X32766000Y-102108000D03*
X31496000Y-102108000D03*
X30226000Y-102108000D03*
X28956000Y-102108000D03*
D32*
X22638000Y-130556000D03*
X24638000Y-130556000D03*
D56*
X61341000Y-116505000D03*
X62611000Y-116505000D03*
X63881000Y-116505000D03*
X65151000Y-116505000D03*
X65151000Y-111555000D03*
X63881000Y-111555000D03*
X62611000Y-111555000D03*
X61341000Y-111555000D03*
D58*
X45553200Y-147066000D03*
D59*
X42003200Y-148971000D03*
X42003200Y-146431000D03*
X42003200Y-145161000D03*
X42003200Y-147701000D03*
D47*
X44450000Y-122291000D03*
X44450000Y-127391000D03*
X50546000Y-122316400D03*
X50546000Y-127416400D03*
D56*
X21717000Y-127951000D03*
X22987000Y-127951000D03*
X24257000Y-127951000D03*
X25527000Y-127951000D03*
X25527000Y-123001000D03*
X24257000Y-123001000D03*
X22987000Y-123001000D03*
X21717000Y-123001000D03*
D13*
X67824898Y-105178800D03*
D28*
X67824898Y-105674100D03*
D29*
X67827298Y-104835900D03*
D46*
X23368000Y-112425080D03*
X23368000Y-111280080D03*
D63*
X36003500Y-97282000D03*
X37148500Y-97282000D03*
D32*
X58055000Y-102235000D03*
X60055000Y-102235000D03*
D18*
X19828000Y-124412000D03*
X19828000Y-126412000D03*
D64*
X39517283Y-104500717D03*
X38714717Y-105303283D03*
D38*
X50393200Y-142391000D03*
X50393200Y-140311000D03*
D39*
X54198200Y-141351000D03*
D31*
X57150000Y-165533000D03*
X57150000Y-172033000D03*
D65*
X55550909Y-102122068D03*
X56570909Y-102122068D03*
D18*
X46228000Y-84576500D03*
X46228000Y-86576500D03*
D66*
X35814000Y-106934000D03*
X35814000Y-104859000D03*
D26*
X20574000Y-106834540D03*
D27*
X20574000Y-109374540D03*
D12*
X36576000Y-142748000D03*
D48*
X62738000Y-135417400D03*
X62738000Y-130317400D03*
D30*
X27101800Y-164710300D03*
X27101800Y-165845300D03*
D46*
X25527000Y-88964500D03*
X25527000Y-87819500D03*
D63*
X33463500Y-97282000D03*
X34608500Y-97282000D03*
D32*
X47006000Y-137541000D03*
X49006000Y-137541000D03*
D19*
X15875000Y-170180000D03*
D40*
X26924000Y-98445080D03*
X26924000Y-100520080D03*
D32*
X74581000Y-132668000D03*
X76581000Y-132668000D03*
X56404000Y-137541000D03*
X58404000Y-137541000D03*
D67*
X42819283Y-116987283D03*
X42016717Y-116184717D03*
D13*
X67816998Y-115360200D03*
D14*
X67816998Y-114864900D03*
D15*
X67814598Y-115703100D03*
D40*
X24892000Y-114630960D03*
X24892000Y-116705960D03*
D13*
X20824050Y-120347000D03*
D14*
X20824050Y-119851700D03*
D15*
X20821650Y-120689900D03*
D13*
X26012000Y-120129300D03*
D14*
X26012000Y-119634000D03*
D15*
X26009600Y-120472200D03*
D68*
X51816000Y-117602000D03*
D40*
X26924000Y-94482500D03*
X26924000Y-96557500D03*
D26*
X20574000Y-95414540D03*
D27*
X20574000Y-97954540D03*
X20574000Y-100494540D03*
X20574000Y-103034540D03*
D69*
X20916000Y-173736000D03*
X26416000Y-173736000D03*
D18*
X71882000Y-126524000D03*
X71882000Y-128524000D03*
X24892000Y-98455580D03*
X24892000Y-100455580D03*
D22*
X27927300Y-135636000D03*
D23*
X27432000Y-135636000D03*
D24*
X28270200Y-135638400D03*
D12*
X49682400Y-151892000D03*
D68*
X51308000Y-115570000D03*
D18*
X19828934Y-132521200D03*
X19828934Y-134521200D03*
D40*
X56134000Y-108563500D03*
X56134000Y-110638500D03*
D70*
X22833500Y-164538000D03*
X22833500Y-165488000D03*
X22833500Y-166438000D03*
X25533500Y-166438000D03*
X25533500Y-164538000D03*
D18*
X23723600Y-132537200D03*
X23723600Y-134537200D03*
D12*
X58400000Y-142400000D03*
D48*
X50546000Y-135417400D03*
X50546000Y-130317400D03*
D68*
X50038000Y-116967000D03*
D53*
X53989507Y-114438112D03*
D54*
X53639277Y-114087882D03*
D55*
X54230276Y-114682276D03*
D18*
X24892000Y-106584580D03*
X24892000Y-108584580D03*
D71*
X72136000Y-110192000D03*
X72136000Y-104692000D03*
D72*
X74859000Y-107696000D03*
D73*
X74859000Y-110236000D03*
X74859000Y-112776000D03*
D74*
X45085000Y-90682000D03*
X56515000Y-90682000D03*
D12*
X46355000Y-97032000D03*
D75*
X47625000Y-99572000D03*
X48895000Y-97032000D03*
X50165000Y-99572000D03*
X51435000Y-97032000D03*
X52705000Y-99572000D03*
X53975000Y-97032000D03*
X55245000Y-99572000D03*
D76*
X43050000Y-93732000D03*
X58550000Y-93732000D03*
D74*
X74803000Y-90682000D03*
X63373000Y-90682000D03*
D12*
X64643000Y-97032000D03*
D75*
X65913000Y-99572000D03*
X67183000Y-97032000D03*
X68453000Y-99572000D03*
X69723000Y-97032000D03*
X70993000Y-99572000D03*
X72263000Y-97032000D03*
X73533000Y-99572000D03*
D76*
X76838000Y-93732000D03*
X61338000Y-93732000D03*
M02*
