M48
; DRILL file {KiCad (6.0.9)} date Thu 24 Nov 2022 03:29:17 PM -03
; FORMAT={-:-/ absolute / inch / decimal}
; #@! TF.CreationDate,2022-11-24T15:29:17-03:00
; #@! TF.GenerationSoftware,Kicad,Pcbnew,(6.0.9)
; #@! TF.FileFunction,Plated,1,4,PTH
FMAT,2
INCH
; #@! TA.AperFunction,Plated,PTH,ViaDrill
T1C0.0079
; #@! TA.AperFunction,Plated,PTH,ViaDrill
T2C0.0118
; #@! TA.AperFunction,Plated,PTH,ViaDrill
T3C0.0157
; #@! TA.AperFunction,Plated,PTH,ComponentDrill
T4C0.0354
; #@! TA.AperFunction,Plated,PTH,ComponentDrill
T5C0.0394
; #@! TA.AperFunction,Plated,PTH,ComponentDrill
T6C0.0423
; #@! TA.AperFunction,Plated,PTH,ComponentDrill
T7C0.0433
; #@! TA.AperFunction,Plated,PTH,ComponentDrill
T8C0.0630
; #@! TA.AperFunction,Plated,PTH,ComponentDrill
T9C0.1575
%
G90
G05
T1
X0.774Y-6.606
X0.774Y-6.662
X0.774Y-6.719
X0.774Y-6.775
X0.774Y-6.831
X0.774Y-6.887
X0.779Y-6.986
X0.779Y-7.042
X0.779Y-7.098
X0.779Y-7.154
X0.779Y-7.21
X0.779Y-7.266
X0.779Y-7.322
X0.779Y-7.378
X0.779Y-7.434
X0.779Y-7.49
X0.79Y-6.634
X0.79Y-6.69
X0.79Y-6.747
X0.79Y-6.803
X0.79Y-6.859
X0.795Y-6.958
X0.795Y-7.014
X0.795Y-7.07
X0.795Y-7.126
X0.795Y-7.182
X0.795Y-7.238
X0.795Y-7.294
X0.795Y-7.35
X0.795Y-7.406
X0.795Y-7.462
X0.806Y-6.606
X0.806Y-6.662
X0.806Y-6.719
X0.806Y-6.775
X0.806Y-6.831
X0.806Y-6.887
X0.811Y-6.986
X0.811Y-7.042
X0.811Y-7.098
X0.811Y-7.154
X0.811Y-7.21
X0.811Y-7.266
X0.811Y-7.322
X0.811Y-7.378
X0.811Y-7.434
X0.811Y-7.49
X0.822Y-6.634
X0.822Y-6.69
X0.822Y-6.747
X0.822Y-6.803
X0.822Y-6.859
X0.827Y-6.958
X0.827Y-7.014
X0.827Y-7.07
X0.827Y-7.126
X0.827Y-7.182
X0.827Y-7.238
X0.827Y-7.294
X0.827Y-7.35
X0.827Y-7.406
X0.827Y-7.462
X0.838Y-6.606
X0.838Y-6.662
X0.838Y-6.719
X0.838Y-6.775
X0.838Y-6.831
X0.838Y-6.887
X0.843Y-6.986
X0.843Y-7.042
X0.843Y-7.098
X0.843Y-7.154
X0.843Y-7.21
X0.843Y-7.266
X0.843Y-7.322
X0.843Y-7.378
X0.843Y-7.434
X0.843Y-7.49
X0.854Y-6.634
X0.854Y-6.69
X0.854Y-6.747
X0.854Y-6.803
X0.854Y-6.859
X0.859Y-6.958
X0.859Y-7.014
X0.859Y-7.07
X0.859Y-7.126
X0.859Y-7.182
X0.859Y-7.238
X0.859Y-7.294
X0.859Y-7.35
X0.859Y-7.406
X0.859Y-7.462
X0.87Y-6.606
X0.87Y-6.662
X0.87Y-6.719
X0.87Y-6.775
X0.87Y-6.831
X0.87Y-6.887
X0.875Y-6.986
X0.875Y-7.042
X0.875Y-7.098
X0.875Y-7.154
X0.875Y-7.21
X0.875Y-7.266
X0.875Y-7.322
X0.875Y-7.378
X0.875Y-7.434
X0.875Y-7.49
X0.886Y-6.803
X0.886Y-6.859
X0.891Y-6.958
X0.891Y-7.014
X0.891Y-7.07
X0.891Y-7.126
X0.891Y-7.182
X0.891Y-7.238
X0.891Y-7.294
X0.891Y-7.35
X0.891Y-7.406
X0.891Y-7.462
X0.907Y-6.986
X0.907Y-7.042
X0.907Y-7.098
X0.907Y-7.154
X0.907Y-7.21
X0.907Y-7.266
X0.907Y-7.322
X0.907Y-7.378
X0.907Y-7.434
X0.907Y-7.49
X0.923Y-6.958
X0.923Y-7.014
X0.923Y-7.07
X0.923Y-7.126
X0.923Y-7.182
X0.923Y-7.238
X0.923Y-7.294
X0.923Y-7.35
X0.923Y-7.406
X0.923Y-7.462
X0.938Y-6.652
X0.938Y-6.708
X0.939Y-6.817
X0.939Y-6.873
X0.939Y-6.93
X0.939Y-6.986
X0.939Y-7.042
X0.939Y-7.098
X0.939Y-7.154
X0.939Y-7.322
X0.939Y-7.378
X0.939Y-7.434
X0.939Y-7.49
X0.954Y-6.624
X0.954Y-6.68
X0.954Y-6.736
X0.955Y-6.845
X0.955Y-6.901
X0.955Y-6.958
X0.955Y-7.014
X0.955Y-7.07
X0.955Y-7.126
X0.955Y-7.35
X0.955Y-7.406
X0.955Y-7.462
X0.97Y-6.596
X0.97Y-6.652
X0.97Y-6.708
X0.971Y-6.817
X0.971Y-6.873
X0.971Y-6.93
X0.971Y-6.986
X0.971Y-7.042
X0.971Y-7.098
X0.971Y-7.154
X0.971Y-7.378
X0.971Y-7.434
X0.971Y-7.49
X0.986Y-6.624
X0.986Y-6.68
X0.986Y-6.736
X0.987Y-6.845
X0.987Y-6.901
X0.987Y-6.958
X0.987Y-7.014
X0.987Y-7.07
X0.987Y-7.126
X0.987Y-7.35
X0.987Y-7.406
X0.987Y-7.462
X1.002Y-6.596
X1.002Y-6.652
X1.002Y-6.708
X1.003Y-6.817
X1.003Y-6.873
X1.003Y-6.93
X1.003Y-6.986
X1.003Y-7.042
X1.003Y-7.098
X1.003Y-7.378
X1.003Y-7.434
X1.003Y-7.49
X1.018Y-6.624
X1.018Y-6.68
X1.018Y-6.736
X1.019Y-6.845
X1.019Y-6.901
X1.019Y-6.958
X1.019Y-7.014
X1.019Y-7.07
X1.019Y-7.126
X1.019Y-7.35
X1.019Y-7.406
X1.019Y-7.462
X1.034Y-6.596
X1.034Y-6.652
X1.034Y-6.708
X1.035Y-6.817
X1.035Y-6.873
X1.035Y-6.93
X1.035Y-6.986
X1.035Y-7.042
X1.035Y-7.098
X1.035Y-7.378
X1.035Y-7.434
X1.035Y-7.49
X1.05Y-6.624
X1.05Y-6.68
X1.05Y-6.736
X1.051Y-6.845
X1.051Y-6.901
X1.051Y-6.958
X1.051Y-7.014
X1.051Y-7.07
X1.051Y-7.126
X1.051Y-7.35
X1.051Y-7.406
X1.051Y-7.462
X1.066Y-6.596
X1.066Y-6.652
X1.066Y-6.708
X1.067Y-6.817
X1.067Y-6.873
X1.067Y-6.93
X1.067Y-6.986
X1.067Y-7.042
X1.067Y-7.098
X1.067Y-7.378
X1.067Y-7.434
X1.067Y-7.49
X1.082Y-6.624
X1.082Y-6.68
X1.082Y-6.736
X1.083Y-6.845
X1.083Y-6.901
X1.083Y-6.958
X1.083Y-7.014
X1.083Y-7.07
X1.083Y-7.126
X1.083Y-7.35
X1.083Y-7.406
X1.083Y-7.462
X1.098Y-6.596
X1.098Y-6.652
X1.098Y-6.708
X1.099Y-6.817
X1.099Y-6.873
X1.099Y-6.93
X1.099Y-6.986
X1.099Y-7.042
X1.099Y-7.098
X1.099Y-7.154
X1.099Y-7.322
X1.099Y-7.378
X1.099Y-7.434
X1.099Y-7.49
X1.114Y-6.624
X1.114Y-6.68
X1.114Y-6.736
X1.115Y-6.845
X1.115Y-6.901
X1.115Y-6.958
X1.115Y-7.014
X1.115Y-7.07
X1.115Y-7.126
X1.115Y-7.182
X1.115Y-7.35
X1.115Y-7.406
X1.115Y-7.462
X1.13Y-6.596
X1.13Y-6.652
X1.13Y-6.708
X1.131Y-6.817
X1.131Y-6.873
X1.131Y-6.93
X1.131Y-6.986
X1.131Y-7.042
X1.131Y-7.098
X1.131Y-7.154
X1.131Y-7.21
X1.131Y-7.266
X1.131Y-7.322
X1.131Y-7.378
X1.131Y-7.434
X1.131Y-7.49
X1.146Y-6.624
X1.146Y-6.68
X1.146Y-6.736
X1.147Y-6.845
X1.147Y-6.901
X1.147Y-6.958
X1.147Y-7.014
X1.147Y-7.07
X1.147Y-7.126
X1.147Y-7.182
X1.147Y-7.238
X1.147Y-7.294
X1.147Y-7.35
X1.147Y-7.406
X1.147Y-7.462
X1.162Y-6.652
X1.162Y-6.708
X1.163Y-6.817
X1.163Y-6.873
X1.163Y-6.93
X1.163Y-6.986
X1.163Y-7.042
X1.163Y-7.098
X1.163Y-7.154
X1.163Y-7.21
X1.163Y-7.266
X1.163Y-7.322
X1.163Y-7.378
X1.163Y-7.434
X1.163Y-7.49
X1.179Y-6.845
X1.179Y-6.901
X1.179Y-6.958
X1.179Y-7.014
X1.179Y-7.07
X1.179Y-7.126
X1.179Y-7.182
X1.179Y-7.238
X1.179Y-7.294
X1.179Y-7.35
X1.179Y-7.406
X1.179Y-7.462
X1.195Y-6.817
X1.195Y-6.873
X1.195Y-6.93
X1.195Y-6.986
X1.195Y-7.042
X1.195Y-7.098
X1.195Y-7.154
X1.195Y-7.21
X1.195Y-7.266
X1.195Y-7.322
X1.195Y-7.378
X1.195Y-7.434
X1.195Y-7.49
X1.211Y-6.845
X1.211Y-6.901
X1.211Y-6.958
X1.211Y-7.014
X1.211Y-7.07
X1.211Y-7.126
X1.211Y-7.182
X1.211Y-7.238
X1.211Y-7.294
X1.211Y-7.35
X1.211Y-7.406
X1.211Y-7.462
X1.227Y-6.817
X1.227Y-6.873
X1.227Y-6.93
X1.227Y-6.986
X1.227Y-7.042
X1.227Y-7.098
X1.227Y-7.154
X1.227Y-7.21
X1.227Y-7.266
X1.227Y-7.322
X1.227Y-7.378
X1.227Y-7.434
X1.227Y-7.49
X1.243Y-6.845
X1.243Y-6.901
X1.243Y-6.958
X1.243Y-7.014
X1.243Y-7.07
X1.243Y-7.126
X1.243Y-7.182
X1.243Y-7.238
X1.243Y-7.294
X1.243Y-7.35
X1.243Y-7.406
X1.243Y-7.462
X1.259Y-6.817
X1.259Y-6.873
X1.259Y-6.93
X1.259Y-6.986
X1.259Y-7.042
X1.259Y-7.098
X1.259Y-7.154
X1.259Y-7.21
X1.259Y-7.266
X1.259Y-7.322
X1.259Y-7.378
X1.259Y-7.434
X1.259Y-7.49
X1.275Y-6.845
X1.275Y-6.901
X1.275Y-6.958
X1.275Y-7.014
X1.275Y-7.07
X1.275Y-7.126
X1.275Y-7.182
X1.275Y-7.238
X1.275Y-7.294
X1.275Y-7.35
X1.275Y-7.406
X1.275Y-7.462
X1.376Y-6.9858
X1.376Y-7.0418
X1.376Y-7.0978
X1.376Y-7.1538
X1.376Y-7.2098
X1.376Y-7.2658
X1.376Y-7.3218
X1.376Y-7.3778
X1.376Y-7.4338
X1.376Y-7.4898
X1.377Y-6.816
X1.377Y-6.872
X1.377Y-6.93
X1.392Y-7.0138
X1.392Y-7.0698
X1.392Y-7.1258
X1.392Y-7.1818
X1.392Y-7.2378
X1.392Y-7.2938
X1.392Y-7.3498
X1.392Y-7.4058
X1.392Y-7.4618
X1.393Y-6.844
X1.393Y-6.9
X1.393Y-6.958
X1.408Y-6.9858
X1.408Y-7.0418
X1.408Y-7.0978
X1.408Y-7.1538
X1.408Y-7.2098
X1.408Y-7.2658
X1.408Y-7.3218
X1.408Y-7.3778
X1.408Y-7.4338
X1.408Y-7.4898
X1.409Y-6.816
X1.409Y-6.872
X1.409Y-6.93
X1.424Y-7.0138
X1.424Y-7.0698
X1.424Y-7.1258
X1.424Y-7.1818
X1.424Y-7.2378
X1.424Y-7.2938
X1.424Y-7.3498
X1.424Y-7.4058
X1.424Y-7.4618
X1.425Y-6.844
X1.425Y-6.9
X1.425Y-6.958
X1.435Y-6.476
X1.435Y-6.532
X1.435Y-6.588
X1.44Y-6.9858
X1.44Y-7.0418
X1.44Y-7.0978
X1.44Y-7.1538
X1.44Y-7.2098
X1.44Y-7.2658
X1.44Y-7.3218
X1.44Y-7.3778
X1.44Y-7.4338
X1.44Y-7.4898
X1.441Y-6.816
X1.441Y-6.872
X1.441Y-6.93
X1.451Y-6.504
X1.451Y-6.56
X1.451Y-6.616
X1.456Y-7.0138
X1.456Y-7.0698
X1.456Y-7.1258
X1.456Y-7.1818
X1.456Y-7.2378
X1.456Y-7.2938
X1.456Y-7.3498
X1.456Y-7.4058
X1.456Y-7.4618
X1.457Y-6.844
X1.457Y-6.9
X1.457Y-6.958
X1.467Y-6.476
X1.467Y-6.532
X1.467Y-6.588
X1.472Y-6.9858
X1.472Y-7.0418
X1.472Y-7.0978
X1.472Y-7.1538
X1.472Y-7.2098
X1.472Y-7.2658
X1.472Y-7.3218
X1.472Y-7.3778
X1.472Y-7.4338
X1.472Y-7.4898
X1.473Y-6.816
X1.473Y-6.872
X1.473Y-6.93
X1.483Y-6.504
X1.483Y-6.56
X1.483Y-6.616
X1.488Y-7.0138
X1.488Y-7.0698
X1.488Y-7.1258
X1.488Y-7.1818
X1.488Y-7.2378
X1.488Y-7.2938
X1.488Y-7.3498
X1.488Y-7.4058
X1.488Y-7.4618
X1.489Y-6.844
X1.489Y-6.9
X1.489Y-6.958
X1.499Y-6.476
X1.499Y-6.532
X1.499Y-6.588
X1.504Y-6.9858
X1.504Y-7.0418
X1.504Y-7.0978
X1.504Y-7.1538
X1.504Y-7.2098
X1.504Y-7.2658
X1.504Y-7.3218
X1.504Y-7.3778
X1.504Y-7.4338
X1.504Y-7.4898
X1.505Y-6.816
X1.505Y-6.872
X1.505Y-6.93
X1.515Y-6.504
X1.515Y-6.56
X1.515Y-6.616
X1.52Y-7.0138
X1.52Y-7.0698
X1.52Y-7.1258
X1.52Y-7.1818
X1.52Y-7.2938
X1.52Y-7.3498
X1.52Y-7.4058
X1.52Y-7.4618
X1.521Y-6.844
X1.521Y-6.9
X1.521Y-6.958
X1.531Y-6.476
X1.531Y-6.532
X1.531Y-6.588
X1.536Y-6.9858
X1.536Y-7.0418
X1.536Y-7.0978
X1.536Y-7.1538
X1.536Y-7.3218
X1.536Y-7.3778
X1.536Y-7.4338
X1.536Y-7.4898
X1.537Y-6.816
X1.537Y-6.872
X1.537Y-6.93
X1.547Y-6.504
X1.547Y-6.56
X1.547Y-6.616
X1.552Y-7.0138
X1.552Y-7.0698
X1.552Y-7.1258
X1.552Y-7.3498
X1.552Y-7.4058
X1.552Y-7.4618
X1.553Y-6.844
X1.553Y-6.9
X1.553Y-6.958
X1.563Y-6.476
X1.563Y-6.532
X1.563Y-6.588
X1.568Y-6.9858
X1.568Y-7.0418
X1.568Y-7.0978
X1.568Y-7.1538
X1.568Y-7.3778
X1.568Y-7.4338
X1.568Y-7.4898
X1.569Y-6.816
X1.569Y-6.872
X1.569Y-6.93
X1.579Y-6.504
X1.579Y-6.56
X1.579Y-6.616
X1.584Y-7.0138
X1.584Y-7.0698
X1.584Y-7.1258
X1.584Y-7.3498
X1.584Y-7.4058
X1.584Y-7.4618
X1.585Y-6.844
X1.585Y-6.9
X1.585Y-6.958
X1.595Y-6.476
X1.595Y-6.532
X1.595Y-6.588
X1.6Y-6.9858
X1.6Y-7.0418
X1.6Y-7.0978
X1.6Y-7.3778
X1.6Y-7.4338
X1.6Y-7.4898
X1.601Y-6.816
X1.601Y-6.872
X1.601Y-6.93
X1.611Y-6.504
X1.611Y-6.56
X1.611Y-6.616
X1.616Y-7.0138
X1.616Y-7.0698
X1.616Y-7.1258
X1.616Y-7.4058
X1.616Y-7.4618
X1.617Y-6.844
X1.617Y-6.9
X1.617Y-6.958
X1.627Y-6.476
X1.627Y-6.532
X1.627Y-6.588
X1.632Y-6.9858
X1.632Y-7.0418
X1.632Y-7.0978
X1.632Y-7.3778
X1.632Y-7.4338
X1.632Y-7.4898
X1.633Y-6.816
X1.633Y-6.872
X1.633Y-6.93
X1.643Y-6.504
X1.643Y-6.56
X1.643Y-6.616
X1.648Y-7.0138
X1.648Y-7.0698
X1.648Y-7.1258
X1.648Y-7.3498
X1.648Y-7.4058
X1.648Y-7.4618
X1.649Y-6.844
X1.649Y-6.9
X1.649Y-6.958
X1.659Y-6.476
X1.659Y-6.532
X1.659Y-6.588
X1.664Y-6.9858
X1.664Y-7.0418
X1.664Y-7.0978
X1.664Y-7.1538
X1.664Y-7.3778
X1.664Y-7.4338
X1.664Y-7.4898
X1.665Y-6.816
X1.665Y-6.872
X1.665Y-6.93
X1.675Y-6.504
X1.675Y-6.56
X1.675Y-6.616
X1.68Y-7.0138
X1.68Y-7.0698
X1.68Y-7.1258
X1.68Y-7.3498
X1.68Y-7.4058
X1.68Y-7.4618
X1.681Y-6.844
X1.681Y-6.9
X1.681Y-6.958
X1.691Y-6.476
X1.691Y-6.532
X1.691Y-6.588
X1.696Y-6.9858
X1.696Y-7.0418
X1.696Y-7.0978
X1.696Y-7.1538
X1.696Y-7.3218
X1.696Y-7.3778
X1.696Y-7.4338
X1.696Y-7.4898
X1.697Y-6.816
X1.697Y-6.872
X1.697Y-6.93
X1.707Y-6.504
X1.707Y-6.56
X1.707Y-6.616
X1.712Y-7.0138
X1.712Y-7.0698
X1.712Y-7.1258
X1.712Y-7.1818
X1.712Y-7.2938
X1.712Y-7.3498
X1.712Y-7.4058
X1.712Y-7.4618
X1.713Y-6.844
X1.713Y-6.9
X1.713Y-6.958
X1.719Y-5.947
X1.719Y-6.003
X1.719Y-6.059
X1.719Y-6.115
X1.723Y-6.476
X1.723Y-6.532
X1.723Y-6.588
X1.728Y-6.9858
X1.728Y-7.0418
X1.728Y-7.0978
X1.728Y-7.1538
X1.728Y-7.2098
X1.728Y-7.2658
X1.728Y-7.3218
X1.728Y-7.3778
X1.728Y-7.4338
X1.728Y-7.4898
X1.729Y-6.816
X1.729Y-6.872
X1.729Y-6.93
X1.735Y-5.751
X1.735Y-5.807
X1.735Y-5.863
X1.735Y-5.919
X1.735Y-5.975
X1.735Y-6.031
X1.735Y-6.087
X1.735Y-5.527
X1.735Y-5.583
X1.735Y-5.639
X1.735Y-5.695
X1.739Y-6.504
X1.739Y-6.56
X1.739Y-6.616
X1.744Y-7.0138
X1.744Y-7.0698
X1.744Y-7.1258
X1.744Y-7.1818
X1.744Y-7.2378
X1.744Y-7.2938
X1.744Y-7.3498
X1.744Y-7.4058
X1.744Y-7.4618
X1.745Y-6.844
X1.745Y-6.9
X1.745Y-6.958
X1.751Y-5.723
X1.751Y-5.779
X1.751Y-5.835
X1.751Y-5.891
X1.751Y-5.947
X1.751Y-6.003
X1.751Y-6.059
X1.751Y-6.115
X1.751Y-5.499
X1.751Y-5.555
X1.751Y-5.611
X1.751Y-5.667
X1.755Y-6.476
X1.755Y-6.532
X1.755Y-6.588
X1.76Y-6.9858
X1.76Y-7.0418
X1.76Y-7.0978
X1.76Y-7.1538
X1.76Y-7.2098
X1.76Y-7.2658
X1.76Y-7.3218
X1.76Y-7.3778
X1.76Y-7.4338
X1.76Y-7.4898
X1.761Y-6.816
X1.761Y-6.872
X1.761Y-6.93
X1.767Y-5.751
X1.767Y-5.807
X1.767Y-5.863
X1.767Y-5.919
X1.767Y-5.975
X1.767Y-6.031
X1.767Y-6.087
X1.767Y-5.527
X1.767Y-5.583
X1.767Y-5.639
X1.767Y-5.695
X1.771Y-6.504
X1.771Y-6.56
X1.771Y-6.616
X1.776Y-7.0138
X1.776Y-7.0698
X1.776Y-7.1258
X1.776Y-7.1818
X1.776Y-7.2378
X1.776Y-7.2938
X1.776Y-7.3498
X1.776Y-7.4058
X1.776Y-7.4618
X1.777Y-6.844
X1.777Y-6.9
X1.777Y-6.958
X1.783Y-5.723
X1.783Y-5.779
X1.783Y-5.835
X1.783Y-5.891
X1.783Y-5.947
X1.783Y-6.003
X1.783Y-6.059
X1.783Y-6.115
X1.783Y-5.499
X1.783Y-5.555
X1.783Y-5.611
X1.783Y-5.667
X1.787Y-6.476
X1.787Y-6.532
X1.787Y-6.588
X1.792Y-6.9858
X1.792Y-7.0418
X1.792Y-7.0978
X1.792Y-7.1538
X1.792Y-7.2098
X1.792Y-7.2658
X1.792Y-7.3218
X1.792Y-7.3778
X1.792Y-7.4338
X1.792Y-7.4898
X1.793Y-6.816
X1.793Y-6.872
X1.793Y-6.93
X1.799Y-5.751
X1.799Y-5.807
X1.799Y-5.863
X1.799Y-5.919
X1.799Y-5.975
X1.799Y-6.031
X1.799Y-6.087
X1.799Y-5.527
X1.799Y-5.583
X1.799Y-5.639
X1.799Y-5.695
X1.803Y-6.504
X1.803Y-6.56
X1.803Y-6.616
X1.808Y-7.0138
X1.808Y-7.0698
X1.808Y-7.1258
X1.808Y-7.1818
X1.808Y-7.2378
X1.808Y-7.2938
X1.808Y-7.3498
X1.808Y-7.4058
X1.808Y-7.4618
X1.809Y-6.844
X1.809Y-6.9
X1.809Y-6.958
X1.815Y-5.723
X1.815Y-5.779
X1.815Y-5.835
X1.815Y-5.891
X1.815Y-5.947
X1.815Y-6.003
X1.815Y-6.059
X1.815Y-6.115
X1.815Y-5.499
X1.815Y-5.555
X1.815Y-5.611
X1.815Y-5.667
X1.819Y-6.476
X1.819Y-6.532
X1.819Y-6.588
X1.824Y-6.9858
X1.824Y-7.0418
X1.824Y-7.0978
X1.824Y-7.1538
X1.824Y-7.2098
X1.824Y-7.2658
X1.824Y-7.3218
X1.824Y-7.3778
X1.824Y-7.4338
X1.824Y-7.4898
X1.825Y-6.816
X1.825Y-6.872
X1.825Y-6.93
X1.831Y-5.751
X1.831Y-5.807
X1.831Y-5.863
X1.831Y-5.919
X1.831Y-5.975
X1.831Y-6.031
X1.831Y-6.087
X1.831Y-5.527
X1.831Y-5.583
X1.831Y-5.639
X1.831Y-5.695
X1.835Y-6.504
X1.835Y-6.56
X1.835Y-6.616
X1.84Y-7.0138
X1.84Y-7.0698
X1.84Y-7.1258
X1.84Y-7.1818
X1.84Y-7.2378
X1.84Y-7.2938
X1.84Y-7.3498
X1.84Y-7.4058
X1.84Y-7.4618
X1.841Y-6.844
X1.841Y-6.9
X1.841Y-6.958
X1.847Y-5.723
X1.847Y-5.779
X1.847Y-5.835
X1.847Y-5.891
X1.847Y-5.947
X1.847Y-6.003
X1.847Y-6.059
X1.847Y-6.115
X1.847Y-5.499
X1.847Y-5.555
X1.847Y-5.611
X1.847Y-5.667
X1.851Y-6.476
X1.851Y-6.532
X1.851Y-6.588
X1.856Y-6.9858
X1.856Y-7.0418
X1.856Y-7.0978
X1.856Y-7.1538
X1.856Y-7.2098
X1.856Y-7.2658
X1.856Y-7.3218
X1.856Y-7.3778
X1.856Y-7.4338
X1.856Y-7.4898
X1.857Y-6.816
X1.857Y-6.872
X1.857Y-6.93
X1.863Y-5.751
X1.863Y-5.807
X1.863Y-5.863
X1.863Y-5.919
X1.863Y-5.975
X1.863Y-6.031
X1.863Y-6.087
X1.863Y-5.527
X1.863Y-5.583
X1.863Y-5.639
X1.863Y-5.695
X1.867Y-6.504
X1.867Y-6.56
X1.867Y-6.616
X1.872Y-7.0138
X1.872Y-7.0698
X1.872Y-7.1258
X1.872Y-7.1818
X1.872Y-7.2378
X1.872Y-7.2938
X1.872Y-7.3498
X1.872Y-7.4058
X1.872Y-7.4618
X1.873Y-6.844
X1.873Y-6.9
X1.873Y-6.958
X1.879Y-5.723
X1.879Y-5.779
X1.879Y-5.835
X1.879Y-5.891
X1.879Y-5.947
X1.879Y-6.003
X1.879Y-6.059
X1.879Y-6.115
X1.879Y-5.499
X1.879Y-5.555
X1.879Y-5.611
X1.879Y-5.667
X1.883Y-6.476
X1.883Y-6.532
X1.883Y-6.588
X1.895Y-5.751
X1.895Y-5.807
X1.895Y-5.863
X1.895Y-5.919
X1.895Y-5.975
X1.895Y-6.031
X1.895Y-6.087
X1.895Y-5.527
X1.895Y-5.583
X1.895Y-5.639
X1.895Y-5.695
X1.899Y-6.504
X1.899Y-6.56
X1.899Y-6.616
X1.911Y-5.723
X1.911Y-5.779
X1.911Y-5.835
X1.911Y-5.891
X1.911Y-6.003
X1.911Y-6.059
X1.911Y-6.115
X1.911Y-5.499
X1.911Y-5.555
X1.911Y-5.611
X1.911Y-5.667
X1.911Y-5.947
X1.915Y-6.476
X1.915Y-6.532
X1.915Y-6.588
X1.927Y-5.751
X1.927Y-5.807
X1.927Y-5.863
X1.927Y-5.919
X1.927Y-5.975
X1.927Y-6.031
X1.927Y-6.087
X1.927Y-5.527
X1.927Y-5.583
X1.927Y-5.639
X1.927Y-5.695
X1.931Y-6.504
X1.931Y-6.56
X1.931Y-6.616
X1.943Y-5.723
X1.943Y-5.779
X1.943Y-5.835
X1.943Y-5.891
X1.943Y-5.947
X1.943Y-6.003
X1.943Y-6.059
X1.943Y-6.115
X1.943Y-5.499
X1.943Y-5.555
X1.943Y-5.611
X1.943Y-5.667
X1.947Y-6.476
X1.947Y-6.532
X1.947Y-6.588
X1.959Y-5.751
X1.959Y-5.807
X1.959Y-5.863
X1.959Y-5.919
X1.959Y-5.975
X1.959Y-6.031
X1.959Y-6.087
X1.959Y-5.527
X1.959Y-5.583
X1.959Y-5.639
X1.959Y-5.695
X1.963Y-6.504
X1.963Y-6.56
X1.963Y-6.616
X1.9631Y-7.0303
X1.9631Y-7.0863
X1.9631Y-7.1423
X1.9631Y-7.1983
X1.9631Y-7.2543
X1.9631Y-7.3103
X1.9631Y-7.3663
X1.9631Y-7.4223
X1.9631Y-7.4783
X1.975Y-5.947
X1.975Y-5.723
X1.975Y-5.779
X1.975Y-5.835
X1.975Y-5.891
X1.975Y-6.003
X1.975Y-6.059
X1.975Y-6.115
X1.975Y-5.499
X1.975Y-5.555
X1.975Y-5.611
X1.975Y-5.667
X1.979Y-6.476
X1.979Y-6.532
X1.979Y-6.588
X1.9791Y-7.0023
X1.9791Y-7.0583
X1.9791Y-7.1143
X1.9791Y-7.1703
X1.9791Y-7.2263
X1.9791Y-7.2823
X1.9791Y-7.3383
X1.9791Y-7.3943
X1.9791Y-7.4503
X1.991Y-5.751
X1.991Y-5.807
X1.991Y-5.863
X1.991Y-5.919
X1.991Y-5.975
X1.991Y-6.031
X1.991Y-6.087
X1.991Y-5.527
X1.991Y-5.583
X1.991Y-5.639
X1.991Y-5.695
X1.995Y-6.504
X1.995Y-6.56
X1.995Y-6.616
X1.9951Y-7.0303
X1.9951Y-7.0863
X1.9951Y-7.1423
X1.9951Y-7.1983
X1.9951Y-7.2543
X1.9951Y-7.3103
X1.9951Y-7.3663
X1.9951Y-7.4223
X1.9951Y-7.4783
X2.011Y-6.476
X2.011Y-6.532
X2.011Y-6.588
X2.0111Y-7.0023
X2.0111Y-7.0583
X2.0111Y-7.1143
X2.0111Y-7.1703
X2.0111Y-7.2263
X2.0111Y-7.2823
X2.0111Y-7.3383
X2.0111Y-7.3943
X2.0111Y-7.4503
X2.0271Y-7.0303
X2.0271Y-7.0863
X2.0271Y-7.1423
X2.0271Y-7.1983
X2.0271Y-7.2543
X2.0271Y-7.3103
X2.0271Y-7.3663
X2.0271Y-7.4223
X2.0271Y-7.4783
X2.0431Y-7.0023
X2.0431Y-7.0583
X2.0431Y-7.1143
X2.0431Y-7.1703
X2.0431Y-7.2263
X2.0431Y-7.2823
X2.0431Y-7.3383
X2.0431Y-7.3943
X2.0431Y-7.4503
X2.044Y-5.749
X2.044Y-5.805
X2.044Y-5.861
X2.044Y-5.917
X2.044Y-5.973
X2.044Y-6.029
X2.044Y-6.085
X2.044Y-5.525
X2.044Y-5.581
X2.044Y-5.637
X2.044Y-5.693
X2.0591Y-7.0303
X2.0591Y-7.0863
X2.0591Y-7.1423
X2.0591Y-7.1983
X2.0591Y-7.2543
X2.0591Y-7.3103
X2.0591Y-7.3663
X2.0591Y-7.4223
X2.0591Y-7.4783
X2.06Y-5.721
X2.06Y-5.777
X2.06Y-5.833
X2.06Y-5.889
X2.06Y-5.945
X2.06Y-6.001
X2.06Y-6.057
X2.06Y-6.113
X2.06Y-5.497
X2.06Y-5.553
X2.06Y-5.609
X2.06Y-5.665
X2.0751Y-7.0023
X2.0751Y-7.0583
X2.0751Y-7.1143
X2.0751Y-7.1703
X2.0751Y-7.2263
X2.0751Y-7.2823
X2.0751Y-7.3383
X2.0751Y-7.3943
X2.0751Y-7.4503
X2.076Y-5.749
X2.076Y-5.805
X2.076Y-5.861
X2.076Y-5.917
X2.076Y-5.973
X2.076Y-6.029
X2.076Y-6.085
X2.076Y-5.525
X2.076Y-5.581
X2.076Y-5.637
X2.076Y-5.693
X2.0911Y-7.0303
X2.0911Y-7.0863
X2.0911Y-7.1423
X2.0911Y-7.1983
X2.0911Y-7.2543
X2.0911Y-7.3103
X2.0911Y-7.3663
X2.0911Y-7.4223
X2.0911Y-7.4783
X2.092Y-5.721
X2.092Y-5.777
X2.092Y-5.833
X2.092Y-5.889
X2.092Y-5.945
X2.092Y-6.001
X2.092Y-6.057
X2.092Y-6.113
X2.092Y-5.497
X2.092Y-5.553
X2.092Y-5.609
X2.092Y-5.665
X2.1071Y-7.0023
X2.1071Y-7.0583
X2.1071Y-7.1143
X2.1071Y-7.1703
X2.1071Y-7.2823
X2.1071Y-7.3383
X2.1071Y-7.3943
X2.1071Y-7.4503
X2.108Y-5.749
X2.108Y-5.805
X2.108Y-5.861
X2.108Y-5.917
X2.108Y-5.973
X2.108Y-6.029
X2.108Y-6.085
X2.108Y-5.525
X2.108Y-5.581
X2.108Y-5.637
X2.108Y-5.693
X2.1231Y-7.0303
X2.1231Y-7.0863
X2.1231Y-7.1423
X2.1231Y-7.3103
X2.1231Y-7.3663
X2.1231Y-7.4223
X2.1231Y-7.4783
X2.124Y-5.721
X2.124Y-5.777
X2.124Y-5.833
X2.124Y-5.889
X2.124Y-5.945
X2.124Y-6.001
X2.124Y-6.057
X2.124Y-6.113
X2.124Y-5.497
X2.124Y-5.553
X2.124Y-5.609
X2.124Y-5.665
X2.1391Y-7.0023
X2.1391Y-7.0583
X2.1391Y-7.1143
X2.1391Y-7.3383
X2.1391Y-7.3943
X2.1391Y-7.4503
X2.14Y-5.749
X2.14Y-5.805
X2.14Y-5.861
X2.14Y-5.917
X2.14Y-5.973
X2.14Y-6.029
X2.14Y-6.085
X2.14Y-5.525
X2.14Y-5.581
X2.14Y-5.637
X2.14Y-5.693
X2.1551Y-7.0303
X2.1551Y-7.0863
X2.1551Y-7.1423
X2.1551Y-7.3663
X2.1551Y-7.4223
X2.1551Y-7.4783
X2.156Y-5.721
X2.156Y-5.777
X2.156Y-5.833
X2.156Y-5.889
X2.156Y-6.001
X2.156Y-6.057
X2.156Y-6.113
X2.156Y-5.497
X2.156Y-5.553
X2.156Y-5.609
X2.156Y-5.665
X2.156Y-5.945
X2.1711Y-7.0023
X2.1711Y-7.0583
X2.1711Y-7.1143
X2.1711Y-7.3943
X2.1711Y-7.4503
X2.172Y-5.749
X2.172Y-5.805
X2.172Y-5.861
X2.172Y-5.917
X2.172Y-5.973
X2.172Y-6.029
X2.172Y-6.085
X2.172Y-5.525
X2.172Y-5.581
X2.172Y-5.637
X2.172Y-5.693
X2.1871Y-7.0303
X2.1871Y-7.0863
X2.1871Y-7.1423
X2.1871Y-7.3663
X2.1871Y-7.4223
X2.1871Y-7.4783
X2.188Y-5.721
X2.188Y-5.777
X2.188Y-5.833
X2.188Y-5.889
X2.188Y-5.945
X2.188Y-6.001
X2.188Y-6.057
X2.188Y-6.113
X2.188Y-5.497
X2.188Y-5.553
X2.188Y-5.609
X2.188Y-5.665
X2.2031Y-7.0023
X2.2031Y-7.0583
X2.2031Y-7.1143
X2.2031Y-7.3943
X2.2031Y-7.4503
X2.204Y-5.749
X2.204Y-5.805
X2.204Y-5.861
X2.204Y-5.917
X2.204Y-5.973
X2.204Y-6.029
X2.204Y-6.085
X2.204Y-5.525
X2.204Y-5.581
X2.204Y-5.637
X2.204Y-5.693
X2.2191Y-7.0303
X2.2191Y-7.0863
X2.2191Y-7.3663
X2.2191Y-7.4223
X2.2191Y-7.4783
X2.22Y-5.945
X2.22Y-5.721
X2.22Y-5.777
X2.22Y-5.833
X2.22Y-5.889
X2.22Y-6.001
X2.22Y-6.057
X2.22Y-6.113
X2.22Y-5.497
X2.22Y-5.553
X2.22Y-5.609
X2.22Y-5.665
X2.2351Y-7.0023
X2.2351Y-7.0583
X2.2351Y-7.1143
X2.2351Y-7.3943
X2.2351Y-7.4503
X2.236Y-5.749
X2.236Y-5.805
X2.236Y-5.861
X2.236Y-5.917
X2.236Y-5.973
X2.236Y-6.029
X2.236Y-6.085
X2.236Y-5.525
X2.236Y-5.581
X2.236Y-5.637
X2.236Y-5.693
X2.2511Y-7.0303
X2.2511Y-7.0863
X2.2511Y-7.1423
X2.2511Y-7.3663
X2.2511Y-7.4223
X2.2511Y-7.4783
X2.252Y-5.721
X2.252Y-5.777
X2.252Y-5.833
X2.252Y-5.889
X2.252Y-5.945
X2.252Y-6.001
X2.252Y-6.057
X2.252Y-6.113
X2.252Y-5.497
X2.252Y-5.553
X2.252Y-5.609
X2.252Y-5.665
X2.2671Y-7.0023
X2.2671Y-7.0583
X2.2671Y-7.1143
X2.2671Y-7.3383
X2.2671Y-7.3943
X2.2671Y-7.4503
X2.268Y-5.749
X2.268Y-5.805
X2.268Y-5.861
X2.268Y-5.917
X2.268Y-5.973
X2.268Y-6.029
X2.268Y-6.085
X2.268Y-5.525
X2.268Y-5.581
X2.268Y-5.637
X2.268Y-5.693
X2.2831Y-7.0303
X2.2831Y-7.0863
X2.2831Y-7.1423
X2.2831Y-7.3663
X2.2831Y-7.4223
X2.2831Y-7.4783
X2.284Y-5.721
X2.284Y-5.777
X2.284Y-5.833
X2.284Y-5.889
X2.284Y-5.945
X2.284Y-6.001
X2.284Y-6.057
X2.284Y-6.113
X2.284Y-5.497
X2.284Y-5.553
X2.284Y-5.609
X2.284Y-5.665
X2.2991Y-7.0023
X2.2991Y-7.0583
X2.2991Y-7.1143
X2.2991Y-7.1703
X2.2991Y-7.3383
X2.2991Y-7.3943
X2.2991Y-7.4503
X2.3Y-6.029
X2.3Y-5.749
X2.3Y-5.805
X2.3Y-5.861
X2.3Y-5.917
X2.3Y-5.973
X2.3Y-6.085
X2.3Y-5.525
X2.3Y-5.581
X2.3Y-5.637
X2.3Y-5.693
X2.3151Y-7.0303
X2.3151Y-7.0863
X2.3151Y-7.1423
X2.3151Y-7.1983
X2.3151Y-7.2543
X2.3151Y-7.3103
X2.3151Y-7.3663
X2.3151Y-7.4223
X2.3151Y-7.4783
X2.316Y-5.721
X2.316Y-5.777
X2.316Y-5.833
X2.316Y-5.889
X2.316Y-5.945
X2.316Y-6.001
X2.316Y-6.057
X2.316Y-6.113
X2.316Y-5.497
X2.316Y-5.553
X2.316Y-5.609
X2.316Y-5.665
X2.3311Y-7.0023
X2.3311Y-7.0583
X2.3311Y-7.1143
X2.3311Y-7.1703
X2.3311Y-7.2263
X2.3311Y-7.2823
X2.3311Y-7.3383
X2.3311Y-7.3943
X2.3311Y-7.4503
X2.332Y-5.749
X2.332Y-5.805
X2.332Y-5.861
X2.332Y-5.917
X2.332Y-5.973
X2.332Y-6.029
X2.332Y-6.085
X2.332Y-5.525
X2.332Y-5.581
X2.332Y-5.637
X2.332Y-5.693
X2.3471Y-7.0303
X2.3471Y-7.0863
X2.3471Y-7.1423
X2.3471Y-7.1983
X2.3471Y-7.2543
X2.3471Y-7.3103
X2.3471Y-7.3663
X2.3471Y-7.4223
X2.3471Y-7.4783
X2.348Y-6.057
X2.348Y-5.721
X2.348Y-5.777
X2.348Y-5.833
X2.348Y-5.889
X2.348Y-5.945
X2.348Y-6.001
X2.348Y-6.113
X2.348Y-5.497
X2.348Y-5.553
X2.348Y-5.609
X2.348Y-5.665
X2.3631Y-7.0023
X2.3631Y-7.0583
X2.3631Y-7.1143
X2.3631Y-7.1703
X2.3631Y-7.2263
X2.3631Y-7.2823
X2.3631Y-7.3383
X2.3631Y-7.3943
X2.3631Y-7.4503
X2.364Y-5.749
X2.364Y-5.805
X2.364Y-5.861
X2.364Y-5.917
X2.364Y-5.973
X2.364Y-6.029
X2.364Y-6.085
X2.364Y-5.525
X2.364Y-5.581
X2.364Y-5.637
X2.364Y-5.693
X2.3791Y-7.0303
X2.3791Y-7.0863
X2.3791Y-7.1423
X2.3791Y-7.1983
X2.3791Y-7.2543
X2.3791Y-7.3103
X2.3791Y-7.3663
X2.3791Y-7.4223
X2.3791Y-7.4783
X2.38Y-5.721
X2.38Y-5.777
X2.38Y-5.833
X2.38Y-5.889
X2.38Y-5.945
X2.38Y-6.001
X2.38Y-6.057
X2.38Y-6.113
X2.38Y-5.497
X2.38Y-5.553
X2.38Y-5.609
X2.38Y-5.665
X2.3951Y-7.0023
X2.3951Y-7.0583
X2.3951Y-7.1143
X2.3951Y-7.1703
X2.3951Y-7.2263
X2.3951Y-7.2823
X2.3951Y-7.3383
X2.3951Y-7.3943
X2.3951Y-7.4503
X2.396Y-5.749
X2.396Y-5.805
X2.396Y-5.861
X2.396Y-5.917
X2.396Y-5.973
X2.396Y-6.029
X2.396Y-6.085
X2.396Y-5.525
X2.396Y-5.581
X2.396Y-5.637
X2.396Y-5.693
X2.4111Y-7.0303
X2.4111Y-7.0863
X2.4111Y-7.1423
X2.4111Y-7.1983
X2.4111Y-7.2543
X2.4111Y-7.3103
X2.4111Y-7.3663
X2.4111Y-7.4223
X2.4111Y-7.4783
X2.412Y-5.721
X2.412Y-5.777
X2.412Y-5.833
X2.412Y-5.889
X2.412Y-5.945
X2.412Y-6.001
X2.412Y-6.057
X2.412Y-6.113
X2.412Y-5.497
X2.412Y-5.553
X2.412Y-5.609
X2.412Y-5.665
X2.4271Y-7.0023
X2.4271Y-7.0583
X2.4271Y-7.1143
X2.4271Y-7.1703
X2.4271Y-7.2263
X2.4271Y-7.2823
X2.4271Y-7.3383
X2.4271Y-7.3943
X2.4271Y-7.4503
X2.428Y-5.973
X2.428Y-5.749
X2.428Y-5.805
X2.428Y-5.861
X2.428Y-5.917
X2.428Y-6.029
X2.428Y-6.085
X2.428Y-5.525
X2.428Y-5.581
X2.428Y-5.637
X2.428Y-5.693
X2.4431Y-7.0303
X2.4431Y-7.0863
X2.4431Y-7.1423
X2.4431Y-7.1983
X2.4431Y-7.2543
X2.4431Y-7.3103
X2.4431Y-7.3663
X2.4431Y-7.4223
X2.4431Y-7.4783
X2.444Y-5.721
X2.444Y-5.777
X2.444Y-5.833
X2.444Y-5.889
X2.444Y-5.945
X2.444Y-6.001
X2.444Y-6.113
X2.444Y-5.497
X2.444Y-5.553
X2.444Y-5.609
X2.444Y-5.665
X2.444Y-6.057
X2.4591Y-7.0023
X2.4591Y-7.0583
X2.4591Y-7.1143
X2.4591Y-7.1703
X2.4591Y-7.2263
X2.4591Y-7.2823
X2.4591Y-7.3383
X2.4591Y-7.3943
X2.4591Y-7.4503
X2.46Y-5.749
X2.46Y-5.805
X2.46Y-5.861
X2.46Y-5.917
X2.46Y-5.973
X2.46Y-6.029
X2.46Y-6.085
X2.46Y-5.525
X2.46Y-5.581
X2.46Y-5.637
X2.46Y-5.693
X2.476Y-5.721
X2.476Y-5.777
X2.476Y-5.833
X2.476Y-5.889
X2.476Y-5.945
X2.476Y-6.001
X2.476Y-6.057
X2.476Y-6.113
X2.476Y-5.497
X2.476Y-5.553
X2.476Y-5.609
X2.476Y-5.665
X2.492Y-5.749
X2.492Y-5.805
X2.492Y-5.861
X2.492Y-5.917
X2.492Y-5.973
X2.492Y-6.029
X2.492Y-6.085
X2.492Y-5.525
X2.492Y-5.581
X2.492Y-5.637
X2.492Y-5.693
X2.508Y-6.057
X2.508Y-5.721
X2.508Y-5.777
X2.508Y-5.833
X2.508Y-5.889
X2.508Y-5.945
X2.508Y-6.001
X2.508Y-6.113
X2.508Y-5.497
X2.508Y-5.553
X2.508Y-5.609
X2.508Y-5.665
X2.524Y-5.749
X2.524Y-5.805
X2.524Y-5.861
X2.524Y-5.917
X2.524Y-6.029
X2.524Y-6.085
X2.524Y-5.525
X2.524Y-5.581
X2.524Y-5.637
X2.524Y-5.693
X2.524Y-5.973
X2.54Y-5.721
X2.54Y-5.777
X2.54Y-5.833
X2.54Y-5.889
X2.54Y-5.945
X2.54Y-6.001
X2.54Y-6.057
X2.54Y-6.113
X2.54Y-5.497
X2.54Y-5.553
X2.54Y-5.609
X2.54Y-5.665
X2.549Y-7.0328
X2.549Y-7.0888
X2.549Y-7.1448
X2.549Y-7.2008
X2.549Y-7.2568
X2.549Y-7.3128
X2.549Y-7.3688
X2.549Y-7.4248
X2.549Y-7.4808
X2.556Y-5.749
X2.556Y-5.861
X2.556Y-5.973
X2.556Y-6.029
X2.556Y-6.085
X2.556Y-5.525
X2.556Y-5.581
X2.556Y-5.637
X2.556Y-5.693
X2.556Y-5.805
X2.556Y-5.917
X2.565Y-7.0048
X2.565Y-7.0608
X2.565Y-7.1168
X2.565Y-7.1728
X2.565Y-7.2288
X2.565Y-7.2848
X2.565Y-7.3408
X2.565Y-7.3968
X2.565Y-7.4528
X2.572Y-5.721
X2.572Y-5.777
X2.572Y-5.833
X2.572Y-5.889
X2.572Y-5.945
X2.572Y-6.001
X2.572Y-6.057
X2.572Y-6.113
X2.572Y-5.497
X2.572Y-5.553
X2.572Y-5.609
X2.572Y-5.665
X2.581Y-7.0328
X2.581Y-7.0888
X2.581Y-7.1448
X2.581Y-7.2008
X2.581Y-7.2568
X2.581Y-7.3128
X2.581Y-7.3688
X2.581Y-7.4248
X2.581Y-7.4808
X2.588Y-5.973
X2.588Y-5.749
X2.588Y-5.805
X2.588Y-5.861
X2.588Y-5.917
X2.588Y-6.029
X2.588Y-6.085
X2.588Y-5.525
X2.588Y-5.581
X2.588Y-5.637
X2.588Y-5.693
X2.597Y-7.0048
X2.597Y-7.0608
X2.597Y-7.1168
X2.597Y-7.1728
X2.597Y-7.2288
X2.597Y-7.2848
X2.597Y-7.3408
X2.597Y-7.3968
X2.597Y-7.4528
X2.604Y-5.721
X2.604Y-5.777
X2.604Y-5.833
X2.604Y-5.889
X2.604Y-5.945
X2.604Y-6.001
X2.604Y-6.113
X2.604Y-5.497
X2.604Y-5.553
X2.604Y-5.609
X2.604Y-5.665
X2.604Y-6.057
X2.613Y-7.0328
X2.613Y-7.0888
X2.613Y-7.1448
X2.613Y-7.2008
X2.613Y-7.2568
X2.613Y-7.3128
X2.613Y-7.3688
X2.613Y-7.4248
X2.613Y-7.4808
X2.62Y-5.749
X2.62Y-5.805
X2.62Y-5.861
X2.62Y-5.917
X2.62Y-5.973
X2.62Y-6.029
X2.62Y-6.085
X2.62Y-5.525
X2.62Y-5.581
X2.62Y-5.637
X2.62Y-5.693
X2.629Y-7.0048
X2.629Y-7.0608
X2.629Y-7.1168
X2.629Y-7.1728
X2.629Y-7.2288
X2.629Y-7.2848
X2.629Y-7.3408
X2.629Y-7.3968
X2.629Y-7.4528
X2.636Y-5.721
X2.636Y-5.777
X2.636Y-5.833
X2.636Y-5.889
X2.636Y-5.945
X2.636Y-6.001
X2.636Y-6.057
X2.636Y-6.113
X2.636Y-5.497
X2.636Y-5.553
X2.636Y-5.609
X2.636Y-5.665
X2.645Y-7.0328
X2.645Y-7.0888
X2.645Y-7.1448
X2.645Y-7.2008
X2.645Y-7.2568
X2.645Y-7.3128
X2.645Y-7.3688
X2.645Y-7.4248
X2.645Y-7.4808
X2.652Y-5.749
X2.652Y-5.805
X2.652Y-5.861
X2.652Y-5.917
X2.652Y-5.973
X2.652Y-6.029
X2.652Y-6.085
X2.652Y-5.525
X2.652Y-5.581
X2.652Y-5.637
X2.652Y-5.693
X2.661Y-7.0048
X2.661Y-7.0608
X2.661Y-7.1168
X2.661Y-7.1728
X2.661Y-7.2288
X2.661Y-7.2848
X2.661Y-7.3408
X2.661Y-7.3968
X2.661Y-7.4528
X2.668Y-6.057
X2.668Y-5.721
X2.668Y-5.777
X2.668Y-5.833
X2.668Y-5.889
X2.668Y-5.945
X2.668Y-6.001
X2.668Y-5.497
X2.668Y-5.553
X2.668Y-5.609
X2.668Y-5.665
X2.677Y-7.0328
X2.677Y-7.0888
X2.677Y-7.1448
X2.677Y-7.2008
X2.677Y-7.2568
X2.677Y-7.3128
X2.677Y-7.3688
X2.677Y-7.4248
X2.677Y-7.4808
X2.684Y-5.749
X2.684Y-5.805
X2.684Y-5.861
X2.684Y-5.917
X2.684Y-6.029
X2.684Y-5.525
X2.684Y-5.581
X2.684Y-5.637
X2.684Y-5.693
X2.684Y-5.973
X2.693Y-7.0048
X2.693Y-7.0608
X2.693Y-7.1168
X2.693Y-7.1728
X2.693Y-7.2288
X2.693Y-7.2848
X2.693Y-7.3408
X2.693Y-7.3968
X2.693Y-7.4528
X2.709Y-7.0328
X2.709Y-7.0888
X2.709Y-7.1448
X2.709Y-7.3128
X2.709Y-7.3688
X2.709Y-7.4248
X2.709Y-7.4808
X2.725Y-7.0048
X2.725Y-7.0608
X2.725Y-7.1168
X2.725Y-7.3408
X2.725Y-7.3968
X2.725Y-7.4528
X2.741Y-7.0328
X2.741Y-7.0888
X2.741Y-7.1448
X2.741Y-7.3688
X2.741Y-7.4248
X2.741Y-7.4808
X2.75Y-6.258
X2.75Y-6.314
X2.75Y-6.37
X2.75Y-6.426
X2.757Y-7.0048
X2.757Y-7.0608
X2.757Y-7.1168
X2.757Y-7.3408
X2.757Y-7.3968
X2.757Y-7.4528
X2.766Y-6.23
X2.766Y-6.286
X2.766Y-6.342
X2.766Y-6.398
X2.773Y-6.977
X2.773Y-7.0328
X2.773Y-7.0888
X2.773Y-7.3688
X2.773Y-7.4248
X2.773Y-7.4808
X2.782Y-6.202
X2.782Y-6.258
X2.782Y-6.314
X2.782Y-6.37
X2.782Y-6.426
X2.789Y-6.949
X2.789Y-7.0048
X2.789Y-7.0608
X2.789Y-7.1168
X2.789Y-7.3408
X2.789Y-7.3968
X2.789Y-7.4528
X2.798Y-6.23
X2.798Y-6.286
X2.798Y-6.342
X2.798Y-6.398
X2.805Y-6.977
X2.805Y-7.0328
X2.805Y-7.0888
X2.805Y-7.3688
X2.805Y-7.4248
X2.805Y-7.4808
X2.814Y-6.202
X2.814Y-6.258
X2.814Y-6.314
X2.814Y-6.37
X2.814Y-6.426
X2.821Y-6.949
X2.821Y-7.0048
X2.821Y-7.0608
X2.821Y-7.1168
X2.821Y-7.3408
X2.821Y-7.3968
X2.821Y-7.4528
X2.83Y-6.23
X2.83Y-6.286
X2.83Y-6.342
X2.83Y-6.398
X2.837Y-7.0328
X2.837Y-7.0888
X2.837Y-7.3688
X2.837Y-7.4248
X2.837Y-7.4808
X2.837Y-6.977
X2.846Y-6.202
X2.846Y-6.258
X2.853Y-6.949
X2.853Y-7.0048
X2.853Y-7.0608
X2.853Y-7.1168
X2.853Y-7.3408
X2.853Y-7.3968
X2.853Y-7.4528
X2.862Y-6.23
X2.862Y-6.286
X2.869Y-6.977
X2.869Y-7.0328
X2.869Y-7.0888
X2.869Y-7.1448
X2.869Y-7.3128
X2.869Y-7.3688
X2.869Y-7.4248
X2.869Y-7.4808
X2.878Y-6.202
X2.878Y-6.258
X2.885Y-6.949
X2.885Y-7.0048
X2.885Y-7.0608
X2.885Y-7.1168
X2.885Y-7.1728
X2.885Y-7.3408
X2.885Y-7.3968
X2.885Y-7.4528
X2.894Y-6.23
X2.894Y-6.286
X2.901Y-6.977
X2.901Y-7.0328
X2.901Y-7.0888
X2.901Y-7.1448
X2.901Y-7.2008
X2.901Y-7.2568
X2.901Y-7.3128
X2.901Y-7.3688
X2.901Y-7.4248
X2.901Y-7.4808
X2.91Y-6.202
X2.91Y-6.258
X2.917Y-6.949
X2.917Y-7.0048
X2.917Y-7.0608
X2.917Y-7.1168
X2.917Y-7.1728
X2.917Y-7.2288
X2.917Y-7.2848
X2.917Y-7.3408
X2.917Y-7.3968
X2.917Y-7.4528
X2.926Y-6.23
X2.926Y-6.286
X2.932Y-6.584
X2.932Y-6.64
X2.932Y-6.696
X2.932Y-6.752
X2.932Y-6.809
X2.933Y-6.865
X2.933Y-6.921
X2.933Y-6.977
X2.933Y-7.0328
X2.933Y-7.0888
X2.933Y-7.1448
X2.933Y-7.2008
X2.933Y-7.2568
X2.933Y-7.3128
X2.933Y-7.3688
X2.933Y-7.4248
X2.933Y-7.4808
X2.942Y-6.202
X2.942Y-6.258
X2.948Y-6.612
X2.948Y-6.668
X2.948Y-6.724
X2.948Y-6.78
X2.948Y-6.837
X2.949Y-6.893
X2.949Y-6.949
X2.949Y-7.0048
X2.949Y-7.0608
X2.949Y-7.1168
X2.949Y-7.1728
X2.949Y-7.2288
X2.949Y-7.2848
X2.949Y-7.3408
X2.949Y-7.3968
X2.949Y-7.4528
X2.958Y-6.23
X2.958Y-6.286
X2.964Y-6.584
X2.964Y-6.64
X2.964Y-6.696
X2.964Y-6.752
X2.964Y-6.809
X2.965Y-6.865
X2.965Y-6.921
X2.965Y-6.977
X2.965Y-7.0328
X2.965Y-7.0888
X2.965Y-7.1448
X2.965Y-7.2008
X2.965Y-7.2568
X2.965Y-7.3128
X2.965Y-7.3688
X2.965Y-7.4248
X2.965Y-7.4808
X2.974Y-6.202
X2.974Y-6.258
X2.974Y-6.314
X2.974Y-6.37
X2.98Y-6.612
X2.98Y-6.668
X2.98Y-6.724
X2.98Y-6.78
X2.98Y-6.837
X2.981Y-6.893
X2.981Y-6.949
X2.981Y-7.0048
X2.981Y-7.0608
X2.981Y-7.1168
X2.981Y-7.1728
X2.981Y-7.2288
X2.981Y-7.2848
X2.981Y-7.3408
X2.981Y-7.3968
X2.981Y-7.4528
X2.99Y-6.23
X2.99Y-6.286
X2.99Y-6.342
X2.996Y-6.584
X2.996Y-6.64
X2.996Y-6.696
X2.996Y-6.752
X2.996Y-6.809
X2.997Y-6.865
X2.997Y-6.921
X2.997Y-7.0328
X2.997Y-7.0888
X2.997Y-7.1448
X2.997Y-7.2008
X2.997Y-7.2568
X2.997Y-7.3128
X2.997Y-7.3688
X2.997Y-7.4248
X2.997Y-7.4808
X2.997Y-6.977
X3.006Y-6.202
X3.006Y-6.258
X3.006Y-6.314
X3.006Y-6.37
X3.012Y-6.612
X3.012Y-6.668
X3.012Y-6.724
X3.012Y-6.78
X3.012Y-6.837
X3.013Y-6.893
X3.013Y-6.949
X3.013Y-7.0048
X3.013Y-7.0608
X3.013Y-7.1168
X3.013Y-7.1728
X3.013Y-7.2288
X3.013Y-7.2848
X3.013Y-7.3408
X3.013Y-7.3968
X3.013Y-7.4528
X3.022Y-6.23
X3.022Y-6.286
X3.022Y-6.342
X3.028Y-6.584
X3.028Y-6.64
X3.028Y-6.696
X3.028Y-6.752
X3.028Y-6.809
X3.029Y-6.865
X3.029Y-6.921
X3.029Y-6.977
X3.029Y-7.0328
X3.029Y-7.0888
X3.029Y-7.1448
X3.029Y-7.2008
X3.029Y-7.2568
X3.029Y-7.3128
X3.029Y-7.3688
X3.029Y-7.4248
X3.029Y-7.4808
X3.038Y-6.202
X3.038Y-6.258
X3.038Y-6.314
X3.038Y-6.37
X3.044Y-6.612
X3.044Y-6.668
X3.044Y-6.724
X3.044Y-6.78
X3.044Y-6.837
X3.045Y-6.893
X3.045Y-6.949
X3.045Y-7.0048
X3.045Y-7.0608
X3.045Y-7.1168
X3.045Y-7.1728
X3.045Y-7.2288
X3.045Y-7.2848
X3.045Y-7.3408
X3.045Y-7.3968
X3.045Y-7.4528
X3.054Y-6.23
X3.054Y-6.286
X3.054Y-6.342
X3.06Y-6.584
X3.06Y-6.64
X3.06Y-6.696
X3.06Y-6.752
X3.06Y-6.809
X3.061Y-6.865
X3.061Y-6.921
T2
X0.76Y-4.76
X0.7701Y-5.3465
X0.7764Y-3.551
X0.78Y-3.3
X0.78Y-3.39
X0.78Y-3.48
X0.78Y-3.69
X0.8Y-4.7
X0.8161Y-6.5228
X0.83Y-5.11
X0.8381Y-6.4852
X0.91Y-3.72
X0.91Y-3.79
X0.9106Y-3.89
X0.9106Y-4.04
X0.9106Y-4.11
X0.9138Y-3.9568
X0.94Y-4.78
X0.95Y-4.94
X0.98Y-4.22
X1.0284Y-4.6884
X1.0525Y-3.9537
X1.0594Y-4.6
X1.06Y-4.28
X1.06Y-4.44
X1.07Y-5.36
X1.0869Y-5.2957
X1.1Y-6.44
X1.1107Y-4.388
X1.12Y-5.18
X1.124Y-5.33
X1.134Y-5.41
X1.14Y-3.44
X1.14Y-3.96
X1.1402Y-4.27
X1.17Y-3.65
X1.178Y-4.501
X1.1893Y-3.588
X1.28Y-4.7011
X1.2865Y-4.85
X1.32Y-4.6706
X1.33Y-3.9194
X1.34Y-4.45
X1.37Y-3.59
X1.3706Y-3.9016
X1.3706Y-4.2765
X1.3892Y-4.3469
X1.4725Y-4.347
X1.4792Y-4.2555
X1.48Y-4.0813
X1.4862Y-4.1747
X1.52Y-4.28
X1.53Y-4.09
X1.6395Y-4.528
X1.65Y-3.8149
X1.65Y-4.57
X1.6537Y-5.9
X1.675Y-4.375
X1.7Y-3.79
X1.7283Y-4.4239
X1.7457Y-4.3843
X1.7546Y-4.2007
X1.77Y-4.2888
X1.77Y-4.47
X1.7829Y-4.1297
X1.79Y-4.64
X1.7984Y-4.2086
X1.8Y-5.3951
X1.8064Y-4.1661
X1.8719Y-3.4621
X1.89Y-4.64
X1.936Y-4.4059
X1.9366Y-4.2134
X1.94Y-4.64
X1.9603Y-4.37
X1.9716Y-4.2484
X1.9751Y-4.0234
X1.98Y-5.4
X2.0159Y-4.3397
X2.15Y-4.0258
X2.15Y-4.41
X2.15Y-4.58
X2.16Y-4.22
X2.1651Y-5.3951
X2.2212Y-4.37
X2.2729Y-4.2587
X2.2905Y-4.195
X2.35Y-4.1
X2.35Y-5.4
X2.5976Y-5.3756
X2.7568Y-6.8296
X2.8047Y-6.8719
X2.8102Y-4.8953
X2.83Y-4.7066
X2.8398Y-6.84
X2.854Y-5.438
X2.857Y-5.121
X2.9527Y-5.4327
X2.99Y-4.73
X2.9909Y-5.0365
X3.04Y-4.73
T3
X0.8539Y-5.376
X0.9535Y-5.376
X1.141Y-6.517
X1.5661Y-5.3924
X1.61Y-5.3924
X1.65Y-5.3924
X2.7884Y-6.59
T4
X1.825Y-3.8202
X1.875Y-3.9202
X1.925Y-3.8202
X1.975Y-3.9202
X2.025Y-3.8202
X2.075Y-3.9202
X2.125Y-3.8202
X2.175Y-3.9202
X2.545Y-3.8202
X2.595Y-3.9202
X2.645Y-3.8202
X2.695Y-3.9202
X2.745Y-3.8202
X2.795Y-3.9202
X2.845Y-3.8202
X2.895Y-3.9202
T5
X0.81Y-3.7565
X0.81Y-3.8565
X0.81Y-3.9565
X0.81Y-4.0565
X0.81Y-4.2061
X0.81Y-4.3061
X0.81Y-4.4649
X0.81Y-4.5649
X1.3406Y-4.56
X1.4406Y-4.56
X1.5406Y-4.56
X2.8206Y-4.57
X2.9206Y-4.57
X3.0206Y-4.57
T6
X1.1108Y-4.8031
X1.1108Y-4.9031
X1.1108Y-5.0031
X1.1108Y-5.1031
T7
X2.9472Y-4.24
X2.9472Y-4.34
X2.9472Y-4.44
T8
X1.6949Y-3.6902
X2.3051Y-3.6902
X2.4149Y-3.6902
X3.0251Y-3.6902
T9
X1.03Y-7.226
X1.619Y-7.2478
X2.2071Y-7.2433
X2.8Y-7.2428
T0
M30
