%TF.GenerationSoftware,KiCad,Pcbnew,(6.0.9)*%
%TF.CreationDate,2022-11-24T15:29:17-03:00*%
%TF.ProjectId,main,6d61696e-2e6b-4696-9361-645f70636258,rev?*%
%TF.SameCoordinates,Original*%
%TF.FileFunction,Drillmap*%
%TF.FilePolarity,Positive*%
%FSLAX45Y45*%
G04 Gerber Fmt 4.5, Leading zero omitted, Abs format (unit mm)*
G04 Created by KiCad (PCBNEW (6.0.9)) date 2022-11-24 15:29:17*
%MOMM*%
%LPD*%
G01*
G04 APERTURE LIST*
%ADD10C,0.100000*%
%ADD11C,0.200000*%
%ADD12C,0.320000*%
G04 APERTURE END LIST*
D10*
X1282700Y-19202400D02*
X8458200Y-19202400D01*
X8458200Y-19202400D02*
X8458200Y-8255000D01*
X8458200Y-8255000D02*
X1282700Y-8255000D01*
X1282700Y-8255000D02*
X1282700Y-19202400D01*
D11*
D12*
X1427500Y-9047500D02*
X1747500Y-9367500D01*
X1747500Y-9047500D02*
X1427500Y-9367500D01*
X1427500Y-12952750D02*
X1747500Y-13272750D01*
X1747500Y-12952750D02*
X1427500Y-13272750D01*
X1427500Y-16858000D02*
X1747500Y-17178000D01*
X1747500Y-16858000D02*
X1427500Y-17178000D01*
X2100600Y-14013200D02*
X2420600Y-14333200D01*
X2420600Y-14013200D02*
X2100600Y-14333200D01*
X4348500Y-8908200D02*
X4668500Y-9228200D01*
X4668500Y-8908200D02*
X4348500Y-9228200D01*
X5491500Y-8908200D02*
X5811500Y-9228200D01*
X5811500Y-8908200D02*
X5491500Y-9228200D01*
X6177300Y-8908200D02*
X6497300Y-9228200D01*
X6497300Y-8908200D02*
X6177300Y-9228200D01*
X7307600Y-14038600D02*
X7627600Y-14358600D01*
X7627600Y-14038600D02*
X7307600Y-14358600D01*
X7320300Y-8908200D02*
X7640300Y-9228200D01*
X7640300Y-8908200D02*
X7320300Y-9228200D01*
X7993400Y-9047500D02*
X8313400Y-9367500D01*
X8313400Y-9047500D02*
X7993400Y-9367500D01*
X7993400Y-12952750D02*
X8313400Y-13272750D01*
X8313400Y-12952750D02*
X7993400Y-13272750D01*
X7993400Y-16858000D02*
X8313400Y-17178000D01*
X8313400Y-16858000D02*
X7993400Y-17178000D01*
D11*
X1535319Y-19517876D02*
X1535319Y-19317876D01*
X1582938Y-19317876D01*
X1611509Y-19327400D01*
X1630557Y-19346448D01*
X1640081Y-19365495D01*
X1649605Y-19403590D01*
X1649605Y-19432162D01*
X1640081Y-19470257D01*
X1630557Y-19489305D01*
X1611509Y-19508352D01*
X1582938Y-19517876D01*
X1535319Y-19517876D01*
X1735319Y-19517876D02*
X1735319Y-19384543D01*
X1735319Y-19422638D02*
X1744843Y-19403590D01*
X1754367Y-19394067D01*
X1773414Y-19384543D01*
X1792462Y-19384543D01*
X1859128Y-19517876D02*
X1859128Y-19384543D01*
X1859128Y-19317876D02*
X1849605Y-19327400D01*
X1859128Y-19336924D01*
X1868652Y-19327400D01*
X1859128Y-19317876D01*
X1859128Y-19336924D01*
X1982938Y-19517876D02*
X1963890Y-19508352D01*
X1954367Y-19489305D01*
X1954367Y-19317876D01*
X2087700Y-19517876D02*
X2068652Y-19508352D01*
X2059128Y-19489305D01*
X2059128Y-19317876D01*
X2316271Y-19517876D02*
X2316271Y-19317876D01*
X2382938Y-19460733D01*
X2449605Y-19317876D01*
X2449605Y-19517876D01*
X2630557Y-19517876D02*
X2630557Y-19413114D01*
X2621033Y-19394067D01*
X2601986Y-19384543D01*
X2563890Y-19384543D01*
X2544843Y-19394067D01*
X2630557Y-19508352D02*
X2611510Y-19517876D01*
X2563890Y-19517876D01*
X2544843Y-19508352D01*
X2535319Y-19489305D01*
X2535319Y-19470257D01*
X2544843Y-19451210D01*
X2563890Y-19441686D01*
X2611510Y-19441686D01*
X2630557Y-19432162D01*
X2725795Y-19384543D02*
X2725795Y-19584543D01*
X2725795Y-19394067D02*
X2744843Y-19384543D01*
X2782938Y-19384543D01*
X2801986Y-19394067D01*
X2811509Y-19403590D01*
X2821033Y-19422638D01*
X2821033Y-19479781D01*
X2811509Y-19498829D01*
X2801986Y-19508352D01*
X2782938Y-19517876D01*
X2744843Y-19517876D01*
X2725795Y-19508352D01*
X2906748Y-19498829D02*
X2916271Y-19508352D01*
X2906748Y-19517876D01*
X2897224Y-19508352D01*
X2906748Y-19498829D01*
X2906748Y-19517876D01*
X2906748Y-19394067D02*
X2916271Y-19403590D01*
X2906748Y-19413114D01*
X2897224Y-19403590D01*
X2906748Y-19394067D01*
X2906748Y-19413114D01*
X1077700Y-19747400D02*
X1277700Y-19947400D01*
X1277700Y-19747400D02*
X1077700Y-19947400D01*
X1516271Y-19737876D02*
X1640081Y-19737876D01*
X1573414Y-19814067D01*
X1601986Y-19814067D01*
X1621033Y-19823590D01*
X1630557Y-19833114D01*
X1640081Y-19852162D01*
X1640081Y-19899781D01*
X1630557Y-19918829D01*
X1621033Y-19928352D01*
X1601986Y-19937876D01*
X1544843Y-19937876D01*
X1525795Y-19928352D01*
X1516271Y-19918829D01*
X1725795Y-19918829D02*
X1735319Y-19928352D01*
X1725795Y-19937876D01*
X1716271Y-19928352D01*
X1725795Y-19918829D01*
X1725795Y-19937876D01*
X1811509Y-19756924D02*
X1821033Y-19747400D01*
X1840081Y-19737876D01*
X1887700Y-19737876D01*
X1906748Y-19747400D01*
X1916271Y-19756924D01*
X1925795Y-19775971D01*
X1925795Y-19795019D01*
X1916271Y-19823590D01*
X1801986Y-19937876D01*
X1925795Y-19937876D01*
X2049605Y-19737876D02*
X2068652Y-19737876D01*
X2087700Y-19747400D01*
X2097224Y-19756924D01*
X2106748Y-19775971D01*
X2116271Y-19814067D01*
X2116271Y-19861686D01*
X2106748Y-19899781D01*
X2097224Y-19918829D01*
X2087700Y-19928352D01*
X2068652Y-19937876D01*
X2049605Y-19937876D01*
X2030557Y-19928352D01*
X2021033Y-19918829D01*
X2011509Y-19899781D01*
X2001986Y-19861686D01*
X2001986Y-19814067D01*
X2011509Y-19775971D01*
X2021033Y-19756924D01*
X2030557Y-19747400D01*
X2049605Y-19737876D01*
X2240081Y-19737876D02*
X2259129Y-19737876D01*
X2278176Y-19747400D01*
X2287700Y-19756924D01*
X2297224Y-19775971D01*
X2306748Y-19814067D01*
X2306748Y-19861686D01*
X2297224Y-19899781D01*
X2287700Y-19918829D01*
X2278176Y-19928352D01*
X2259129Y-19937876D01*
X2240081Y-19937876D01*
X2221033Y-19928352D01*
X2211510Y-19918829D01*
X2201986Y-19899781D01*
X2192462Y-19861686D01*
X2192462Y-19814067D01*
X2201986Y-19775971D01*
X2211510Y-19756924D01*
X2221033Y-19747400D01*
X2240081Y-19737876D01*
X2392462Y-19937876D02*
X2392462Y-19804543D01*
X2392462Y-19823590D02*
X2401986Y-19814067D01*
X2421033Y-19804543D01*
X2449605Y-19804543D01*
X2468652Y-19814067D01*
X2478176Y-19833114D01*
X2478176Y-19937876D01*
X2478176Y-19833114D02*
X2487700Y-19814067D01*
X2506748Y-19804543D01*
X2535319Y-19804543D01*
X2554367Y-19814067D01*
X2563890Y-19833114D01*
X2563890Y-19937876D01*
X2659129Y-19937876D02*
X2659129Y-19804543D01*
X2659129Y-19823590D02*
X2668652Y-19814067D01*
X2687700Y-19804543D01*
X2716271Y-19804543D01*
X2735319Y-19814067D01*
X2744843Y-19833114D01*
X2744843Y-19937876D01*
X2744843Y-19833114D02*
X2754367Y-19814067D01*
X2773414Y-19804543D01*
X2801986Y-19804543D01*
X2821033Y-19814067D01*
X2830557Y-19833114D01*
X2830557Y-19937876D01*
X3221033Y-19728352D02*
X3049605Y-19985495D01*
X3478176Y-19737876D02*
X3497224Y-19737876D01*
X3516271Y-19747400D01*
X3525795Y-19756924D01*
X3535319Y-19775971D01*
X3544843Y-19814067D01*
X3544843Y-19861686D01*
X3535319Y-19899781D01*
X3525795Y-19918829D01*
X3516271Y-19928352D01*
X3497224Y-19937876D01*
X3478176Y-19937876D01*
X3459128Y-19928352D01*
X3449605Y-19918829D01*
X3440081Y-19899781D01*
X3430557Y-19861686D01*
X3430557Y-19814067D01*
X3440081Y-19775971D01*
X3449605Y-19756924D01*
X3459128Y-19747400D01*
X3478176Y-19737876D01*
X3630557Y-19918829D02*
X3640081Y-19928352D01*
X3630557Y-19937876D01*
X3621033Y-19928352D01*
X3630557Y-19918829D01*
X3630557Y-19937876D01*
X3830557Y-19937876D02*
X3716271Y-19937876D01*
X3773414Y-19937876D02*
X3773414Y-19737876D01*
X3754367Y-19766448D01*
X3735319Y-19785495D01*
X3716271Y-19795019D01*
X3906748Y-19756924D02*
X3916271Y-19747400D01*
X3935319Y-19737876D01*
X3982938Y-19737876D01*
X4001986Y-19747400D01*
X4011509Y-19756924D01*
X4021033Y-19775971D01*
X4021033Y-19795019D01*
X4011509Y-19823590D01*
X3897224Y-19937876D01*
X4021033Y-19937876D01*
X4192462Y-19737876D02*
X4154367Y-19737876D01*
X4135319Y-19747400D01*
X4125795Y-19756924D01*
X4106748Y-19785495D01*
X4097224Y-19823590D01*
X4097224Y-19899781D01*
X4106748Y-19918829D01*
X4116271Y-19928352D01*
X4135319Y-19937876D01*
X4173414Y-19937876D01*
X4192462Y-19928352D01*
X4201986Y-19918829D01*
X4211510Y-19899781D01*
X4211510Y-19852162D01*
X4201986Y-19833114D01*
X4192462Y-19823590D01*
X4173414Y-19814067D01*
X4135319Y-19814067D01*
X4116271Y-19823590D01*
X4106748Y-19833114D01*
X4097224Y-19852162D01*
X4335319Y-19737876D02*
X4354367Y-19737876D01*
X4373414Y-19747400D01*
X4382938Y-19756924D01*
X4392462Y-19775971D01*
X4401986Y-19814067D01*
X4401986Y-19861686D01*
X4392462Y-19899781D01*
X4382938Y-19918829D01*
X4373414Y-19928352D01*
X4354367Y-19937876D01*
X4335319Y-19937876D01*
X4316271Y-19928352D01*
X4306748Y-19918829D01*
X4297224Y-19899781D01*
X4287700Y-19861686D01*
X4287700Y-19814067D01*
X4297224Y-19775971D01*
X4306748Y-19756924D01*
X4316271Y-19747400D01*
X4335319Y-19737876D01*
X4478176Y-19737876D02*
X4478176Y-19775971D01*
X4554367Y-19737876D02*
X4554367Y-19775971D01*
X4849605Y-20014067D02*
X4840081Y-20004543D01*
X4821033Y-19975971D01*
X4811510Y-19956924D01*
X4801986Y-19928352D01*
X4792462Y-19880733D01*
X4792462Y-19842638D01*
X4801986Y-19795019D01*
X4811510Y-19766448D01*
X4821033Y-19747400D01*
X4840081Y-19718829D01*
X4849605Y-19709305D01*
X5030557Y-19937876D02*
X4916271Y-19937876D01*
X4973414Y-19937876D02*
X4973414Y-19737876D01*
X4954367Y-19766448D01*
X4935319Y-19785495D01*
X4916271Y-19795019D01*
X5106748Y-19756924D02*
X5116271Y-19747400D01*
X5135319Y-19737876D01*
X5182938Y-19737876D01*
X5201986Y-19747400D01*
X5211510Y-19756924D01*
X5221033Y-19775971D01*
X5221033Y-19795019D01*
X5211510Y-19823590D01*
X5097224Y-19937876D01*
X5221033Y-19937876D01*
X5459129Y-19937876D02*
X5459129Y-19737876D01*
X5544843Y-19937876D02*
X5544843Y-19833114D01*
X5535319Y-19814067D01*
X5516271Y-19804543D01*
X5487700Y-19804543D01*
X5468652Y-19814067D01*
X5459129Y-19823590D01*
X5668652Y-19937876D02*
X5649605Y-19928352D01*
X5640081Y-19918829D01*
X5630557Y-19899781D01*
X5630557Y-19842638D01*
X5640081Y-19823590D01*
X5649605Y-19814067D01*
X5668652Y-19804543D01*
X5697224Y-19804543D01*
X5716271Y-19814067D01*
X5725795Y-19823590D01*
X5735319Y-19842638D01*
X5735319Y-19899781D01*
X5725795Y-19918829D01*
X5716271Y-19928352D01*
X5697224Y-19937876D01*
X5668652Y-19937876D01*
X5849605Y-19937876D02*
X5830557Y-19928352D01*
X5821033Y-19909305D01*
X5821033Y-19737876D01*
X6001986Y-19928352D02*
X5982938Y-19937876D01*
X5944843Y-19937876D01*
X5925795Y-19928352D01*
X5916271Y-19909305D01*
X5916271Y-19833114D01*
X5925795Y-19814067D01*
X5944843Y-19804543D01*
X5982938Y-19804543D01*
X6001986Y-19814067D01*
X6011509Y-19833114D01*
X6011509Y-19852162D01*
X5916271Y-19871210D01*
X6087700Y-19928352D02*
X6106748Y-19937876D01*
X6144843Y-19937876D01*
X6163890Y-19928352D01*
X6173414Y-19909305D01*
X6173414Y-19899781D01*
X6163890Y-19880733D01*
X6144843Y-19871210D01*
X6116271Y-19871210D01*
X6097224Y-19861686D01*
X6087700Y-19842638D01*
X6087700Y-19833114D01*
X6097224Y-19814067D01*
X6116271Y-19804543D01*
X6144843Y-19804543D01*
X6163890Y-19814067D01*
X6240081Y-20014067D02*
X6249605Y-20004543D01*
X6268652Y-19975971D01*
X6278176Y-19956924D01*
X6287700Y-19928352D01*
X6297224Y-19880733D01*
X6297224Y-19842638D01*
X6287700Y-19795019D01*
X6278176Y-19766448D01*
X6268652Y-19747400D01*
X6249605Y-19718829D01*
X6240081Y-19709305D01*
X6601986Y-20014067D02*
X6592462Y-20004543D01*
X6573414Y-19975971D01*
X6563890Y-19956924D01*
X6554367Y-19928352D01*
X6544843Y-19880733D01*
X6544843Y-19842638D01*
X6554367Y-19795019D01*
X6563890Y-19766448D01*
X6573414Y-19747400D01*
X6592462Y-19718829D01*
X6601986Y-19709305D01*
X6678176Y-19804543D02*
X6678176Y-19937876D01*
X6678176Y-19823590D02*
X6687700Y-19814067D01*
X6706748Y-19804543D01*
X6735319Y-19804543D01*
X6754367Y-19814067D01*
X6763890Y-19833114D01*
X6763890Y-19937876D01*
X6887700Y-19937876D02*
X6868652Y-19928352D01*
X6859128Y-19918829D01*
X6849605Y-19899781D01*
X6849605Y-19842638D01*
X6859128Y-19823590D01*
X6868652Y-19814067D01*
X6887700Y-19804543D01*
X6916271Y-19804543D01*
X6935319Y-19814067D01*
X6944843Y-19823590D01*
X6954367Y-19842638D01*
X6954367Y-19899781D01*
X6944843Y-19918829D01*
X6935319Y-19928352D01*
X6916271Y-19937876D01*
X6887700Y-19937876D01*
X7011509Y-19804543D02*
X7087700Y-19804543D01*
X7040081Y-19737876D02*
X7040081Y-19909305D01*
X7049605Y-19928352D01*
X7068652Y-19937876D01*
X7087700Y-19937876D01*
X7306748Y-19804543D02*
X7306748Y-20004543D01*
X7306748Y-19814067D02*
X7325795Y-19804543D01*
X7363890Y-19804543D01*
X7382938Y-19814067D01*
X7392462Y-19823590D01*
X7401986Y-19842638D01*
X7401986Y-19899781D01*
X7392462Y-19918829D01*
X7382938Y-19928352D01*
X7363890Y-19937876D01*
X7325795Y-19937876D01*
X7306748Y-19928352D01*
X7516271Y-19937876D02*
X7497224Y-19928352D01*
X7487700Y-19909305D01*
X7487700Y-19737876D01*
X7678176Y-19937876D02*
X7678176Y-19833114D01*
X7668652Y-19814067D01*
X7649605Y-19804543D01*
X7611509Y-19804543D01*
X7592462Y-19814067D01*
X7678176Y-19928352D02*
X7659128Y-19937876D01*
X7611509Y-19937876D01*
X7592462Y-19928352D01*
X7582938Y-19909305D01*
X7582938Y-19890257D01*
X7592462Y-19871210D01*
X7611509Y-19861686D01*
X7659128Y-19861686D01*
X7678176Y-19852162D01*
X7744843Y-19804543D02*
X7821033Y-19804543D01*
X7773414Y-19737876D02*
X7773414Y-19909305D01*
X7782938Y-19928352D01*
X7801986Y-19937876D01*
X7821033Y-19937876D01*
X7963890Y-19928352D02*
X7944843Y-19937876D01*
X7906748Y-19937876D01*
X7887700Y-19928352D01*
X7878176Y-19909305D01*
X7878176Y-19833114D01*
X7887700Y-19814067D01*
X7906748Y-19804543D01*
X7944843Y-19804543D01*
X7963890Y-19814067D01*
X7973414Y-19833114D01*
X7973414Y-19852162D01*
X7878176Y-19871210D01*
X8144843Y-19937876D02*
X8144843Y-19737876D01*
X8144843Y-19928352D02*
X8125795Y-19937876D01*
X8087700Y-19937876D01*
X8068652Y-19928352D01*
X8059128Y-19918829D01*
X8049605Y-19899781D01*
X8049605Y-19842638D01*
X8059128Y-19823590D01*
X8068652Y-19814067D01*
X8087700Y-19804543D01*
X8125795Y-19804543D01*
X8144843Y-19814067D01*
X8221033Y-20014067D02*
X8230557Y-20004543D01*
X8249605Y-19975971D01*
X8259128Y-19956924D01*
X8268652Y-19928352D01*
X8278176Y-19880733D01*
X8278176Y-19842638D01*
X8268652Y-19795019D01*
X8259128Y-19766448D01*
X8249605Y-19747400D01*
X8230557Y-19718829D01*
X8221033Y-19709305D01*
M02*
