M48
; DRILL file {KiCad (6.0.9)} date Sun 27 Nov 2022 04:56:05 PM -03
; FORMAT={-:-/ absolute / metric / decimal}
; #@! TF.CreationDate,2022-11-27T16:56:05-03:00
; #@! TF.GenerationSoftware,Kicad,Pcbnew,(6.0.9)
; #@! TF.FileFunction,Plated,1,4,PTH
FMAT,2
METRIC
; #@! TA.AperFunction,Plated,PTH,ViaDrill
T1C0.200
; #@! TA.AperFunction,Plated,PTH,ComponentDrill
T2C0.200
; #@! TA.AperFunction,Plated,PTH,ViaDrill
T3C0.300
; #@! TA.AperFunction,Plated,PTH,ComponentDrill
T4C0.900
; #@! TA.AperFunction,Plated,PTH,ComponentDrill
T5C1.000
; #@! TA.AperFunction,Plated,PTH,ComponentDrill
T6C1.600
; #@! TA.AperFunction,Plated,PTH,ComponentDrill
T7C4.000
%
G90
G05
T1
X13.488Y-176.391
X13.488Y-177.291
X13.488Y-178.192
X13.488Y-179.093
X13.488Y-179.993
X13.488Y-180.894
X13.488Y-181.794
X13.488Y-182.695
X13.488Y-183.596
X13.488Y-184.496
X13.488Y-185.397
X13.488Y-186.297
X13.488Y-187.198
X13.488Y-188.099
X13.488Y-188.999
X13.488Y-189.9
X13.488Y-190.8
X13.59Y-163.402
X13.59Y-164.303
X13.59Y-165.203
X13.59Y-166.104
X13.59Y-167.005
X13.59Y-167.905
X13.59Y-171.508
X13.59Y-172.408
X13.59Y-173.309
X13.59Y-174.209
X13.59Y-175.11
X13.748Y-176.841
X13.748Y-177.742
X13.748Y-178.642
X13.748Y-179.543
X13.748Y-180.444
X13.748Y-181.344
X13.748Y-182.245
X13.748Y-183.145
X13.748Y-184.046
X13.748Y-184.946
X13.748Y-185.847
X13.748Y-186.748
X13.748Y-187.648
X13.748Y-188.549
X13.748Y-189.45
X13.748Y-190.35
X13.748Y-191.251
X13.85Y-163.853
X13.85Y-164.753
X13.85Y-165.654
X13.85Y-166.554
X13.85Y-167.455
X13.85Y-168.356
X13.85Y-171.958
X13.85Y-172.859
X13.85Y-173.759
X13.85Y-174.66
X14.008Y-176.391
X14.008Y-177.291
X14.008Y-178.192
X14.008Y-179.093
X14.008Y-179.993
X14.008Y-180.894
X14.008Y-181.794
X14.008Y-182.695
X14.008Y-183.596
X14.008Y-184.496
X14.008Y-185.397
X14.008Y-186.297
X14.008Y-187.198
X14.008Y-188.099
X14.008Y-188.999
X14.008Y-189.9
X14.008Y-190.8
X14.11Y-163.402
X14.11Y-164.303
X14.11Y-165.203
X14.11Y-166.104
X14.11Y-167.005
X14.11Y-167.905
X14.11Y-172.408
X14.11Y-173.309
X14.11Y-174.209
X14.11Y-175.11
X14.268Y-176.841
X14.268Y-177.742
X14.268Y-178.642
X14.268Y-179.543
X14.268Y-180.444
X14.268Y-181.344
X14.268Y-182.245
X14.268Y-183.145
X14.268Y-184.046
X14.268Y-184.946
X14.268Y-185.847
X14.268Y-186.748
X14.268Y-187.648
X14.268Y-188.549
X14.268Y-189.45
X14.268Y-190.35
X14.268Y-191.251
X14.37Y-163.853
X14.37Y-164.753
X14.37Y-165.654
X14.37Y-166.554
X14.37Y-167.455
X14.37Y-172.859
X14.37Y-173.759
X14.37Y-174.66
X14.528Y-176.391
X14.528Y-177.291
X14.528Y-178.192
X14.528Y-179.093
X14.528Y-179.993
X14.528Y-180.894
X14.528Y-181.794
X14.528Y-182.695
X14.528Y-183.596
X14.528Y-184.496
X14.528Y-185.397
X14.528Y-186.297
X14.528Y-187.198
X14.528Y-188.099
X14.528Y-188.999
X14.528Y-189.9
X14.528Y-190.8
X14.63Y-163.402
X14.63Y-164.303
X14.63Y-165.203
X14.63Y-166.104
X14.63Y-167.005
X14.63Y-167.905
X14.63Y-172.408
X14.63Y-173.309
X14.63Y-174.209
X14.63Y-175.11
X14.788Y-176.841
X14.788Y-177.742
X14.788Y-178.642
X14.788Y-179.543
X14.788Y-180.444
X14.788Y-181.344
X14.788Y-182.245
X14.788Y-183.145
X14.788Y-184.046
X14.788Y-184.946
X14.788Y-185.847
X14.788Y-186.748
X14.788Y-187.648
X14.788Y-188.549
X14.788Y-189.45
X14.788Y-190.35
X14.788Y-191.251
X14.89Y-163.853
X14.89Y-164.753
X14.89Y-165.654
X14.89Y-166.554
X14.89Y-167.455
X14.89Y-172.859
X14.89Y-173.759
X14.89Y-174.66
X15.048Y-176.391
X15.048Y-177.291
X15.048Y-178.192
X15.048Y-179.093
X15.048Y-179.993
X15.048Y-180.894
X15.048Y-181.794
X15.048Y-182.695
X15.048Y-183.596
X15.048Y-184.496
X15.048Y-185.397
X15.048Y-186.297
X15.048Y-187.198
X15.048Y-188.099
X15.048Y-188.999
X15.048Y-189.9
X15.048Y-190.8
X15.15Y-163.402
X15.15Y-164.303
X15.15Y-165.203
X15.15Y-166.104
X15.15Y-167.005
X15.15Y-173.309
X15.15Y-174.209
X15.15Y-175.11
X15.308Y-176.841
X15.308Y-177.742
X15.308Y-178.642
X15.308Y-179.543
X15.308Y-180.444
X15.308Y-181.344
X15.308Y-182.245
X15.308Y-183.145
X15.308Y-184.046
X15.308Y-184.946
X15.308Y-185.847
X15.308Y-186.748
X15.308Y-187.648
X15.308Y-188.549
X15.308Y-189.45
X15.308Y-190.35
X15.308Y-191.251
X15.41Y-163.853
X15.41Y-164.753
X15.41Y-165.654
X15.41Y-166.554
X15.41Y-167.455
X15.41Y-172.859
X15.41Y-173.759
X15.41Y-174.66
X15.568Y-176.391
X15.568Y-177.291
X15.568Y-178.192
X15.568Y-179.093
X15.568Y-179.993
X15.568Y-180.894
X15.568Y-181.794
X15.568Y-182.695
X15.568Y-183.596
X15.568Y-184.496
X15.568Y-185.397
X15.568Y-186.297
X15.568Y-187.198
X15.568Y-188.099
X15.568Y-188.999
X15.568Y-189.9
X15.568Y-190.8
X15.67Y-163.402
X15.67Y-164.303
X15.67Y-165.203
X15.67Y-166.104
X15.67Y-167.005
X15.67Y-173.309
X15.67Y-174.209
X15.67Y-175.11
X15.828Y-176.841
X15.828Y-177.742
X15.828Y-178.642
X15.828Y-179.543
X15.828Y-180.444
X15.828Y-181.344
X15.828Y-182.245
X15.828Y-183.145
X15.828Y-184.046
X15.828Y-184.946
X15.828Y-185.847
X15.828Y-186.748
X15.828Y-187.648
X15.828Y-188.549
X15.828Y-189.45
X15.828Y-190.35
X15.828Y-191.251
X15.93Y-163.853
X15.93Y-164.753
X15.93Y-165.654
X15.93Y-166.554
X15.93Y-167.455
X15.93Y-172.859
X15.93Y-173.759
X15.93Y-174.66
X16.088Y-176.391
X16.088Y-177.291
X16.088Y-178.192
X16.088Y-179.093
X16.088Y-179.993
X16.088Y-180.894
X16.088Y-181.794
X16.088Y-182.695
X16.088Y-183.596
X16.088Y-184.496
X16.088Y-185.397
X16.088Y-186.297
X16.088Y-187.198
X16.088Y-188.099
X16.088Y-188.999
X16.088Y-189.9
X16.088Y-190.8
X16.19Y-163.402
X16.19Y-164.303
X16.19Y-165.203
X16.19Y-166.104
X16.19Y-167.005
X16.19Y-173.309
X16.19Y-174.209
X16.19Y-175.11
X16.348Y-176.841
X16.348Y-177.742
X16.348Y-178.642
X16.348Y-179.543
X16.348Y-180.444
X16.348Y-181.344
X16.348Y-182.245
X16.348Y-183.145
X16.348Y-184.046
X16.348Y-184.946
X16.348Y-185.847
X16.348Y-186.748
X16.348Y-187.648
X16.348Y-188.549
X16.348Y-189.45
X16.348Y-190.35
X16.348Y-191.251
X16.45Y-163.853
X16.45Y-164.753
X16.45Y-165.654
X16.45Y-166.554
X16.45Y-167.455
X16.45Y-172.859
X16.45Y-173.759
X16.45Y-174.66
X16.608Y-176.391
X16.608Y-177.291
X16.608Y-178.192
X16.608Y-179.093
X16.608Y-179.993
X16.608Y-180.894
X16.608Y-181.794
X16.608Y-182.695
X16.608Y-183.596
X16.608Y-184.496
X16.608Y-185.397
X16.608Y-186.297
X16.608Y-187.198
X16.608Y-188.099
X16.608Y-188.999
X16.608Y-189.9
X16.608Y-190.8
X16.71Y-163.402
X16.71Y-164.303
X16.71Y-165.203
X16.71Y-166.104
X16.71Y-167.005
X16.71Y-173.309
X16.71Y-174.209
X16.71Y-175.11
X16.868Y-176.841
X16.868Y-177.742
X16.868Y-178.642
X16.868Y-179.543
X16.868Y-180.444
X16.868Y-181.344
X16.868Y-182.245
X16.868Y-183.145
X16.868Y-184.046
X16.868Y-184.946
X16.868Y-185.847
X16.868Y-186.748
X16.868Y-187.648
X16.868Y-188.549
X16.868Y-189.45
X16.868Y-190.35
X16.868Y-191.251
X16.97Y-163.853
X16.97Y-164.753
X16.97Y-165.654
X16.97Y-166.554
X16.97Y-167.455
X16.97Y-172.859
X16.97Y-173.759
X16.97Y-174.66
X17.128Y-176.391
X17.128Y-177.291
X17.128Y-178.192
X17.128Y-179.093
X17.128Y-179.993
X17.128Y-180.894
X17.128Y-181.794
X17.128Y-182.695
X17.128Y-183.596
X17.128Y-184.496
X17.128Y-185.397
X17.128Y-186.297
X17.128Y-187.198
X17.128Y-188.099
X17.128Y-188.999
X17.128Y-189.9
X17.128Y-190.8
X17.23Y-163.402
X17.23Y-164.303
X17.23Y-165.203
X17.23Y-166.104
X17.23Y-167.005
X17.23Y-172.408
X17.23Y-173.309
X17.23Y-174.209
X17.23Y-175.11
X17.388Y-176.841
X17.388Y-177.742
X17.388Y-178.642
X17.388Y-179.543
X17.388Y-180.444
X17.388Y-181.344
X17.388Y-182.245
X17.388Y-183.145
X17.388Y-184.046
X17.388Y-184.946
X17.388Y-185.847
X17.388Y-186.748
X17.388Y-187.648
X17.388Y-188.549
X17.388Y-189.45
X17.388Y-190.35
X17.388Y-191.251
X17.49Y-163.853
X17.49Y-164.753
X17.49Y-165.654
X17.49Y-166.554
X17.49Y-167.455
X17.49Y-172.859
X17.49Y-173.759
X17.49Y-174.66
X17.648Y-176.391
X17.648Y-177.291
X17.648Y-178.192
X17.648Y-179.093
X17.648Y-179.993
X17.648Y-180.894
X17.648Y-181.794
X17.648Y-182.695
X17.648Y-183.596
X17.648Y-184.496
X17.648Y-185.397
X17.648Y-186.297
X17.648Y-187.198
X17.648Y-188.099
X17.648Y-188.999
X17.648Y-189.9
X17.648Y-190.8
X17.75Y-163.402
X17.75Y-164.303
X17.75Y-165.203
X17.75Y-166.104
X17.75Y-167.005
X17.75Y-167.905
X17.75Y-172.408
X17.75Y-173.309
X17.75Y-174.209
X17.75Y-175.11
X17.908Y-176.841
X17.908Y-177.742
X17.908Y-178.642
X17.908Y-179.543
X17.908Y-180.444
X17.908Y-181.344
X17.908Y-182.245
X17.908Y-183.145
X17.908Y-184.046
X17.908Y-184.946
X17.908Y-185.847
X17.908Y-186.748
X17.908Y-187.648
X17.908Y-188.549
X17.908Y-189.45
X17.908Y-190.35
X17.908Y-191.251
X18.01Y-163.853
X18.01Y-164.753
X18.01Y-165.654
X18.01Y-166.554
X18.01Y-167.455
X18.01Y-168.356
X18.01Y-171.958
X18.01Y-172.859
X18.01Y-173.759
X18.01Y-174.66
X18.168Y-176.391
X18.168Y-177.291
X18.168Y-178.192
X18.168Y-179.093
X18.168Y-179.993
X18.168Y-180.894
X18.168Y-181.794
X18.168Y-182.695
X18.168Y-183.596
X18.168Y-184.496
X18.168Y-185.397
X18.168Y-186.297
X18.168Y-187.198
X18.168Y-188.099
X18.168Y-188.999
X18.168Y-189.9
X18.168Y-190.8
X18.27Y-163.402
X18.27Y-164.303
X18.27Y-165.203
X18.27Y-166.104
X18.27Y-167.005
X18.27Y-167.905
X18.27Y-168.806
X18.27Y-171.508
X18.27Y-172.408
X18.27Y-173.309
X18.27Y-174.209
X18.27Y-175.11
X18.428Y-176.841
X18.428Y-177.742
X18.428Y-178.642
X18.428Y-179.543
X18.428Y-180.444
X18.428Y-181.344
X18.428Y-182.245
X18.428Y-183.145
X18.428Y-184.046
X18.428Y-184.946
X18.428Y-185.847
X18.428Y-186.748
X18.428Y-187.648
X18.428Y-188.549
X18.428Y-189.45
X18.428Y-190.35
X18.428Y-191.251
X18.53Y-163.853
X18.53Y-164.753
X18.53Y-165.654
X18.53Y-166.554
X18.53Y-167.455
X18.53Y-168.356
X18.53Y-169.256
X18.53Y-170.157
X18.53Y-171.057
X18.53Y-171.958
X18.53Y-172.859
X18.53Y-173.759
X18.53Y-174.66
X18.688Y-176.391
X18.688Y-177.291
X18.688Y-178.192
X18.688Y-179.093
X18.688Y-179.993
X18.688Y-180.894
X18.688Y-181.794
X18.688Y-182.695
X18.688Y-183.596
X18.688Y-184.496
X18.688Y-185.397
X18.688Y-186.297
X18.688Y-187.198
X18.688Y-188.099
X18.688Y-188.999
X18.688Y-189.9
X18.688Y-190.8
X18.79Y-163.402
X18.79Y-164.303
X18.79Y-165.203
X18.79Y-166.104
X18.79Y-167.005
X18.79Y-167.905
X18.79Y-168.806
X18.79Y-169.707
X18.79Y-170.607
X18.79Y-171.508
X18.79Y-172.408
X18.79Y-173.309
X18.79Y-174.209
X18.79Y-175.11
X18.948Y-176.841
X18.948Y-177.742
X18.948Y-178.642
X18.948Y-179.543
X18.948Y-180.444
X18.948Y-181.344
X18.948Y-182.245
X18.948Y-183.145
X18.948Y-184.046
X18.948Y-184.946
X18.948Y-185.847
X18.948Y-186.748
X18.948Y-187.648
X18.948Y-188.549
X18.948Y-189.45
X18.948Y-190.35
X18.948Y-191.251
X19.05Y-165.654
X19.05Y-166.554
X19.05Y-167.455
X19.05Y-168.356
X19.05Y-169.256
X19.05Y-170.157
X19.05Y-171.057
X19.05Y-171.958
X19.05Y-172.859
X19.05Y-173.759
X19.05Y-174.66
X19.208Y-176.391
X19.208Y-177.291
X19.208Y-178.192
X19.208Y-179.093
X19.208Y-179.993
X19.208Y-180.894
X19.208Y-181.794
X19.208Y-182.695
X19.208Y-183.596
X19.208Y-184.496
X19.208Y-185.397
X19.208Y-186.297
X19.208Y-187.198
X19.208Y-188.099
X19.208Y-188.999
X19.208Y-189.9
X19.208Y-190.8
X19.31Y-167.905
X19.31Y-168.806
X19.31Y-169.707
X19.31Y-170.607
X19.31Y-171.508
X19.31Y-172.408
X19.31Y-173.309
X19.31Y-174.209
X19.468Y-176.841
X19.468Y-177.742
X19.468Y-178.642
X19.468Y-179.543
X19.468Y-180.444
X19.468Y-181.344
X19.468Y-182.245
X19.468Y-183.145
X19.468Y-184.046
X19.468Y-184.946
X19.468Y-185.847
X19.468Y-186.748
X19.468Y-187.648
X19.468Y-188.549
X19.468Y-189.45
X19.468Y-190.35
X19.468Y-191.251
X19.57Y-168.356
X19.57Y-169.256
X19.57Y-170.157
X19.57Y-171.057
X19.57Y-171.958
X19.57Y-172.859
X19.57Y-173.759
X19.57Y-174.66
X19.728Y-176.391
X19.728Y-177.291
X19.83Y-167.905
X19.83Y-168.806
X19.83Y-169.707
X19.83Y-170.607
X19.83Y-171.508
X19.83Y-172.408
X19.83Y-173.309
X19.83Y-174.209
X19.988Y-176.841
X19.988Y-177.742
X20.09Y-168.356
X20.09Y-169.256
X20.09Y-170.157
X20.09Y-171.057
X20.09Y-171.958
X20.09Y-172.859
X20.09Y-173.759
X20.09Y-174.66
X20.248Y-176.391
X20.248Y-177.291
X20.35Y-167.905
X20.35Y-168.806
X20.35Y-169.707
X20.35Y-170.607
X20.35Y-171.508
X20.35Y-172.408
X20.35Y-173.309
X20.35Y-174.209
X20.508Y-176.841
X20.508Y-177.742
X20.61Y-168.356
X20.61Y-169.256
X20.61Y-170.157
X20.61Y-171.057
X20.61Y-171.958
X20.61Y-172.859
X20.61Y-173.759
X20.61Y-174.66
X20.768Y-176.391
X20.768Y-177.291
X20.87Y-167.905
X20.87Y-168.806
X20.87Y-169.707
X20.87Y-170.607
X20.87Y-171.508
X20.87Y-172.408
X20.87Y-173.309
X20.87Y-174.209
X21.028Y-176.841
X21.028Y-177.742
X21.13Y-168.356
X21.13Y-169.256
X21.13Y-170.157
X21.13Y-171.057
X21.13Y-171.958
X21.13Y-172.859
X21.13Y-173.759
X21.13Y-174.66
X21.288Y-176.391
X21.288Y-177.291
X21.39Y-167.905
X21.39Y-168.806
X21.39Y-169.707
X21.39Y-170.607
X21.39Y-171.508
X21.39Y-172.408
X21.39Y-173.309
X21.39Y-174.209
X21.548Y-176.841
X21.548Y-177.742
X21.65Y-168.356
X21.65Y-169.256
X21.65Y-170.157
X21.65Y-171.057
X21.65Y-171.958
X21.65Y-172.859
X21.65Y-173.759
X21.65Y-174.66
X21.808Y-176.391
X21.808Y-177.291
X21.91Y-167.905
X21.91Y-168.806
X21.91Y-169.707
X21.91Y-170.607
X21.91Y-171.508
X21.91Y-172.408
X21.91Y-173.309
X21.91Y-174.209
X22.068Y-176.841
X22.068Y-177.742
X22.17Y-168.356
X22.17Y-169.256
X22.17Y-170.157
X22.17Y-171.057
X22.17Y-171.958
X22.17Y-172.859
X22.17Y-173.759
X22.17Y-174.66
X22.328Y-176.391
X22.328Y-177.291
X22.588Y-176.841
X22.588Y-177.742
X22.848Y-176.391
X22.848Y-177.291
X23.108Y-176.841
X23.108Y-177.742
X23.368Y-176.391
X23.368Y-177.291
X23.628Y-172.338
X23.628Y-173.239
X23.628Y-174.139
X23.628Y-175.04
X23.628Y-175.94
X23.628Y-176.841
X23.628Y-177.742
X23.834Y-167.813
X23.834Y-168.714
X23.834Y-169.614
X23.834Y-170.515
X23.888Y-172.788
X23.888Y-173.689
X23.888Y-174.59
X23.888Y-175.49
X23.888Y-176.391
X23.888Y-177.291
X24.094Y-168.263
X24.094Y-169.164
X24.094Y-170.065
X24.094Y-170.965
X24.148Y-172.338
X24.148Y-173.239
X24.148Y-174.139
X24.148Y-175.04
X24.148Y-175.94
X24.148Y-176.841
X24.148Y-177.742
X24.354Y-167.813
X24.354Y-168.714
X24.354Y-169.614
X24.354Y-170.515
X24.408Y-172.788
X24.408Y-173.689
X24.408Y-174.59
X24.408Y-175.49
X24.408Y-176.391
X24.408Y-177.291
X24.614Y-168.263
X24.614Y-169.164
X24.614Y-170.065
X24.614Y-170.965
X24.668Y-172.338
X24.668Y-173.239
X24.668Y-174.139
X24.668Y-175.04
X24.668Y-175.94
X24.668Y-176.841
X24.668Y-177.742
X24.874Y-167.813
X24.874Y-168.714
X24.874Y-169.614
X24.874Y-170.515
X24.928Y-172.788
X24.928Y-173.689
X24.928Y-174.59
X24.928Y-175.49
X24.928Y-176.391
X24.928Y-177.291
X25.134Y-168.263
X25.134Y-169.164
X25.134Y-170.065
X25.134Y-170.965
X25.188Y-172.338
X25.188Y-173.239
X25.188Y-174.139
X25.188Y-175.04
X25.188Y-175.94
X25.188Y-176.841
X25.188Y-177.742
X25.394Y-167.813
X25.394Y-168.714
X25.394Y-169.614
X25.394Y-170.515
X25.448Y-172.788
X25.448Y-173.689
X25.448Y-174.59
X25.448Y-175.49
X25.448Y-176.391
X25.448Y-177.291
X25.654Y-168.263
X25.654Y-169.164
X25.654Y-170.065
X25.654Y-170.965
X25.708Y-172.338
X25.708Y-173.239
X25.708Y-174.139
X25.708Y-175.04
X25.708Y-175.94
X25.708Y-176.841
X25.708Y-177.742
X25.914Y-167.813
X25.914Y-168.714
X25.914Y-169.614
X25.914Y-170.515
X25.968Y-172.788
X25.968Y-173.689
X25.968Y-174.59
X25.968Y-175.49
X25.968Y-176.391
X25.968Y-177.291
X26.174Y-168.263
X26.174Y-169.164
X26.174Y-170.065
X26.174Y-170.965
X26.228Y-172.338
X26.228Y-173.239
X26.228Y-174.139
X26.228Y-175.04
X26.228Y-175.94
X26.228Y-176.841
X26.228Y-177.742
X26.434Y-167.813
X26.434Y-168.714
X26.434Y-169.614
X26.434Y-170.515
X26.488Y-172.788
X26.488Y-173.689
X26.488Y-174.59
X26.488Y-175.49
X26.488Y-176.391
X26.488Y-177.291
X26.694Y-168.263
X26.694Y-169.164
X26.694Y-170.065
X26.694Y-170.965
X26.748Y-172.338
X26.748Y-173.239
X26.748Y-174.139
X26.748Y-175.04
X26.748Y-175.94
X26.748Y-176.841
X26.748Y-177.742
X26.954Y-167.813
X26.954Y-168.714
X26.954Y-169.614
X26.954Y-170.515
X27.008Y-172.788
X27.008Y-173.689
X27.008Y-174.59
X27.008Y-175.49
X27.008Y-176.391
X27.008Y-177.291
X27.214Y-168.263
X27.214Y-169.164
X27.214Y-170.065
X27.214Y-170.965
X27.268Y-172.338
X27.268Y-173.239
X27.268Y-174.139
X27.268Y-175.04
X27.268Y-175.94
X27.268Y-176.841
X27.268Y-177.742
X27.474Y-167.813
X27.474Y-168.714
X27.474Y-169.614
X27.474Y-170.515
X27.528Y-172.788
X27.528Y-173.689
X27.528Y-174.59
X27.528Y-175.49
X27.528Y-176.391
X27.528Y-177.291
X27.734Y-168.263
X27.734Y-169.164
X27.734Y-170.065
X27.734Y-170.965
X27.788Y-172.338
X27.788Y-173.239
X27.788Y-174.139
X27.788Y-175.04
X27.788Y-175.94
X27.788Y-176.841
X27.788Y-177.742
X27.994Y-167.813
X27.994Y-168.714
X27.994Y-169.614
X27.994Y-170.515
X28.048Y-172.788
X28.048Y-173.689
X28.048Y-174.59
X28.048Y-175.49
X28.048Y-176.391
X28.048Y-177.291
X28.254Y-168.263
X28.254Y-169.164
X28.254Y-170.065
X28.254Y-170.965
X28.308Y-172.338
X28.308Y-173.239
X28.308Y-174.139
X28.308Y-175.04
X28.308Y-175.94
X28.308Y-176.841
X28.308Y-177.742
X28.514Y-167.813
X28.514Y-168.714
X28.514Y-169.614
X28.514Y-170.515
X28.568Y-172.788
X28.568Y-173.689
X28.568Y-174.59
X28.568Y-175.49
X28.568Y-176.391
X28.568Y-177.291
X28.774Y-168.263
X28.774Y-169.164
X28.774Y-170.065
X28.774Y-170.965
X28.828Y-172.338
X28.828Y-173.239
X28.828Y-174.139
X28.828Y-175.04
X28.828Y-175.94
X28.828Y-176.841
X28.828Y-177.742
X29.034Y-167.813
X29.034Y-168.714
X29.034Y-169.614
X29.034Y-170.515
X29.088Y-172.788
X29.088Y-173.689
X29.088Y-174.59
X29.088Y-175.49
X29.088Y-176.391
X29.088Y-177.291
X29.348Y-172.338
X29.348Y-173.239
X29.348Y-174.139
X29.348Y-175.04
X29.348Y-175.94
X29.348Y-176.841
X29.348Y-177.742
X29.608Y-172.788
X29.608Y-173.689
X29.608Y-174.59
X29.608Y-175.49
X29.608Y-176.391
X29.608Y-177.291
X29.868Y-172.338
X29.868Y-173.239
X29.868Y-174.139
X29.868Y-175.04
X29.868Y-175.94
X29.868Y-176.841
X29.868Y-177.742
X30.128Y-172.788
X30.128Y-173.689
X30.128Y-174.59
X30.128Y-175.49
X30.128Y-176.391
X30.128Y-177.291
X30.388Y-172.338
X30.388Y-173.239
X30.388Y-174.139
X30.388Y-175.04
X30.388Y-175.94
X30.388Y-176.841
X30.388Y-177.742
X30.648Y-172.788
X30.648Y-173.689
X30.648Y-174.59
X30.648Y-175.49
X30.648Y-176.391
X30.648Y-177.291
X30.68Y-136.05
X30.68Y-136.95
X30.7Y-130.598
X30.7Y-131.499
X30.7Y-132.399
X30.7Y-133.3
X30.7Y-134.201
X30.7Y-135.101
X30.908Y-177.742
X30.94Y-136.5
X30.96Y-131.048
X30.96Y-131.949
X30.96Y-132.85
X30.96Y-133.75
X30.96Y-134.651
X30.96Y-135.552
X31.2Y-136.05
X31.2Y-136.95
X31.22Y-125.195
X31.22Y-126.095
X31.22Y-126.996
X31.22Y-127.896
X31.22Y-128.797
X31.22Y-129.698
X31.22Y-130.598
X31.22Y-131.499
X31.22Y-132.399
X31.22Y-133.3
X31.22Y-134.201
X31.22Y-135.101
X31.428Y-177.742
X31.46Y-136.5
X31.48Y-125.645
X31.48Y-126.545
X31.48Y-127.446
X31.48Y-128.347
X31.48Y-129.247
X31.48Y-130.148
X31.48Y-131.048
X31.48Y-131.949
X31.48Y-132.85
X31.48Y-133.75
X31.48Y-134.651
X31.48Y-135.552
X31.72Y-136.05
X31.72Y-136.95
X31.74Y-125.195
X31.74Y-126.095
X31.74Y-126.996
X31.74Y-127.896
X31.74Y-128.797
X31.74Y-129.698
X31.74Y-130.598
X31.74Y-131.499
X31.74Y-132.399
X31.74Y-133.3
X31.74Y-134.201
X31.74Y-135.101
X31.8Y-172.743
X31.8Y-173.643
X31.8Y-174.544
X31.8Y-175.444
X31.8Y-176.345
X31.948Y-177.742
X31.98Y-136.5
X32.0Y-125.645
X32.0Y-126.545
X32.0Y-127.446
X32.0Y-128.347
X32.0Y-129.247
X32.0Y-130.148
X32.0Y-131.048
X32.0Y-131.949
X32.0Y-132.85
X32.0Y-133.75
X32.0Y-134.651
X32.0Y-135.552
X32.06Y-172.292
X32.06Y-173.193
X32.06Y-174.094
X32.06Y-174.994
X32.06Y-175.895
X32.24Y-136.05
X32.24Y-136.95
X32.26Y-125.195
X32.26Y-126.095
X32.26Y-126.996
X32.26Y-127.896
X32.26Y-128.797
X32.26Y-129.698
X32.26Y-130.598
X32.26Y-131.499
X32.26Y-132.399
X32.26Y-133.3
X32.26Y-134.201
X32.26Y-135.101
X32.32Y-172.743
X32.32Y-173.643
X32.32Y-174.544
X32.32Y-175.444
X32.32Y-176.345
X32.468Y-177.742
X32.5Y-136.5
X32.52Y-125.645
X32.52Y-126.545
X32.52Y-127.446
X32.52Y-128.347
X32.52Y-129.247
X32.52Y-130.148
X32.52Y-131.048
X32.52Y-131.949
X32.58Y-172.292
X32.58Y-173.193
X32.58Y-174.094
X32.58Y-174.994
X32.58Y-175.895
X32.728Y-178.192
X32.76Y-136.95
X32.84Y-172.743
X32.84Y-173.643
X32.84Y-174.544
X32.84Y-175.444
X32.84Y-176.345
X32.988Y-177.742
X32.988Y-178.642
X32.988Y-179.543
X32.988Y-180.444
X32.988Y-181.344
X32.988Y-182.245
X32.988Y-183.145
X32.988Y-184.046
X32.988Y-184.946
X32.988Y-185.847
X32.988Y-186.748
X32.988Y-187.648
X32.988Y-188.549
X32.988Y-189.45
X32.988Y-190.35
X32.988Y-191.251
X33.02Y-136.5
X33.1Y-172.292
X33.1Y-173.193
X33.1Y-174.094
X33.1Y-174.994
X33.1Y-175.895
X33.28Y-136.95
X33.36Y-172.743
X33.36Y-173.643
X33.36Y-174.544
X33.36Y-175.444
X33.36Y-176.345
X33.54Y-136.5
X33.62Y-172.292
X33.62Y-173.193
X33.62Y-174.094
X33.62Y-174.994
X33.62Y-175.895
X33.88Y-172.743
X33.88Y-173.643
X33.88Y-174.544
X33.88Y-175.444
X33.88Y-176.345
X34.14Y-172.292
X34.14Y-173.193
X34.14Y-174.094
X34.14Y-174.994
X34.14Y-175.895
X34.4Y-172.743
X34.4Y-173.643
X34.4Y-174.544
X34.4Y-175.444
X34.4Y-176.345
X34.4Y-177.246
X34.4Y-178.146
X34.4Y-179.047
X34.4Y-179.947
X34.4Y-180.848
X34.4Y-181.749
X34.4Y-182.649
X34.4Y-183.55
X34.4Y-184.45
X34.4Y-185.351
X34.4Y-186.252
X34.4Y-187.152
X34.4Y-188.053
X34.4Y-188.953
X34.4Y-189.854
X34.4Y-190.755
X34.66Y-172.292
X34.66Y-173.193
X34.66Y-174.094
X34.66Y-174.994
X34.66Y-175.895
X34.66Y-176.795
X34.66Y-177.696
X34.92Y-172.743
X34.92Y-173.643
X34.92Y-174.544
X34.92Y-175.444
X34.92Y-176.345
X34.92Y-177.246
X34.92Y-178.146
X35.18Y-172.292
X35.18Y-173.193
X35.18Y-174.094
X35.18Y-174.994
X35.18Y-175.895
X35.18Y-176.795
X35.18Y-177.696
X35.44Y-172.743
X35.44Y-173.643
X35.44Y-174.544
X35.44Y-175.444
X35.44Y-176.345
X35.44Y-177.246
X35.44Y-178.146
X35.7Y-172.292
X35.7Y-173.193
X35.7Y-174.094
X35.7Y-174.994
X35.7Y-175.895
X35.7Y-176.795
X35.7Y-177.696
X35.96Y-172.743
X35.96Y-173.643
X35.96Y-174.544
X35.96Y-175.444
X35.96Y-176.345
X35.96Y-177.246
X35.96Y-178.146
X36.22Y-172.292
X36.22Y-173.193
X36.22Y-174.094
X36.22Y-174.994
X36.22Y-175.895
X36.22Y-176.795
X36.22Y-177.696
X36.48Y-172.743
X36.48Y-173.643
X36.48Y-174.544
X36.48Y-175.444
X36.48Y-176.345
X36.48Y-177.246
X36.48Y-178.146
X36.6Y-164.498
X36.6Y-165.399
X36.6Y-166.3
X36.6Y-167.2
X36.6Y-168.101
X36.74Y-172.292
X36.74Y-173.193
X36.74Y-174.094
X36.74Y-174.994
X36.74Y-175.895
X36.74Y-176.795
X36.74Y-177.696
X36.86Y-164.949
X36.86Y-165.849
X36.86Y-166.75
X36.86Y-167.651
X37.0Y-172.743
X37.0Y-173.643
X37.0Y-174.544
X37.0Y-175.444
X37.0Y-176.345
X37.0Y-177.246
X37.0Y-178.146
X37.12Y-164.498
X37.12Y-165.399
X37.12Y-166.3
X37.12Y-167.2
X37.12Y-168.101
X37.26Y-172.292
X37.26Y-173.193
X37.26Y-174.094
X37.26Y-174.994
X37.26Y-175.895
X37.26Y-176.795
X37.26Y-177.696
X37.38Y-164.949
X37.38Y-165.849
X37.38Y-166.75
X37.38Y-167.651
X37.52Y-172.743
X37.52Y-173.643
X37.52Y-174.544
X37.52Y-175.444
X37.52Y-176.345
X37.52Y-177.246
X37.52Y-178.146
X37.64Y-164.498
X37.64Y-165.399
X37.64Y-166.3
X37.64Y-167.2
X37.64Y-168.101
X37.78Y-172.292
X37.78Y-173.193
X37.78Y-174.094
X37.78Y-174.994
X37.78Y-175.895
X37.78Y-176.795
X37.78Y-177.696
X37.9Y-164.949
X37.9Y-165.849
X37.9Y-166.75
X37.9Y-167.651
X38.04Y-172.743
X38.04Y-173.643
X38.04Y-174.544
X38.04Y-175.444
X38.04Y-176.345
X38.04Y-177.246
X38.04Y-178.146
X38.16Y-164.498
X38.16Y-165.399
X38.16Y-166.3
X38.16Y-167.2
X38.16Y-168.101
X38.3Y-172.292
X38.3Y-173.193
X38.3Y-174.094
X38.3Y-174.994
X38.3Y-175.895
X38.3Y-176.795
X38.3Y-177.696
X38.42Y-164.949
X38.42Y-165.849
X38.42Y-166.75
X38.42Y-167.651
X38.56Y-172.743
X38.56Y-173.643
X38.56Y-174.544
X38.56Y-175.444
X38.56Y-176.345
X38.56Y-177.246
X38.56Y-178.146
X38.68Y-164.498
X38.68Y-165.399
X38.68Y-166.3
X38.68Y-167.2
X38.68Y-168.101
X38.82Y-172.292
X38.82Y-173.193
X38.82Y-174.094
X38.82Y-174.994
X38.82Y-175.895
X38.82Y-176.795
X38.82Y-177.696
X38.94Y-164.949
X38.94Y-165.849
X38.94Y-166.75
X38.94Y-167.651
X39.08Y-172.743
X39.08Y-173.643
X39.08Y-174.544
X39.08Y-175.444
X39.08Y-176.345
X39.08Y-177.246
X39.08Y-178.146
X39.2Y-164.498
X39.2Y-165.399
X39.2Y-166.3
X39.2Y-167.2
X39.2Y-168.101
X39.34Y-172.292
X39.34Y-173.193
X39.34Y-174.094
X39.34Y-174.994
X39.34Y-175.895
X39.34Y-176.795
X39.34Y-177.696
X39.46Y-164.949
X39.46Y-165.849
X39.46Y-166.75
X39.46Y-167.651
X39.6Y-172.743
X39.6Y-173.643
X39.6Y-174.544
X39.6Y-175.444
X39.6Y-176.345
X39.6Y-177.246
X39.6Y-178.146
X39.72Y-164.498
X39.72Y-165.399
X39.72Y-166.3
X39.72Y-167.2
X39.72Y-168.101
X39.86Y-172.292
X39.86Y-173.193
X39.86Y-174.094
X39.86Y-174.994
X39.86Y-175.895
X39.86Y-176.795
X39.86Y-177.696
X39.98Y-164.949
X39.98Y-165.849
X39.98Y-166.75
X39.98Y-167.651
X40.12Y-172.743
X40.12Y-173.643
X40.12Y-174.544
X40.12Y-175.444
X40.12Y-176.345
X40.12Y-177.246
X40.12Y-178.146
X40.24Y-164.498
X40.24Y-165.399
X40.24Y-166.3
X40.24Y-167.2
X40.24Y-168.101
X40.38Y-172.292
X40.38Y-173.193
X40.38Y-174.094
X40.38Y-174.994
X40.38Y-175.895
X40.38Y-176.795
X40.38Y-177.696
X40.5Y-164.949
X40.5Y-165.849
X40.5Y-166.75
X40.5Y-167.651
X40.64Y-172.743
X40.64Y-173.643
X40.64Y-174.544
X40.64Y-175.444
X40.64Y-176.345
X40.64Y-177.246
X40.64Y-178.146
X40.76Y-164.498
X40.76Y-165.399
X40.76Y-166.3
X40.76Y-167.2
X40.76Y-168.101
X40.9Y-172.292
X40.9Y-173.193
X40.9Y-174.094
X40.9Y-174.994
X40.9Y-175.895
X40.9Y-176.795
X40.9Y-177.696
X41.02Y-164.949
X41.02Y-165.849
X41.02Y-166.75
X41.02Y-167.651
X41.16Y-172.743
X41.16Y-173.643
X41.16Y-174.544
X41.16Y-175.444
X41.16Y-176.345
X41.16Y-177.246
X41.16Y-178.146
X41.28Y-164.498
X41.28Y-165.399
X41.28Y-166.3
X41.28Y-167.2
X41.28Y-168.101
X41.42Y-172.292
X41.42Y-173.193
X41.42Y-174.094
X41.42Y-174.994
X41.42Y-175.895
X41.42Y-176.795
X41.42Y-177.696
X41.54Y-164.949
X41.54Y-165.849
X41.54Y-166.75
X41.54Y-167.651
X41.68Y-172.743
X41.68Y-173.643
X41.68Y-174.544
X41.68Y-175.444
X41.68Y-176.345
X41.68Y-177.246
X41.68Y-178.146
X41.8Y-164.498
X41.8Y-165.399
X41.8Y-166.3
X41.8Y-167.2
X41.8Y-168.101
X41.94Y-172.292
X41.94Y-173.193
X41.94Y-174.094
X41.94Y-174.994
X41.94Y-175.895
X41.94Y-176.795
X41.94Y-177.696
X42.06Y-164.949
X42.06Y-165.849
X42.06Y-166.75
X42.06Y-167.651
X42.2Y-172.743
X42.2Y-173.643
X42.2Y-174.544
X42.2Y-175.444
X42.2Y-176.345
X42.2Y-177.246
X42.2Y-178.146
X42.32Y-164.498
X42.32Y-165.399
X42.32Y-166.3
X42.32Y-167.2
X42.32Y-168.101
X42.46Y-172.292
X42.46Y-173.193
X42.46Y-174.094
X42.46Y-174.994
X42.46Y-175.895
X42.46Y-176.795
X42.46Y-177.696
X42.58Y-164.949
X42.58Y-165.849
X42.58Y-166.75
X42.58Y-167.651
X42.72Y-172.743
X42.72Y-173.643
X42.72Y-174.544
X42.72Y-175.444
X42.72Y-176.345
X42.72Y-177.246
X42.72Y-178.146
X42.84Y-164.498
X42.84Y-165.399
X42.84Y-166.3
X42.84Y-167.2
X42.84Y-168.101
X42.98Y-172.292
X42.98Y-173.193
X42.98Y-174.094
X42.98Y-174.994
X42.98Y-175.895
X42.98Y-176.795
X42.98Y-177.696
X43.1Y-164.949
X43.1Y-165.849
X43.1Y-166.75
X43.1Y-167.651
X43.24Y-172.743
X43.24Y-173.643
X43.24Y-174.544
X43.24Y-175.444
X43.24Y-176.345
X43.24Y-177.246
X43.24Y-178.146
X43.36Y-164.498
X43.36Y-165.399
X43.36Y-166.3
X43.36Y-167.2
X43.36Y-168.101
X43.5Y-172.292
X43.5Y-173.193
X43.5Y-174.094
X43.5Y-174.994
X43.5Y-175.895
X43.5Y-176.795
X43.5Y-177.696
X43.62Y-164.949
X43.62Y-165.849
X43.62Y-166.75
X43.62Y-167.651
X43.74Y-140.242
X43.74Y-141.142
X43.74Y-142.043
X43.74Y-142.943
X43.74Y-143.844
X43.74Y-144.745
X43.74Y-145.645
X43.74Y-146.546
X43.74Y-147.446
X43.74Y-148.347
X43.74Y-149.248
X43.74Y-150.148
X43.74Y-151.049
X43.74Y-151.949
X43.74Y-152.85
X43.74Y-153.751
X43.74Y-154.651
X43.74Y-155.552
X43.76Y-172.743
X43.76Y-173.643
X43.76Y-174.544
X43.76Y-175.444
X43.76Y-176.345
X43.76Y-177.246
X43.76Y-178.146
X43.88Y-164.498
X43.88Y-165.399
X43.88Y-166.3
X43.88Y-167.2
X43.88Y-168.101
X44.0Y-139.791
X44.0Y-140.692
X44.0Y-141.593
X44.0Y-142.493
X44.0Y-143.394
X44.0Y-144.294
X44.0Y-145.195
X44.0Y-146.095
X44.0Y-146.996
X44.0Y-147.897
X44.0Y-148.797
X44.0Y-149.698
X44.0Y-150.599
X44.0Y-151.499
X44.0Y-152.4
X44.0Y-153.3
X44.0Y-154.201
X44.0Y-155.101
X44.02Y-172.292
X44.02Y-173.193
X44.02Y-174.094
X44.02Y-174.994
X44.02Y-175.895
X44.02Y-176.795
X44.02Y-177.696
X44.14Y-164.949
X44.14Y-165.849
X44.14Y-166.75
X44.14Y-167.651
X44.26Y-140.242
X44.26Y-141.142
X44.26Y-142.043
X44.26Y-142.943
X44.26Y-143.844
X44.26Y-144.745
X44.26Y-145.645
X44.26Y-146.546
X44.26Y-147.446
X44.26Y-148.347
X44.26Y-149.248
X44.26Y-150.148
X44.26Y-151.049
X44.26Y-151.949
X44.26Y-152.85
X44.26Y-153.751
X44.26Y-154.651
X44.26Y-155.552
X44.28Y-172.743
X44.28Y-173.643
X44.28Y-174.544
X44.28Y-175.444
X44.28Y-176.345
X44.28Y-177.246
X44.28Y-178.146
X44.4Y-164.498
X44.4Y-165.399
X44.4Y-166.3
X44.4Y-167.2
X44.4Y-168.101
X44.52Y-139.791
X44.52Y-140.692
X44.52Y-141.593
X44.52Y-142.493
X44.52Y-143.394
X44.52Y-144.294
X44.52Y-145.195
X44.52Y-146.095
X44.52Y-146.996
X44.52Y-147.897
X44.52Y-148.797
X44.52Y-149.698
X44.52Y-150.599
X44.52Y-151.499
X44.52Y-152.4
X44.52Y-153.3
X44.52Y-154.201
X44.52Y-155.101
X44.54Y-172.292
X44.54Y-173.193
X44.54Y-174.094
X44.54Y-174.994
X44.54Y-175.895
X44.54Y-176.795
X44.54Y-177.696
X44.66Y-164.949
X44.66Y-165.849
X44.66Y-166.75
X44.66Y-167.651
X44.78Y-140.242
X44.78Y-141.142
X44.78Y-142.043
X44.78Y-142.943
X44.78Y-143.844
X44.78Y-144.745
X44.78Y-145.645
X44.78Y-146.546
X44.78Y-147.446
X44.78Y-148.347
X44.78Y-149.248
X44.78Y-150.148
X44.78Y-151.049
X44.78Y-151.949
X44.78Y-152.85
X44.78Y-153.751
X44.78Y-154.651
X44.78Y-155.552
X44.8Y-172.743
X44.8Y-173.643
X44.8Y-174.544
X44.8Y-175.444
X44.8Y-176.345
X44.8Y-177.246
X44.8Y-178.146
X44.92Y-164.498
X44.92Y-165.399
X44.92Y-166.3
X44.92Y-167.2
X44.92Y-168.101
X45.04Y-139.791
X45.04Y-140.692
X45.04Y-141.593
X45.04Y-142.493
X45.04Y-143.394
X45.04Y-144.294
X45.04Y-145.195
X45.04Y-146.095
X45.04Y-146.996
X45.04Y-147.897
X45.04Y-148.797
X45.04Y-149.698
X45.04Y-150.599
X45.04Y-151.499
X45.04Y-152.4
X45.04Y-153.3
X45.04Y-154.201
X45.04Y-155.101
X45.06Y-172.292
X45.06Y-173.193
X45.06Y-174.094
X45.06Y-174.994
X45.06Y-175.895
X45.06Y-176.795
X45.06Y-177.696
X45.18Y-164.949
X45.18Y-165.849
X45.18Y-166.75
X45.18Y-167.651
X45.3Y-140.242
X45.3Y-141.142
X45.3Y-142.043
X45.3Y-142.943
X45.3Y-143.844
X45.3Y-144.745
X45.3Y-145.645
X45.3Y-146.546
X45.3Y-147.446
X45.3Y-148.347
X45.3Y-149.248
X45.3Y-150.148
X45.3Y-151.049
X45.3Y-151.949
X45.3Y-152.85
X45.3Y-153.751
X45.3Y-154.651
X45.3Y-155.552
X45.32Y-172.743
X45.32Y-173.643
X45.32Y-174.544
X45.32Y-175.444
X45.32Y-176.345
X45.32Y-177.246
X45.32Y-178.146
X45.44Y-164.498
X45.44Y-165.399
X45.44Y-166.3
X45.44Y-167.2
X45.44Y-168.101
X45.56Y-139.791
X45.56Y-140.692
X45.56Y-141.593
X45.56Y-142.493
X45.56Y-143.394
X45.56Y-144.294
X45.56Y-145.195
X45.56Y-146.095
X45.56Y-146.996
X45.56Y-147.897
X45.56Y-148.797
X45.56Y-149.698
X45.56Y-150.599
X45.56Y-151.499
X45.56Y-152.4
X45.56Y-153.3
X45.56Y-154.201
X45.56Y-155.101
X45.58Y-172.292
X45.58Y-173.193
X45.58Y-174.094
X45.58Y-174.994
X45.58Y-175.895
X45.58Y-176.795
X45.58Y-177.696
X45.7Y-164.949
X45.7Y-165.849
X45.7Y-166.75
X45.7Y-167.651
X45.82Y-140.242
X45.82Y-141.142
X45.82Y-142.043
X45.82Y-142.943
X45.82Y-143.844
X45.82Y-144.745
X45.82Y-145.645
X45.82Y-146.546
X45.82Y-147.446
X45.82Y-148.347
X45.82Y-149.248
X45.82Y-150.148
X45.82Y-151.049
X45.82Y-151.949
X45.82Y-152.85
X45.82Y-153.751
X45.82Y-154.651
X45.82Y-155.552
X45.84Y-172.743
X45.84Y-173.643
X45.84Y-174.544
X45.84Y-175.444
X45.84Y-176.345
X45.84Y-177.246
X45.84Y-178.146
X45.96Y-164.498
X45.96Y-165.399
X45.96Y-166.3
X45.96Y-167.2
X45.96Y-168.101
X46.08Y-139.791
X46.08Y-140.692
X46.08Y-141.593
X46.08Y-142.493
X46.08Y-143.394
X46.08Y-144.294
X46.08Y-145.195
X46.08Y-146.095
X46.08Y-146.996
X46.08Y-147.897
X46.08Y-148.797
X46.08Y-149.698
X46.08Y-150.599
X46.08Y-151.499
X46.08Y-152.4
X46.08Y-153.3
X46.08Y-154.201
X46.08Y-155.101
X46.1Y-172.292
X46.1Y-173.193
X46.1Y-174.094
X46.1Y-174.994
X46.1Y-175.895
X46.1Y-176.795
X46.1Y-177.696
X46.22Y-164.949
X46.22Y-165.849
X46.22Y-166.75
X46.22Y-167.651
X46.34Y-140.242
X46.34Y-141.142
X46.34Y-142.043
X46.34Y-142.943
X46.34Y-143.844
X46.34Y-144.745
X46.34Y-145.645
X46.34Y-146.546
X46.34Y-147.446
X46.34Y-148.347
X46.34Y-149.248
X46.34Y-150.148
X46.34Y-151.049
X46.34Y-151.949
X46.34Y-152.85
X46.34Y-153.751
X46.34Y-154.651
X46.34Y-155.552
X46.36Y-172.743
X46.36Y-173.643
X46.36Y-174.544
X46.36Y-175.444
X46.36Y-176.345
X46.36Y-177.246
X46.36Y-178.146
X46.48Y-164.498
X46.48Y-165.399
X46.48Y-166.3
X46.48Y-167.2
X46.48Y-168.101
X46.5Y-117.5
X46.6Y-139.791
X46.6Y-140.692
X46.6Y-141.593
X46.6Y-142.493
X46.6Y-143.394
X46.6Y-144.294
X46.6Y-145.195
X46.6Y-146.095
X46.6Y-146.996
X46.6Y-147.897
X46.6Y-148.797
X46.6Y-149.698
X46.6Y-150.599
X46.6Y-151.499
X46.6Y-152.4
X46.6Y-153.3
X46.6Y-154.201
X46.6Y-155.101
X46.62Y-172.292
X46.62Y-173.193
X46.62Y-174.094
X46.62Y-174.994
X46.62Y-175.895
X46.62Y-176.795
X46.62Y-177.696
X46.74Y-164.949
X46.74Y-165.849
X46.74Y-166.75
X46.74Y-167.651
X46.86Y-140.242
X46.86Y-141.142
X46.86Y-142.043
X46.86Y-142.943
X46.86Y-143.844
X46.86Y-144.745
X46.86Y-145.645
X46.86Y-146.546
X46.86Y-147.446
X46.86Y-148.347
X46.86Y-149.248
X46.86Y-150.148
X46.86Y-151.049
X46.86Y-151.949
X46.86Y-152.85
X46.86Y-153.751
X46.86Y-154.651
X46.86Y-155.552
X46.88Y-172.743
X46.88Y-173.643
X46.88Y-174.544
X46.88Y-175.444
X46.88Y-176.345
X46.88Y-177.246
X46.88Y-178.146
X47.0Y-164.498
X47.0Y-165.399
X47.0Y-166.3
X47.0Y-167.2
X47.0Y-168.101
X47.12Y-139.791
X47.12Y-140.692
X47.12Y-141.593
X47.12Y-142.493
X47.12Y-143.394
X47.12Y-144.294
X47.12Y-145.195
X47.12Y-146.095
X47.12Y-146.996
X47.12Y-147.897
X47.12Y-148.797
X47.12Y-149.698
X47.12Y-150.599
X47.12Y-151.499
X47.12Y-152.4
X47.12Y-153.3
X47.12Y-154.201
X47.12Y-155.101
X47.14Y-172.292
X47.14Y-173.193
X47.14Y-174.094
X47.14Y-174.994
X47.14Y-175.895
X47.14Y-176.795
X47.14Y-177.696
X47.26Y-164.949
X47.26Y-165.849
X47.26Y-166.75
X47.26Y-167.651
X47.38Y-140.242
X47.38Y-141.142
X47.38Y-142.043
X47.38Y-142.943
X47.38Y-143.844
X47.38Y-144.745
X47.38Y-145.645
X47.38Y-146.546
X47.38Y-147.446
X47.38Y-148.347
X47.38Y-149.248
X47.38Y-150.148
X47.38Y-151.049
X47.38Y-151.949
X47.38Y-152.85
X47.38Y-153.751
X47.38Y-154.651
X47.38Y-155.552
X47.4Y-172.743
X47.4Y-173.643
X47.4Y-174.544
X47.4Y-175.444
X47.4Y-176.345
X47.4Y-177.246
X47.4Y-178.146
X47.52Y-164.498
X47.52Y-165.399
X47.52Y-166.3
X47.52Y-167.2
X47.52Y-168.101
X47.64Y-139.791
X47.64Y-140.692
X47.64Y-141.593
X47.64Y-142.493
X47.64Y-143.394
X47.64Y-144.294
X47.64Y-145.195
X47.64Y-146.095
X47.64Y-146.996
X47.64Y-147.897
X47.64Y-148.797
X47.64Y-149.698
X47.64Y-150.599
X47.64Y-151.499
X47.64Y-152.4
X47.64Y-153.3
X47.64Y-154.201
X47.64Y-155.101
X47.66Y-172.292
X47.66Y-173.193
X47.66Y-174.094
X47.66Y-174.994
X47.66Y-175.895
X47.66Y-176.795
X47.66Y-177.696
X47.78Y-164.949
X47.78Y-165.849
X47.78Y-166.75
X47.78Y-167.651
X47.9Y-140.242
X47.9Y-141.142
X47.9Y-142.043
X47.9Y-142.943
X47.9Y-143.844
X47.9Y-144.745
X47.9Y-145.645
X47.9Y-146.546
X47.9Y-147.446
X47.9Y-148.347
X47.9Y-149.248
X47.9Y-150.148
X47.9Y-151.049
X47.9Y-151.949
X47.9Y-152.85
X47.9Y-153.751
X47.9Y-154.651
X47.9Y-155.552
X47.92Y-172.743
X47.92Y-173.643
X47.92Y-174.544
X47.92Y-175.444
X47.92Y-176.345
X47.92Y-177.246
X47.92Y-178.146
X47.92Y-179.047
X47.92Y-179.947
X47.92Y-180.848
X47.92Y-181.749
X47.92Y-182.649
X47.92Y-183.55
X47.92Y-184.45
X47.92Y-185.351
X47.92Y-186.252
X47.92Y-187.152
X47.92Y-188.053
X47.92Y-188.953
X47.92Y-189.854
X47.92Y-190.755
X48.04Y-164.498
X48.04Y-165.399
X48.04Y-166.3
X48.04Y-167.2
X48.04Y-168.101
X48.16Y-139.791
X48.16Y-140.692
X48.16Y-141.593
X48.16Y-142.493
X48.16Y-143.394
X48.16Y-144.294
X48.16Y-145.195
X48.16Y-146.095
X48.16Y-146.996
X48.16Y-147.897
X48.16Y-148.797
X48.16Y-149.698
X48.16Y-150.599
X48.16Y-151.499
X48.16Y-152.4
X48.16Y-153.3
X48.16Y-154.201
X48.16Y-155.101
X48.3Y-164.949
X48.3Y-165.849
X48.3Y-166.75
X48.3Y-167.651
X48.42Y-140.242
X48.42Y-141.142
X48.42Y-142.043
X48.42Y-142.943
X48.42Y-143.844
X48.42Y-144.745
X48.42Y-145.645
X48.42Y-146.546
X48.42Y-147.446
X48.42Y-148.347
X48.42Y-149.248
X48.42Y-150.148
X48.42Y-151.049
X48.42Y-151.949
X48.42Y-152.85
X48.42Y-153.751
X48.42Y-154.651
X48.42Y-155.552
X48.56Y-164.498
X48.56Y-165.399
X48.56Y-166.3
X48.56Y-167.2
X48.56Y-168.101
X48.68Y-139.791
X48.68Y-140.692
X48.68Y-141.593
X48.68Y-142.493
X48.68Y-143.394
X48.68Y-144.294
X48.68Y-145.195
X48.68Y-146.095
X48.68Y-146.996
X48.68Y-147.897
X48.68Y-148.797
X48.68Y-149.698
X48.68Y-150.599
X48.68Y-151.499
X48.68Y-152.4
X48.68Y-153.3
X48.68Y-154.201
X48.68Y-155.101
X48.82Y-164.949
X48.82Y-165.849
X48.82Y-166.75
X48.82Y-167.651
X48.94Y-140.242
X48.94Y-141.142
X48.94Y-142.043
X48.94Y-142.943
X48.94Y-143.844
X48.94Y-144.745
X48.94Y-145.645
X48.94Y-146.546
X48.94Y-147.446
X48.94Y-148.347
X48.94Y-149.248
X48.94Y-150.148
X48.94Y-151.049
X48.94Y-151.949
X48.94Y-152.85
X48.94Y-153.751
X48.94Y-154.651
X48.94Y-155.552
X49.08Y-164.498
X49.08Y-165.399
X49.08Y-166.3
X49.08Y-167.2
X49.08Y-168.101
X49.2Y-139.791
X49.2Y-140.692
X49.2Y-141.593
X49.2Y-142.493
X49.2Y-143.394
X49.2Y-144.294
X49.2Y-145.195
X49.2Y-146.095
X49.2Y-146.996
X49.2Y-147.897
X49.2Y-148.797
X49.2Y-149.698
X49.2Y-150.599
X49.2Y-151.499
X49.2Y-152.4
X49.2Y-153.3
X49.2Y-154.201
X49.2Y-155.101
X49.224Y-177.049
X49.224Y-177.949
X49.224Y-178.85
X49.224Y-179.75
X49.224Y-180.651
X49.224Y-181.552
X49.224Y-182.452
X49.224Y-183.353
X49.224Y-184.254
X49.224Y-185.154
X49.224Y-186.055
X49.224Y-186.955
X49.224Y-187.856
X49.224Y-188.756
X49.224Y-189.657
X49.224Y-190.558
X49.34Y-164.949
X49.34Y-165.849
X49.34Y-166.75
X49.34Y-167.651
X49.46Y-140.242
X49.46Y-141.142
X49.46Y-142.043
X49.46Y-142.943
X49.46Y-143.844
X49.46Y-144.745
X49.46Y-145.645
X49.46Y-146.546
X49.46Y-147.446
X49.46Y-148.347
X49.46Y-149.248
X49.46Y-150.148
X49.46Y-151.049
X49.46Y-151.949
X49.46Y-152.85
X49.46Y-153.751
X49.46Y-154.651
X49.46Y-155.552
X49.484Y-176.598
X49.484Y-177.499
X49.6Y-164.498
X49.6Y-165.399
X49.6Y-166.3
X49.6Y-167.2
X49.6Y-168.101
X49.72Y-139.791
X49.72Y-140.692
X49.72Y-141.593
X49.72Y-142.493
X49.72Y-143.394
X49.72Y-144.294
X49.72Y-145.195
X49.72Y-146.095
X49.72Y-146.996
X49.72Y-147.897
X49.72Y-148.797
X49.72Y-149.698
X49.72Y-150.599
X49.72Y-151.499
X49.72Y-152.4
X49.72Y-153.3
X49.72Y-154.201
X49.72Y-155.101
X49.744Y-177.049
X49.744Y-177.949
X49.86Y-164.949
X49.86Y-165.849
X49.86Y-166.75
X49.86Y-167.651
X49.98Y-140.242
X49.98Y-141.142
X49.98Y-142.043
X49.98Y-142.943
X49.98Y-143.844
X49.98Y-144.745
X49.98Y-145.645
X49.98Y-146.546
X49.98Y-147.446
X49.98Y-148.347
X49.98Y-149.248
X49.98Y-150.148
X49.98Y-151.049
X49.98Y-151.949
X49.98Y-152.85
X49.98Y-153.751
X49.98Y-154.651
X49.98Y-155.552
X50.004Y-176.598
X50.004Y-177.499
X50.12Y-164.498
X50.12Y-165.399
X50.12Y-166.3
X50.12Y-167.2
X50.12Y-168.101
X50.24Y-139.791
X50.24Y-140.692
X50.24Y-141.593
X50.24Y-142.493
X50.24Y-143.394
X50.24Y-144.294
X50.24Y-145.195
X50.24Y-146.095
X50.24Y-146.996
X50.24Y-147.897
X50.24Y-148.797
X50.24Y-149.698
X50.24Y-150.599
X50.24Y-151.499
X50.24Y-152.4
X50.24Y-153.3
X50.24Y-154.201
X50.24Y-155.101
X50.264Y-177.049
X50.264Y-177.949
X50.38Y-164.949
X50.38Y-165.849
X50.38Y-166.75
X50.38Y-167.651
X50.5Y-140.242
X50.5Y-141.142
X50.5Y-142.043
X50.5Y-142.943
X50.5Y-143.844
X50.5Y-144.745
X50.5Y-145.645
X50.5Y-146.546
X50.5Y-147.446
X50.5Y-148.347
X50.5Y-149.248
X50.5Y-150.148
X50.5Y-151.049
X50.5Y-151.949
X50.5Y-152.85
X50.5Y-153.751
X50.5Y-154.651
X50.5Y-155.552
X50.524Y-176.598
X50.524Y-177.499
X50.64Y-164.498
X50.64Y-165.399
X50.64Y-166.3
X50.64Y-167.2
X50.64Y-168.101
X50.784Y-177.049
X50.784Y-177.949
X50.9Y-164.949
X50.9Y-165.849
X50.9Y-166.75
X50.9Y-167.651
X51.044Y-176.598
X51.044Y-177.499
X51.16Y-164.498
X51.16Y-165.399
X51.16Y-166.3
X51.16Y-167.2
X51.16Y-168.101
X51.304Y-177.049
X51.304Y-177.949
X51.42Y-164.949
X51.42Y-165.849
X51.42Y-166.75
X51.42Y-167.651
X51.564Y-176.598
X51.564Y-177.499
X51.68Y-164.498
X51.68Y-165.399
X51.68Y-166.3
X51.68Y-167.2
X51.68Y-168.101
X51.824Y-177.049
X51.824Y-177.949
X51.94Y-164.949
X51.94Y-165.849
X51.94Y-166.75
X51.94Y-167.651
X51.99Y-139.8
X51.99Y-140.701
X51.99Y-141.601
X51.99Y-142.502
X51.99Y-143.403
X51.99Y-144.303
X51.99Y-145.204
X51.99Y-146.105
X51.99Y-147.005
X51.99Y-147.906
X51.99Y-148.806
X51.99Y-149.707
X51.99Y-150.607
X51.99Y-151.508
X51.99Y-152.409
X51.99Y-153.309
X51.99Y-154.21
X51.99Y-155.111
X52.084Y-176.598
X52.084Y-177.499
X52.2Y-164.498
X52.2Y-165.399
X52.2Y-166.3
X52.2Y-167.2
X52.2Y-168.101
X52.25Y-140.251
X52.25Y-141.151
X52.25Y-142.052
X52.25Y-142.952
X52.25Y-143.853
X52.25Y-144.754
X52.25Y-145.654
X52.25Y-146.555
X52.25Y-147.455
X52.25Y-148.356
X52.25Y-149.257
X52.25Y-150.157
X52.25Y-151.058
X52.25Y-151.958
X52.25Y-152.859
X52.25Y-153.76
X52.25Y-154.66
X52.25Y-155.561
X52.344Y-177.049
X52.344Y-177.949
X52.46Y-164.949
X52.46Y-165.849
X52.46Y-166.75
X52.46Y-167.651
X52.51Y-139.8
X52.51Y-140.701
X52.51Y-141.601
X52.51Y-142.502
X52.51Y-143.403
X52.51Y-144.303
X52.51Y-145.204
X52.51Y-146.105
X52.51Y-147.005
X52.51Y-147.906
X52.51Y-148.806
X52.51Y-149.707
X52.51Y-150.607
X52.51Y-151.508
X52.51Y-152.409
X52.51Y-153.309
X52.51Y-154.21
X52.51Y-155.111
X52.604Y-176.598
X52.604Y-177.499
X52.72Y-164.498
X52.72Y-165.399
X52.72Y-166.3
X52.72Y-167.2
X52.72Y-168.101
X52.77Y-140.251
X52.77Y-141.151
X52.77Y-142.052
X52.77Y-142.952
X52.77Y-143.853
X52.77Y-144.754
X52.77Y-145.654
X52.77Y-146.555
X52.77Y-147.455
X52.77Y-148.356
X52.77Y-149.257
X52.77Y-150.157
X52.77Y-151.058
X52.77Y-151.958
X52.77Y-152.859
X52.77Y-153.76
X52.77Y-154.66
X52.77Y-155.561
X52.864Y-177.049
X52.864Y-177.949
X52.98Y-164.949
X52.98Y-165.849
X52.98Y-166.75
X52.98Y-167.651
X53.0Y-115.75
X53.03Y-139.8
X53.03Y-140.701
X53.03Y-141.601
X53.03Y-142.502
X53.03Y-143.403
X53.03Y-144.303
X53.03Y-145.204
X53.03Y-146.105
X53.03Y-147.005
X53.03Y-147.906
X53.03Y-148.806
X53.03Y-149.707
X53.03Y-150.607
X53.03Y-151.508
X53.03Y-152.409
X53.03Y-153.309
X53.03Y-154.21
X53.03Y-155.111
X53.124Y-176.598
X53.124Y-177.499
X53.24Y-164.498
X53.24Y-165.399
X53.24Y-166.3
X53.24Y-167.2
X53.24Y-168.101
X53.29Y-140.251
X53.29Y-141.151
X53.29Y-142.052
X53.29Y-142.952
X53.29Y-143.853
X53.29Y-144.754
X53.29Y-145.654
X53.29Y-146.555
X53.29Y-147.455
X53.29Y-148.356
X53.29Y-149.257
X53.29Y-150.157
X53.29Y-151.058
X53.29Y-151.958
X53.29Y-152.859
X53.29Y-153.76
X53.29Y-154.66
X53.29Y-155.561
X53.384Y-177.049
X53.384Y-177.949
X53.5Y-164.949
X53.5Y-165.849
X53.5Y-166.75
X53.5Y-167.651
X53.55Y-139.8
X53.55Y-140.701
X53.55Y-141.601
X53.55Y-142.502
X53.55Y-143.403
X53.55Y-144.303
X53.55Y-145.204
X53.55Y-146.105
X53.55Y-147.005
X53.55Y-147.906
X53.55Y-148.806
X53.55Y-149.707
X53.55Y-150.607
X53.55Y-151.508
X53.55Y-152.409
X53.55Y-153.309
X53.55Y-154.21
X53.55Y-155.111
X53.644Y-176.598
X53.644Y-177.499
X53.76Y-164.498
X53.76Y-165.399
X53.76Y-166.3
X53.76Y-167.2
X53.76Y-168.101
X53.81Y-140.251
X53.81Y-141.151
X53.81Y-142.052
X53.81Y-142.952
X53.81Y-143.853
X53.81Y-144.754
X53.81Y-145.654
X53.81Y-146.555
X53.81Y-147.455
X53.81Y-148.356
X53.81Y-149.257
X53.81Y-150.157
X53.81Y-151.058
X53.81Y-151.958
X53.81Y-152.859
X53.81Y-153.76
X53.81Y-154.66
X53.81Y-155.561
X53.904Y-177.049
X53.904Y-177.949
X54.02Y-164.949
X54.02Y-165.849
X54.02Y-166.75
X54.02Y-167.651
X54.07Y-139.8
X54.07Y-140.701
X54.07Y-141.601
X54.07Y-142.502
X54.07Y-143.403
X54.07Y-144.303
X54.07Y-145.204
X54.07Y-146.105
X54.07Y-147.005
X54.07Y-147.906
X54.07Y-148.806
X54.07Y-149.707
X54.07Y-150.607
X54.07Y-151.508
X54.07Y-152.409
X54.07Y-153.309
X54.07Y-154.21
X54.07Y-155.111
X54.164Y-176.598
X54.164Y-177.499
X54.28Y-164.498
X54.28Y-165.399
X54.28Y-166.3
X54.28Y-167.2
X54.28Y-168.101
X54.33Y-140.251
X54.33Y-141.151
X54.33Y-142.052
X54.33Y-142.952
X54.33Y-143.853
X54.33Y-144.754
X54.33Y-145.654
X54.33Y-146.555
X54.33Y-147.455
X54.33Y-148.356
X54.33Y-149.257
X54.33Y-150.157
X54.33Y-151.058
X54.33Y-151.958
X54.33Y-152.859
X54.33Y-153.76
X54.33Y-154.66
X54.33Y-155.561
X54.424Y-177.049
X54.424Y-177.949
X54.54Y-164.949
X54.54Y-165.849
X54.54Y-166.75
X54.54Y-167.651
X54.59Y-139.8
X54.59Y-140.701
X54.59Y-141.601
X54.59Y-142.502
X54.59Y-143.403
X54.59Y-144.303
X54.59Y-145.204
X54.59Y-146.105
X54.59Y-147.005
X54.59Y-147.906
X54.59Y-148.806
X54.59Y-149.707
X54.59Y-150.607
X54.59Y-151.508
X54.59Y-152.409
X54.59Y-153.309
X54.59Y-154.21
X54.59Y-155.111
X54.684Y-176.598
X54.684Y-177.499
X54.8Y-164.498
X54.8Y-165.399
X54.8Y-166.3
X54.8Y-167.2
X54.8Y-168.101
X54.85Y-140.251
X54.85Y-141.151
X54.85Y-142.052
X54.85Y-142.952
X54.85Y-143.853
X54.85Y-144.754
X54.85Y-145.654
X54.85Y-146.555
X54.85Y-147.455
X54.85Y-148.356
X54.85Y-149.257
X54.85Y-150.157
X54.85Y-151.058
X54.85Y-151.958
X54.85Y-152.859
X54.85Y-153.76
X54.85Y-154.66
X54.85Y-155.561
X54.944Y-177.049
X54.944Y-177.949
X55.06Y-164.949
X55.06Y-165.849
X55.06Y-166.75
X55.06Y-167.651
X55.11Y-139.8
X55.11Y-140.701
X55.11Y-141.601
X55.11Y-142.502
X55.11Y-143.403
X55.11Y-144.303
X55.11Y-145.204
X55.11Y-146.105
X55.11Y-147.005
X55.11Y-147.906
X55.11Y-148.806
X55.11Y-149.707
X55.11Y-150.607
X55.11Y-151.508
X55.11Y-152.409
X55.11Y-153.309
X55.11Y-154.21
X55.11Y-155.111
X55.204Y-176.598
X55.204Y-177.499
X55.32Y-164.498
X55.32Y-165.399
X55.32Y-166.3
X55.32Y-167.2
X55.32Y-168.101
X55.37Y-140.251
X55.37Y-141.151
X55.37Y-142.052
X55.37Y-142.952
X55.37Y-143.853
X55.37Y-144.754
X55.37Y-145.654
X55.37Y-146.555
X55.37Y-147.455
X55.37Y-148.356
X55.37Y-149.257
X55.37Y-150.157
X55.37Y-151.058
X55.37Y-151.958
X55.37Y-152.859
X55.37Y-153.76
X55.37Y-154.66
X55.37Y-155.561
X55.464Y-177.049
X55.464Y-177.949
X55.58Y-164.949
X55.58Y-165.849
X55.58Y-166.75
X55.58Y-167.651
X55.63Y-139.8
X55.63Y-140.701
X55.63Y-141.601
X55.63Y-142.502
X55.63Y-143.403
X55.63Y-144.303
X55.63Y-145.204
X55.63Y-146.105
X55.63Y-147.005
X55.63Y-147.906
X55.63Y-148.806
X55.63Y-149.707
X55.63Y-150.607
X55.63Y-151.508
X55.63Y-152.409
X55.63Y-153.309
X55.63Y-154.21
X55.63Y-155.111
X55.724Y-176.598
X55.724Y-177.499
X55.84Y-164.498
X55.84Y-165.399
X55.84Y-166.3
X55.84Y-167.2
X55.84Y-168.101
X55.89Y-140.251
X55.89Y-141.151
X55.89Y-142.052
X55.89Y-142.952
X55.89Y-143.853
X55.89Y-144.754
X55.89Y-145.654
X55.89Y-146.555
X55.89Y-147.455
X55.89Y-148.356
X55.89Y-149.257
X55.89Y-150.157
X55.89Y-151.058
X55.89Y-151.958
X55.89Y-152.859
X55.89Y-153.76
X55.89Y-154.66
X55.89Y-155.561
X55.984Y-177.049
X55.984Y-177.949
X56.1Y-164.949
X56.1Y-165.849
X56.1Y-166.75
X56.1Y-167.651
X56.15Y-139.8
X56.15Y-140.701
X56.15Y-141.601
X56.15Y-142.502
X56.15Y-143.403
X56.15Y-144.303
X56.15Y-145.204
X56.15Y-146.105
X56.15Y-147.005
X56.15Y-147.906
X56.15Y-148.806
X56.15Y-149.707
X56.15Y-150.607
X56.15Y-151.508
X56.15Y-152.409
X56.15Y-153.309
X56.15Y-154.21
X56.15Y-155.111
X56.244Y-176.598
X56.244Y-177.499
X56.36Y-164.498
X56.36Y-165.399
X56.36Y-166.3
X56.36Y-167.2
X56.36Y-168.101
X56.41Y-140.251
X56.41Y-141.151
X56.41Y-142.052
X56.41Y-142.952
X56.41Y-143.853
X56.41Y-144.754
X56.41Y-145.654
X56.41Y-146.555
X56.41Y-147.455
X56.41Y-148.356
X56.41Y-149.257
X56.41Y-150.157
X56.41Y-151.058
X56.41Y-151.958
X56.41Y-152.859
X56.41Y-153.76
X56.41Y-154.66
X56.41Y-155.561
X56.504Y-177.049
X56.504Y-177.949
X56.62Y-164.949
X56.62Y-165.849
X56.62Y-166.75
X56.62Y-167.651
X56.67Y-139.8
X56.67Y-140.701
X56.67Y-141.601
X56.67Y-142.502
X56.67Y-143.403
X56.67Y-144.303
X56.67Y-145.204
X56.67Y-146.105
X56.67Y-147.005
X56.67Y-147.906
X56.67Y-148.806
X56.67Y-149.707
X56.67Y-150.607
X56.67Y-151.508
X56.67Y-152.409
X56.67Y-153.309
X56.67Y-154.21
X56.67Y-155.111
X56.764Y-176.598
X56.764Y-177.499
X56.88Y-164.498
X56.88Y-165.399
X56.88Y-166.3
X56.88Y-167.2
X56.88Y-168.101
X56.93Y-140.251
X56.93Y-141.151
X56.93Y-142.052
X56.93Y-142.952
X56.93Y-143.853
X56.93Y-144.754
X56.93Y-145.654
X56.93Y-146.555
X56.93Y-147.455
X56.93Y-148.356
X56.93Y-149.257
X56.93Y-150.157
X56.93Y-151.058
X56.93Y-151.958
X56.93Y-152.859
X56.93Y-153.76
X56.93Y-154.66
X56.93Y-155.561
X57.024Y-177.049
X57.024Y-177.949
X57.14Y-164.949
X57.14Y-165.849
X57.14Y-166.75
X57.14Y-167.651
X57.19Y-139.8
X57.19Y-140.701
X57.19Y-141.601
X57.19Y-142.502
X57.19Y-143.403
X57.19Y-144.303
X57.19Y-145.204
X57.19Y-146.105
X57.19Y-147.005
X57.19Y-147.906
X57.19Y-148.806
X57.19Y-149.707
X57.19Y-150.607
X57.19Y-151.508
X57.19Y-152.409
X57.19Y-153.309
X57.19Y-154.21
X57.19Y-155.111
X57.284Y-176.598
X57.284Y-177.499
X57.4Y-164.498
X57.4Y-165.399
X57.4Y-166.3
X57.4Y-167.2
X57.4Y-168.101
X57.45Y-140.251
X57.45Y-141.151
X57.45Y-142.052
X57.45Y-142.952
X57.45Y-143.853
X57.45Y-144.754
X57.45Y-145.654
X57.45Y-146.555
X57.45Y-147.455
X57.45Y-148.356
X57.45Y-149.257
X57.45Y-150.157
X57.45Y-151.058
X57.45Y-151.958
X57.45Y-152.859
X57.45Y-153.76
X57.45Y-154.66
X57.45Y-155.561
X57.544Y-177.049
X57.544Y-177.949
X57.66Y-164.949
X57.66Y-165.849
X57.66Y-166.75
X57.66Y-167.651
X57.71Y-139.8
X57.71Y-140.701
X57.71Y-141.601
X57.71Y-142.502
X57.71Y-143.403
X57.71Y-144.303
X57.71Y-145.204
X57.71Y-146.105
X57.71Y-147.005
X57.71Y-147.906
X57.71Y-148.806
X57.71Y-149.707
X57.71Y-150.607
X57.71Y-151.508
X57.71Y-152.409
X57.71Y-153.309
X57.71Y-154.21
X57.71Y-155.111
X57.804Y-176.598
X57.804Y-177.499
X57.92Y-164.498
X57.92Y-165.399
X57.92Y-166.3
X57.92Y-167.2
X57.92Y-168.101
X57.97Y-140.251
X57.97Y-141.151
X57.97Y-142.052
X57.97Y-142.952
X57.97Y-143.853
X57.97Y-144.754
X57.97Y-145.654
X57.97Y-146.555
X57.97Y-147.455
X57.97Y-148.356
X57.97Y-149.257
X57.97Y-150.157
X57.97Y-151.058
X57.97Y-151.958
X57.97Y-152.859
X57.97Y-153.76
X57.97Y-154.66
X57.97Y-155.561
X58.064Y-177.049
X58.064Y-177.949
X58.18Y-164.949
X58.18Y-165.849
X58.18Y-166.75
X58.18Y-167.651
X58.23Y-139.8
X58.23Y-140.701
X58.23Y-141.601
X58.23Y-142.502
X58.23Y-143.403
X58.23Y-144.303
X58.23Y-145.204
X58.23Y-146.105
X58.23Y-147.005
X58.23Y-147.906
X58.23Y-148.806
X58.23Y-149.707
X58.23Y-150.607
X58.23Y-151.508
X58.23Y-152.409
X58.23Y-153.309
X58.23Y-154.21
X58.23Y-155.111
X58.324Y-176.598
X58.324Y-177.499
X58.44Y-164.498
X58.44Y-165.399
X58.44Y-166.3
X58.44Y-167.2
X58.44Y-168.101
X58.49Y-140.251
X58.49Y-141.151
X58.49Y-142.052
X58.49Y-142.952
X58.49Y-143.853
X58.49Y-144.754
X58.49Y-145.654
X58.49Y-146.555
X58.49Y-147.455
X58.49Y-148.356
X58.49Y-149.257
X58.49Y-150.157
X58.49Y-151.058
X58.49Y-151.958
X58.49Y-152.859
X58.49Y-153.76
X58.49Y-154.66
X58.49Y-155.561
X58.584Y-177.049
X58.584Y-177.949
X58.7Y-164.949
X58.7Y-165.849
X58.7Y-166.75
X58.7Y-167.651
X58.75Y-139.8
X58.75Y-140.701
X58.75Y-141.601
X58.75Y-142.502
X58.75Y-143.403
X58.75Y-144.303
X58.75Y-145.204
X58.75Y-146.105
X58.75Y-147.005
X58.75Y-147.906
X58.75Y-148.806
X58.75Y-149.707
X58.75Y-150.607
X58.75Y-151.508
X58.75Y-152.409
X58.75Y-153.309
X58.75Y-154.21
X58.75Y-155.111
X58.844Y-176.598
X58.844Y-177.499
X58.96Y-164.498
X58.96Y-165.399
X58.96Y-166.3
X58.96Y-167.2
X58.96Y-168.101
X59.01Y-140.251
X59.01Y-141.151
X59.01Y-142.052
X59.01Y-142.952
X59.01Y-143.853
X59.01Y-144.754
X59.01Y-145.654
X59.01Y-146.555
X59.01Y-147.455
X59.01Y-148.356
X59.01Y-149.257
X59.01Y-150.157
X59.01Y-151.058
X59.01Y-151.958
X59.01Y-152.859
X59.01Y-153.76
X59.01Y-154.66
X59.01Y-155.561
X59.104Y-177.049
X59.104Y-177.949
X59.22Y-164.949
X59.22Y-165.849
X59.22Y-166.75
X59.22Y-167.651
X59.27Y-139.8
X59.27Y-140.701
X59.27Y-141.601
X59.27Y-142.502
X59.27Y-143.403
X59.27Y-144.303
X59.27Y-145.204
X59.27Y-146.105
X59.27Y-147.005
X59.27Y-147.906
X59.27Y-148.806
X59.27Y-149.707
X59.27Y-150.607
X59.27Y-151.508
X59.27Y-152.409
X59.27Y-153.309
X59.27Y-154.21
X59.27Y-155.111
X59.364Y-176.598
X59.364Y-177.499
X59.48Y-164.498
X59.48Y-165.399
X59.48Y-166.3
X59.48Y-167.2
X59.48Y-168.101
X59.53Y-140.251
X59.53Y-141.151
X59.53Y-142.052
X59.53Y-142.952
X59.53Y-143.853
X59.53Y-144.754
X59.53Y-145.654
X59.53Y-146.555
X59.53Y-147.455
X59.53Y-148.356
X59.53Y-149.257
X59.53Y-150.157
X59.53Y-151.058
X59.53Y-151.958
X59.53Y-152.859
X59.53Y-153.76
X59.53Y-154.66
X59.53Y-155.561
X59.624Y-177.049
X59.624Y-177.949
X59.74Y-164.949
X59.74Y-165.849
X59.74Y-166.75
X59.74Y-167.651
X59.79Y-139.8
X59.79Y-140.701
X59.79Y-141.601
X59.79Y-142.502
X59.79Y-143.403
X59.79Y-144.303
X59.79Y-145.204
X59.79Y-146.105
X59.79Y-147.005
X59.79Y-147.906
X59.79Y-148.806
X59.79Y-149.707
X59.79Y-150.607
X59.79Y-151.508
X59.79Y-152.409
X59.79Y-153.309
X59.79Y-154.21
X59.79Y-155.111
X59.884Y-176.598
X59.884Y-177.499
X60.0Y-164.498
X60.0Y-165.399
X60.0Y-166.3
X60.0Y-167.2
X60.0Y-168.101
X60.05Y-140.251
X60.05Y-141.151
X60.05Y-142.052
X60.05Y-142.952
X60.05Y-143.853
X60.05Y-144.754
X60.05Y-145.654
X60.05Y-146.555
X60.05Y-147.455
X60.05Y-148.356
X60.05Y-149.257
X60.05Y-150.157
X60.05Y-151.058
X60.05Y-151.958
X60.05Y-152.859
X60.05Y-153.76
X60.05Y-154.66
X60.05Y-155.561
X60.144Y-177.049
X60.144Y-177.949
X60.26Y-164.949
X60.26Y-165.849
X60.26Y-166.75
X60.26Y-167.651
X60.31Y-139.8
X60.31Y-140.701
X60.31Y-141.601
X60.31Y-142.502
X60.31Y-143.403
X60.31Y-144.303
X60.31Y-145.204
X60.31Y-146.105
X60.31Y-147.005
X60.31Y-147.906
X60.31Y-148.806
X60.31Y-149.707
X60.31Y-150.607
X60.31Y-151.508
X60.31Y-152.409
X60.31Y-153.309
X60.31Y-154.21
X60.31Y-155.111
X60.404Y-176.598
X60.404Y-177.499
X60.52Y-164.498
X60.52Y-165.399
X60.52Y-166.3
X60.52Y-167.2
X60.52Y-168.101
X60.57Y-140.251
X60.57Y-141.151
X60.57Y-142.052
X60.57Y-142.952
X60.57Y-143.853
X60.57Y-144.754
X60.57Y-145.654
X60.57Y-146.555
X60.57Y-147.455
X60.57Y-148.356
X60.57Y-149.257
X60.57Y-150.157
X60.57Y-151.058
X60.57Y-151.958
X60.57Y-152.859
X60.57Y-153.76
X60.57Y-154.66
X60.57Y-155.561
X60.664Y-177.049
X60.664Y-177.949
X60.78Y-164.949
X60.78Y-165.849
X60.78Y-166.75
X60.78Y-167.651
X60.83Y-139.8
X60.83Y-140.701
X60.83Y-141.601
X60.83Y-142.502
X60.83Y-143.403
X60.83Y-144.303
X60.83Y-145.204
X60.83Y-146.105
X60.83Y-147.005
X60.83Y-147.906
X60.83Y-148.806
X60.83Y-149.707
X60.83Y-150.607
X60.83Y-151.508
X60.83Y-152.409
X60.83Y-153.309
X60.83Y-154.21
X60.83Y-155.111
X60.924Y-176.598
X60.924Y-177.499
X61.04Y-164.498
X61.04Y-165.399
X61.04Y-166.3
X61.04Y-167.2
X61.04Y-168.101
X61.09Y-140.251
X61.09Y-141.151
X61.09Y-142.052
X61.09Y-142.952
X61.09Y-143.853
X61.09Y-144.754
X61.09Y-145.654
X61.09Y-146.555
X61.09Y-147.455
X61.09Y-148.356
X61.09Y-149.257
X61.09Y-150.157
X61.09Y-151.058
X61.09Y-151.958
X61.09Y-152.859
X61.09Y-153.76
X61.09Y-154.66
X61.09Y-155.561
X61.184Y-177.049
X61.184Y-177.949
X61.3Y-164.949
X61.3Y-165.849
X61.3Y-166.75
X61.3Y-167.651
X61.35Y-139.8
X61.35Y-140.701
X61.35Y-141.601
X61.35Y-142.502
X61.35Y-143.403
X61.35Y-144.303
X61.35Y-145.204
X61.35Y-146.105
X61.35Y-147.005
X61.35Y-147.906
X61.35Y-148.806
X61.35Y-149.707
X61.35Y-150.607
X61.35Y-151.508
X61.35Y-152.409
X61.35Y-153.309
X61.35Y-154.21
X61.35Y-155.111
X61.444Y-176.598
X61.444Y-177.499
X61.56Y-164.498
X61.56Y-165.399
X61.56Y-166.3
X61.56Y-167.2
X61.56Y-168.101
X61.61Y-140.251
X61.61Y-141.151
X61.61Y-142.052
X61.61Y-142.952
X61.61Y-143.853
X61.61Y-144.754
X61.61Y-145.654
X61.61Y-146.555
X61.61Y-147.455
X61.61Y-148.356
X61.61Y-149.257
X61.61Y-150.157
X61.61Y-151.058
X61.61Y-151.958
X61.61Y-152.859
X61.61Y-153.76
X61.61Y-154.66
X61.61Y-155.561
X61.704Y-177.049
X61.704Y-177.949
X61.82Y-164.949
X61.82Y-165.849
X61.82Y-166.75
X61.82Y-167.651
X61.87Y-139.8
X61.87Y-140.701
X61.87Y-141.601
X61.87Y-142.502
X61.87Y-143.403
X61.87Y-144.303
X61.87Y-145.204
X61.87Y-146.105
X61.87Y-147.005
X61.87Y-147.906
X61.87Y-148.806
X61.87Y-149.707
X61.87Y-150.607
X61.87Y-151.508
X61.87Y-152.409
X61.87Y-153.309
X61.87Y-154.21
X61.87Y-155.111
X61.96Y-176.41
X61.964Y-177.499
X62.08Y-164.498
X62.08Y-165.399
X62.08Y-166.3
X62.08Y-167.2
X62.08Y-168.101
X62.13Y-140.251
X62.13Y-141.151
X62.13Y-142.052
X62.13Y-142.952
X62.13Y-143.853
X62.13Y-144.754
X62.13Y-145.654
X62.13Y-146.555
X62.13Y-147.455
X62.13Y-148.356
X62.13Y-149.257
X62.13Y-150.157
X62.13Y-151.058
X62.13Y-151.958
X62.13Y-152.859
X62.13Y-153.76
X62.13Y-154.66
X62.13Y-155.561
X62.224Y-177.049
X62.224Y-177.949
X62.34Y-164.949
X62.34Y-165.849
X62.34Y-166.75
X62.34Y-167.651
X62.39Y-139.8
X62.39Y-140.701
X62.39Y-141.601
X62.39Y-142.502
X62.39Y-143.403
X62.39Y-144.303
X62.39Y-145.204
X62.39Y-146.105
X62.39Y-147.005
X62.39Y-147.906
X62.39Y-148.806
X62.39Y-149.707
X62.39Y-150.607
X62.39Y-151.508
X62.39Y-152.409
X62.39Y-153.309
X62.39Y-154.21
X62.39Y-155.111
X62.484Y-176.59
X62.484Y-177.499
X62.6Y-164.498
X62.6Y-165.399
X62.6Y-166.3
X62.6Y-167.2
X62.6Y-168.101
X62.65Y-140.251
X62.65Y-141.151
X62.65Y-142.052
X62.65Y-142.952
X62.65Y-143.853
X62.65Y-144.754
X62.65Y-145.654
X62.65Y-146.555
X62.65Y-147.455
X62.65Y-148.356
X62.65Y-149.257
X62.65Y-150.157
X62.65Y-151.058
X62.65Y-151.958
X62.65Y-152.859
X62.65Y-153.76
X62.65Y-154.66
X62.65Y-155.561
X62.75Y-177.05
X62.86Y-164.949
X62.86Y-165.849
X62.86Y-166.75
X62.86Y-167.651
X62.91Y-139.8
X62.91Y-140.701
X62.91Y-141.601
X62.91Y-142.502
X62.91Y-143.403
X62.91Y-144.303
X62.91Y-145.204
X62.91Y-146.105
X62.91Y-147.005
X62.91Y-147.906
X62.91Y-148.806
X62.91Y-149.707
X62.91Y-150.607
X62.91Y-151.508
X62.91Y-152.409
X62.91Y-153.309
X62.91Y-154.21
X62.91Y-155.111
X62.99Y-176.4
X62.992Y-178.03
X62.992Y-178.931
X62.992Y-179.831
X62.992Y-180.732
X62.992Y-181.633
X62.992Y-182.533
X62.992Y-183.434
X62.992Y-184.334
X62.992Y-185.235
X62.992Y-186.136
X62.992Y-187.036
X62.992Y-187.937
X62.992Y-188.837
X62.992Y-189.738
X62.992Y-190.639
X63.12Y-164.498
X63.12Y-165.399
X63.12Y-166.3
X63.12Y-167.2
X63.12Y-168.101
X63.17Y-140.251
X63.17Y-141.151
X63.17Y-142.052
X63.17Y-142.952
X63.17Y-143.853
X63.17Y-144.754
X63.17Y-145.654
X63.17Y-146.555
X63.17Y-147.455
X63.17Y-148.356
X63.17Y-149.257
X63.17Y-150.157
X63.17Y-151.058
X63.17Y-151.958
X63.17Y-152.859
X63.17Y-153.76
X63.17Y-154.66
X63.17Y-155.561
X63.26Y-176.89
X63.38Y-164.949
X63.38Y-165.849
X63.38Y-166.75
X63.38Y-167.651
X63.43Y-139.8
X63.43Y-140.701
X63.43Y-141.601
X63.43Y-142.502
X63.43Y-143.403
X63.43Y-144.303
X63.43Y-145.204
X63.43Y-146.105
X63.43Y-147.005
X63.43Y-147.906
X63.43Y-148.806
X63.43Y-149.707
X63.43Y-150.607
X63.43Y-151.508
X63.43Y-152.409
X63.43Y-153.309
X63.43Y-154.21
X63.43Y-155.111
X63.52Y-176.44
X63.64Y-164.498
X63.64Y-165.399
X63.64Y-166.3
X63.64Y-167.2
X63.64Y-168.101
X63.69Y-140.251
X63.69Y-141.151
X63.69Y-142.052
X63.69Y-142.952
X63.69Y-143.853
X63.69Y-144.754
X63.69Y-145.654
X63.69Y-146.555
X63.69Y-147.455
X63.69Y-148.356
X63.69Y-149.257
X63.69Y-150.157
X63.69Y-151.058
X63.69Y-151.958
X63.69Y-152.859
X63.69Y-153.76
X63.69Y-154.66
X63.69Y-155.561
X63.78Y-176.89
X63.9Y-164.949
X63.9Y-165.849
X63.9Y-166.75
X63.9Y-167.651
X63.95Y-139.8
X63.95Y-140.701
X63.95Y-141.601
X63.95Y-142.502
X63.95Y-143.403
X63.95Y-144.303
X63.95Y-145.204
X63.95Y-146.105
X63.95Y-147.005
X63.95Y-147.906
X63.95Y-148.806
X63.95Y-149.707
X63.95Y-150.607
X63.95Y-151.508
X63.95Y-152.409
X63.95Y-153.309
X63.95Y-154.21
X63.95Y-155.111
X64.04Y-176.44
X64.13Y-178.392
X64.13Y-179.292
X64.13Y-180.193
X64.13Y-181.093
X64.13Y-181.994
X64.13Y-182.895
X64.13Y-183.795
X64.13Y-184.696
X64.13Y-185.596
X64.13Y-186.497
X64.13Y-187.398
X64.13Y-188.298
X64.13Y-189.199
X64.13Y-190.099
X64.13Y-191.0
X64.16Y-164.498
X64.16Y-165.399
X64.16Y-166.3
X64.16Y-167.2
X64.16Y-168.101
X64.21Y-140.251
X64.21Y-141.151
X64.21Y-142.052
X64.21Y-142.952
X64.21Y-143.853
X64.21Y-144.754
X64.21Y-145.654
X64.21Y-146.555
X64.21Y-147.455
X64.21Y-148.356
X64.21Y-149.257
X64.21Y-150.157
X64.21Y-151.058
X64.21Y-151.958
X64.21Y-152.859
X64.21Y-153.76
X64.21Y-154.66
X64.21Y-155.561
X64.3Y-176.89
X64.39Y-177.941
X64.39Y-178.842
X64.39Y-179.742
X64.39Y-180.643
X64.39Y-181.544
X64.39Y-182.444
X64.39Y-183.345
X64.39Y-184.245
X64.39Y-185.146
X64.39Y-186.047
X64.39Y-186.947
X64.39Y-187.848
X64.39Y-188.748
X64.39Y-189.649
X64.39Y-190.55
X64.42Y-164.949
X64.42Y-165.849
X64.42Y-166.75
X64.42Y-167.651
X64.47Y-139.8
X64.47Y-140.701
X64.47Y-141.601
X64.47Y-142.502
X64.47Y-143.403
X64.47Y-144.303
X64.47Y-145.204
X64.47Y-146.105
X64.47Y-147.005
X64.47Y-147.906
X64.47Y-148.806
X64.47Y-149.707
X64.47Y-150.607
X64.47Y-151.508
X64.47Y-152.409
X64.47Y-153.309
X64.47Y-154.21
X64.47Y-155.111
X64.56Y-176.44
X64.68Y-164.498
X64.68Y-165.399
X64.68Y-166.3
X64.68Y-167.2
X64.68Y-168.101
X64.73Y-140.251
X64.73Y-141.151
X64.73Y-142.052
X64.73Y-142.952
X64.73Y-143.853
X64.73Y-144.754
X64.73Y-145.654
X64.73Y-146.555
X64.73Y-147.455
X64.73Y-148.356
X64.73Y-149.257
X64.73Y-150.157
X64.73Y-151.058
X64.73Y-151.958
X64.73Y-152.859
X64.73Y-153.76
X64.73Y-154.66
X64.73Y-155.561
X64.82Y-176.89
X64.91Y-177.941
X64.94Y-164.949
X64.94Y-165.849
X64.94Y-166.75
X64.94Y-167.651
X64.99Y-139.8
X64.99Y-140.701
X64.99Y-141.601
X64.99Y-142.502
X64.99Y-143.403
X64.99Y-144.303
X64.99Y-145.204
X64.99Y-146.105
X64.99Y-147.005
X64.99Y-147.906
X64.99Y-148.806
X64.99Y-149.707
X64.99Y-150.607
X64.99Y-151.508
X64.99Y-152.409
X64.99Y-153.309
X64.99Y-154.21
X64.99Y-155.111
X65.08Y-176.44
X65.2Y-164.498
X65.2Y-165.399
X65.2Y-166.3
X65.2Y-167.2
X65.2Y-168.101
X65.25Y-140.251
X65.25Y-141.151
X65.25Y-142.052
X65.25Y-142.952
X65.25Y-143.853
X65.25Y-144.754
X65.25Y-145.654
X65.25Y-146.555
X65.25Y-147.455
X65.25Y-148.356
X65.25Y-149.257
X65.25Y-150.157
X65.25Y-151.058
X65.25Y-151.958
X65.25Y-152.859
X65.25Y-153.76
X65.25Y-154.66
X65.25Y-155.561
X65.34Y-176.89
X65.43Y-177.941
X65.46Y-164.949
X65.46Y-165.849
X65.46Y-166.75
X65.46Y-167.651
X65.51Y-139.8
X65.51Y-140.701
X65.51Y-141.601
X65.51Y-142.502
X65.51Y-143.403
X65.51Y-144.303
X65.51Y-145.204
X65.51Y-146.105
X65.51Y-147.005
X65.51Y-147.906
X65.51Y-148.806
X65.51Y-149.707
X65.51Y-150.607
X65.51Y-151.508
X65.51Y-152.409
X65.51Y-153.309
X65.51Y-154.21
X65.51Y-155.111
X65.6Y-176.44
X65.72Y-165.399
X65.72Y-166.3
X65.72Y-167.2
X65.72Y-168.101
X65.77Y-140.251
X65.77Y-141.151
X65.77Y-142.052
X65.77Y-142.952
X65.77Y-143.853
X65.77Y-144.754
X65.77Y-145.654
X65.77Y-146.555
X65.77Y-147.455
X65.77Y-148.356
X65.77Y-149.257
X65.77Y-150.157
X65.77Y-151.058
X65.77Y-151.958
X65.77Y-152.859
X65.77Y-153.76
X65.77Y-154.66
X65.77Y-155.561
X65.86Y-176.89
X65.95Y-177.941
X65.98Y-165.849
X65.98Y-166.75
X65.98Y-167.651
X66.03Y-139.8
X66.03Y-140.701
X66.03Y-141.601
X66.03Y-142.502
X66.03Y-143.403
X66.03Y-144.303
X66.03Y-145.204
X66.03Y-146.105
X66.03Y-147.005
X66.03Y-147.906
X66.03Y-148.806
X66.03Y-149.707
X66.03Y-150.607
X66.03Y-151.508
X66.03Y-152.409
X66.03Y-153.309
X66.03Y-154.21
X66.03Y-155.111
X66.12Y-176.44
X66.29Y-140.251
X66.29Y-141.151
X66.29Y-142.052
X66.29Y-142.952
X66.29Y-143.853
X66.29Y-144.754
X66.29Y-145.654
X66.29Y-146.555
X66.29Y-147.455
X66.29Y-148.356
X66.29Y-149.257
X66.29Y-150.157
X66.29Y-151.058
X66.29Y-151.958
X66.29Y-152.859
X66.29Y-153.76
X66.29Y-154.66
X66.29Y-155.561
X66.38Y-176.89
X66.47Y-177.941
X66.55Y-139.8
X66.55Y-140.701
X66.55Y-141.601
X66.55Y-142.502
X66.55Y-143.403
X66.55Y-144.303
X66.55Y-145.204
X66.55Y-146.105
X66.55Y-147.005
X66.55Y-147.906
X66.55Y-148.806
X66.55Y-149.707
X66.55Y-150.607
X66.55Y-151.508
X66.55Y-152.409
X66.55Y-153.309
X66.55Y-154.21
X66.55Y-155.111
X66.64Y-176.44
X66.81Y-140.251
X66.81Y-141.151
X66.81Y-142.052
X66.81Y-142.952
X66.81Y-143.853
X66.81Y-144.754
X66.81Y-145.654
X66.81Y-146.555
X66.81Y-147.455
X66.81Y-148.356
X66.81Y-149.257
X66.81Y-150.157
X66.81Y-151.058
X66.81Y-151.958
X66.81Y-152.859
X66.81Y-153.76
X66.81Y-154.66
X66.81Y-155.561
X66.9Y-176.89
X66.99Y-177.941
X67.07Y-139.8
X67.07Y-140.701
X67.07Y-141.601
X67.07Y-142.502
X67.07Y-143.403
X67.07Y-144.303
X67.07Y-145.204
X67.07Y-146.105
X67.07Y-147.005
X67.07Y-147.906
X67.07Y-148.806
X67.07Y-149.707
X67.07Y-150.607
X67.07Y-151.508
X67.07Y-152.409
X67.07Y-153.309
X67.07Y-154.21
X67.07Y-155.111
X67.16Y-176.44
X67.33Y-140.251
X67.33Y-141.151
X67.33Y-142.052
X67.33Y-142.952
X67.33Y-143.853
X67.33Y-144.754
X67.33Y-145.654
X67.33Y-146.555
X67.33Y-147.455
X67.33Y-148.356
X67.33Y-149.257
X67.33Y-150.157
X67.33Y-151.058
X67.33Y-151.958
X67.33Y-152.859
X67.33Y-153.76
X67.33Y-154.66
X67.42Y-176.89
X67.51Y-177.941
X67.68Y-176.44
X67.94Y-176.89
X68.03Y-159.929
X68.03Y-160.83
X68.03Y-161.731
X68.03Y-177.941
X68.2Y-176.44
X68.29Y-159.479
X68.29Y-160.38
X68.29Y-161.28
X68.29Y-162.181
X68.46Y-176.89
X68.55Y-159.029
X68.55Y-159.929
X68.55Y-160.83
X68.55Y-161.731
X68.55Y-162.631
X68.55Y-177.941
X68.72Y-176.44
X68.81Y-158.578
X68.81Y-159.479
X68.81Y-160.38
X68.81Y-161.28
X68.81Y-162.181
X68.81Y-163.081
X68.98Y-176.89
X69.07Y-158.128
X69.07Y-159.029
X69.07Y-159.929
X69.07Y-160.83
X69.07Y-161.731
X69.07Y-162.631
X69.07Y-177.941
X69.33Y-157.678
X69.33Y-158.578
X69.33Y-159.479
X69.33Y-160.38
X69.33Y-161.28
X69.33Y-162.181
X69.33Y-163.081
X69.59Y-158.128
X69.59Y-159.029
X69.59Y-159.929
X69.59Y-160.83
X69.59Y-161.731
X69.59Y-162.631
X69.59Y-177.941
X69.85Y-157.678
X69.85Y-158.578
X69.85Y-159.479
X69.85Y-160.38
X69.85Y-161.28
X69.85Y-162.181
X69.85Y-163.081
X70.11Y-157.227
X70.11Y-158.128
X70.11Y-159.029
X70.11Y-159.929
X70.11Y-160.83
X70.11Y-161.731
X70.11Y-162.631
X70.11Y-177.941
X70.358Y-118.582
X70.37Y-157.678
X70.37Y-158.578
X70.37Y-159.479
X70.37Y-160.38
X70.37Y-161.28
X70.37Y-162.181
X70.37Y-163.081
X70.63Y-157.227
X70.63Y-158.128
X70.63Y-159.029
X70.63Y-159.929
X70.63Y-160.83
X70.63Y-161.731
X70.63Y-162.631
X70.63Y-177.041
X70.63Y-177.941
X70.89Y-157.678
X70.89Y-158.578
X70.89Y-159.479
X70.89Y-160.38
X70.89Y-161.28
X70.89Y-162.181
X70.89Y-163.081
X70.89Y-176.59
X70.89Y-177.491
X71.15Y-157.227
X71.15Y-158.128
X71.15Y-159.029
X71.15Y-159.929
X71.15Y-160.83
X71.15Y-161.731
X71.15Y-162.631
X71.15Y-176.14
X71.15Y-177.041
X71.15Y-177.941
X71.41Y-157.678
X71.41Y-158.578
X71.41Y-159.479
X71.41Y-160.38
X71.41Y-161.28
X71.41Y-162.181
X71.41Y-163.081
X71.41Y-176.59
X71.41Y-177.491
X71.67Y-157.227
X71.67Y-158.128
X71.67Y-159.029
X71.67Y-159.929
X71.67Y-160.83
X71.67Y-161.731
X71.67Y-162.631
X71.67Y-176.14
X71.67Y-177.041
X71.67Y-177.941
X71.93Y-157.678
X71.93Y-158.578
X71.93Y-159.479
X71.93Y-160.38
X71.93Y-161.28
X71.93Y-162.181
X71.93Y-163.081
X71.93Y-176.59
X71.93Y-177.491
X72.19Y-157.227
X72.19Y-158.128
X72.19Y-159.029
X72.19Y-176.14
X72.19Y-177.041
X72.19Y-177.941
X72.31Y-140.096
X72.31Y-140.997
X72.31Y-142.798
X72.31Y-143.699
X72.31Y-144.599
X72.31Y-145.5
X72.45Y-157.678
X72.45Y-158.578
X72.45Y-176.59
X72.45Y-177.491
X72.492Y-138.125
X72.57Y-139.646
X72.57Y-140.547
X72.57Y-144.149
X72.57Y-145.05
X72.71Y-157.227
X72.71Y-158.128
X72.71Y-159.029
X72.71Y-176.14
X72.71Y-177.041
X72.71Y-177.941
X72.83Y-140.096
X72.83Y-143.699
X72.83Y-144.599
X72.83Y-145.5
X72.97Y-157.678
X72.97Y-158.578
X72.97Y-175.69
X72.97Y-176.59
X72.97Y-177.491
X73.09Y-139.646
X73.09Y-144.149
X73.09Y-145.05
X73.23Y-157.227
X73.23Y-158.128
X73.23Y-159.029
X73.23Y-176.14
X73.23Y-177.041
X73.23Y-177.941
X73.35Y-144.599
X73.35Y-145.5
X73.49Y-157.678
X73.49Y-158.578
X73.49Y-175.69
X73.49Y-176.59
X73.49Y-177.491
X73.61Y-139.646
X73.61Y-145.05
X73.75Y-157.227
X73.75Y-158.128
X73.75Y-159.029
X73.75Y-176.14
X73.75Y-177.041
X73.75Y-177.941
X73.87Y-144.599
X73.87Y-145.5
X74.01Y-157.678
X74.01Y-158.578
X74.01Y-175.69
X74.01Y-176.59
X74.01Y-177.491
X74.13Y-145.05
X74.27Y-157.227
X74.27Y-158.128
X74.27Y-159.029
X74.27Y-176.14
X74.27Y-177.041
X74.27Y-177.941
X74.39Y-144.599
X74.39Y-145.5
X74.53Y-157.678
X74.53Y-158.578
X74.53Y-175.69
X74.53Y-176.59
X74.53Y-177.491
X74.65Y-145.05
X74.79Y-157.227
X74.79Y-158.128
X74.79Y-159.029
X74.79Y-168.035
X74.79Y-168.935
X74.79Y-169.836
X74.79Y-170.736
X74.79Y-171.637
X74.79Y-172.538
X74.79Y-173.438
X74.79Y-174.339
X74.79Y-175.239
X74.79Y-176.14
X74.79Y-177.041
X74.79Y-177.941
X74.91Y-144.599
X74.91Y-145.5
X75.05Y-157.678
X75.05Y-158.578
X75.05Y-167.584
X75.05Y-168.485
X75.05Y-169.386
X75.05Y-170.286
X75.05Y-171.187
X75.05Y-172.087
X75.05Y-172.988
X75.05Y-173.889
X75.05Y-174.789
X75.05Y-175.69
X75.05Y-176.59
X75.05Y-177.491
X75.17Y-145.05
X75.31Y-157.227
X75.31Y-158.128
X75.31Y-159.029
X75.31Y-168.035
X75.31Y-168.935
X75.31Y-169.836
X75.31Y-170.736
X75.31Y-171.637
X75.31Y-172.538
X75.31Y-173.438
X75.31Y-174.339
X75.31Y-175.239
X75.31Y-176.14
X75.31Y-177.041
X75.31Y-177.941
X75.43Y-144.599
X75.43Y-145.5
X75.57Y-157.678
X75.57Y-158.578
X75.57Y-167.584
X75.57Y-168.485
X75.57Y-169.386
X75.57Y-170.286
X75.57Y-171.187
X75.57Y-172.087
X75.57Y-172.988
X75.57Y-173.889
X75.57Y-174.789
X75.57Y-175.69
X75.57Y-176.59
X75.57Y-177.491
X75.637Y-138.558
X75.69Y-139.646
X75.69Y-145.05
X75.83Y-157.227
X75.83Y-158.128
X75.83Y-159.029
X75.83Y-168.035
X75.83Y-168.935
X75.83Y-169.836
X75.83Y-170.736
X75.83Y-171.637
X75.83Y-172.538
X75.83Y-173.438
X75.83Y-174.339
X75.83Y-175.239
X75.83Y-176.14
X75.83Y-177.041
X75.83Y-177.941
X75.95Y-144.599
X75.95Y-145.5
X76.09Y-157.678
X76.09Y-158.578
X76.09Y-167.584
X76.09Y-168.485
X76.09Y-169.386
X76.09Y-170.286
X76.09Y-171.187
X76.09Y-172.087
X76.09Y-172.988
X76.09Y-173.889
X76.09Y-174.789
X76.09Y-175.69
X76.09Y-176.59
X76.09Y-177.491
X76.21Y-139.646
X76.21Y-144.149
X76.21Y-145.05
X76.35Y-157.227
X76.35Y-158.128
X76.35Y-159.029
X76.35Y-168.035
X76.35Y-168.935
X76.35Y-169.836
X76.35Y-170.736
X76.35Y-171.637
X76.35Y-172.538
X76.35Y-173.438
X76.35Y-174.339
X76.35Y-175.239
X76.35Y-176.14
X76.35Y-177.041
X76.35Y-177.941
X76.47Y-139.196
X76.47Y-140.096
X76.47Y-144.599
X76.47Y-145.5
X76.61Y-157.678
X76.61Y-158.578
X76.61Y-167.584
X76.61Y-168.485
X76.61Y-169.386
X76.61Y-170.286
X76.61Y-171.187
X76.61Y-172.087
X76.61Y-172.988
X76.61Y-173.889
X76.61Y-174.789
X76.61Y-175.69
X76.61Y-176.59
X76.61Y-177.491
X76.73Y-139.646
X76.73Y-140.547
X76.73Y-144.149
X76.73Y-145.05
X76.87Y-157.227
X76.87Y-158.128
X76.87Y-159.029
X76.87Y-168.035
X76.87Y-168.935
X76.87Y-169.836
X76.87Y-170.736
X76.87Y-171.637
X76.87Y-172.538
X76.87Y-173.438
X76.87Y-174.339
X76.87Y-175.239
X76.87Y-176.14
X76.87Y-177.041
X76.87Y-177.941
X76.99Y-139.196
X76.99Y-140.096
X76.99Y-140.997
X76.99Y-143.699
X76.99Y-144.599
X76.99Y-145.5
X77.13Y-157.678
X77.13Y-158.578
X77.13Y-167.584
X77.13Y-168.485
X77.13Y-169.386
X77.13Y-170.286
X77.13Y-171.187
X77.13Y-172.087
X77.13Y-172.988
X77.13Y-173.889
X77.13Y-174.789
X77.13Y-175.69
X77.13Y-176.59
X77.13Y-177.491
X77.25Y-139.646
X77.25Y-140.547
X77.25Y-141.447
X77.25Y-142.348
X77.25Y-143.249
X77.25Y-144.149
X77.25Y-145.05
X77.39Y-157.227
X77.39Y-158.128
X77.39Y-159.029
X77.39Y-168.035
X77.39Y-168.935
X77.39Y-169.836
X77.39Y-170.736
X77.39Y-171.637
X77.39Y-172.538
X77.39Y-173.438
X77.39Y-174.339
X77.39Y-175.239
X77.39Y-176.14
X77.39Y-177.041
X77.39Y-177.941
X77.51Y-139.196
X77.51Y-140.096
X77.51Y-140.997
X77.51Y-141.898
X77.51Y-142.798
X77.51Y-143.699
X77.51Y-144.599
X77.51Y-145.5
X77.65Y-157.678
X77.65Y-158.578
X77.65Y-167.584
X77.65Y-168.485
X77.65Y-169.386
X77.65Y-170.286
X77.65Y-171.187
X77.65Y-172.087
X77.65Y-172.988
X77.65Y-173.889
X77.65Y-174.789
X77.65Y-175.69
X77.65Y-176.59
X77.65Y-177.491
X77.65Y-178.392
X77.77Y-139.646
X77.77Y-140.547
X77.77Y-141.447
X77.77Y-142.348
X77.77Y-143.249
X77.77Y-144.149
X77.77Y-145.05
X77.91Y-157.227
X77.91Y-158.128
X77.91Y-159.029
X77.91Y-168.035
X77.91Y-168.935
X77.91Y-169.836
X77.91Y-170.736
X77.91Y-171.637
X77.91Y-172.538
X77.91Y-173.438
X77.91Y-174.339
X77.91Y-175.239
X77.91Y-176.14
X77.91Y-177.041
X77.91Y-177.941
X77.91Y-178.842
X77.91Y-179.742
X77.91Y-180.643
X77.91Y-181.544
X77.91Y-182.444
X77.91Y-183.345
X77.91Y-184.245
X77.91Y-185.146
X77.91Y-186.047
X77.91Y-186.947
X77.91Y-187.848
X77.91Y-188.748
X77.91Y-189.649
X77.91Y-190.55
X78.03Y-139.196
X78.03Y-140.096
X78.03Y-140.997
X78.03Y-141.898
X78.03Y-142.798
X78.03Y-143.699
X78.03Y-144.599
X78.03Y-145.5
X78.17Y-157.678
X78.17Y-158.578
X78.17Y-159.479
X78.17Y-160.38
X78.17Y-161.28
X78.17Y-162.181
X78.17Y-163.081
X78.17Y-163.982
X78.17Y-164.883
X78.17Y-165.783
X78.17Y-166.684
X78.17Y-167.584
X78.17Y-168.485
X78.17Y-169.386
X78.17Y-170.286
X78.17Y-171.187
X78.17Y-172.087
X78.17Y-172.988
X78.17Y-173.889
X78.17Y-174.789
X78.17Y-175.69
X78.17Y-176.59
X78.17Y-177.491
X78.17Y-178.392
X78.17Y-179.292
X78.17Y-180.193
X78.17Y-181.093
X78.17Y-181.994
X78.17Y-182.895
X78.17Y-183.795
X78.17Y-184.696
X78.17Y-185.596
X78.17Y-186.497
X78.17Y-187.398
X78.17Y-188.298
X78.17Y-189.199
X78.17Y-190.099
X78.17Y-191.0
X78.29Y-139.646
X78.29Y-140.547
X78.29Y-141.447
X78.29Y-142.348
X78.29Y-143.249
X78.29Y-144.149
X78.29Y-145.05
X78.43Y-157.227
X78.43Y-158.128
X78.43Y-159.029
X78.43Y-159.929
X78.43Y-160.83
X78.43Y-161.731
X78.43Y-162.631
X78.43Y-163.532
X78.43Y-164.432
X78.43Y-165.333
X78.43Y-166.233
X78.43Y-167.134
X78.43Y-168.035
X78.43Y-168.935
X78.43Y-169.836
X78.43Y-170.736
X78.43Y-171.637
X78.43Y-172.538
X78.43Y-173.438
X78.43Y-174.339
X78.43Y-175.239
X78.43Y-176.14
X78.43Y-177.041
X78.43Y-177.941
X78.43Y-178.842
X78.43Y-179.742
X78.43Y-180.643
X78.43Y-181.544
X78.43Y-182.444
X78.43Y-183.345
X78.43Y-184.245
X78.43Y-185.146
X78.43Y-186.047
X78.43Y-186.947
X78.43Y-187.848
X78.43Y-188.748
X78.43Y-189.649
X78.43Y-190.55
X78.55Y-139.196
X78.55Y-140.096
X78.55Y-140.997
X78.55Y-141.898
X78.55Y-142.798
X78.55Y-143.699
X78.55Y-144.599
X78.55Y-145.5
X78.69Y-157.678
X78.69Y-158.578
X78.69Y-159.479
X78.69Y-160.38
X78.69Y-161.28
X78.69Y-162.181
X78.69Y-163.081
X78.69Y-163.982
X78.69Y-164.883
X78.69Y-165.783
X78.69Y-166.684
X78.69Y-167.584
X78.69Y-168.485
X78.69Y-169.386
X78.69Y-170.286
X78.69Y-171.187
X78.69Y-172.087
X78.69Y-172.988
X78.69Y-173.889
X78.69Y-174.789
X78.69Y-175.69
X78.69Y-176.59
X78.69Y-177.491
X78.69Y-178.392
X78.69Y-179.292
X78.69Y-180.193
X78.69Y-181.093
X78.69Y-181.994
X78.69Y-182.895
X78.69Y-183.795
X78.69Y-184.696
X78.69Y-185.596
X78.69Y-186.497
X78.69Y-187.398
X78.69Y-188.298
X78.69Y-189.199
X78.69Y-190.099
X78.69Y-191.0
X78.81Y-139.646
X78.81Y-140.547
X78.81Y-141.447
X78.81Y-142.348
X78.81Y-143.249
X78.81Y-144.149
X78.81Y-145.05
X78.95Y-157.227
X78.95Y-158.128
X78.95Y-159.029
X78.95Y-159.929
X78.95Y-160.83
X78.95Y-161.731
X78.95Y-162.631
X78.95Y-163.532
X78.95Y-164.432
X78.95Y-165.333
X78.95Y-166.233
X78.95Y-167.134
X78.95Y-168.035
X78.95Y-168.935
X78.95Y-169.836
X78.95Y-170.736
X78.95Y-171.637
X78.95Y-172.538
X78.95Y-173.438
X78.95Y-174.339
X78.95Y-175.239
X78.95Y-176.14
X78.95Y-177.041
X78.95Y-177.941
X78.95Y-178.842
X78.95Y-179.742
X78.95Y-180.643
X78.95Y-181.544
X78.95Y-182.444
X78.95Y-183.345
X78.95Y-184.245
X78.95Y-185.146
X78.95Y-186.047
X78.95Y-186.947
X78.95Y-187.848
X78.95Y-188.748
X78.95Y-189.649
X78.95Y-190.55
X79.07Y-139.196
X79.07Y-140.096
X79.07Y-140.997
X79.07Y-141.898
X79.07Y-142.798
X79.07Y-143.699
X79.07Y-144.599
X79.07Y-145.5
X79.21Y-157.678
X79.21Y-158.578
X79.21Y-159.479
X79.21Y-160.38
X79.21Y-161.28
X79.21Y-162.181
X79.21Y-163.081
X79.21Y-163.982
X79.21Y-164.883
X79.21Y-165.783
X79.21Y-166.684
X79.21Y-167.584
X79.21Y-168.485
X79.21Y-171.187
X79.21Y-172.087
X79.21Y-172.988
X79.21Y-173.889
X79.21Y-174.789
X79.21Y-175.69
X79.21Y-176.59
X79.21Y-177.491
X79.21Y-178.392
X79.21Y-179.292
X79.21Y-180.193
X79.21Y-181.093
X79.21Y-181.994
X79.21Y-182.895
X79.21Y-183.795
X79.21Y-184.696
X79.21Y-185.596
X79.21Y-186.497
X79.21Y-187.398
X79.21Y-188.298
X79.21Y-189.199
X79.21Y-190.099
X79.21Y-191.0
X79.33Y-139.646
X79.33Y-140.547
X79.33Y-141.447
X79.33Y-142.348
X79.33Y-143.249
X79.33Y-144.149
X79.33Y-145.05
X79.47Y-157.227
X79.47Y-158.128
X79.47Y-159.029
X79.47Y-159.929
X79.47Y-160.83
X79.47Y-161.731
X79.47Y-162.631
X79.47Y-163.532
X79.47Y-164.432
X79.47Y-165.333
X79.47Y-166.233
X79.47Y-167.134
X79.47Y-168.035
X79.47Y-171.637
X79.47Y-172.538
X79.47Y-173.438
X79.47Y-174.339
X79.47Y-175.239
X79.47Y-176.14
X79.47Y-177.041
X79.47Y-177.941
X79.47Y-178.842
X79.47Y-179.742
X79.47Y-180.643
X79.47Y-181.544
X79.47Y-182.444
X79.47Y-183.345
X79.47Y-184.245
X79.47Y-185.146
X79.47Y-186.047
X79.47Y-186.947
X79.47Y-187.848
X79.47Y-188.748
X79.47Y-189.649
X79.47Y-190.55
X79.59Y-139.196
X79.59Y-140.096
X79.59Y-140.997
X79.59Y-141.898
X79.59Y-142.798
X79.59Y-143.699
X79.59Y-144.599
X79.59Y-145.5
X79.73Y-157.678
X79.73Y-158.578
X79.73Y-159.479
X79.73Y-160.38
X79.73Y-161.28
X79.73Y-162.181
X79.73Y-163.081
X79.73Y-163.982
X79.73Y-164.883
X79.73Y-165.783
X79.73Y-166.684
X79.73Y-167.584
X79.73Y-172.087
X79.73Y-172.988
X79.73Y-173.889
X79.73Y-174.789
X79.73Y-175.69
X79.73Y-176.59
X79.73Y-177.491
X79.73Y-178.392
X79.73Y-179.292
X79.73Y-180.193
X79.73Y-181.093
X79.73Y-181.994
X79.73Y-182.895
X79.73Y-183.795
X79.73Y-184.696
X79.73Y-185.596
X79.73Y-186.497
X79.73Y-187.398
X79.73Y-188.298
X79.73Y-189.199
X79.73Y-190.099
X79.73Y-191.0
X79.85Y-139.646
X79.85Y-140.547
X79.85Y-141.447
X79.85Y-142.348
X79.85Y-143.249
X79.85Y-144.149
X79.85Y-145.05
X79.99Y-157.227
X79.99Y-158.128
X79.99Y-159.029
X79.99Y-159.929
X79.99Y-160.83
X79.99Y-161.731
X79.99Y-162.631
X79.99Y-163.532
X79.99Y-164.432
X79.99Y-165.333
X79.99Y-166.233
X79.99Y-167.134
X79.99Y-168.035
X79.99Y-172.538
X79.99Y-173.438
X79.99Y-174.339
X79.99Y-175.239
X79.99Y-176.14
X79.99Y-177.041
X79.99Y-177.941
X79.99Y-178.842
X79.99Y-179.742
X79.99Y-180.643
X79.99Y-181.544
X79.99Y-182.444
X79.99Y-183.345
X79.99Y-184.245
X79.99Y-185.146
X79.99Y-186.047
X79.99Y-186.947
X79.99Y-187.848
X79.99Y-188.748
X79.99Y-189.649
X79.99Y-190.55
X80.11Y-139.196
X80.11Y-140.096
X80.11Y-140.997
X80.11Y-141.898
X80.11Y-142.798
X80.11Y-143.699
X80.11Y-144.599
X80.11Y-145.5
X80.25Y-157.678
X80.25Y-158.578
X80.25Y-159.479
X80.25Y-160.38
X80.25Y-161.28
X80.25Y-162.181
X80.25Y-163.081
X80.25Y-163.982
X80.25Y-164.883
X80.25Y-165.783
X80.25Y-166.684
X80.25Y-167.584
X80.25Y-172.988
X80.25Y-173.889
X80.25Y-174.789
X80.25Y-175.69
X80.25Y-176.59
X80.25Y-177.491
X80.25Y-178.392
X80.25Y-179.292
X80.25Y-180.193
X80.25Y-181.093
X80.25Y-181.994
X80.25Y-182.895
X80.25Y-183.795
X80.25Y-184.696
X80.25Y-185.596
X80.25Y-186.497
X80.25Y-187.398
X80.25Y-188.298
X80.25Y-189.199
X80.25Y-190.099
X80.25Y-191.0
X80.37Y-139.646
X80.37Y-140.547
X80.37Y-141.447
X80.37Y-142.348
X80.37Y-143.249
X80.37Y-144.149
X80.37Y-145.05
X80.51Y-157.227
X80.51Y-158.128
X80.51Y-159.029
X80.51Y-159.929
X80.51Y-160.83
X80.51Y-161.731
X80.51Y-162.631
X80.51Y-163.532
X80.51Y-164.432
X80.51Y-165.333
X80.51Y-166.233
X80.51Y-167.134
X80.51Y-172.538
X80.51Y-173.438
X80.51Y-174.339
X80.51Y-175.239
X80.51Y-176.14
X80.51Y-177.041
X80.51Y-177.941
X80.51Y-178.842
X80.51Y-179.742
X80.51Y-180.643
X80.51Y-181.544
X80.51Y-182.444
X80.51Y-183.345
X80.51Y-184.245
X80.51Y-185.146
X80.51Y-186.047
X80.51Y-186.947
X80.51Y-187.848
X80.51Y-188.748
X80.51Y-189.649
X80.51Y-190.55
X80.63Y-139.196
X80.63Y-140.096
X80.63Y-140.997
X80.63Y-141.898
X80.63Y-142.798
X80.63Y-143.699
X80.63Y-144.599
X80.63Y-145.5
X80.77Y-157.678
X80.77Y-158.578
X80.77Y-159.479
X80.77Y-160.38
X80.77Y-161.28
X80.77Y-162.181
X80.77Y-163.081
X80.77Y-163.982
X80.77Y-164.883
X80.77Y-165.783
X80.77Y-166.684
X80.77Y-167.584
X80.77Y-172.988
X80.77Y-173.889
X80.77Y-174.789
X80.77Y-175.69
X80.77Y-176.59
X80.77Y-177.491
X80.77Y-178.392
X80.77Y-179.292
X80.77Y-180.193
X80.77Y-181.093
X80.77Y-181.994
X80.77Y-182.895
X80.77Y-183.795
X80.77Y-184.696
X80.77Y-185.596
X80.77Y-186.497
X80.77Y-187.398
X80.77Y-188.298
X80.77Y-189.199
X80.77Y-190.099
X80.77Y-191.0
X80.89Y-139.646
X80.89Y-140.547
X80.89Y-141.447
X80.89Y-142.348
X80.89Y-143.249
X80.89Y-144.149
X80.89Y-145.05
X81.03Y-157.227
X81.03Y-158.128
X81.03Y-159.029
X81.03Y-159.929
X81.03Y-160.83
X81.03Y-161.731
X81.03Y-162.631
X81.03Y-163.532
X81.03Y-164.432
X81.03Y-165.333
X81.03Y-166.233
X81.03Y-167.134
X81.03Y-172.538
X81.03Y-173.438
X81.03Y-174.339
X81.03Y-175.239
X81.03Y-176.14
X81.03Y-177.041
X81.03Y-177.941
X81.03Y-178.842
X81.03Y-179.742
X81.03Y-180.643
X81.03Y-181.544
X81.03Y-182.444
X81.03Y-183.345
X81.03Y-184.245
X81.03Y-185.146
X81.03Y-186.047
X81.03Y-186.947
X81.03Y-187.848
X81.03Y-188.748
X81.03Y-189.649
X81.03Y-190.55
X81.15Y-139.196
X81.15Y-140.096
X81.15Y-140.997
X81.15Y-141.898
X81.15Y-142.798
X81.15Y-143.699
X81.15Y-144.599
X81.15Y-145.5
X81.29Y-157.678
X81.29Y-158.578
X81.29Y-159.479
X81.29Y-160.38
X81.29Y-161.28
X81.29Y-162.181
X81.29Y-163.081
X81.29Y-163.982
X81.29Y-164.883
X81.29Y-165.783
X81.29Y-166.684
X81.29Y-167.584
X81.29Y-172.988
X81.29Y-173.889
X81.29Y-174.789
X81.29Y-175.69
X81.29Y-176.59
X81.29Y-177.491
X81.29Y-178.392
X81.29Y-179.292
X81.29Y-180.193
X81.29Y-181.093
X81.29Y-181.994
X81.29Y-182.895
X81.29Y-183.795
X81.29Y-184.696
X81.29Y-185.596
X81.29Y-186.497
X81.29Y-187.398
X81.29Y-188.298
X81.29Y-189.199
X81.29Y-190.099
X81.29Y-191.0
X81.41Y-139.646
X81.41Y-140.547
X81.41Y-141.447
X81.41Y-142.348
X81.41Y-143.249
X81.41Y-144.149
X81.41Y-145.05
X81.55Y-157.227
X81.55Y-158.128
X81.55Y-159.029
X81.55Y-159.929
X81.55Y-160.83
X81.55Y-161.731
X81.55Y-162.631
X81.55Y-163.532
X81.55Y-164.432
X81.55Y-165.333
X81.55Y-166.233
X81.55Y-167.134
X81.55Y-172.538
X81.55Y-173.438
X81.55Y-174.339
X81.55Y-175.239
X81.55Y-176.14
X81.55Y-177.041
X81.55Y-177.941
X81.55Y-178.842
X81.55Y-179.742
X81.55Y-180.643
X81.55Y-181.544
X81.55Y-182.444
X81.55Y-183.345
X81.55Y-184.245
X81.55Y-185.146
X81.55Y-186.047
X81.55Y-186.947
X81.55Y-187.848
X81.55Y-188.748
X81.55Y-189.649
X81.55Y-190.55
X81.67Y-139.196
X81.67Y-140.096
X81.67Y-140.997
X81.67Y-141.898
X81.67Y-142.798
X81.67Y-143.699
X81.67Y-144.599
X81.67Y-145.5
X81.81Y-157.678
X81.81Y-158.578
X81.81Y-159.479
X81.81Y-160.38
X81.81Y-161.28
X81.81Y-162.181
X81.81Y-163.081
X81.81Y-163.982
X81.81Y-164.883
X81.81Y-165.783
X81.81Y-166.684
X81.81Y-167.584
X81.81Y-172.988
X81.81Y-173.889
X81.81Y-174.789
X81.81Y-175.69
X81.81Y-176.59
X81.81Y-177.491
X81.81Y-178.392
X81.81Y-179.292
X81.81Y-180.193
X81.81Y-181.093
X81.81Y-181.994
X81.81Y-182.895
X81.81Y-183.795
X81.81Y-184.696
X81.81Y-185.596
X81.81Y-186.497
X81.81Y-187.398
X81.81Y-188.298
X81.81Y-189.199
X81.81Y-190.099
X81.81Y-191.0
X81.93Y-139.646
X81.93Y-140.547
X81.93Y-141.447
X81.93Y-142.348
X81.93Y-143.249
X81.93Y-144.149
X81.93Y-145.05
X82.07Y-157.227
X82.07Y-158.128
X82.07Y-159.029
X82.07Y-159.929
X82.07Y-160.83
X82.07Y-161.731
X82.07Y-162.631
X82.07Y-163.532
X82.07Y-164.432
X82.07Y-165.333
X82.07Y-166.233
X82.07Y-167.134
X82.07Y-172.538
X82.07Y-173.438
X82.07Y-174.339
X82.07Y-175.239
X82.07Y-176.14
X82.07Y-177.041
X82.07Y-177.941
X82.07Y-178.842
X82.07Y-179.742
X82.07Y-180.643
X82.07Y-181.544
X82.07Y-182.444
X82.07Y-183.345
X82.07Y-184.245
X82.07Y-185.146
X82.07Y-186.047
X82.07Y-186.947
X82.07Y-187.848
X82.07Y-188.748
X82.07Y-189.649
X82.07Y-190.55
X82.19Y-139.196
X82.19Y-140.096
X82.19Y-140.997
X82.19Y-141.898
X82.19Y-142.798
X82.19Y-143.699
X82.19Y-144.599
X82.19Y-145.5
X82.33Y-157.678
X82.33Y-158.578
X82.33Y-159.479
X82.33Y-160.38
X82.33Y-161.28
X82.33Y-162.181
X82.33Y-163.081
X82.33Y-163.982
X82.33Y-164.883
X82.33Y-165.783
X82.33Y-166.684
X82.33Y-167.584
X82.33Y-172.988
X82.33Y-173.889
X82.33Y-174.789
X82.33Y-175.69
X82.33Y-176.59
X82.33Y-177.491
X82.33Y-178.392
X82.33Y-179.292
X82.33Y-180.193
X82.33Y-181.093
X82.33Y-181.994
X82.33Y-182.895
X82.33Y-183.795
X82.33Y-184.696
X82.33Y-185.596
X82.33Y-186.497
X82.33Y-187.398
X82.33Y-188.298
X82.33Y-189.199
X82.33Y-190.099
X82.33Y-191.0
X82.45Y-139.646
X82.45Y-140.547
X82.45Y-141.447
X82.45Y-142.348
X82.45Y-143.249
X82.45Y-144.149
X82.45Y-145.05
X82.59Y-157.227
X82.59Y-158.128
X82.59Y-159.029
X82.59Y-159.929
X82.59Y-160.83
X82.59Y-161.731
X82.59Y-162.631
X82.59Y-163.532
X82.59Y-164.432
X82.59Y-165.333
X82.59Y-166.233
X82.59Y-167.134
X82.59Y-172.538
X82.59Y-173.438
X82.59Y-174.339
X82.59Y-175.239
X82.59Y-176.14
X82.59Y-177.041
X82.59Y-177.941
X82.59Y-178.842
X82.59Y-179.742
X82.59Y-180.643
X82.59Y-181.544
X82.59Y-182.444
X82.59Y-183.345
X82.59Y-184.245
X82.59Y-185.146
X82.59Y-186.047
X82.59Y-186.947
X82.59Y-187.848
X82.59Y-188.748
X82.59Y-189.649
X82.59Y-190.55
X82.71Y-139.196
X82.71Y-140.096
X82.71Y-140.997
X82.71Y-141.898
X82.71Y-142.798
X82.71Y-143.699
X82.71Y-144.599
X82.71Y-145.5
X82.85Y-157.678
X82.85Y-158.578
X82.85Y-159.479
X82.85Y-160.38
X82.85Y-161.28
X82.85Y-162.181
X82.85Y-163.081
X82.85Y-163.982
X82.85Y-164.883
X82.85Y-165.783
X82.85Y-166.684
X82.85Y-167.584
X82.85Y-172.988
X82.85Y-173.889
X82.85Y-174.789
X82.85Y-175.69
X82.85Y-176.59
X82.85Y-177.491
X82.85Y-178.392
X82.85Y-179.292
X82.85Y-180.193
X82.85Y-181.093
X82.85Y-181.994
X82.85Y-182.895
X82.85Y-183.795
X82.85Y-184.696
X82.85Y-185.596
X82.85Y-186.497
X82.85Y-187.398
X82.85Y-188.298
X82.85Y-189.199
X82.85Y-190.099
X82.85Y-191.0
X82.97Y-139.646
X82.97Y-140.547
X82.97Y-141.447
X82.97Y-142.348
X82.97Y-143.249
X82.97Y-144.149
X82.97Y-145.05
X83.11Y-157.227
X83.11Y-158.128
X83.11Y-159.029
X83.11Y-159.929
X83.11Y-160.83
X83.11Y-161.731
X83.11Y-162.631
X83.11Y-163.532
X83.11Y-164.432
X83.11Y-165.333
X83.11Y-166.233
X83.11Y-167.134
X83.11Y-168.035
X83.11Y-172.538
X83.11Y-173.438
X83.11Y-174.339
X83.11Y-175.239
X83.11Y-176.14
X83.11Y-177.041
X83.11Y-177.941
X83.11Y-178.842
X83.11Y-179.742
X83.11Y-180.643
X83.11Y-181.544
X83.11Y-182.444
X83.11Y-183.345
X83.11Y-184.245
X83.11Y-185.146
X83.11Y-186.047
X83.11Y-186.947
X83.11Y-187.848
X83.11Y-188.748
X83.11Y-189.649
X83.11Y-190.55
X83.23Y-139.196
X83.23Y-140.096
X83.23Y-140.997
X83.23Y-141.898
X83.23Y-142.798
X83.23Y-143.699
X83.23Y-144.599
X83.23Y-145.5
X83.37Y-157.678
X83.37Y-158.578
X83.37Y-159.479
X83.37Y-160.38
X83.37Y-161.28
X83.37Y-162.181
X83.37Y-163.081
X83.37Y-163.982
X83.37Y-164.883
X83.37Y-165.783
X83.37Y-166.684
X83.37Y-167.584
X83.37Y-168.485
X83.37Y-172.087
X83.37Y-172.988
X83.37Y-173.889
X83.37Y-174.789
X83.37Y-175.69
X83.37Y-176.59
X83.37Y-177.491
X83.37Y-178.392
X83.37Y-179.292
X83.37Y-180.193
X83.37Y-181.093
X83.37Y-181.994
X83.37Y-182.895
X83.37Y-183.795
X83.37Y-184.696
X83.37Y-185.596
X83.37Y-186.497
X83.37Y-187.398
X83.37Y-188.298
X83.37Y-189.199
X83.37Y-190.099
X83.37Y-191.0
X83.49Y-139.646
X83.49Y-140.547
X83.49Y-141.447
X83.49Y-142.348
X83.49Y-143.249
X83.49Y-144.149
X83.49Y-145.05
X83.63Y-157.227
X83.63Y-158.128
X83.63Y-159.029
X83.63Y-159.929
X83.63Y-160.83
X83.63Y-161.731
X83.63Y-162.631
X83.63Y-163.532
X83.63Y-164.432
X83.63Y-165.333
X83.63Y-166.233
X83.63Y-167.134
X83.63Y-168.035
X83.63Y-168.935
X83.63Y-171.637
X83.63Y-172.538
X83.63Y-173.438
X83.63Y-174.339
X83.63Y-175.239
X83.63Y-176.14
X83.63Y-177.041
X83.63Y-177.941
X83.63Y-178.842
X83.63Y-179.742
X83.63Y-180.643
X83.63Y-181.544
X83.63Y-182.444
X83.63Y-183.345
X83.63Y-184.245
X83.63Y-185.146
X83.63Y-186.047
X83.63Y-186.947
X83.63Y-187.848
X83.63Y-188.748
X83.63Y-189.649
X83.63Y-190.55
X83.75Y-139.196
X83.75Y-140.096
X83.75Y-140.997
X83.75Y-141.898
X83.75Y-142.798
X83.75Y-143.699
X83.75Y-144.599
X83.75Y-145.5
T2
X19.922Y-179.158
X19.922Y-180.059
X19.922Y-180.959
X19.922Y-181.86
X19.922Y-182.761
X19.922Y-183.661
X19.922Y-184.562
X19.922Y-185.462
X19.922Y-186.363
X19.922Y-187.264
X19.922Y-188.164
X19.922Y-189.065
X19.922Y-189.965
X19.922Y-190.866
X20.182Y-178.708
X20.182Y-179.608
X20.182Y-180.509
X20.182Y-181.41
X20.182Y-182.31
X20.182Y-183.211
X20.182Y-184.111
X20.182Y-185.012
X20.182Y-185.913
X20.182Y-186.813
X20.182Y-187.714
X20.182Y-188.614
X20.182Y-189.515
X20.182Y-190.416
X20.442Y-179.158
X20.442Y-180.059
X20.442Y-180.959
X20.442Y-181.86
X20.442Y-182.761
X20.442Y-183.661
X20.442Y-184.562
X20.442Y-185.462
X20.442Y-186.363
X20.442Y-187.264
X20.442Y-188.164
X20.442Y-189.065
X20.442Y-189.965
X20.442Y-190.866
X20.702Y-178.708
X20.702Y-179.608
X20.702Y-180.509
X20.702Y-181.41
X20.702Y-182.31
X20.702Y-183.211
X20.702Y-184.111
X20.702Y-185.012
X20.702Y-185.913
X20.702Y-186.813
X20.702Y-187.714
X20.702Y-188.614
X20.702Y-189.515
X20.702Y-190.416
X20.962Y-179.158
X20.962Y-180.059
X20.962Y-180.959
X20.962Y-181.86
X20.962Y-182.761
X20.962Y-183.661
X20.962Y-184.562
X20.962Y-185.462
X20.962Y-186.363
X20.962Y-187.264
X20.962Y-188.164
X20.962Y-189.065
X20.962Y-189.965
X20.962Y-190.866
X21.222Y-178.708
X21.222Y-179.608
X21.222Y-180.509
X21.222Y-181.41
X21.222Y-182.31
X21.222Y-183.211
X21.222Y-184.111
X21.222Y-185.012
X21.222Y-185.913
X21.222Y-186.813
X21.222Y-187.714
X21.222Y-188.614
X21.222Y-189.515
X21.222Y-190.416
X21.482Y-179.158
X21.482Y-180.059
X21.482Y-180.959
X21.482Y-181.86
X21.482Y-182.761
X21.482Y-183.661
X21.482Y-184.562
X21.482Y-185.462
X21.482Y-186.363
X21.482Y-187.264
X21.482Y-188.164
X21.482Y-189.065
X21.482Y-189.965
X21.482Y-190.866
X21.742Y-178.708
X21.742Y-179.608
X21.742Y-180.509
X21.742Y-181.41
X21.742Y-182.31
X21.742Y-183.211
X21.742Y-184.111
X21.742Y-185.012
X21.742Y-185.913
X21.742Y-186.813
X21.742Y-187.714
X21.742Y-188.614
X21.742Y-189.515
X21.742Y-190.416
X22.002Y-179.158
X22.002Y-180.059
X22.002Y-180.959
X22.002Y-181.86
X22.002Y-182.761
X22.002Y-183.661
X22.002Y-184.562
X22.002Y-185.462
X22.002Y-186.363
X22.002Y-187.264
X22.002Y-188.164
X22.002Y-189.065
X22.002Y-189.965
X22.002Y-190.866
X22.262Y-178.708
X22.262Y-179.608
X22.262Y-180.509
X22.262Y-181.41
X22.262Y-182.31
X22.262Y-183.211
X22.262Y-184.111
X22.262Y-185.012
X22.262Y-185.913
X22.262Y-186.813
X22.262Y-187.714
X22.262Y-188.614
X22.262Y-189.515
X22.262Y-190.416
X22.522Y-179.158
X22.522Y-180.059
X22.522Y-180.959
X22.522Y-181.86
X22.522Y-182.761
X22.522Y-183.661
X22.522Y-184.562
X22.522Y-185.462
X22.522Y-186.363
X22.522Y-187.264
X22.522Y-188.164
X22.522Y-189.065
X22.522Y-189.965
X22.522Y-190.866
X22.782Y-178.708
X22.782Y-179.608
X22.782Y-180.509
X22.782Y-181.41
X22.782Y-182.31
X22.782Y-183.211
X22.782Y-184.111
X22.782Y-185.012
X22.782Y-185.913
X22.782Y-186.813
X22.782Y-187.714
X22.782Y-188.614
X22.782Y-189.515
X22.782Y-190.416
X23.042Y-179.158
X23.042Y-180.059
X23.042Y-180.959
X23.042Y-181.86
X23.042Y-182.761
X23.042Y-183.661
X23.042Y-184.562
X23.042Y-185.462
X23.042Y-186.363
X23.042Y-187.264
X23.042Y-188.164
X23.042Y-189.065
X23.042Y-189.965
X23.042Y-190.866
X23.302Y-178.708
X23.302Y-179.608
X23.302Y-180.509
X23.302Y-181.41
X23.302Y-182.31
X23.302Y-183.211
X23.302Y-184.111
X23.302Y-185.012
X23.302Y-185.913
X23.302Y-186.813
X23.302Y-187.714
X23.302Y-188.614
X23.302Y-189.515
X23.302Y-190.416
X23.562Y-179.158
X23.562Y-180.059
X23.562Y-180.959
X23.562Y-181.86
X23.562Y-182.761
X23.562Y-183.661
X23.562Y-184.562
X23.562Y-185.462
X23.562Y-186.363
X23.562Y-187.264
X23.562Y-188.164
X23.562Y-189.065
X23.562Y-189.965
X23.562Y-190.866
X23.822Y-178.708
X23.822Y-179.608
X23.822Y-180.509
X23.822Y-181.41
X23.822Y-182.31
X23.822Y-183.211
X23.822Y-184.111
X23.822Y-185.913
X23.822Y-186.813
X23.822Y-187.714
X23.822Y-188.614
X23.822Y-189.515
X23.822Y-190.416
X24.082Y-179.158
X24.082Y-180.059
X24.082Y-180.959
X24.082Y-181.86
X24.082Y-182.761
X24.082Y-183.661
X24.082Y-186.363
X24.082Y-187.264
X24.082Y-188.164
X24.082Y-189.065
X24.082Y-189.965
X24.082Y-190.866
X24.342Y-178.708
X24.342Y-179.608
X24.342Y-180.509
X24.342Y-181.41
X24.342Y-182.31
X24.342Y-183.211
X24.342Y-186.813
X24.342Y-187.714
X24.342Y-188.614
X24.342Y-189.515
X24.342Y-190.416
X24.602Y-179.158
X24.602Y-180.059
X24.602Y-180.959
X24.602Y-181.86
X24.602Y-182.761
X24.602Y-187.264
X24.602Y-188.164
X24.602Y-189.065
X24.602Y-189.965
X24.602Y-190.866
X24.862Y-178.708
X24.862Y-179.608
X24.862Y-180.509
X24.862Y-181.41
X24.862Y-182.31
X24.862Y-187.714
X24.862Y-188.614
X24.862Y-189.515
X24.862Y-190.416
X25.122Y-179.158
X25.122Y-180.059
X25.122Y-180.959
X25.122Y-181.86
X25.122Y-187.264
X25.122Y-188.164
X25.122Y-189.065
X25.122Y-189.965
X25.122Y-190.866
X25.382Y-178.708
X25.382Y-179.608
X25.382Y-180.509
X25.382Y-181.41
X25.382Y-182.31
X25.382Y-187.714
X25.382Y-188.614
X25.382Y-189.515
X25.382Y-190.416
X25.642Y-179.158
X25.642Y-180.059
X25.642Y-180.959
X25.642Y-181.86
X25.642Y-187.264
X25.642Y-188.164
X25.642Y-189.065
X25.642Y-189.965
X25.642Y-190.866
X25.902Y-178.708
X25.902Y-179.608
X25.902Y-180.509
X25.902Y-181.41
X25.902Y-182.31
X25.902Y-187.714
X25.902Y-188.614
X25.902Y-189.515
X25.902Y-190.416
X26.162Y-179.158
X26.162Y-180.059
X26.162Y-180.959
X26.162Y-181.86
X26.162Y-187.264
X26.162Y-188.164
X26.162Y-189.065
X26.162Y-189.965
X26.162Y-190.866
X26.422Y-178.708
X26.422Y-179.608
X26.422Y-180.509
X26.422Y-181.41
X26.422Y-182.31
X26.422Y-187.714
X26.422Y-188.614
X26.422Y-189.515
X26.422Y-190.416
X26.682Y-179.158
X26.682Y-180.059
X26.682Y-180.959
X26.682Y-181.86
X26.682Y-187.264
X26.682Y-188.164
X26.682Y-189.065
X26.682Y-189.965
X26.682Y-190.866
X26.942Y-178.708
X26.942Y-179.608
X26.942Y-180.509
X26.942Y-181.41
X26.942Y-182.31
X26.942Y-187.714
X26.942Y-188.614
X26.942Y-189.515
X26.942Y-190.416
X27.202Y-179.158
X27.202Y-180.059
X27.202Y-180.959
X27.202Y-181.86
X27.202Y-187.264
X27.202Y-188.164
X27.202Y-189.065
X27.202Y-189.965
X27.202Y-190.866
X27.462Y-178.708
X27.462Y-179.608
X27.462Y-180.509
X27.462Y-181.41
X27.462Y-182.31
X27.462Y-187.714
X27.462Y-188.614
X27.462Y-189.515
X27.462Y-190.416
X27.722Y-179.158
X27.722Y-180.059
X27.722Y-180.959
X27.722Y-181.86
X27.722Y-182.761
X27.722Y-187.264
X27.722Y-188.164
X27.722Y-189.065
X27.722Y-189.965
X27.722Y-190.866
X27.982Y-178.708
X27.982Y-179.608
X27.982Y-180.509
X27.982Y-181.41
X27.982Y-182.31
X27.982Y-183.211
X27.982Y-186.813
X27.982Y-187.714
X27.982Y-188.614
X27.982Y-189.515
X27.982Y-190.416
X28.242Y-179.158
X28.242Y-180.059
X28.242Y-180.959
X28.242Y-181.86
X28.242Y-182.761
X28.242Y-183.661
X28.242Y-186.363
X28.242Y-187.264
X28.242Y-188.164
X28.242Y-189.065
X28.242Y-189.965
X28.242Y-190.866
X28.502Y-178.708
X28.502Y-179.608
X28.502Y-180.509
X28.502Y-181.41
X28.502Y-182.31
X28.502Y-183.211
X28.502Y-184.111
X28.502Y-185.913
X28.502Y-186.813
X28.502Y-187.714
X28.502Y-188.614
X28.502Y-189.515
X28.502Y-190.416
X28.762Y-179.158
X28.762Y-180.059
X28.762Y-180.959
X28.762Y-181.86
X28.762Y-182.761
X28.762Y-183.661
X28.762Y-184.562
X28.762Y-185.462
X28.762Y-186.363
X28.762Y-187.264
X28.762Y-188.164
X28.762Y-189.065
X28.762Y-189.965
X28.762Y-190.866
X29.022Y-178.708
X29.022Y-179.608
X29.022Y-180.509
X29.022Y-181.41
X29.022Y-182.31
X29.022Y-183.211
X29.022Y-184.111
X29.022Y-185.012
X29.022Y-185.913
X29.022Y-186.813
X29.022Y-187.714
X29.022Y-188.614
X29.022Y-189.515
X29.022Y-190.416
X29.282Y-179.158
X29.282Y-180.059
X29.282Y-180.959
X29.282Y-181.86
X29.282Y-182.761
X29.282Y-183.661
X29.282Y-184.562
X29.282Y-185.462
X29.282Y-186.363
X29.282Y-187.264
X29.282Y-188.164
X29.282Y-189.065
X29.282Y-189.965
X29.282Y-190.866
X29.542Y-178.708
X29.542Y-179.608
X29.542Y-180.509
X29.542Y-181.41
X29.542Y-182.31
X29.542Y-183.211
X29.542Y-184.111
X29.542Y-185.012
X29.542Y-185.913
X29.542Y-186.813
X29.542Y-187.714
X29.542Y-188.614
X29.542Y-189.515
X29.542Y-190.416
X29.802Y-179.158
X29.802Y-180.059
X29.802Y-180.959
X29.802Y-181.86
X29.802Y-182.761
X29.802Y-183.661
X29.802Y-184.562
X29.802Y-185.462
X29.802Y-186.363
X29.802Y-187.264
X29.802Y-188.164
X29.802Y-189.065
X29.802Y-189.965
X29.802Y-190.866
X30.062Y-178.708
X30.062Y-179.608
X30.062Y-180.509
X30.062Y-181.41
X30.062Y-182.31
X30.062Y-183.211
X30.062Y-184.111
X30.062Y-185.012
X30.062Y-185.913
X30.062Y-186.813
X30.062Y-187.714
X30.062Y-188.614
X30.062Y-189.515
X30.062Y-190.416
X30.322Y-179.158
X30.322Y-180.059
X30.322Y-180.959
X30.322Y-181.86
X30.322Y-182.761
X30.322Y-183.661
X30.322Y-184.562
X30.322Y-185.462
X30.322Y-186.363
X30.322Y-187.264
X30.322Y-188.164
X30.322Y-189.065
X30.322Y-189.965
X30.322Y-190.866
X30.582Y-178.708
X30.582Y-179.608
X30.582Y-180.509
X30.582Y-181.41
X30.582Y-182.31
X30.582Y-183.211
X30.582Y-184.111
X30.582Y-185.012
X30.582Y-185.913
X30.582Y-186.813
X30.582Y-187.714
X30.582Y-188.614
X30.582Y-189.515
X30.582Y-190.416
X30.842Y-179.158
X30.842Y-180.059
X30.842Y-180.959
X30.842Y-181.86
X30.842Y-182.761
X30.842Y-183.661
X30.842Y-184.562
X30.842Y-185.462
X30.842Y-186.363
X30.842Y-187.264
X30.842Y-188.164
X30.842Y-189.065
X30.842Y-189.965
X30.842Y-190.866
X31.102Y-178.708
X31.102Y-179.608
X31.102Y-180.509
X31.102Y-181.41
X31.102Y-182.31
X31.102Y-183.211
X31.102Y-184.111
X31.102Y-185.012
X31.102Y-185.913
X31.102Y-186.813
X31.102Y-187.714
X31.102Y-188.614
X31.102Y-189.515
X31.102Y-190.416
X31.362Y-179.158
X31.362Y-180.059
X31.362Y-180.959
X31.362Y-181.86
X31.362Y-182.761
X31.362Y-183.661
X31.362Y-184.562
X31.362Y-185.462
X31.362Y-186.363
X31.362Y-187.264
X31.362Y-188.164
X31.362Y-189.065
X31.362Y-189.965
X31.362Y-190.866
X31.622Y-178.708
X31.622Y-179.608
X31.622Y-180.509
X31.622Y-181.41
X31.622Y-182.31
X31.622Y-183.211
X31.622Y-184.111
X31.622Y-185.012
X31.622Y-185.913
X31.622Y-186.813
X31.622Y-187.714
X31.622Y-188.614
X31.622Y-189.515
X31.622Y-190.416
X31.882Y-179.158
X31.882Y-180.059
X31.882Y-180.959
X31.882Y-181.86
X31.882Y-182.761
X31.882Y-183.661
X31.882Y-184.562
X31.882Y-185.462
X31.882Y-186.363
X31.882Y-187.264
X31.882Y-188.164
X31.882Y-189.065
X31.882Y-189.965
X31.882Y-190.866
X32.142Y-178.708
X32.142Y-179.608
X32.142Y-180.509
X32.142Y-181.41
X32.142Y-182.31
X32.142Y-183.211
X32.142Y-184.111
X32.142Y-185.012
X32.142Y-185.913
X32.142Y-186.813
X32.142Y-187.714
X32.142Y-188.614
X32.142Y-189.515
X32.142Y-190.416
X32.402Y-179.158
X32.402Y-180.059
X32.402Y-180.959
X32.402Y-181.86
X32.402Y-182.761
X32.402Y-183.661
X32.402Y-184.562
X32.402Y-185.462
X32.402Y-186.363
X32.402Y-187.264
X32.402Y-188.164
X32.402Y-189.065
X32.402Y-189.965
X32.402Y-190.866
X34.882Y-179.158
X34.882Y-180.059
X34.882Y-180.959
X34.882Y-181.86
X34.882Y-182.761
X34.882Y-183.661
X34.882Y-184.562
X34.882Y-185.462
X34.882Y-186.363
X34.882Y-187.264
X34.882Y-188.164
X34.882Y-189.065
X34.882Y-189.965
X34.882Y-190.866
X35.142Y-178.708
X35.142Y-179.608
X35.142Y-180.509
X35.142Y-181.41
X35.142Y-182.31
X35.142Y-183.211
X35.142Y-184.111
X35.142Y-185.012
X35.142Y-185.913
X35.142Y-186.813
X35.142Y-187.714
X35.142Y-188.614
X35.142Y-189.515
X35.142Y-190.416
X35.402Y-179.158
X35.402Y-180.059
X35.402Y-180.959
X35.402Y-181.86
X35.402Y-182.761
X35.402Y-183.661
X35.402Y-184.562
X35.402Y-185.462
X35.402Y-186.363
X35.402Y-187.264
X35.402Y-188.164
X35.402Y-189.065
X35.402Y-189.965
X35.402Y-190.866
X35.662Y-178.708
X35.662Y-179.608
X35.662Y-180.509
X35.662Y-181.41
X35.662Y-182.31
X35.662Y-183.211
X35.662Y-184.111
X35.662Y-185.012
X35.662Y-185.913
X35.662Y-186.813
X35.662Y-187.714
X35.662Y-188.614
X35.662Y-189.515
X35.662Y-190.416
X35.922Y-179.158
X35.922Y-180.059
X35.922Y-180.959
X35.922Y-181.86
X35.922Y-182.761
X35.922Y-183.661
X35.922Y-184.562
X35.922Y-185.462
X35.922Y-186.363
X35.922Y-187.264
X35.922Y-188.164
X35.922Y-189.065
X35.922Y-189.965
X35.922Y-190.866
X36.182Y-178.708
X36.182Y-179.608
X36.182Y-180.509
X36.182Y-181.41
X36.182Y-182.31
X36.182Y-183.211
X36.182Y-184.111
X36.182Y-185.012
X36.182Y-185.913
X36.182Y-186.813
X36.182Y-187.714
X36.182Y-188.614
X36.182Y-189.515
X36.182Y-190.416
X36.442Y-179.158
X36.442Y-180.059
X36.442Y-180.959
X36.442Y-181.86
X36.442Y-182.761
X36.442Y-183.661
X36.442Y-184.562
X36.442Y-185.462
X36.442Y-186.363
X36.442Y-187.264
X36.442Y-188.164
X36.442Y-189.065
X36.442Y-189.965
X36.442Y-190.866
X36.702Y-178.708
X36.702Y-179.608
X36.702Y-180.509
X36.702Y-181.41
X36.702Y-182.31
X36.702Y-183.211
X36.702Y-184.111
X36.702Y-185.012
X36.702Y-185.913
X36.702Y-186.813
X36.702Y-187.714
X36.702Y-188.614
X36.702Y-189.515
X36.702Y-190.416
X36.962Y-179.158
X36.962Y-180.059
X36.962Y-180.959
X36.962Y-181.86
X36.962Y-182.761
X36.962Y-183.661
X36.962Y-184.562
X36.962Y-185.462
X36.962Y-186.363
X36.962Y-187.264
X36.962Y-188.164
X36.962Y-189.065
X36.962Y-189.965
X36.962Y-190.866
X37.222Y-178.708
X37.222Y-179.608
X37.222Y-180.509
X37.222Y-181.41
X37.222Y-182.31
X37.222Y-183.211
X37.222Y-184.111
X37.222Y-185.012
X37.222Y-185.913
X37.222Y-186.813
X37.222Y-187.714
X37.222Y-188.614
X37.222Y-189.515
X37.222Y-190.416
X37.482Y-179.158
X37.482Y-180.059
X37.482Y-180.959
X37.482Y-181.86
X37.482Y-182.761
X37.482Y-183.661
X37.482Y-184.562
X37.482Y-185.462
X37.482Y-186.363
X37.482Y-187.264
X37.482Y-188.164
X37.482Y-189.065
X37.482Y-189.965
X37.482Y-190.866
X37.742Y-178.708
X37.742Y-179.608
X37.742Y-180.509
X37.742Y-181.41
X37.742Y-182.31
X37.742Y-183.211
X37.742Y-184.111
X37.742Y-185.012
X37.742Y-185.913
X37.742Y-186.813
X37.742Y-187.714
X37.742Y-188.614
X37.742Y-189.515
X37.742Y-190.416
X38.002Y-179.158
X38.002Y-180.059
X38.002Y-180.959
X38.002Y-181.86
X38.002Y-182.761
X38.002Y-183.661
X38.002Y-184.562
X38.002Y-185.462
X38.002Y-186.363
X38.002Y-187.264
X38.002Y-188.164
X38.002Y-189.065
X38.002Y-189.965
X38.002Y-190.866
X38.262Y-178.708
X38.262Y-179.608
X38.262Y-180.509
X38.262Y-181.41
X38.262Y-182.31
X38.262Y-183.211
X38.262Y-184.111
X38.262Y-185.012
X38.262Y-185.913
X38.262Y-186.813
X38.262Y-187.714
X38.262Y-188.614
X38.262Y-189.515
X38.262Y-190.416
X38.522Y-179.158
X38.522Y-180.059
X38.522Y-180.959
X38.522Y-181.86
X38.522Y-182.761
X38.522Y-183.661
X38.522Y-184.562
X38.522Y-185.462
X38.522Y-186.363
X38.522Y-187.264
X38.522Y-188.164
X38.522Y-189.065
X38.522Y-189.965
X38.522Y-190.866
X38.782Y-178.708
X38.782Y-179.608
X38.782Y-180.509
X38.782Y-181.41
X38.782Y-182.31
X38.782Y-183.211
X38.782Y-184.111
X38.782Y-185.913
X38.782Y-186.813
X38.782Y-187.714
X38.782Y-188.614
X38.782Y-189.515
X38.782Y-190.416
X39.042Y-179.158
X39.042Y-180.059
X39.042Y-180.959
X39.042Y-181.86
X39.042Y-182.761
X39.042Y-183.661
X39.042Y-186.363
X39.042Y-187.264
X39.042Y-188.164
X39.042Y-189.065
X39.042Y-189.965
X39.042Y-190.866
X39.302Y-178.708
X39.302Y-179.608
X39.302Y-180.509
X39.302Y-181.41
X39.302Y-182.31
X39.302Y-183.211
X39.302Y-186.813
X39.302Y-187.714
X39.302Y-188.614
X39.302Y-189.515
X39.302Y-190.416
X39.562Y-179.158
X39.562Y-180.059
X39.562Y-180.959
X39.562Y-181.86
X39.562Y-182.761
X39.562Y-187.264
X39.562Y-188.164
X39.562Y-189.065
X39.562Y-189.965
X39.562Y-190.866
X39.822Y-178.708
X39.822Y-179.608
X39.822Y-180.509
X39.822Y-181.41
X39.822Y-182.31
X39.822Y-187.714
X39.822Y-188.614
X39.822Y-189.515
X39.822Y-190.416
X40.082Y-179.158
X40.082Y-180.059
X40.082Y-180.959
X40.082Y-181.86
X40.082Y-187.264
X40.082Y-188.164
X40.082Y-189.065
X40.082Y-189.965
X40.082Y-190.866
X40.342Y-178.708
X40.342Y-179.608
X40.342Y-180.509
X40.342Y-181.41
X40.342Y-182.31
X40.342Y-187.714
X40.342Y-188.614
X40.342Y-189.515
X40.342Y-190.416
X40.602Y-179.158
X40.602Y-180.059
X40.602Y-180.959
X40.602Y-181.86
X40.602Y-187.264
X40.602Y-188.164
X40.602Y-189.065
X40.602Y-189.965
X40.602Y-190.866
X40.862Y-178.708
X40.862Y-179.608
X40.862Y-180.509
X40.862Y-181.41
X40.862Y-182.31
X40.862Y-187.714
X40.862Y-188.614
X40.862Y-189.515
X40.862Y-190.416
X41.122Y-179.158
X41.122Y-180.059
X41.122Y-180.959
X41.122Y-181.86
X41.122Y-187.264
X41.122Y-188.164
X41.122Y-189.065
X41.122Y-189.965
X41.122Y-190.866
X41.382Y-178.708
X41.382Y-179.608
X41.382Y-180.509
X41.382Y-181.41
X41.382Y-182.31
X41.382Y-187.714
X41.382Y-188.614
X41.382Y-189.515
X41.382Y-190.416
X41.642Y-179.158
X41.642Y-180.059
X41.642Y-180.959
X41.642Y-181.86
X41.642Y-187.264
X41.642Y-188.164
X41.642Y-189.065
X41.642Y-189.965
X41.642Y-190.866
X41.902Y-178.708
X41.902Y-179.608
X41.902Y-180.509
X41.902Y-181.41
X41.902Y-182.31
X41.902Y-187.714
X41.902Y-188.614
X41.902Y-189.515
X41.902Y-190.416
X42.162Y-179.158
X42.162Y-180.059
X42.162Y-180.959
X42.162Y-181.86
X42.162Y-187.264
X42.162Y-188.164
X42.162Y-189.065
X42.162Y-189.965
X42.162Y-190.866
X42.422Y-178.708
X42.422Y-179.608
X42.422Y-180.509
X42.422Y-181.41
X42.422Y-182.31
X42.422Y-187.714
X42.422Y-188.614
X42.422Y-189.515
X42.422Y-190.416
X42.682Y-179.158
X42.682Y-180.059
X42.682Y-180.959
X42.682Y-181.86
X42.682Y-182.761
X42.682Y-187.264
X42.682Y-188.164
X42.682Y-189.065
X42.682Y-189.965
X42.682Y-190.866
X42.942Y-178.708
X42.942Y-179.608
X42.942Y-180.509
X42.942Y-181.41
X42.942Y-182.31
X42.942Y-183.211
X42.942Y-186.813
X42.942Y-187.714
X42.942Y-188.614
X42.942Y-189.515
X42.942Y-190.416
X43.202Y-179.158
X43.202Y-180.059
X43.202Y-180.959
X43.202Y-181.86
X43.202Y-182.761
X43.202Y-183.661
X43.202Y-186.363
X43.202Y-187.264
X43.202Y-188.164
X43.202Y-189.065
X43.202Y-189.965
X43.202Y-190.866
X43.462Y-178.708
X43.462Y-179.608
X43.462Y-180.509
X43.462Y-181.41
X43.462Y-182.31
X43.462Y-183.211
X43.462Y-184.111
X43.462Y-185.913
X43.462Y-186.813
X43.462Y-187.714
X43.462Y-188.614
X43.462Y-189.515
X43.462Y-190.416
X43.722Y-179.158
X43.722Y-180.059
X43.722Y-180.959
X43.722Y-181.86
X43.722Y-182.761
X43.722Y-183.661
X43.722Y-184.562
X43.722Y-185.462
X43.722Y-186.363
X43.722Y-187.264
X43.722Y-188.164
X43.722Y-189.065
X43.722Y-189.965
X43.722Y-190.866
X43.982Y-178.708
X43.982Y-179.608
X43.982Y-180.509
X43.982Y-181.41
X43.982Y-182.31
X43.982Y-183.211
X43.982Y-184.111
X43.982Y-185.012
X43.982Y-185.913
X43.982Y-186.813
X43.982Y-187.714
X43.982Y-188.614
X43.982Y-189.515
X43.982Y-190.416
X44.242Y-179.158
X44.242Y-180.059
X44.242Y-180.959
X44.242Y-181.86
X44.242Y-182.761
X44.242Y-183.661
X44.242Y-184.562
X44.242Y-185.462
X44.242Y-186.363
X44.242Y-187.264
X44.242Y-188.164
X44.242Y-189.065
X44.242Y-189.965
X44.242Y-190.866
X44.502Y-178.708
X44.502Y-179.608
X44.502Y-180.509
X44.502Y-181.41
X44.502Y-182.31
X44.502Y-183.211
X44.502Y-184.111
X44.502Y-185.012
X44.502Y-185.913
X44.502Y-186.813
X44.502Y-187.714
X44.502Y-188.614
X44.502Y-189.515
X44.502Y-190.416
X44.762Y-179.158
X44.762Y-180.059
X44.762Y-180.959
X44.762Y-181.86
X44.762Y-182.761
X44.762Y-183.661
X44.762Y-184.562
X44.762Y-185.462
X44.762Y-186.363
X44.762Y-187.264
X44.762Y-188.164
X44.762Y-189.065
X44.762Y-189.965
X44.762Y-190.866
X45.022Y-178.708
X45.022Y-179.608
X45.022Y-180.509
X45.022Y-181.41
X45.022Y-182.31
X45.022Y-183.211
X45.022Y-184.111
X45.022Y-185.012
X45.022Y-185.913
X45.022Y-186.813
X45.022Y-187.714
X45.022Y-188.614
X45.022Y-189.515
X45.022Y-190.416
X45.282Y-179.158
X45.282Y-180.059
X45.282Y-180.959
X45.282Y-181.86
X45.282Y-182.761
X45.282Y-183.661
X45.282Y-184.562
X45.282Y-185.462
X45.282Y-186.363
X45.282Y-187.264
X45.282Y-188.164
X45.282Y-189.065
X45.282Y-189.965
X45.282Y-190.866
X45.542Y-178.708
X45.542Y-179.608
X45.542Y-180.509
X45.542Y-181.41
X45.542Y-182.31
X45.542Y-183.211
X45.542Y-184.111
X45.542Y-185.012
X45.542Y-185.913
X45.542Y-186.813
X45.542Y-187.714
X45.542Y-188.614
X45.542Y-189.515
X45.542Y-190.416
X45.802Y-179.158
X45.802Y-180.059
X45.802Y-180.959
X45.802Y-181.86
X45.802Y-182.761
X45.802Y-183.661
X45.802Y-184.562
X45.802Y-185.462
X45.802Y-186.363
X45.802Y-187.264
X45.802Y-188.164
X45.802Y-189.065
X45.802Y-189.965
X45.802Y-190.866
X46.062Y-178.708
X46.062Y-179.608
X46.062Y-180.509
X46.062Y-181.41
X46.062Y-182.31
X46.062Y-183.211
X46.062Y-184.111
X46.062Y-185.012
X46.062Y-185.913
X46.062Y-186.813
X46.062Y-187.714
X46.062Y-188.614
X46.062Y-189.515
X46.062Y-190.416
X46.322Y-179.158
X46.322Y-180.059
X46.322Y-180.959
X46.322Y-181.86
X46.322Y-182.761
X46.322Y-183.661
X46.322Y-184.562
X46.322Y-185.462
X46.322Y-186.363
X46.322Y-187.264
X46.322Y-188.164
X46.322Y-189.065
X46.322Y-189.965
X46.322Y-190.866
X46.582Y-178.708
X46.582Y-179.608
X46.582Y-180.509
X46.582Y-181.41
X46.582Y-182.31
X46.582Y-183.211
X46.582Y-184.111
X46.582Y-185.012
X46.582Y-185.913
X46.582Y-186.813
X46.582Y-187.714
X46.582Y-188.614
X46.582Y-189.515
X46.582Y-190.416
X46.842Y-179.158
X46.842Y-180.059
X46.842Y-180.959
X46.842Y-181.86
X46.842Y-182.761
X46.842Y-183.661
X46.842Y-184.562
X46.842Y-185.462
X46.842Y-186.363
X46.842Y-187.264
X46.842Y-188.164
X46.842Y-189.065
X46.842Y-189.965
X46.842Y-190.866
X47.102Y-178.708
X47.102Y-179.608
X47.102Y-180.509
X47.102Y-181.41
X47.102Y-182.31
X47.102Y-183.211
X47.102Y-184.111
X47.102Y-185.012
X47.102Y-185.913
X47.102Y-186.813
X47.102Y-187.714
X47.102Y-188.614
X47.102Y-189.515
X47.102Y-190.416
X47.362Y-179.158
X47.362Y-180.059
X47.362Y-180.959
X47.362Y-181.86
X47.362Y-182.761
X47.362Y-183.661
X47.362Y-184.562
X47.362Y-185.462
X47.362Y-186.363
X47.362Y-187.264
X47.362Y-188.164
X47.362Y-189.065
X47.362Y-189.965
X47.362Y-190.866
X49.821Y-179.158
X49.821Y-180.059
X49.821Y-180.959
X49.821Y-181.86
X49.821Y-182.761
X49.821Y-183.661
X49.821Y-184.562
X49.821Y-185.462
X49.821Y-186.363
X49.821Y-187.264
X49.821Y-188.164
X49.821Y-189.065
X49.821Y-189.965
X49.821Y-190.866
X50.081Y-178.708
X50.081Y-179.608
X50.081Y-180.509
X50.081Y-181.41
X50.081Y-182.31
X50.081Y-183.211
X50.081Y-184.111
X50.081Y-185.012
X50.081Y-185.913
X50.081Y-186.813
X50.081Y-187.714
X50.081Y-188.614
X50.081Y-189.515
X50.081Y-190.416
X50.341Y-179.158
X50.341Y-180.059
X50.341Y-180.959
X50.341Y-181.86
X50.341Y-182.761
X50.341Y-183.661
X50.341Y-184.562
X50.341Y-185.462
X50.341Y-186.363
X50.341Y-187.264
X50.341Y-188.164
X50.341Y-189.065
X50.341Y-189.965
X50.341Y-190.866
X50.601Y-178.708
X50.601Y-179.608
X50.601Y-180.509
X50.601Y-181.41
X50.601Y-182.31
X50.601Y-183.211
X50.601Y-184.111
X50.601Y-185.012
X50.601Y-185.913
X50.601Y-186.813
X50.601Y-187.714
X50.601Y-188.614
X50.601Y-189.515
X50.601Y-190.416
X50.861Y-179.158
X50.861Y-180.059
X50.861Y-180.959
X50.861Y-181.86
X50.861Y-182.761
X50.861Y-183.661
X50.861Y-184.562
X50.861Y-185.462
X50.861Y-186.363
X50.861Y-187.264
X50.861Y-188.164
X50.861Y-189.065
X50.861Y-189.965
X50.861Y-190.866
X51.121Y-178.708
X51.121Y-179.608
X51.121Y-180.509
X51.121Y-181.41
X51.121Y-182.31
X51.121Y-183.211
X51.121Y-184.111
X51.121Y-185.012
X51.121Y-185.913
X51.121Y-186.813
X51.121Y-187.714
X51.121Y-188.614
X51.121Y-189.515
X51.121Y-190.416
X51.381Y-179.158
X51.381Y-180.059
X51.381Y-180.959
X51.381Y-181.86
X51.381Y-182.761
X51.381Y-183.661
X51.381Y-184.562
X51.381Y-185.462
X51.381Y-186.363
X51.381Y-187.264
X51.381Y-188.164
X51.381Y-189.065
X51.381Y-189.965
X51.381Y-190.866
X51.641Y-178.708
X51.641Y-179.608
X51.641Y-180.509
X51.641Y-181.41
X51.641Y-182.31
X51.641Y-183.211
X51.641Y-184.111
X51.641Y-185.012
X51.641Y-185.913
X51.641Y-186.813
X51.641Y-187.714
X51.641Y-188.614
X51.641Y-189.515
X51.641Y-190.416
X51.901Y-179.158
X51.901Y-180.059
X51.901Y-180.959
X51.901Y-181.86
X51.901Y-182.761
X51.901Y-183.661
X51.901Y-184.562
X51.901Y-185.462
X51.901Y-186.363
X51.901Y-187.264
X51.901Y-188.164
X51.901Y-189.065
X51.901Y-189.965
X51.901Y-190.866
X52.161Y-178.708
X52.161Y-179.608
X52.161Y-180.509
X52.161Y-181.41
X52.161Y-182.31
X52.161Y-183.211
X52.161Y-184.111
X52.161Y-185.012
X52.161Y-185.913
X52.161Y-186.813
X52.161Y-187.714
X52.161Y-188.614
X52.161Y-189.515
X52.161Y-190.416
X52.421Y-179.158
X52.421Y-180.059
X52.421Y-180.959
X52.421Y-181.86
X52.421Y-182.761
X52.421Y-183.661
X52.421Y-184.562
X52.421Y-185.462
X52.421Y-186.363
X52.421Y-187.264
X52.421Y-188.164
X52.421Y-189.065
X52.421Y-189.965
X52.421Y-190.866
X52.681Y-178.708
X52.681Y-179.608
X52.681Y-180.509
X52.681Y-181.41
X52.681Y-182.31
X52.681Y-183.211
X52.681Y-184.111
X52.681Y-185.012
X52.681Y-185.913
X52.681Y-186.813
X52.681Y-187.714
X52.681Y-188.614
X52.681Y-189.515
X52.681Y-190.416
X52.941Y-179.158
X52.941Y-180.059
X52.941Y-180.959
X52.941Y-181.86
X52.941Y-182.761
X52.941Y-183.661
X52.941Y-184.562
X52.941Y-185.462
X52.941Y-186.363
X52.941Y-187.264
X52.941Y-188.164
X52.941Y-189.065
X52.941Y-189.965
X52.941Y-190.866
X53.201Y-178.708
X53.201Y-179.608
X53.201Y-180.509
X53.201Y-181.41
X53.201Y-182.31
X53.201Y-183.211
X53.201Y-184.111
X53.201Y-185.012
X53.201Y-185.913
X53.201Y-186.813
X53.201Y-187.714
X53.201Y-188.614
X53.201Y-189.515
X53.201Y-190.416
X53.461Y-179.158
X53.461Y-180.059
X53.461Y-180.959
X53.461Y-181.86
X53.461Y-182.761
X53.461Y-183.661
X53.461Y-184.562
X53.461Y-185.462
X53.461Y-186.363
X53.461Y-187.264
X53.461Y-188.164
X53.461Y-189.065
X53.461Y-189.965
X53.461Y-190.866
X53.721Y-178.708
X53.721Y-179.608
X53.721Y-180.509
X53.721Y-181.41
X53.721Y-182.31
X53.721Y-183.211
X53.721Y-184.111
X53.721Y-185.913
X53.721Y-186.813
X53.721Y-187.714
X53.721Y-188.614
X53.721Y-189.515
X53.721Y-190.416
X53.981Y-179.158
X53.981Y-180.059
X53.981Y-180.959
X53.981Y-181.86
X53.981Y-182.761
X53.981Y-183.661
X53.981Y-186.363
X53.981Y-187.264
X53.981Y-188.164
X53.981Y-189.065
X53.981Y-189.965
X53.981Y-190.866
X54.241Y-178.708
X54.241Y-179.608
X54.241Y-180.509
X54.241Y-181.41
X54.241Y-182.31
X54.241Y-183.211
X54.241Y-186.813
X54.241Y-187.714
X54.241Y-188.614
X54.241Y-189.515
X54.241Y-190.416
X54.501Y-179.158
X54.501Y-180.059
X54.501Y-180.959
X54.501Y-181.86
X54.501Y-182.761
X54.501Y-187.264
X54.501Y-188.164
X54.501Y-189.065
X54.501Y-189.965
X54.501Y-190.866
X54.761Y-178.708
X54.761Y-179.608
X54.761Y-180.509
X54.761Y-181.41
X54.761Y-182.31
X54.761Y-187.714
X54.761Y-188.614
X54.761Y-189.515
X54.761Y-190.416
X55.021Y-179.158
X55.021Y-180.059
X55.021Y-180.959
X55.021Y-181.86
X55.021Y-187.264
X55.021Y-188.164
X55.021Y-189.065
X55.021Y-189.965
X55.021Y-190.866
X55.281Y-178.708
X55.281Y-179.608
X55.281Y-180.509
X55.281Y-181.41
X55.281Y-182.31
X55.281Y-187.714
X55.281Y-188.614
X55.281Y-189.515
X55.281Y-190.416
X55.541Y-179.158
X55.541Y-180.059
X55.541Y-180.959
X55.541Y-181.86
X55.541Y-187.264
X55.541Y-188.164
X55.541Y-189.065
X55.541Y-189.965
X55.541Y-190.866
X55.801Y-178.708
X55.801Y-179.608
X55.801Y-180.509
X55.801Y-181.41
X55.801Y-182.31
X55.801Y-187.714
X55.801Y-188.614
X55.801Y-189.515
X55.801Y-190.416
X56.061Y-179.158
X56.061Y-180.059
X56.061Y-180.959
X56.061Y-181.86
X56.061Y-187.264
X56.061Y-188.164
X56.061Y-189.065
X56.061Y-189.965
X56.061Y-190.866
X56.321Y-178.708
X56.321Y-179.608
X56.321Y-180.509
X56.321Y-181.41
X56.321Y-182.31
X56.321Y-187.714
X56.321Y-188.614
X56.321Y-189.515
X56.321Y-190.416
X56.581Y-179.158
X56.581Y-180.059
X56.581Y-180.959
X56.581Y-181.86
X56.581Y-187.264
X56.581Y-188.164
X56.581Y-189.065
X56.581Y-189.965
X56.581Y-190.866
X56.841Y-178.708
X56.841Y-179.608
X56.841Y-180.509
X56.841Y-181.41
X56.841Y-182.31
X56.841Y-187.714
X56.841Y-188.614
X56.841Y-189.515
X56.841Y-190.416
X57.101Y-179.158
X57.101Y-180.059
X57.101Y-180.959
X57.101Y-181.86
X57.101Y-187.264
X57.101Y-188.164
X57.101Y-189.065
X57.101Y-189.965
X57.101Y-190.866
X57.361Y-178.708
X57.361Y-179.608
X57.361Y-180.509
X57.361Y-181.41
X57.361Y-182.31
X57.361Y-187.714
X57.361Y-188.614
X57.361Y-189.515
X57.361Y-190.416
X57.621Y-179.158
X57.621Y-180.059
X57.621Y-180.959
X57.621Y-181.86
X57.621Y-182.761
X57.621Y-187.264
X57.621Y-188.164
X57.621Y-189.065
X57.621Y-189.965
X57.621Y-190.866
X57.881Y-178.708
X57.881Y-179.608
X57.881Y-180.509
X57.881Y-181.41
X57.881Y-182.31
X57.881Y-183.211
X57.881Y-186.813
X57.881Y-187.714
X57.881Y-188.614
X57.881Y-189.515
X57.881Y-190.416
X58.141Y-179.158
X58.141Y-180.059
X58.141Y-180.959
X58.141Y-181.86
X58.141Y-182.761
X58.141Y-183.661
X58.141Y-186.363
X58.141Y-187.264
X58.141Y-188.164
X58.141Y-189.065
X58.141Y-189.965
X58.141Y-190.866
X58.401Y-178.708
X58.401Y-179.608
X58.401Y-180.509
X58.401Y-181.41
X58.401Y-182.31
X58.401Y-183.211
X58.401Y-184.111
X58.401Y-185.913
X58.401Y-186.813
X58.401Y-187.714
X58.401Y-188.614
X58.401Y-189.515
X58.401Y-190.416
X58.661Y-179.158
X58.661Y-180.059
X58.661Y-180.959
X58.661Y-181.86
X58.661Y-182.761
X58.661Y-183.661
X58.661Y-184.562
X58.661Y-185.462
X58.661Y-186.363
X58.661Y-187.264
X58.661Y-188.164
X58.661Y-189.065
X58.661Y-189.965
X58.661Y-190.866
X58.921Y-178.708
X58.921Y-179.608
X58.921Y-180.509
X58.921Y-181.41
X58.921Y-182.31
X58.921Y-183.211
X58.921Y-184.111
X58.921Y-185.012
X58.921Y-185.913
X58.921Y-186.813
X58.921Y-187.714
X58.921Y-188.614
X58.921Y-189.515
X58.921Y-190.416
X59.181Y-179.158
X59.181Y-180.059
X59.181Y-180.959
X59.181Y-181.86
X59.181Y-182.761
X59.181Y-183.661
X59.181Y-184.562
X59.181Y-185.462
X59.181Y-186.363
X59.181Y-187.264
X59.181Y-188.164
X59.181Y-189.065
X59.181Y-189.965
X59.181Y-190.866
X59.441Y-178.708
X59.441Y-179.608
X59.441Y-180.509
X59.441Y-181.41
X59.441Y-182.31
X59.441Y-183.211
X59.441Y-184.111
X59.441Y-185.012
X59.441Y-185.913
X59.441Y-186.813
X59.441Y-187.714
X59.441Y-188.614
X59.441Y-189.515
X59.441Y-190.416
X59.701Y-179.158
X59.701Y-180.059
X59.701Y-180.959
X59.701Y-181.86
X59.701Y-182.761
X59.701Y-183.661
X59.701Y-184.562
X59.701Y-185.462
X59.701Y-186.363
X59.701Y-187.264
X59.701Y-188.164
X59.701Y-189.065
X59.701Y-189.965
X59.701Y-190.866
X59.961Y-178.708
X59.961Y-179.608
X59.961Y-180.509
X59.961Y-181.41
X59.961Y-182.31
X59.961Y-183.211
X59.961Y-184.111
X59.961Y-185.012
X59.961Y-185.913
X59.961Y-186.813
X59.961Y-187.714
X59.961Y-188.614
X59.961Y-189.515
X59.961Y-190.416
X60.221Y-179.158
X60.221Y-180.059
X60.221Y-180.959
X60.221Y-181.86
X60.221Y-182.761
X60.221Y-183.661
X60.221Y-184.562
X60.221Y-185.462
X60.221Y-186.363
X60.221Y-187.264
X60.221Y-188.164
X60.221Y-189.065
X60.221Y-189.965
X60.221Y-190.866
X60.481Y-178.708
X60.481Y-179.608
X60.481Y-180.509
X60.481Y-181.41
X60.481Y-182.31
X60.481Y-183.211
X60.481Y-184.111
X60.481Y-185.012
X60.481Y-185.913
X60.481Y-186.813
X60.481Y-187.714
X60.481Y-188.614
X60.481Y-189.515
X60.481Y-190.416
X60.741Y-179.158
X60.741Y-180.059
X60.741Y-180.959
X60.741Y-181.86
X60.741Y-182.761
X60.741Y-183.661
X60.741Y-184.562
X60.741Y-185.462
X60.741Y-186.363
X60.741Y-187.264
X60.741Y-188.164
X60.741Y-189.065
X60.741Y-189.965
X60.741Y-190.866
X61.001Y-178.708
X61.001Y-179.608
X61.001Y-180.509
X61.001Y-181.41
X61.001Y-182.31
X61.001Y-183.211
X61.001Y-184.111
X61.001Y-185.012
X61.001Y-185.913
X61.001Y-186.813
X61.001Y-187.714
X61.001Y-188.614
X61.001Y-189.515
X61.001Y-190.416
X61.261Y-179.158
X61.261Y-180.059
X61.261Y-180.959
X61.261Y-181.86
X61.261Y-182.761
X61.261Y-183.661
X61.261Y-184.562
X61.261Y-185.462
X61.261Y-186.363
X61.261Y-187.264
X61.261Y-188.164
X61.261Y-189.065
X61.261Y-189.965
X61.261Y-190.866
X61.521Y-178.708
X61.521Y-179.608
X61.521Y-180.509
X61.521Y-181.41
X61.521Y-182.31
X61.521Y-183.211
X61.521Y-184.111
X61.521Y-185.012
X61.521Y-185.913
X61.521Y-186.813
X61.521Y-187.714
X61.521Y-188.614
X61.521Y-189.515
X61.521Y-190.416
X61.781Y-179.158
X61.781Y-180.059
X61.781Y-180.959
X61.781Y-181.86
X61.781Y-182.761
X61.781Y-183.661
X61.781Y-184.562
X61.781Y-185.462
X61.781Y-186.363
X61.781Y-187.264
X61.781Y-188.164
X61.781Y-189.065
X61.781Y-189.965
X61.781Y-190.866
X62.041Y-178.708
X62.041Y-179.608
X62.041Y-180.509
X62.041Y-181.41
X62.041Y-182.31
X62.041Y-183.211
X62.041Y-184.111
X62.041Y-185.012
X62.041Y-185.913
X62.041Y-186.813
X62.041Y-187.714
X62.041Y-188.614
X62.041Y-189.515
X62.041Y-190.416
X62.301Y-179.158
X62.301Y-180.059
X62.301Y-180.959
X62.301Y-181.86
X62.301Y-182.761
X62.301Y-183.661
X62.301Y-184.562
X62.301Y-185.462
X62.301Y-186.363
X62.301Y-187.264
X62.301Y-188.164
X62.301Y-189.065
X62.301Y-189.965
X62.301Y-190.866
X64.88Y-179.158
X64.88Y-180.059
X64.88Y-180.959
X64.88Y-181.86
X64.88Y-182.761
X64.88Y-183.661
X64.88Y-184.562
X64.88Y-185.462
X64.88Y-186.363
X64.88Y-187.264
X64.88Y-188.164
X64.88Y-189.065
X64.88Y-189.965
X64.88Y-190.866
X65.14Y-178.708
X65.14Y-179.608
X65.14Y-180.509
X65.14Y-181.41
X65.14Y-182.31
X65.14Y-183.211
X65.14Y-184.111
X65.14Y-185.012
X65.14Y-185.913
X65.14Y-186.813
X65.14Y-187.714
X65.14Y-188.614
X65.14Y-189.515
X65.14Y-190.416
X65.4Y-179.158
X65.4Y-180.059
X65.4Y-180.959
X65.4Y-181.86
X65.4Y-182.761
X65.4Y-183.661
X65.4Y-184.562
X65.4Y-185.462
X65.4Y-186.363
X65.4Y-187.264
X65.4Y-188.164
X65.4Y-189.065
X65.4Y-189.965
X65.4Y-190.866
X65.66Y-178.708
X65.66Y-179.608
X65.66Y-180.509
X65.66Y-181.41
X65.66Y-182.31
X65.66Y-183.211
X65.66Y-184.111
X65.66Y-185.012
X65.66Y-185.913
X65.66Y-186.813
X65.66Y-187.714
X65.66Y-188.614
X65.66Y-189.515
X65.66Y-190.416
X65.92Y-179.158
X65.92Y-180.059
X65.92Y-180.959
X65.92Y-181.86
X65.92Y-182.761
X65.92Y-183.661
X65.92Y-184.562
X65.92Y-185.462
X65.92Y-186.363
X65.92Y-187.264
X65.92Y-188.164
X65.92Y-189.065
X65.92Y-189.965
X65.92Y-190.866
X66.18Y-178.708
X66.18Y-179.608
X66.18Y-180.509
X66.18Y-181.41
X66.18Y-182.31
X66.18Y-183.211
X66.18Y-184.111
X66.18Y-185.012
X66.18Y-185.913
X66.18Y-186.813
X66.18Y-187.714
X66.18Y-188.614
X66.18Y-189.515
X66.18Y-190.416
X66.44Y-179.158
X66.44Y-180.059
X66.44Y-180.959
X66.44Y-181.86
X66.44Y-182.761
X66.44Y-183.661
X66.44Y-184.562
X66.44Y-185.462
X66.44Y-186.363
X66.44Y-187.264
X66.44Y-188.164
X66.44Y-189.065
X66.44Y-189.965
X66.44Y-190.866
X66.7Y-178.708
X66.7Y-179.608
X66.7Y-180.509
X66.7Y-181.41
X66.7Y-182.31
X66.7Y-183.211
X66.7Y-184.111
X66.7Y-185.012
X66.7Y-185.913
X66.7Y-186.813
X66.7Y-187.714
X66.7Y-188.614
X66.7Y-189.515
X66.7Y-190.416
X66.96Y-179.158
X66.96Y-180.059
X66.96Y-180.959
X66.96Y-181.86
X66.96Y-182.761
X66.96Y-183.661
X66.96Y-184.562
X66.96Y-185.462
X66.96Y-186.363
X66.96Y-187.264
X66.96Y-188.164
X66.96Y-189.065
X66.96Y-189.965
X66.96Y-190.866
X67.22Y-178.708
X67.22Y-179.608
X67.22Y-180.509
X67.22Y-181.41
X67.22Y-182.31
X67.22Y-183.211
X67.22Y-184.111
X67.22Y-185.012
X67.22Y-185.913
X67.22Y-186.813
X67.22Y-187.714
X67.22Y-188.614
X67.22Y-189.515
X67.22Y-190.416
X67.48Y-179.158
X67.48Y-180.059
X67.48Y-180.959
X67.48Y-181.86
X67.48Y-182.761
X67.48Y-183.661
X67.48Y-184.562
X67.48Y-185.462
X67.48Y-186.363
X67.48Y-187.264
X67.48Y-188.164
X67.48Y-189.065
X67.48Y-189.965
X67.48Y-190.866
X67.74Y-178.708
X67.74Y-179.608
X67.74Y-180.509
X67.74Y-181.41
X67.74Y-182.31
X67.74Y-183.211
X67.74Y-184.111
X67.74Y-185.012
X67.74Y-185.913
X67.74Y-186.813
X67.74Y-187.714
X67.74Y-188.614
X67.74Y-189.515
X67.74Y-190.416
X68.0Y-179.158
X68.0Y-180.059
X68.0Y-180.959
X68.0Y-181.86
X68.0Y-182.761
X68.0Y-183.661
X68.0Y-184.562
X68.0Y-185.462
X68.0Y-186.363
X68.0Y-187.264
X68.0Y-188.164
X68.0Y-189.065
X68.0Y-189.965
X68.0Y-190.866
X68.26Y-178.708
X68.26Y-179.608
X68.26Y-180.509
X68.26Y-181.41
X68.26Y-182.31
X68.26Y-183.211
X68.26Y-184.111
X68.26Y-185.012
X68.26Y-185.913
X68.26Y-186.813
X68.26Y-187.714
X68.26Y-188.614
X68.26Y-189.515
X68.26Y-190.416
X68.52Y-179.158
X68.52Y-180.059
X68.52Y-180.959
X68.52Y-181.86
X68.52Y-182.761
X68.52Y-183.661
X68.52Y-184.562
X68.52Y-185.462
X68.52Y-186.363
X68.52Y-187.264
X68.52Y-188.164
X68.52Y-189.065
X68.52Y-189.965
X68.52Y-190.866
X68.78Y-178.708
X68.78Y-179.608
X68.78Y-180.509
X68.78Y-181.41
X68.78Y-182.31
X68.78Y-183.211
X68.78Y-184.111
X68.78Y-185.913
X68.78Y-186.813
X68.78Y-187.714
X68.78Y-188.614
X68.78Y-189.515
X68.78Y-190.416
X69.04Y-179.158
X69.04Y-180.059
X69.04Y-180.959
X69.04Y-181.86
X69.04Y-182.761
X69.04Y-183.661
X69.04Y-186.363
X69.04Y-187.264
X69.04Y-188.164
X69.04Y-189.065
X69.04Y-189.965
X69.04Y-190.866
X69.3Y-178.708
X69.3Y-179.608
X69.3Y-180.509
X69.3Y-181.41
X69.3Y-182.31
X69.3Y-183.211
X69.3Y-186.813
X69.3Y-187.714
X69.3Y-188.614
X69.3Y-189.515
X69.3Y-190.416
X69.56Y-179.158
X69.56Y-180.059
X69.56Y-180.959
X69.56Y-181.86
X69.56Y-182.761
X69.56Y-187.264
X69.56Y-188.164
X69.56Y-189.065
X69.56Y-189.965
X69.56Y-190.866
X69.82Y-178.708
X69.82Y-179.608
X69.82Y-180.509
X69.82Y-181.41
X69.82Y-182.31
X69.82Y-187.714
X69.82Y-188.614
X69.82Y-189.515
X69.82Y-190.416
X70.08Y-179.158
X70.08Y-180.059
X70.08Y-180.959
X70.08Y-181.86
X70.08Y-187.264
X70.08Y-188.164
X70.08Y-189.065
X70.08Y-189.965
X70.08Y-190.866
X70.34Y-178.708
X70.34Y-179.608
X70.34Y-180.509
X70.34Y-181.41
X70.34Y-182.31
X70.34Y-187.714
X70.34Y-188.614
X70.34Y-189.515
X70.34Y-190.416
X70.6Y-179.158
X70.6Y-180.059
X70.6Y-180.959
X70.6Y-181.86
X70.6Y-187.264
X70.6Y-188.164
X70.6Y-189.065
X70.6Y-189.965
X70.6Y-190.866
X70.86Y-178.708
X70.86Y-179.608
X70.86Y-180.509
X70.86Y-181.41
X70.86Y-182.31
X70.86Y-187.714
X70.86Y-188.614
X70.86Y-189.515
X70.86Y-190.416
X71.12Y-179.158
X71.12Y-180.059
X71.12Y-180.959
X71.12Y-181.86
X71.12Y-187.264
X71.12Y-188.164
X71.12Y-189.065
X71.12Y-189.965
X71.12Y-190.866
X71.38Y-178.708
X71.38Y-179.608
X71.38Y-180.509
X71.38Y-181.41
X71.38Y-182.31
X71.38Y-187.714
X71.38Y-188.614
X71.38Y-189.515
X71.38Y-190.416
X71.64Y-179.158
X71.64Y-180.059
X71.64Y-180.959
X71.64Y-181.86
X71.64Y-187.264
X71.64Y-188.164
X71.64Y-189.065
X71.64Y-189.965
X71.64Y-190.866
X71.9Y-178.708
X71.9Y-179.608
X71.9Y-180.509
X71.9Y-181.41
X71.9Y-182.31
X71.9Y-187.714
X71.9Y-188.614
X71.9Y-189.515
X71.9Y-190.416
X72.16Y-179.158
X72.16Y-180.059
X72.16Y-180.959
X72.16Y-181.86
X72.16Y-187.264
X72.16Y-188.164
X72.16Y-189.065
X72.16Y-189.965
X72.16Y-190.866
X72.42Y-178.708
X72.42Y-179.608
X72.42Y-180.509
X72.42Y-181.41
X72.42Y-182.31
X72.42Y-187.714
X72.42Y-188.614
X72.42Y-189.515
X72.42Y-190.416
X72.68Y-179.158
X72.68Y-180.059
X72.68Y-180.959
X72.68Y-181.86
X72.68Y-182.761
X72.68Y-187.264
X72.68Y-188.164
X72.68Y-189.065
X72.68Y-189.965
X72.68Y-190.866
X72.94Y-178.708
X72.94Y-179.608
X72.94Y-180.509
X72.94Y-181.41
X72.94Y-182.31
X72.94Y-183.211
X72.94Y-186.813
X72.94Y-187.714
X72.94Y-188.614
X72.94Y-189.515
X72.94Y-190.416
X73.2Y-179.158
X73.2Y-180.059
X73.2Y-180.959
X73.2Y-181.86
X73.2Y-182.761
X73.2Y-183.661
X73.2Y-186.363
X73.2Y-187.264
X73.2Y-188.164
X73.2Y-189.065
X73.2Y-189.965
X73.2Y-190.866
X73.46Y-178.708
X73.46Y-179.608
X73.46Y-180.509
X73.46Y-181.41
X73.46Y-182.31
X73.46Y-183.211
X73.46Y-184.111
X73.46Y-185.913
X73.46Y-186.813
X73.46Y-187.714
X73.46Y-188.614
X73.46Y-189.515
X73.46Y-190.416
X73.72Y-179.158
X73.72Y-180.059
X73.72Y-180.959
X73.72Y-181.86
X73.72Y-182.761
X73.72Y-183.661
X73.72Y-184.562
X73.72Y-185.462
X73.72Y-186.363
X73.72Y-187.264
X73.72Y-188.164
X73.72Y-189.065
X73.72Y-189.965
X73.72Y-190.866
X73.98Y-178.708
X73.98Y-179.608
X73.98Y-180.509
X73.98Y-181.41
X73.98Y-182.31
X73.98Y-183.211
X73.98Y-184.111
X73.98Y-185.012
X73.98Y-185.913
X73.98Y-186.813
X73.98Y-187.714
X73.98Y-188.614
X73.98Y-189.515
X73.98Y-190.416
X74.24Y-179.158
X74.24Y-180.059
X74.24Y-180.959
X74.24Y-181.86
X74.24Y-182.761
X74.24Y-183.661
X74.24Y-184.562
X74.24Y-185.462
X74.24Y-186.363
X74.24Y-187.264
X74.24Y-188.164
X74.24Y-189.065
X74.24Y-189.965
X74.24Y-190.866
X74.5Y-178.708
X74.5Y-179.608
X74.5Y-180.509
X74.5Y-181.41
X74.5Y-182.31
X74.5Y-183.211
X74.5Y-184.111
X74.5Y-185.012
X74.5Y-185.913
X74.5Y-186.813
X74.5Y-187.714
X74.5Y-188.614
X74.5Y-189.515
X74.5Y-190.416
X74.76Y-179.158
X74.76Y-180.059
X74.76Y-180.959
X74.76Y-181.86
X74.76Y-182.761
X74.76Y-183.661
X74.76Y-184.562
X74.76Y-185.462
X74.76Y-186.363
X74.76Y-187.264
X74.76Y-188.164
X74.76Y-189.065
X74.76Y-189.965
X74.76Y-190.866
X75.02Y-178.708
X75.02Y-179.608
X75.02Y-180.509
X75.02Y-181.41
X75.02Y-182.31
X75.02Y-183.211
X75.02Y-184.111
X75.02Y-185.012
X75.02Y-185.913
X75.02Y-186.813
X75.02Y-187.714
X75.02Y-188.614
X75.02Y-189.515
X75.02Y-190.416
X75.28Y-179.158
X75.28Y-180.059
X75.28Y-180.959
X75.28Y-181.86
X75.28Y-182.761
X75.28Y-183.661
X75.28Y-184.562
X75.28Y-185.462
X75.28Y-186.363
X75.28Y-187.264
X75.28Y-188.164
X75.28Y-189.065
X75.28Y-189.965
X75.28Y-190.866
X75.54Y-178.708
X75.54Y-179.608
X75.54Y-180.509
X75.54Y-181.41
X75.54Y-182.31
X75.54Y-183.211
X75.54Y-184.111
X75.54Y-185.012
X75.54Y-185.913
X75.54Y-186.813
X75.54Y-187.714
X75.54Y-188.614
X75.54Y-189.515
X75.54Y-190.416
X75.8Y-179.158
X75.8Y-180.059
X75.8Y-180.959
X75.8Y-181.86
X75.8Y-182.761
X75.8Y-183.661
X75.8Y-184.562
X75.8Y-185.462
X75.8Y-186.363
X75.8Y-187.264
X75.8Y-188.164
X75.8Y-189.065
X75.8Y-189.965
X75.8Y-190.866
X76.06Y-178.708
X76.06Y-179.608
X76.06Y-180.509
X76.06Y-181.41
X76.06Y-182.31
X76.06Y-183.211
X76.06Y-184.111
X76.06Y-185.012
X76.06Y-185.913
X76.06Y-186.813
X76.06Y-187.714
X76.06Y-188.614
X76.06Y-189.515
X76.06Y-190.416
X76.32Y-179.158
X76.32Y-180.059
X76.32Y-180.959
X76.32Y-181.86
X76.32Y-182.761
X76.32Y-183.661
X76.32Y-184.562
X76.32Y-185.462
X76.32Y-186.363
X76.32Y-187.264
X76.32Y-188.164
X76.32Y-189.065
X76.32Y-189.965
X76.32Y-190.866
X76.58Y-178.708
X76.58Y-179.608
X76.58Y-180.509
X76.58Y-181.41
X76.58Y-182.31
X76.58Y-183.211
X76.58Y-184.111
X76.58Y-185.012
X76.58Y-185.913
X76.58Y-186.813
X76.58Y-187.714
X76.58Y-188.614
X76.58Y-189.515
X76.58Y-190.416
X76.84Y-179.158
X76.84Y-180.059
X76.84Y-180.959
X76.84Y-181.86
X76.84Y-182.761
X76.84Y-183.661
X76.84Y-184.562
X76.84Y-185.462
X76.84Y-186.363
X76.84Y-187.264
X76.84Y-188.164
X76.84Y-189.065
X76.84Y-189.965
X76.84Y-190.866
X77.1Y-178.708
X77.1Y-179.608
X77.1Y-180.509
X77.1Y-181.41
X77.1Y-182.31
X77.1Y-183.211
X77.1Y-184.111
X77.1Y-185.012
X77.1Y-185.913
X77.1Y-186.813
X77.1Y-187.714
X77.1Y-188.614
X77.1Y-189.515
X77.1Y-190.416
X77.36Y-179.158
X77.36Y-180.059
X77.36Y-180.959
X77.36Y-181.86
X77.36Y-182.761
X77.36Y-183.661
X77.36Y-184.562
X77.36Y-185.462
X77.36Y-186.363
X77.36Y-187.264
X77.36Y-188.164
X77.36Y-189.065
X77.36Y-189.965
X77.36Y-190.866
T3
X18.923Y-92.964
X19.304Y-120.904
X19.304Y-135.763
X19.721Y-90.194
X19.812Y-83.82
X19.812Y-86.106
X19.812Y-88.392
X20.2Y-128.1
X20.32Y-119.38
X20.73Y-165.68
X21.067Y-118.11
X21.082Y-129.794
X21.287Y-164.725
X21.336Y-137.16
X23.114Y-94.488
X23.114Y-96.266
X23.128Y-98.806
X23.128Y-102.616
X23.128Y-104.394
X23.211Y-100.502
X23.876Y-121.412
X24.003Y-136.447
X24.13Y-125.476
X24.892Y-107.188
X26.121Y-119.085
X26.733Y-100.424
X26.908Y-116.84
X26.924Y-108.712
X26.924Y-112.776
X27.178Y-136.144
X27.608Y-134.51
X27.94Y-163.576
X28.211Y-111.456
X28.448Y-131.572
X28.55Y-135.382
X28.804Y-137.414
X28.956Y-86.614
X28.956Y-100.584
X28.96Y-108.458
X29.083Y-165.481
X29.108Y-114.884
X29.718Y-92.71
X30.209Y-91.134
X32.512Y-119.409
X32.676Y-123.19
X33.528Y-118.632
X33.782Y-99.553
X34.036Y-113.03
X34.798Y-91.186
X34.812Y-99.099
X34.812Y-108.623
X35.285Y-110.41
X37.402Y-110.413
X37.572Y-108.09
X37.592Y-103.665
X37.75Y-106.037
X38.608Y-108.712
X38.862Y-103.886
X39.787Y-137.287
X40.894Y-137.285
X41.643Y-115.011
X41.91Y-96.898
X41.91Y-116.078
X41.994Y-137.286
X42.003Y-149.86
X42.545Y-111.125
X43.18Y-96.266
X43.8Y-108.894
X43.899Y-112.366
X44.342Y-111.36
X44.567Y-106.698
X44.958Y-113.538
X45.197Y-108.936
X45.287Y-104.895
X45.466Y-117.856
X45.679Y-106.898
X45.72Y-137.035
X45.884Y-105.818
X47.547Y-87.938
X48.006Y-117.856
X49.175Y-111.909
X49.189Y-107.021
X49.276Y-117.856
X49.792Y-110.999
X50.078Y-107.91
X50.168Y-102.195
X50.292Y-137.16
X51.203Y-110.228
X54.61Y-102.255
X54.61Y-112.014
X54.61Y-116.332
X54.864Y-107.188
X54.994Y-137.035
X56.417Y-110.998
X57.731Y-108.171
X58.178Y-106.553
X59.69Y-104.14
X59.69Y-137.16
X60.706Y-104.902
X65.98Y-136.54
X70.022Y-173.472
X70.826Y-167.386
X71.238Y-174.546
X71.363Y-168.345
X71.882Y-119.546
X72.13Y-173.736
X72.568Y-130.073
X75.946Y-120.142
X75.969Y-127.926
X77.216Y-120.142
X79.248Y-123.494
X79.756Y-122.428
T4
X46.355Y-97.032
X47.625Y-99.572
X48.895Y-97.032
X50.165Y-99.572
X51.435Y-97.032
X52.705Y-99.572
X53.975Y-97.032
X55.245Y-99.572
X64.643Y-97.032
X65.913Y-99.572
X67.183Y-97.032
X68.453Y-99.572
X69.723Y-97.032
X70.993Y-99.572
X72.263Y-97.032
X73.533Y-99.572
T5
X20.574Y-95.415
X20.574Y-97.955
X20.574Y-100.495
X20.574Y-103.035
X20.574Y-106.835
X20.574Y-109.375
X20.574Y-113.408
X20.574Y-115.948
X28.215Y-121.997
X28.215Y-124.537
X28.215Y-127.078
X28.215Y-129.618
X34.051Y-115.824
X36.591Y-115.824
X39.131Y-115.824
X71.643Y-116.078
X74.183Y-116.078
X74.859Y-107.696
X74.859Y-110.236
X74.859Y-112.776
X76.723Y-116.078
T6
X43.05Y-93.732
X58.55Y-93.732
X61.338Y-93.732
X76.838Y-93.732
T7
X26.162Y-184.8
X41.122Y-184.8
X56.061Y-184.8
X71.12Y-184.8
T0
M30
