%TF.GenerationSoftware,KiCad,Pcbnew,(6.0.9)*%
%TF.CreationDate,2022-11-24T15:29:20-03:00*%
%TF.ProjectId,main,6d61696e-2e6b-4696-9361-645f70636258,rev?*%
%TF.SameCoordinates,Original*%
%TF.FileFunction,Soldermask,Top*%
%TF.FilePolarity,Negative*%
%FSLAX46Y46*%
G04 Gerber Fmt 4.6, Leading zero omitted, Abs format (unit mm)*
G04 Created by KiCad (PCBNEW (6.0.9)) date 2022-11-24 15:29:20*
%MOMM*%
%LPD*%
G01*
G04 APERTURE LIST*
G04 Aperture macros list*
%AMRoundRect*
0 Rectangle with rounded corners*
0 $1 Rounding radius*
0 $2 $3 $4 $5 $6 $7 $8 $9 X,Y pos of 4 corners*
0 Add a 4 corners polygon primitive as box body*
4,1,4,$2,$3,$4,$5,$6,$7,$8,$9,$2,$3,0*
0 Add four circle primitives for the rounded corners*
1,1,$1+$1,$2,$3*
1,1,$1+$1,$4,$5*
1,1,$1+$1,$6,$7*
1,1,$1+$1,$8,$9*
0 Add four rect primitives between the rounded corners*
20,1,$1+$1,$2,$3,$4,$5,0*
20,1,$1+$1,$4,$5,$6,$7,0*
20,1,$1+$1,$6,$7,$8,$9,0*
20,1,$1+$1,$8,$9,$2,$3,0*%
%AMRotRect*
0 Rectangle, with rotation*
0 The origin of the aperture is its center*
0 $1 length*
0 $2 width*
0 $3 Rotation angle, in degrees counterclockwise*
0 Add horizontal line*
21,1,$1,$2,0,0,$3*%
%AMFreePoly0*
4,1,24,0.072828,0.257987,0.091931,0.252452,0.345931,0.049252,0.349258,0.043209,0.355301,0.039882,0.359977,0.023744,0.368082,0.009026,0.366162,0.002400,0.368082,-0.004226,0.359977,-0.018944,0.355301,-0.035082,0.349258,-0.038409,0.345931,-0.044452,0.091931,-0.247652,0.072828,-0.253187,0.054449,-0.260800,-0.123351,-0.260800,-0.165777,-0.243226,-0.183351,-0.200800,-0.183351,0.205600,
-0.165777,0.248026,-0.123351,0.265600,0.054449,0.265600,0.072828,0.257987,0.072828,0.257987,$1*%
%AMFreePoly1*
4,1,40,0.141626,0.245626,0.159200,0.203200,0.159200,-0.203200,0.141626,-0.245626,0.099200,-0.263200,-0.256400,-0.263200,-0.259782,-0.261799,-0.263299,-0.262801,-0.280566,-0.253190,-0.298826,-0.245626,-0.300226,-0.242247,-0.303423,-0.240467,-0.308835,-0.221462,-0.316400,-0.203200,-0.314999,-0.199818,-0.316001,-0.196301,-0.306390,-0.179034,-0.298826,-0.160774,-0.295447,-0.159374,-0.293667,-0.156177,
-0.098668,-0.001638,-0.099200,0.000000,-0.098668,0.001638,-0.293667,0.156177,-0.295447,0.159374,-0.298826,0.160774,-0.306390,0.179034,-0.316001,0.196301,-0.314999,0.199818,-0.316400,0.203200,-0.308835,0.221462,-0.303423,0.240467,-0.300226,0.242247,-0.298826,0.245626,-0.280566,0.253190,-0.263299,0.262801,-0.259782,0.261799,-0.256400,0.263200,0.099200,0.263200,0.141626,0.245626,
0.141626,0.245626,$1*%
%AMFreePoly2*
4,1,24,0.323179,0.308787,0.342282,0.303252,0.596282,0.100052,0.599609,0.094009,0.605652,0.090682,0.610328,0.074544,0.618433,0.059826,0.616513,0.053200,0.618433,0.046574,0.610328,0.031856,0.605652,0.015718,0.599609,0.012391,0.596282,0.006348,0.342282,-0.196852,0.323179,-0.202387,0.304800,-0.210000,-0.127000,-0.210000,-0.169426,-0.192426,-0.187000,-0.150000,-0.187000,0.256400,
-0.169426,0.298826,-0.127000,0.316400,0.304800,0.316400,0.323179,0.308787,0.323179,0.308787,$1*%
%AMFreePoly3*
4,1,63,0.460449,0.261854,0.463826,0.262833,0.481253,0.253237,0.499626,0.245626,0.500971,0.242378,0.504052,0.240682,0.509589,0.221575,0.517200,0.203200,0.515854,0.199951,0.516833,0.196574,0.507237,0.179147,0.499626,0.160774,0.496378,0.159429,0.494682,0.156348,0.299247,0.000000,0.494682,-0.156348,0.496378,-0.159429,0.499626,-0.160774,0.507237,-0.179147,0.516833,-0.196574,
0.515854,-0.199951,0.517200,-0.203200,0.509589,-0.221575,0.504052,-0.240682,0.500971,-0.242378,0.499626,-0.245626,0.481253,-0.253237,0.463826,-0.262833,0.460449,-0.261854,0.457200,-0.263200,-0.406400,-0.263200,-0.409782,-0.261799,-0.413299,-0.262801,-0.430566,-0.253190,-0.448826,-0.245626,-0.450226,-0.242247,-0.453423,-0.240467,-0.458835,-0.221462,-0.466400,-0.203200,-0.464999,-0.199818,
-0.466001,-0.196301,-0.456390,-0.179034,-0.448826,-0.160774,-0.445447,-0.159374,-0.443667,-0.156177,-0.246601,0.000000,-0.443667,0.156177,-0.445447,0.159374,-0.448826,0.160774,-0.456390,0.179034,-0.466001,0.196301,-0.464999,0.199818,-0.466400,0.203200,-0.458835,0.221462,-0.453423,0.240467,-0.450226,0.242247,-0.448826,0.245626,-0.430566,0.253190,-0.413299,0.262801,-0.409782,0.261799,
-0.406400,0.263200,0.457200,0.263200,0.460449,0.261854,0.460449,0.261854,$1*%
%AMFreePoly4*
4,1,17,2.675000,1.605000,1.875000,1.605000,1.875000,0.935000,2.675000,0.935000,2.675000,0.335000,1.875000,0.335000,1.875000,-0.335000,2.675000,-0.335000,2.675000,-0.935000,1.875000,-0.935000,1.875000,-1.605000,2.675000,-1.605000,2.675000,-2.205000,-1.875000,-2.205000,-1.875000,2.205000,2.675000,2.205000,2.675000,1.605000,2.675000,1.605000,$1*%
G04 Aperture macros list end*
%ADD10R,2.250000X1.750000*%
%ADD11O,2.250000X1.750000*%
%ADD12R,1.500000X1.500000*%
%ADD13R,0.526400X0.990600*%
%ADD14FreePoly0,270.000000*%
%ADD15FreePoly1,270.000000*%
%ADD16R,13.000000X13.000000*%
%ADD17RoundRect,0.250000X-0.450000X0.350000X-0.450000X-0.350000X0.450000X-0.350000X0.450000X0.350000X0*%
%ADD18C,3.200000*%
%ADD19R,3.300000X1.700000*%
%ADD20R,6.700000X15.000000*%
%ADD21R,0.990600X0.526400*%
%ADD22FreePoly0,0.000000*%
%ADD23FreePoly1,0.000000*%
%ADD24RoundRect,0.155000X0.212500X0.155000X-0.212500X0.155000X-0.212500X-0.155000X0.212500X-0.155000X0*%
%ADD25R,1.700000X1.700000*%
%ADD26O,1.700000X1.700000*%
%ADD27FreePoly0,90.000000*%
%ADD28FreePoly1,90.000000*%
%ADD29RoundRect,0.155000X-0.155000X0.212500X-0.155000X-0.212500X0.155000X-0.212500X0.155000X0.212500X0*%
%ADD30RoundRect,0.250000X-1.000000X1.500000X-1.000000X-1.500000X1.000000X-1.500000X1.000000X1.500000X0*%
%ADD31RoundRect,0.250000X-0.350000X-0.450000X0.350000X-0.450000X0.350000X0.450000X-0.350000X0.450000X0*%
%ADD32RoundRect,0.250000X0.325000X1.100000X-0.325000X1.100000X-0.325000X-1.100000X0.325000X-1.100000X0*%
%ADD33RoundRect,0.250000X0.450000X-0.350000X0.450000X0.350000X-0.450000X0.350000X-0.450000X-0.350000X0*%
%ADD34FreePoly0,180.000000*%
%ADD35FreePoly1,180.000000*%
%ADD36RoundRect,0.250000X-0.337500X-0.475000X0.337500X-0.475000X0.337500X0.475000X-0.337500X0.475000X0*%
%ADD37R,1.270000X1.400000*%
%ADD38R,4.720000X4.800000*%
%ADD39RoundRect,0.250000X-0.475000X0.337500X-0.475000X-0.337500X0.475000X-0.337500X0.475000X0.337500X0*%
%ADD40R,0.519600X1.168400*%
%ADD41R,0.528798X1.219200*%
%ADD42FreePoly2,270.000000*%
%ADD43FreePoly3,270.000000*%
%ADD44FreePoly2,90.000000*%
%ADD45RoundRect,0.160000X0.160000X-0.222500X0.160000X0.222500X-0.160000X0.222500X-0.160000X-0.222500X0*%
%ADD46RoundRect,0.250000X-2.450000X0.650000X-2.450000X-0.650000X2.450000X-0.650000X2.450000X0.650000X0*%
%ADD47RoundRect,0.250000X2.450000X-0.650000X2.450000X0.650000X-2.450000X0.650000X-2.450000X-0.650000X0*%
%ADD48RoundRect,0.250000X0.337500X0.475000X-0.337500X0.475000X-0.337500X-0.475000X0.337500X-0.475000X0*%
%ADD49RoundRect,0.075000X-0.548008X0.441942X0.441942X-0.548008X0.548008X-0.441942X-0.441942X0.548008X0*%
%ADD50RoundRect,0.075000X-0.548008X-0.441942X-0.441942X-0.548008X0.548008X0.441942X0.441942X0.548008X0*%
%ADD51RoundRect,0.237500X0.237500X-0.300000X0.237500X0.300000X-0.237500X0.300000X-0.237500X-0.300000X0*%
%ADD52RotRect,0.990600X0.526400X315.000000*%
%ADD53FreePoly0,315.000000*%
%ADD54FreePoly1,315.000000*%
%ADD55RoundRect,0.150000X0.150000X-0.825000X0.150000X0.825000X-0.150000X0.825000X-0.150000X-0.825000X0*%
%ADD56R,1.700000X4.240000*%
%ADD57FreePoly4,0.000000*%
%ADD58R,0.850000X0.500000*%
%ADD59RoundRect,0.250000X0.450000X-0.325000X0.450000X0.325000X-0.450000X0.325000X-0.450000X-0.325000X0*%
%ADD60RoundRect,0.249999X-0.450001X-1.425001X0.450001X-1.425001X0.450001X1.425001X-0.450001X1.425001X0*%
%ADD61R,0.800000X1.900000*%
%ADD62RoundRect,0.160000X-0.222500X-0.160000X0.222500X-0.160000X0.222500X0.160000X-0.222500X0.160000X0*%
%ADD63RoundRect,0.155000X0.040659X0.259862X-0.259862X-0.040659X-0.040659X-0.259862X0.259862X0.040659X0*%
%ADD64RoundRect,0.135000X-0.135000X-0.185000X0.135000X-0.185000X0.135000X0.185000X-0.135000X0.185000X0*%
%ADD65RoundRect,0.250000X0.475000X-0.337500X0.475000X0.337500X-0.475000X0.337500X-0.475000X-0.337500X0*%
%ADD66RoundRect,0.155000X0.259862X-0.040659X-0.040659X0.259862X-0.259862X0.040659X0.040659X-0.259862X0*%
%ADD67RotRect,1.000000X1.000000X45.000000*%
%ADD68RoundRect,0.409835X-0.840165X-1.090165X0.840165X-1.090165X0.840165X1.090165X-0.840165X1.090165X0*%
%ADD69R,1.560000X0.650000*%
%ADD70R,1.700000X3.300000*%
%ADD71R,2.000000X1.905000*%
%ADD72O,2.000000X1.905000*%
%ADD73C,3.650000*%
%ADD74C,1.500000*%
%ADD75C,2.500000*%
G04 APERTURE END LIST*
D10*
%TO.C,PS501*%
X28215500Y-121997500D03*
D11*
X28215500Y-124537500D03*
X28215500Y-127077500D03*
X28215500Y-129617500D03*
%TD*%
D12*
%TO.C,TP401*%
X39624000Y-142748000D03*
%TD*%
D13*
%TO.C,JP204*%
X53466786Y-105437199D03*
D14*
X53466786Y-104941899D03*
D15*
X53464386Y-105780099D03*
%TD*%
D16*
%TO.C,H104*%
X71120000Y-183968200D03*
%TD*%
D17*
%TO.C,R321*%
X24892000Y-94504000D03*
X24892000Y-96504000D03*
%TD*%
D18*
%TO.C,*%
X15875000Y-92075000D03*
%TD*%
D19*
%TO.C,D101*%
X26626000Y-91694000D03*
X21126000Y-91694000D03*
%TD*%
D17*
%TO.C,R308*%
X75565000Y-134716000D03*
X75565000Y-136716000D03*
%TD*%
D20*
%TO.C,Li401*%
X22786600Y-154432000D03*
X35125400Y-154432000D03*
%TD*%
D21*
%TO.C,JP502*%
X27927300Y-137411600D03*
D22*
X27432000Y-137411600D03*
D23*
X28270200Y-137414000D03*
%TD*%
D17*
%TO.C,R703*%
X59690000Y-107188000D03*
X59690000Y-109188000D03*
%TD*%
D24*
%TO.C,C209*%
X51367500Y-101854000D03*
X50232500Y-101854000D03*
%TD*%
D25*
%TO.C,J304*%
X20574000Y-113408000D03*
D26*
X20574000Y-115948000D03*
%TD*%
D16*
%TO.C,H102*%
X26162000Y-183540400D03*
%TD*%
D13*
%TO.C,JP109*%
X69844198Y-105145800D03*
D27*
X69844198Y-105641100D03*
D28*
X69846598Y-104802900D03*
%TD*%
D13*
%TO.C,JP303*%
X19560400Y-120347000D03*
D14*
X19560400Y-119851700D03*
D15*
X19558000Y-120689900D03*
%TD*%
D13*
%TO.C,JP207*%
X56699679Y-105437200D03*
D14*
X56699679Y-104941900D03*
D15*
X56697279Y-105780100D03*
%TD*%
D29*
%TO.C,C701*%
X66804948Y-114511500D03*
X66804948Y-115646500D03*
%TD*%
D30*
%TO.C,Ci406*%
X38100000Y-165152000D03*
X38100000Y-171652000D03*
%TD*%
D20*
%TO.C,L401*%
X61648600Y-154682700D03*
X73987400Y-154682700D03*
%TD*%
D31*
%TO.C,R705*%
X67836948Y-107238000D03*
X69836948Y-107238000D03*
%TD*%
D17*
%TO.C,TH303*%
X51308000Y-84576500D03*
X51308000Y-86576500D03*
%TD*%
D32*
%TO.C,Ci402*%
X44098000Y-160528000D03*
X41148000Y-160528000D03*
%TD*%
D21*
%TO.C,JP501*%
X27927300Y-133607950D03*
D22*
X27432000Y-133607950D03*
D23*
X28270200Y-133610350D03*
%TD*%
D33*
%TO.C,R315*%
X71755000Y-136700000D03*
X71755000Y-134700000D03*
%TD*%
D13*
%TO.C,JP304*%
X71452600Y-121871000D03*
D14*
X71452600Y-121375700D03*
D15*
X71450200Y-122213900D03*
%TD*%
D21*
%TO.C,JP201*%
X55968900Y-107190400D03*
D34*
X56464200Y-107190400D03*
D35*
X55626000Y-107188000D03*
%TD*%
D36*
%TO.C,C307*%
X22584500Y-119997000D03*
X24659500Y-119997000D03*
%TD*%
D30*
%TO.C,Ci405*%
X47625000Y-165152000D03*
X47625000Y-171652000D03*
%TD*%
D16*
%TO.C,H101*%
X41122067Y-184095200D03*
%TD*%
D25*
%TO.C,J302*%
X34051000Y-115824000D03*
D26*
X36591000Y-115824000D03*
X39131000Y-115824000D03*
%TD*%
D37*
%TO.C,D407*%
X50393200Y-148106000D03*
X50393200Y-146026000D03*
D38*
X54198200Y-147066000D03*
%TD*%
D18*
%TO.C,H401*%
X22606000Y-141732000D03*
%TD*%
D39*
%TO.C,C303*%
X24892000Y-110641580D03*
X24892000Y-112716580D03*
%TD*%
D40*
%TO.C,JP203*%
X37584999Y-105460800D03*
D41*
X37592000Y-104267000D03*
D42*
X37539999Y-103606600D03*
D43*
X37590799Y-104851200D03*
D44*
X37641599Y-106146600D03*
%TD*%
D17*
%TO.C,R307*%
X21776267Y-132521200D03*
X21776267Y-134521200D03*
%TD*%
%TO.C,R301*%
X26924000Y-110679080D03*
X26924000Y-112679080D03*
%TD*%
D45*
%TO.C,D301*%
X23368000Y-116240960D03*
X23368000Y-115095960D03*
%TD*%
D18*
%TO.C,*%
X81534000Y-92075000D03*
%TD*%
D32*
%TO.C,Ci401*%
X44098000Y-157226000D03*
X41148000Y-157226000D03*
%TD*%
D17*
%TO.C,R309*%
X73660000Y-134684000D03*
X73660000Y-136684000D03*
%TD*%
D46*
%TO.C,Cc407*%
X38354000Y-122316400D03*
X38354000Y-127416400D03*
%TD*%
D47*
%TO.C,Cc401*%
X56642000Y-135417400D03*
X56642000Y-130317400D03*
%TD*%
D39*
%TO.C,C311*%
X26924000Y-102520580D03*
X26924000Y-104595580D03*
%TD*%
D17*
%TO.C,R320*%
X24892000Y-102520080D03*
X24892000Y-104520080D03*
%TD*%
D48*
%TO.C,C207*%
X37359500Y-110998000D03*
X35284500Y-110998000D03*
%TD*%
D36*
%TO.C,C308*%
X75162500Y-121920000D03*
X77237500Y-121920000D03*
%TD*%
D46*
%TO.C,Cc403*%
X56642000Y-122316400D03*
X56642000Y-127416400D03*
%TD*%
D12*
%TO.C,TP405*%
X58420000Y-142223000D03*
%TD*%
D47*
%TO.C,Cc408*%
X44450000Y-135417400D03*
X44450000Y-130317400D03*
%TD*%
D33*
%TO.C,R310*%
X25670933Y-134537200D03*
X25670933Y-132537200D03*
%TD*%
D49*
%TO.C,U202*%
X44866819Y-102555519D03*
X44513266Y-102909072D03*
X44159713Y-103262625D03*
X43806159Y-103616179D03*
X43452606Y-103969732D03*
X43099052Y-104323286D03*
X42745499Y-104676839D03*
X42391946Y-105030392D03*
X42038392Y-105383946D03*
X41684839Y-105737499D03*
X41331286Y-106091052D03*
X40977732Y-106444606D03*
X40624179Y-106798159D03*
X40270625Y-107151713D03*
X39917072Y-107505266D03*
X39563519Y-107858819D03*
D50*
X39563519Y-110581181D03*
X39917072Y-110934734D03*
X40270625Y-111288287D03*
X40624179Y-111641841D03*
X40977732Y-111995394D03*
X41331286Y-112348948D03*
X41684839Y-112702501D03*
X42038392Y-113056054D03*
X42391946Y-113409608D03*
X42745499Y-113763161D03*
X43099052Y-114116714D03*
X43452606Y-114470268D03*
X43806159Y-114823821D03*
X44159713Y-115177375D03*
X44513266Y-115530928D03*
X44866819Y-115884481D03*
D49*
X47589181Y-115884481D03*
X47942734Y-115530928D03*
X48296287Y-115177375D03*
X48649841Y-114823821D03*
X49003394Y-114470268D03*
X49356948Y-114116714D03*
X49710501Y-113763161D03*
X50064054Y-113409608D03*
X50417608Y-113056054D03*
X50771161Y-112702501D03*
X51124714Y-112348948D03*
X51478268Y-111995394D03*
X51831821Y-111641841D03*
X52185375Y-111288287D03*
X52538928Y-110934734D03*
X52892481Y-110581181D03*
D50*
X52892481Y-107858819D03*
X52538928Y-107505266D03*
X52185375Y-107151713D03*
X51831821Y-106798159D03*
X51478268Y-106444606D03*
X51124714Y-106091052D03*
X50771161Y-105737499D03*
X50417608Y-105383946D03*
X50064054Y-105030392D03*
X49710501Y-104676839D03*
X49356948Y-104323286D03*
X49003394Y-103969732D03*
X48649841Y-103616179D03*
X48296287Y-103262625D03*
X47942734Y-102909072D03*
X47589181Y-102555519D03*
%TD*%
D17*
%TO.C,R702*%
X65786000Y-107188000D03*
X65786000Y-109188000D03*
%TD*%
%TO.C,R701*%
X59182000Y-113448900D03*
X59182000Y-115448900D03*
%TD*%
D51*
%TO.C,C702*%
X61722000Y-109050500D03*
X61722000Y-107325500D03*
%TD*%
D18*
%TO.C,*%
X81534000Y-170180000D03*
%TD*%
D16*
%TO.C,H103*%
X56060733Y-183978900D03*
%TD*%
D52*
%TO.C,JP108*%
X54623231Y-113547836D03*
D53*
X54273001Y-113197606D03*
D54*
X54864000Y-113792000D03*
%TD*%
D55*
%TO.C,U302*%
X73914000Y-130063000D03*
X75184000Y-130063000D03*
X76454000Y-130063000D03*
X77724000Y-130063000D03*
X77724000Y-125113000D03*
X76454000Y-125113000D03*
X75184000Y-125113000D03*
X73914000Y-125113000D03*
%TD*%
D39*
%TO.C,C315*%
X48260000Y-84539000D03*
X48260000Y-86614000D03*
%TD*%
D17*
%TO.C,R313*%
X77470000Y-134716000D03*
X77470000Y-136716000D03*
%TD*%
D47*
%TO.C,Cc404*%
X38354000Y-135417400D03*
X38354000Y-130317400D03*
%TD*%
D12*
%TO.C,TP403*%
X45669200Y-151892000D03*
%TD*%
D39*
%TO.C,C206*%
X43180000Y-97768500D03*
X43180000Y-99843500D03*
%TD*%
D56*
%TO.C,J102*%
X39892600Y-94219700D03*
X37378000Y-94219700D03*
X34838000Y-94219700D03*
X32298000Y-94219700D03*
%TD*%
D12*
%TO.C,TP402*%
X41910000Y-151892000D03*
%TD*%
D18*
%TO.C,*%
X15875000Y-131127500D03*
%TD*%
D39*
%TO.C,C310*%
X26924000Y-106596080D03*
X26924000Y-108671080D03*
%TD*%
D31*
%TO.C,R203*%
X26940000Y-87376000D03*
X28940000Y-87376000D03*
%TD*%
D13*
%TO.C,JP205*%
X54544417Y-105437199D03*
D14*
X54544417Y-104941899D03*
D15*
X54542017Y-105780099D03*
%TD*%
D57*
%TO.C,Q401*%
X45553200Y-141351000D03*
D58*
X42003200Y-143256000D03*
X42003200Y-141986000D03*
X42003200Y-140716000D03*
X42003200Y-139446000D03*
%TD*%
D17*
%TO.C,R302*%
X26924000Y-114668460D03*
X26924000Y-116668460D03*
%TD*%
D13*
%TO.C,JP302*%
X72976600Y-121871000D03*
D14*
X72976600Y-121375700D03*
D15*
X72974200Y-122213900D03*
%TD*%
D13*
%TO.C,JP206*%
X55622050Y-105437200D03*
D14*
X55622050Y-104941900D03*
D15*
X55619650Y-105780100D03*
%TD*%
D18*
%TO.C,H402*%
X74676000Y-141986000D03*
%TD*%
D33*
%TO.C,R704*%
X63754000Y-109188000D03*
X63754000Y-107188000D03*
%TD*%
D36*
%TO.C,C205*%
X26902500Y-89408000D03*
X28977500Y-89408000D03*
%TD*%
D30*
%TO.C,Ci404*%
X66675000Y-165533000D03*
X66675000Y-172033000D03*
%TD*%
D59*
%TO.C,F102*%
X74803000Y-104911000D03*
X74803000Y-102861000D03*
%TD*%
D29*
%TO.C,C210*%
X54610000Y-109414500D03*
X54610000Y-110549500D03*
%TD*%
D60*
%TO.C,R101*%
X21133500Y-169425000D03*
X27233500Y-169425000D03*
%TD*%
D61*
%TO.C,D701*%
X69786948Y-109769000D03*
X67886948Y-109769000D03*
X68836948Y-112769000D03*
%TD*%
D21*
%TO.C,JP101*%
X57630800Y-107184050D03*
D34*
X58126100Y-107184050D03*
D35*
X57287900Y-107181650D03*
%TD*%
D18*
%TO.C,*%
X81534000Y-131127500D03*
%TD*%
D25*
%TO.C,J601*%
X71643000Y-116078000D03*
D26*
X74183000Y-116078000D03*
X76723000Y-116078000D03*
%TD*%
D46*
%TO.C,Cc402*%
X62738000Y-122316400D03*
X62738000Y-127416400D03*
%TD*%
D55*
%TO.C,U305*%
X28956000Y-107058000D03*
X30226000Y-107058000D03*
X31496000Y-107058000D03*
X32766000Y-107058000D03*
X32766000Y-102108000D03*
X31496000Y-102108000D03*
X30226000Y-102108000D03*
X28956000Y-102108000D03*
%TD*%
D31*
%TO.C,R311*%
X22638000Y-130556000D03*
X24638000Y-130556000D03*
%TD*%
D55*
%TO.C,U701*%
X61341000Y-116505000D03*
X62611000Y-116505000D03*
X63881000Y-116505000D03*
X65151000Y-116505000D03*
X65151000Y-111555000D03*
X63881000Y-111555000D03*
X62611000Y-111555000D03*
X61341000Y-111555000D03*
%TD*%
D57*
%TO.C,Q402*%
X45553200Y-147066000D03*
D58*
X42003200Y-148971000D03*
X42003200Y-146431000D03*
X42003200Y-145161000D03*
X42003200Y-147701000D03*
%TD*%
D46*
%TO.C,Cc406*%
X44450000Y-122291000D03*
X44450000Y-127391000D03*
%TD*%
%TO.C,Cc410*%
X50546000Y-122316400D03*
X50546000Y-127416400D03*
%TD*%
D55*
%TO.C,U301*%
X21717000Y-127951000D03*
X22987000Y-127951000D03*
X24257000Y-127951000D03*
X25527000Y-127951000D03*
X25527000Y-123001000D03*
X24257000Y-123001000D03*
X22987000Y-123001000D03*
X21717000Y-123001000D03*
%TD*%
D13*
%TO.C,JP110*%
X67824898Y-105178800D03*
D27*
X67824898Y-105674100D03*
D28*
X67827298Y-104835900D03*
%TD*%
D45*
%TO.C,D302*%
X23368000Y-112425080D03*
X23368000Y-111280080D03*
%TD*%
D62*
%TO.C,D107*%
X36003500Y-97282000D03*
X37148500Y-97282000D03*
%TD*%
D31*
%TO.C,R202*%
X58055000Y-102235000D03*
X60055000Y-102235000D03*
%TD*%
D17*
%TO.C,R316*%
X19828000Y-124412000D03*
X19828000Y-126412000D03*
%TD*%
D63*
%TO.C,C211*%
X39517283Y-104500717D03*
X38714717Y-105303283D03*
%TD*%
D37*
%TO.C,D406*%
X50393200Y-142391000D03*
X50393200Y-140311000D03*
D38*
X54198200Y-141351000D03*
%TD*%
D30*
%TO.C,Ci403*%
X57150000Y-165533000D03*
X57150000Y-172033000D03*
%TD*%
D64*
%TO.C,R201*%
X55550909Y-102122068D03*
X56570909Y-102122068D03*
%TD*%
D17*
%TO.C,R326*%
X46228000Y-84576500D03*
X46228000Y-86576500D03*
%TD*%
D65*
%TO.C,C213*%
X35814000Y-106934000D03*
X35814000Y-104859000D03*
%TD*%
D25*
%TO.C,J303*%
X20574000Y-106834540D03*
D26*
X20574000Y-109374540D03*
%TD*%
D12*
%TO.C,TP404*%
X36576000Y-142748000D03*
%TD*%
D47*
%TO.C,Cc409*%
X62738000Y-135417400D03*
X62738000Y-130317400D03*
%TD*%
D29*
%TO.C,C305*%
X27101800Y-164710300D03*
X27101800Y-165845300D03*
%TD*%
D45*
%TO.C,D106*%
X25527000Y-88964500D03*
X25527000Y-87819500D03*
%TD*%
D62*
%TO.C,D108*%
X33463500Y-97282000D03*
X34608500Y-97282000D03*
%TD*%
D31*
%TO.C,TH302*%
X47006000Y-137541000D03*
X49006000Y-137541000D03*
%TD*%
D18*
%TO.C,*%
X15875000Y-170180000D03*
%TD*%
D39*
%TO.C,C309*%
X26924000Y-98445080D03*
X26924000Y-100520080D03*
%TD*%
D31*
%TO.C,R314*%
X74581000Y-132668000D03*
X76581000Y-132668000D03*
%TD*%
%TO.C,TH301*%
X56404000Y-137541000D03*
X58404000Y-137541000D03*
%TD*%
D66*
%TO.C,C208*%
X42819283Y-116987283D03*
X42016717Y-116184717D03*
%TD*%
D13*
%TO.C,JP105*%
X67816998Y-115360200D03*
D14*
X67816998Y-114864900D03*
D15*
X67814598Y-115703100D03*
%TD*%
D39*
%TO.C,C302*%
X24892000Y-114630960D03*
X24892000Y-116705960D03*
%TD*%
D13*
%TO.C,JP301*%
X20824050Y-120347000D03*
D14*
X20824050Y-119851700D03*
D15*
X20821650Y-120689900D03*
%TD*%
D13*
%TO.C,JP104*%
X26012000Y-120129300D03*
D14*
X26012000Y-119634000D03*
D15*
X26009600Y-120472200D03*
%TD*%
D67*
%TO.C,TP202*%
X51816000Y-117602000D03*
%TD*%
D39*
%TO.C,C312*%
X26924000Y-94482500D03*
X26924000Y-96557500D03*
%TD*%
D25*
%TO.C,J301*%
X20574000Y-95414540D03*
D26*
X20574000Y-97954540D03*
X20574000Y-100494540D03*
X20574000Y-103034540D03*
%TD*%
D68*
%TO.C,F101*%
X20916000Y-173736000D03*
X26416000Y-173736000D03*
%TD*%
D17*
%TO.C,R317*%
X71882000Y-126524000D03*
X71882000Y-128524000D03*
%TD*%
%TO.C,R318*%
X24892000Y-98455580D03*
X24892000Y-100455580D03*
%TD*%
D21*
%TO.C,JP106*%
X27927300Y-135636000D03*
D22*
X27432000Y-135636000D03*
D23*
X28270200Y-135638400D03*
%TD*%
D12*
%TO.C,TP406*%
X49682400Y-151892000D03*
%TD*%
D67*
%TO.C,TP201*%
X51308000Y-115570000D03*
%TD*%
D17*
%TO.C,R312*%
X19828934Y-132521200D03*
X19828934Y-134521200D03*
%TD*%
D39*
%TO.C,C212*%
X56134000Y-108563500D03*
X56134000Y-110638500D03*
%TD*%
D69*
%TO.C,U303*%
X22833500Y-164538000D03*
X22833500Y-165488000D03*
X22833500Y-166438000D03*
X25533500Y-166438000D03*
X25533500Y-164538000D03*
%TD*%
D17*
%TO.C,R306*%
X23723600Y-132537200D03*
X23723600Y-134537200D03*
%TD*%
D47*
%TO.C,Cc405*%
X50546000Y-135417400D03*
X50546000Y-130317400D03*
%TD*%
D67*
%TO.C,TP203*%
X50038000Y-116967000D03*
%TD*%
D52*
%TO.C,JP107*%
X53989507Y-114438112D03*
D53*
X53639277Y-114087882D03*
D54*
X54230276Y-114682276D03*
%TD*%
D17*
%TO.C,R319*%
X24892000Y-106584580D03*
X24892000Y-108584580D03*
%TD*%
D70*
%TO.C,D102*%
X72136000Y-110192000D03*
X72136000Y-104692000D03*
%TD*%
D71*
%TO.C,U601*%
X74859000Y-107696000D03*
D72*
X74859000Y-110236000D03*
X74859000Y-112776000D03*
%TD*%
D73*
%TO.C,J801*%
X45085000Y-90682000D03*
X56515000Y-90682000D03*
D12*
X46355000Y-97032000D03*
D74*
X47625000Y-99572000D03*
X48895000Y-97032000D03*
X50165000Y-99572000D03*
X51435000Y-97032000D03*
X52705000Y-99572000D03*
X53975000Y-97032000D03*
X55245000Y-99572000D03*
D75*
X43050000Y-93732000D03*
X58550000Y-93732000D03*
%TD*%
D73*
%TO.C,J802*%
X74803000Y-90682000D03*
X63373000Y-90682000D03*
D12*
X64643000Y-97032000D03*
D74*
X65913000Y-99572000D03*
X67183000Y-97032000D03*
X68453000Y-99572000D03*
X69723000Y-97032000D03*
X70993000Y-99572000D03*
X72263000Y-97032000D03*
X73533000Y-99572000D03*
D75*
X76838000Y-93732000D03*
X61338000Y-93732000D03*
%TD*%
M02*
