%TF.GenerationSoftware,KiCad,Pcbnew,(6.0.9)*%
%TF.CreationDate,2022-11-24T15:29:20-03:00*%
%TF.ProjectId,main,6d61696e-2e6b-4696-9361-645f70636258,rev?*%
%TF.SameCoordinates,Original*%
%TF.FileFunction,Soldermask,Bot*%
%TF.FilePolarity,Negative*%
%FSLAX46Y46*%
G04 Gerber Fmt 4.6, Leading zero omitted, Abs format (unit mm)*
G04 Created by KiCad (PCBNEW (6.0.9)) date 2022-11-24 15:29:20*
%MOMM*%
%LPD*%
G01*
G04 APERTURE LIST*
G04 Aperture macros list*
%AMRoundRect*
0 Rectangle with rounded corners*
0 $1 Rounding radius*
0 $2 $3 $4 $5 $6 $7 $8 $9 X,Y pos of 4 corners*
0 Add a 4 corners polygon primitive as box body*
4,1,4,$2,$3,$4,$5,$6,$7,$8,$9,$2,$3,0*
0 Add four circle primitives for the rounded corners*
1,1,$1+$1,$2,$3*
1,1,$1+$1,$4,$5*
1,1,$1+$1,$6,$7*
1,1,$1+$1,$8,$9*
0 Add four rect primitives between the rounded corners*
20,1,$1+$1,$2,$3,$4,$5,0*
20,1,$1+$1,$4,$5,$6,$7,0*
20,1,$1+$1,$6,$7,$8,$9,0*
20,1,$1+$1,$8,$9,$2,$3,0*%
%AMFreePoly0*
4,1,24,0.072828,0.253187,0.091931,0.247652,0.345931,0.044452,0.349258,0.038409,0.355301,0.035082,0.359977,0.018944,0.368082,0.004226,0.366162,-0.002400,0.368082,-0.009026,0.359977,-0.023744,0.355301,-0.039882,0.349258,-0.043209,0.345931,-0.049252,0.091931,-0.252452,0.072828,-0.257987,0.054449,-0.265600,-0.123351,-0.265600,-0.165777,-0.248026,-0.183351,-0.205600,-0.183351,0.200800,
-0.165777,0.243226,-0.123351,0.260800,0.054449,0.260800,0.072828,0.253187,0.072828,0.253187,$1*%
%AMFreePoly1*
4,1,40,0.141626,0.245626,0.159200,0.203200,0.159200,-0.203200,0.141626,-0.245626,0.099200,-0.263200,-0.256400,-0.263200,-0.259782,-0.261799,-0.263299,-0.262801,-0.280566,-0.253190,-0.298826,-0.245626,-0.300226,-0.242247,-0.303423,-0.240467,-0.308835,-0.221462,-0.316400,-0.203200,-0.314999,-0.199818,-0.316001,-0.196301,-0.306390,-0.179034,-0.298826,-0.160774,-0.295447,-0.159374,-0.293667,-0.156177,
-0.098668,-0.001638,-0.099200,0.000000,-0.098668,0.001638,-0.293667,0.156177,-0.295447,0.159374,-0.298826,0.160774,-0.306390,0.179034,-0.316001,0.196301,-0.314999,0.199818,-0.316400,0.203200,-0.308835,0.221462,-0.303423,0.240467,-0.300226,0.242247,-0.298826,0.245626,-0.280566,0.253190,-0.263299,0.262801,-0.259782,0.261799,-0.256400,0.263200,0.099200,0.263200,0.141626,0.245626,
0.141626,0.245626,$1*%
G04 Aperture macros list end*
%ADD10C,0.150000*%
%ADD11C,0.120000*%
%ADD12R,2.250000X1.750000*%
%ADD13O,2.250000X1.750000*%
%ADD14R,13.000000X13.000000*%
%ADD15C,3.200000*%
%ADD16R,1.700000X1.700000*%
%ADD17O,1.700000X1.700000*%
%ADD18RoundRect,0.250000X-0.350000X-0.450000X0.350000X-0.450000X0.350000X0.450000X-0.350000X0.450000X0*%
%ADD19RoundRect,0.250000X0.350000X0.450000X-0.350000X0.450000X-0.350000X-0.450000X0.350000X-0.450000X0*%
%ADD20RoundRect,0.250000X-0.337500X-0.475000X0.337500X-0.475000X0.337500X0.475000X-0.337500X0.475000X0*%
%ADD21RoundRect,0.250000X-0.450000X0.350000X-0.450000X-0.350000X0.450000X-0.350000X0.450000X0.350000X0*%
%ADD22RoundRect,0.250000X-0.412500X-0.650000X0.412500X-0.650000X0.412500X0.650000X-0.412500X0.650000X0*%
%ADD23RoundRect,0.250000X0.650000X-0.412500X0.650000X0.412500X-0.650000X0.412500X-0.650000X-0.412500X0*%
%ADD24R,0.526400X0.990600*%
%ADD25FreePoly0,90.000000*%
%ADD26FreePoly1,90.000000*%
%ADD27R,2.500000X1.800000*%
%ADD28RoundRect,0.249999X1.425001X-0.450001X1.425001X0.450001X-1.425001X0.450001X-1.425001X-0.450001X0*%
%ADD29RoundRect,0.250000X-0.650000X0.412500X-0.650000X-0.412500X0.650000X-0.412500X0.650000X0.412500X0*%
%ADD30RoundRect,0.250000X-1.000000X1.950000X-1.000000X-1.950000X1.000000X-1.950000X1.000000X1.950000X0*%
%ADD31RoundRect,0.237500X-0.300000X-0.237500X0.300000X-0.237500X0.300000X0.237500X-0.300000X0.237500X0*%
%ADD32RoundRect,0.250000X-0.475000X0.337500X-0.475000X-0.337500X0.475000X-0.337500X0.475000X0.337500X0*%
%ADD33RoundRect,0.250000X-0.325000X-0.450000X0.325000X-0.450000X0.325000X0.450000X-0.325000X0.450000X0*%
%ADD34R,1.100000X1.100000*%
%ADD35RoundRect,0.250000X1.100000X-0.325000X1.100000X0.325000X-1.100000X0.325000X-1.100000X-0.325000X0*%
%ADD36RoundRect,0.160000X0.222500X0.160000X-0.222500X0.160000X-0.222500X-0.160000X0.222500X-0.160000X0*%
%ADD37RoundRect,0.150000X-0.825000X-0.150000X0.825000X-0.150000X0.825000X0.150000X-0.825000X0.150000X0*%
%ADD38RoundRect,0.250000X0.475000X-0.337500X0.475000X0.337500X-0.475000X0.337500X-0.475000X-0.337500X0*%
%ADD39RoundRect,0.249999X-1.425001X0.450001X-1.425001X-0.450001X1.425001X-0.450001X1.425001X0.450001X0*%
%ADD40RoundRect,0.249999X-0.450001X-1.425001X0.450001X-1.425001X0.450001X1.425001X-0.450001X1.425001X0*%
%ADD41R,2.000000X1.905000*%
%ADD42O,2.000000X1.905000*%
%ADD43RoundRect,0.237500X-0.237500X0.300000X-0.237500X-0.300000X0.237500X-0.300000X0.237500X0.300000X0*%
%ADD44C,3.650000*%
%ADD45R,1.500000X1.500000*%
%ADD46C,1.500000*%
%ADD47C,2.500000*%
%ADD48RoundRect,0.237500X0.237500X-0.300000X0.237500X0.300000X-0.237500X0.300000X-0.237500X-0.300000X0*%
%ADD49R,1.800000X2.500000*%
%ADD50R,0.650000X1.560000*%
%ADD51RoundRect,0.155000X0.212500X0.155000X-0.212500X0.155000X-0.212500X-0.155000X0.212500X-0.155000X0*%
%ADD52R,1.700000X4.240000*%
%ADD53RoundRect,0.250000X0.450000X-0.350000X0.450000X0.350000X-0.450000X0.350000X-0.450000X-0.350000X0*%
%ADD54RoundRect,0.160000X-0.160000X0.222500X-0.160000X-0.222500X0.160000X-0.222500X0.160000X0.222500X0*%
%ADD55R,1.450000X0.450000*%
%ADD56R,1.500000X2.000000*%
%ADD57R,3.800000X2.000000*%
%ADD58RoundRect,0.250000X0.337500X0.475000X-0.337500X0.475000X-0.337500X-0.475000X0.337500X-0.475000X0*%
G04 APERTURE END LIST*
D10*
X51816000Y-138938000D02*
X78486000Y-138938000D01*
X78486000Y-138938000D02*
X78486000Y-156210000D01*
X78486000Y-156210000D02*
X51816000Y-156210000D01*
X51816000Y-156210000D02*
X51816000Y-138938000D01*
G36*
X51816000Y-138938000D02*
G01*
X78486000Y-138938000D01*
X78486000Y-156210000D01*
X51816000Y-156210000D01*
X51816000Y-138938000D01*
G37*
X51308000Y-138938000D02*
X18796000Y-138938000D01*
X18796000Y-138938000D02*
X18796000Y-156210000D01*
X18796000Y-156210000D02*
X51308000Y-156210000D01*
X51308000Y-156210000D02*
X51308000Y-138938000D01*
G36*
X51308000Y-138938000D02*
G01*
X18796000Y-138938000D01*
X18796000Y-156210000D01*
X51308000Y-156210000D01*
X51308000Y-138938000D01*
G37*
D11*
%TO.C,HS401*%
X78740000Y-156210000D02*
X18740000Y-156210000D01*
X18740000Y-156210000D02*
X18740000Y-139210000D01*
X18740000Y-139210000D02*
X78740000Y-139210000D01*
X78740000Y-139210000D02*
X78740000Y-156210000D01*
G36*
X78740000Y-156210000D02*
G01*
X18740000Y-156210000D01*
X18740000Y-139210000D01*
X78740000Y-139210000D01*
X78740000Y-156210000D01*
G37*
%TD*%
D12*
%TO.C,PS501*%
X28215500Y-121997500D03*
D13*
X28215500Y-124537500D03*
X28215500Y-127077500D03*
X28215500Y-129617500D03*
%TD*%
D14*
%TO.C,H104*%
X71120000Y-183968200D03*
%TD*%
D15*
%TO.C,*%
X15875000Y-92075000D03*
%TD*%
D16*
%TO.C,J304*%
X20574000Y-113408000D03*
D17*
X20574000Y-115948000D03*
%TD*%
D14*
%TO.C,H102*%
X26162000Y-183540400D03*
%TD*%
%TO.C,H101*%
X41122067Y-184095200D03*
%TD*%
D16*
%TO.C,J302*%
X34051000Y-115824000D03*
D17*
X36591000Y-115824000D03*
X39131000Y-115824000D03*
%TD*%
D15*
%TO.C,H401*%
X22606000Y-141732000D03*
%TD*%
%TO.C,*%
X81534000Y-92075000D03*
%TD*%
%TO.C,*%
X81534000Y-170180000D03*
%TD*%
D14*
%TO.C,H103*%
X56060733Y-183978900D03*
%TD*%
D15*
%TO.C,*%
X15875000Y-131127500D03*
%TD*%
%TO.C,H402*%
X74676000Y-141986000D03*
%TD*%
%TO.C,*%
X81534000Y-131127500D03*
%TD*%
D16*
%TO.C,J601*%
X71643000Y-116078000D03*
D17*
X74183000Y-116078000D03*
X76723000Y-116078000D03*
%TD*%
D16*
%TO.C,J303*%
X20574000Y-106834540D03*
D17*
X20574000Y-109374540D03*
%TD*%
D15*
%TO.C,*%
X15875000Y-170180000D03*
%TD*%
D16*
%TO.C,J301*%
X20574000Y-95414540D03*
D17*
X20574000Y-97954540D03*
X20574000Y-100494540D03*
X20574000Y-103034540D03*
%TD*%
D18*
%TO.C,R502*%
X36537200Y-135091200D03*
X38537200Y-135091200D03*
%TD*%
D19*
%TO.C,R204*%
X25572250Y-90678000D03*
X23572250Y-90678000D03*
%TD*%
D18*
%TO.C,R323*%
X24892000Y-114808000D03*
X26892000Y-114808000D03*
%TD*%
D20*
%TO.C,C504*%
X32744500Y-126492000D03*
X34819500Y-126492000D03*
%TD*%
D21*
%TO.C,R406*%
X42490200Y-132959200D03*
X42490200Y-134959200D03*
%TD*%
D18*
%TO.C,R322*%
X24892000Y-116840000D03*
X26892000Y-116840000D03*
%TD*%
D20*
%TO.C,C202*%
X40364500Y-109220000D03*
X42439500Y-109220000D03*
%TD*%
D22*
%TO.C,C408*%
X73824700Y-136906000D03*
X76949700Y-136906000D03*
%TD*%
D23*
%TO.C,C601*%
X70104000Y-105956500D03*
X70104000Y-102831500D03*
%TD*%
D18*
%TO.C,R303*%
X34986929Y-111760000D03*
X36986929Y-111760000D03*
%TD*%
D24*
%TO.C,JP103*%
X43938050Y-109192800D03*
D25*
X43938050Y-109688100D03*
D26*
X43935650Y-108849900D03*
%TD*%
D27*
%TO.C,D410*%
X71037200Y-135472200D03*
X67037200Y-135472200D03*
%TD*%
D18*
%TO.C,R401*%
X36537200Y-137160000D03*
X38537200Y-137160000D03*
%TD*%
D28*
%TO.C,R102*%
X68072000Y-174244000D03*
X68072000Y-168144000D03*
%TD*%
D23*
%TO.C,C204*%
X30988000Y-106464500D03*
X30988000Y-103339500D03*
%TD*%
D29*
%TO.C,C606*%
X58267599Y-113016900D03*
X58267599Y-116141900D03*
%TD*%
D30*
%TO.C,Co406*%
X60452000Y-161018000D03*
X60452000Y-169418000D03*
%TD*%
D22*
%TO.C,C407*%
X73824700Y-134366000D03*
X76949700Y-134366000D03*
%TD*%
D19*
%TO.C,R205*%
X25556250Y-88392000D03*
X23556250Y-88392000D03*
%TD*%
%TO.C,R305*%
X40705072Y-113792000D03*
X38705072Y-113792000D03*
%TD*%
D27*
%TO.C,D408*%
X59417200Y-131826000D03*
X63417200Y-131826000D03*
%TD*%
D31*
%TO.C,C605*%
X61113498Y-107695999D03*
X62838498Y-107695999D03*
%TD*%
D32*
%TO.C,C301*%
X32938929Y-111738500D03*
X32938929Y-113813500D03*
%TD*%
D33*
%TO.C,D205*%
X19721250Y-92964000D03*
X21771250Y-92964000D03*
%TD*%
D34*
%TO.C,D414*%
X76454000Y-163192000D03*
X76454000Y-165992000D03*
%TD*%
D22*
%TO.C,C201*%
X39585500Y-106934000D03*
X42710500Y-106934000D03*
%TD*%
D35*
%TO.C,Co401*%
X67818000Y-166067000D03*
X67818000Y-163117000D03*
%TD*%
D36*
%TO.C,D105*%
X38926500Y-97028000D03*
X37781500Y-97028000D03*
%TD*%
D27*
%TO.C,D411*%
X71037200Y-131916200D03*
X67037200Y-131916200D03*
%TD*%
D20*
%TO.C,C505*%
X32744500Y-128778000D03*
X34819500Y-128778000D03*
%TD*%
D37*
%TO.C,U501*%
X28970200Y-136615200D03*
X28970200Y-135345200D03*
X28970200Y-134075200D03*
X28970200Y-132805200D03*
X33920200Y-132805200D03*
X33920200Y-134075200D03*
X33920200Y-135345200D03*
X33920200Y-136615200D03*
%TD*%
D19*
%TO.C,R207*%
X25556250Y-83820000D03*
X23556250Y-83820000D03*
%TD*%
D38*
%TO.C,C503*%
X25908000Y-135149500D03*
X25908000Y-133074500D03*
%TD*%
D19*
%TO.C,R208*%
X25556250Y-92964000D03*
X23556250Y-92964000D03*
%TD*%
D39*
%TO.C,R410*%
X61214000Y-122871800D03*
X61214000Y-128971800D03*
%TD*%
D34*
%TO.C,D413*%
X73914000Y-163192000D03*
X73914000Y-165992000D03*
%TD*%
D33*
%TO.C,D203*%
X19721250Y-86106000D03*
X21771250Y-86106000D03*
%TD*%
D40*
%TO.C,R402*%
X44901200Y-132678200D03*
X51001200Y-132678200D03*
%TD*%
D29*
%TO.C,C603*%
X70104000Y-107911500D03*
X70104000Y-111036500D03*
%TD*%
D41*
%TO.C,U601*%
X74859000Y-107696000D03*
D42*
X74859000Y-110236000D03*
X74859000Y-112776000D03*
%TD*%
D27*
%TO.C,D402*%
X42113200Y-124804200D03*
X38113200Y-124804200D03*
%TD*%
D43*
%TO.C,C604*%
X68072000Y-108611500D03*
X68072000Y-110336500D03*
%TD*%
D21*
%TO.C,R405*%
X40458200Y-132959200D03*
X40458200Y-134959200D03*
%TD*%
D38*
%TO.C,C502*%
X25654000Y-124227500D03*
X25654000Y-122152500D03*
%TD*%
D18*
%TO.C,R325*%
X24908000Y-110744000D03*
X26908000Y-110744000D03*
%TD*%
D44*
%TO.C,J801*%
X45085000Y-90682000D03*
X56515000Y-90682000D03*
D45*
X46355000Y-97032000D03*
D46*
X47625000Y-99572000D03*
X48895000Y-97032000D03*
X50165000Y-99572000D03*
X51435000Y-97032000D03*
X52705000Y-99572000D03*
X53975000Y-97032000D03*
X55245000Y-99572000D03*
D47*
X43050000Y-93732000D03*
X58550000Y-93732000D03*
%TD*%
D19*
%TO.C,R206*%
X25556250Y-86106000D03*
X23556250Y-86106000D03*
%TD*%
D44*
%TO.C,J802*%
X74803000Y-90682000D03*
X63373000Y-90682000D03*
D45*
X64643000Y-97032000D03*
D46*
X65913000Y-99572000D03*
X67183000Y-97032000D03*
X68453000Y-99572000D03*
X69723000Y-97032000D03*
X70993000Y-99572000D03*
X72263000Y-97032000D03*
X73533000Y-99572000D03*
D47*
X76838000Y-93732000D03*
X61338000Y-93732000D03*
%TD*%
D18*
%TO.C,R408*%
X71898000Y-161290000D03*
X73898000Y-161290000D03*
%TD*%
D31*
%TO.C,C506*%
X32665500Y-130810000D03*
X34390500Y-130810000D03*
%TD*%
D30*
%TO.C,Co403*%
X24257000Y-161018000D03*
X24257000Y-169418000D03*
%TD*%
D48*
%TO.C,C602*%
X68072000Y-105256500D03*
X68072000Y-103531500D03*
%TD*%
D33*
%TO.C,D201*%
X19721250Y-90678000D03*
X21771250Y-90678000D03*
%TD*%
D22*
%TO.C,C404*%
X53250700Y-134456200D03*
X56375700Y-134456200D03*
%TD*%
D34*
%TO.C,D405*%
X47504200Y-135853200D03*
X44704200Y-135853200D03*
%TD*%
D49*
%TO.C,D404*%
X57349200Y-122518200D03*
X57349200Y-126518200D03*
%TD*%
D50*
%TO.C,U304*%
X72959000Y-172544000D03*
X72009000Y-172544000D03*
X71059000Y-172544000D03*
X71059000Y-169844000D03*
X72959000Y-169844000D03*
%TD*%
D51*
%TO.C,C306*%
X72957500Y-168148000D03*
X71822500Y-168148000D03*
%TD*%
D52*
%TO.C,J101*%
X29698000Y-93965700D03*
X32238000Y-93965700D03*
X34778000Y-93965700D03*
X37318000Y-93965700D03*
X39858000Y-93965700D03*
%TD*%
D40*
%TO.C,R403*%
X44901200Y-128696100D03*
X51001200Y-128696100D03*
%TD*%
%TO.C,R404*%
X44901200Y-124714000D03*
X51001200Y-124714000D03*
%TD*%
D34*
%TO.C,D412*%
X72390000Y-125188200D03*
X72390000Y-122388200D03*
%TD*%
D30*
%TO.C,Co405*%
X36322000Y-161018000D03*
X36322000Y-169418000D03*
%TD*%
D49*
%TO.C,D403*%
X53793200Y-122518200D03*
X53793200Y-126518200D03*
%TD*%
D18*
%TO.C,R324*%
X24908000Y-112776000D03*
X26908000Y-112776000D03*
%TD*%
D19*
%TO.C,R304*%
X36986929Y-113792000D03*
X34986929Y-113792000D03*
%TD*%
D43*
%TO.C,C501*%
X25654000Y-127407500D03*
X25654000Y-129132500D03*
%TD*%
D30*
%TO.C,Co404*%
X48387000Y-161018000D03*
X48387000Y-169418000D03*
%TD*%
D53*
%TO.C,R412*%
X72390000Y-128852200D03*
X72390000Y-126852200D03*
%TD*%
D54*
%TO.C,D601*%
X56388000Y-114235500D03*
X56388000Y-115380500D03*
%TD*%
D19*
%TO.C,R407*%
X51422200Y-135853200D03*
X49422200Y-135853200D03*
%TD*%
D38*
%TO.C,C203*%
X33274000Y-105431500D03*
X33274000Y-103356500D03*
%TD*%
D55*
%TO.C,U201*%
X40046000Y-102911000D03*
X40046000Y-103561000D03*
X40046000Y-104211000D03*
X40046000Y-104861000D03*
X35646000Y-104861000D03*
X35646000Y-104211000D03*
X35646000Y-103561000D03*
X35646000Y-102911000D03*
%TD*%
D36*
%TO.C,D103*%
X34354500Y-97028000D03*
X33209500Y-97028000D03*
%TD*%
%TO.C,D104*%
X36640500Y-97028000D03*
X35495500Y-97028000D03*
%TD*%
D27*
%TO.C,D401*%
X42113200Y-128614200D03*
X38113200Y-128614200D03*
%TD*%
D56*
%TO.C,U602*%
X60946000Y-110134000D03*
X63246000Y-110134000D03*
D57*
X63246000Y-116434000D03*
D56*
X65546000Y-110134000D03*
%TD*%
D32*
%TO.C,C314*%
X26162000Y-103356500D03*
X26162000Y-105431500D03*
%TD*%
D22*
%TO.C,C403*%
X53250700Y-131916200D03*
X56375700Y-131916200D03*
%TD*%
D39*
%TO.C,R409*%
X65151000Y-122871800D03*
X65151000Y-128971800D03*
%TD*%
%TO.C,R411*%
X69088000Y-122871800D03*
X69088000Y-128971800D03*
%TD*%
D33*
%TO.C,D204*%
X19721250Y-83820000D03*
X21771250Y-83820000D03*
%TD*%
D58*
%TO.C,C304*%
X40758573Y-111760002D03*
X38683573Y-111760002D03*
%TD*%
D22*
%TO.C,C402*%
X53250700Y-129376200D03*
X56375700Y-129376200D03*
%TD*%
D24*
%TO.C,JP102*%
X58162050Y-104620800D03*
D25*
X58162050Y-105116100D03*
D26*
X58159650Y-104277900D03*
%TD*%
D29*
%TO.C,C313*%
X28448000Y-102831500D03*
X28448000Y-105956500D03*
%TD*%
D18*
%TO.C,R501*%
X36537200Y-133059200D03*
X38537200Y-133059200D03*
%TD*%
D22*
%TO.C,C406*%
X73824700Y-131826000D03*
X76949700Y-131826000D03*
%TD*%
D27*
%TO.C,D409*%
X59417200Y-135382000D03*
X63417200Y-135382000D03*
%TD*%
D33*
%TO.C,D202*%
X19721250Y-88392000D03*
X21771250Y-88392000D03*
%TD*%
D35*
%TO.C,Co402*%
X71120000Y-166067000D03*
X71120000Y-163117000D03*
%TD*%
M02*
